<svg id="Layer_1" xmlns="http://www.w3.org/2000/svg" viewBox="0 0 40.5 45"><style>.st0{opacity:.3;fill:#f2f2f2}.st1{fill:#fff}.st2,.st3{fill-rule:evenodd;clip-rule:evenodd;fill:#211f1f}.st3{fill:#e85345}.st4{fill:none;stroke:#000;stroke-width:.5;stroke-miterlimit:10}.st5{fill:#e85345}.st6{opacity:.3;fill:#fff}.st7{fill:none;stroke:#fff;stroke-miterlimit:10}.st8{opacity:.3;fill:#ccc}.st10,.st9{fill:none;stroke:#000;stroke-miterlimit:10}.st10{opacity:.3;stroke:#666}.st11,.st12{opacity:.3;fill:#666}.st12{fill:none;stroke:#333;stroke-miterlimit:10}.st13{fill:#61c6c4}.st14{fill:#fbb47a}</style><path d="M39.1 39.4c.3.3.2.8-.1 1.1l-4.2 3.2c-.1.1-.3.2-.5.2h-.1c-.2 0-.4-.1-.5-.3l-7.2-9.3-2.4 3.6c-.2.3-.5.4-.8.3-.3 0-.6-.3-.6-.5l-2.6-8c-1.2.3-2.4.5-3.6.5-.6 0-1.2 0-1.9-.1-3.8-.5-7.2-2.4-9.6-5.5-2.4-3.1-3.4-6.8-2.9-10.7.5-3.8 2.4-7.2 5.5-9.6 3.1-2.4 6.8-3.4 10.7-2.9 3.8.5 7.2 2.4 9.6 5.5 2.4 3.1 3.4 6.8 2.9 10.7-.2 1.9-.8 3.6-1.7 5.2l7.1 4.5c.3.2.4.5.4.8 0 .3-.2.6-.5.7L31.9 30l7.2 9.4zm-1.8.3l-7.4-9.6c-.2-.2-.2-.5-.1-.7.1-.2.3-.4.5-.5l3.5-1.2-16-10.2 5.8 18.1 2.1-3.1c.1-.2.4-.3.6-.4.2 0 .5.1.6.3l7.4 9.6 3-2.3zm-8.2-22.5c.4-3.4-.5-6.8-2.6-9.5-2-2.7-5.1-4.4-8.5-4.9-3.4-.4-6.8.5-9.5 2.6S4.1 10.6 3.6 14c-.4 3.4.5 6.8 2.6 9.5s5.1 4.5 8.5 4.9c1.6.2 3.3.1 4.8-.3l-.7-2.3c-.8.2-1.6.3-2.5.3-5.8 0-10.5-4.7-10.5-10.5S10.5 5.1 16.3 5.1s10.5 4.7 10.5 10.5c0 1.7-.4 3.4-1.2 5l2 1.3c.8-1.5 1.3-3 1.5-4.7zm-4.8 2.5c.7-1.3 1-2.7 1-4.1 0-4.9-4-8.9-8.9-8.9s-8.9 4-8.9 8.9 4 8.9 8.9 8.9c.7 0 1.3-.1 2-.2l-2.7-8.4c-.1-.3 0-.7.3-.9.3-.2.6-.2.9 0l7.4 4.7z"/><path class="st14" d="M26.6 7.7c2.1 2.7 3 6.1 2.6 9.5-.2 1.6-.7 3.2-1.5 4.6l-2-1.3c.8-1.5 1.2-3.2 1.2-5C26.9 9.7 22.2 5 16.4 5S5.9 9.8 5.9 15.6s4.7 10.5 10.5 10.5c.8 0 1.7-.1 2.5-.3l.7 2.3c-1.6.4-3.2.5-4.8.3-3.4-.4-6.4-2.2-8.5-4.9s-3-6.1-2.6-9.5c.4-3.4 2.2-6.4 4.9-8.5 2.7-2.1 6.1-3 9.5-2.6 3.3.4 6.4 2.1 8.5 4.8z"/><path class="st13" d="M25.3 15.6c0 1.4-.3 2.8-1 4.1l-7.5-4.8c-.3-.2-.6-.2-.9 0-.3.2-.4.6-.3.9l2.7 8.4c-.6.1-1.3.2-2 .2-4.9 0-8.9-4-8.9-8.9s4-8.9 8.9-8.9 9 4.1 9 9z"/></svg>