<svg id="Layer_2" xmlns="http://www.w3.org/2000/svg" viewBox="0 0 332 332"><style>.st0{fill:#c3c3c3}</style><path id="Configuration" class="st0" d="M300 61.3l-29-29.1c-1.8-1.8-4.6-2.1-6.8-.8L249 40.6c-7.4-4.1-15.3-7.4-23.5-9.8l-4.2-17.2c-.6-2.5-2.8-4.2-5.4-4.2h-41.1c-2.5 0-4.8 1.7-5.4 4.2l-4.2 17.2c-8.3 2.3-16.2 5.6-23.5 9.8l-15.2-9.2c-2.2-1.3-5-1-6.8.8l-29 29.1c-1.8 1.8-2.1 4.6-.8 6.8l9.2 15.2c-4.1 7.4-7.4 15.3-9.8 23.5L72.1 111c-2.5.6-4.2 2.8-4.2 5.4v41.1c0 2.5 1.7 4.8 4.2 5.4l17.2 4.2c2.3 8.3 5.6 16.2 9.8 23.5l-9.2 15.2c-1.3 2.2-1 5 .8 6.8l29.1 29.1c1.8 1.8 4.6 2.1 6.8.8l15.2-9.2c7.4 4.1 15.3 7.4 23.5 9.8l4.2 17.2c.6 2.5 2.8 4.2 5.4 4.2H216c2.5 0 4.8-1.7 5.4-4.2l4.2-17.2c8.3-2.3 16.2-5.6 23.5-9.8l15.2 9.2c2.2 1.3 5 1 6.8-.8l29.1-29.1c1.8-1.8 2.1-4.6.8-6.8l-9.2-15.2c4.1-7.4 7.4-15.3 9.8-23.5l17.2-4.2c2.5-.6 4.2-2.8 4.2-5.4v-41.1c0-2.5-1.7-4.8-4.2-5.4l-17.2-4.2c-2.4-8.3-5.6-16.2-9.8-23.5l9.2-15.2c1.2-2.3.8-5-1-6.8zm-104.6 148c-40 0-72.5-32.5-72.5-72.5s32.5-72.5 72.5-72.5 72.5 32.5 72.5 72.5c0 40.1-32.5 72.5-72.5 72.5zm0-14.9"/><path id="Iris" class="st0" d="M207.1 136.6c0 6.2-5 11.3-11.3 11.3-6.2 0-11.3-5.1-11.3-11.3 0-6.2 5.1-11.3 11.3-11.3 6.3.1 11.3 5.1 11.3 11.3zm0 0"/><path id="Eye" class="st0" d="M247.9 135c-1-1-23.6-24.7-52.1-24.7s-51.1 23.7-52 24.7c-.9.9-.9 2.4 0 3.3.9 1 23.6 24.7 52 24.7 28.5 0 51.1-23.7 52.1-24.7.9-.9.9-2.4 0-3.3zm-52.1 21.7c-11.1 0-20.1-9-20.1-20.1 0-11.1 9-20.1 20.1-20.1 11.1 0 20.1 9 20.1 20.1 0 11.1-9 20.1-20.1 20.1zm-15.9-39c-5.4 4.6-9 11.3-9 18.9 0 7.6 3.5 14.4 9 18.9-15-4.8-26.8-15-31-18.9 4.2-3.9 16-14.1 31-18.9zm31.8 37.9c5.4-4.6 9-11.3 9-18.9 0-7.6-3.5-14.4-9-18.9 15 4.8 26.8 15 31 18.9-4.2 3.9-16 14-31 18.9zm0 0"/><path transform="rotate(44.373 61.348 271.606)" class="st0" d="M44 213.9h34.7v115.4H44z"/></svg>