<svg id="Layer_1" xmlns="http://www.w3.org/2000/svg" viewBox="0 0 82.9 130"><style>.st0{fill:none;stroke:#999;stroke-miterlimit:10}.st1{fill:#fff}.st2,.st3{fill-rule:evenodd;clip-rule:evenodd;fill:#211f1f}.st3{fill:#ee5345}.st4{fill:#231f20}.st5{fill:none;stroke:#000;stroke-width:.5;stroke-miterlimit:10}.st6{opacity:.6;fill:#f1f1f2;stroke:#fff}.st7{fill:none;stroke:#000;stroke-width:.6;stroke-miterlimit:10}.st8{fill:#ee5345}.st10,.st11,.st9{fill:none;stroke:#000;stroke-miterlimit:10}.st10,.st11{fill:#fff}.st11{fill:none;stroke:#808184}.st12{fill:#b3b3b3}.st13{fill:#464b4c}.st14{fill:#ffdcb8}.st15{fill:#cb8f5e}.st16{fill:#281d12}.st17{fill:#382b19}.st18{fill:#232728}.st19{fill:#e5e5e5}.st20{fill:#141414}.st21{fill:#676b6b}.st22{fill:#725c2b}.st23{fill:#493918}.st24{fill:#190f08}.st25{fill:#753427}.st26{fill:#867878}.st27{fill:#484359}.st28{fill:#fafafa}.st29{fill:#49bedf}.st30{fill:#999}.st31,.st32{stroke-miterlimit:10}.st31{fill:none;stroke:#c7b299}.st32{stroke:#fff}.st33{opacity:.8}.st34{fill:none;stroke:#ccc;stroke-miterlimit:10}</style><ellipse class="st12" cx="46.9" cy="116.6" rx="23.2" ry="4.3"/><path class="st13" d="M40 42.6s6.4-2.4 8.5-8.4c2.1-6-2.2-11.2-9.2-12.5 0 0 .6-1.8 0-3.6 0 0 16.7 2.3 12.6 16.1C48.7 45 41.3 45.5 41.3 45.5L40 42.6z"/><path class="st14" d="M35.3 22.8s4.1-.1 4.8-1 .5-4.2 1.3-5.4 0-2-1.3-1.1-.9 2.7-1.4 2.8c0 0-1.1-1.9-.4-3.1s-1-1.3-1.6 0c-.6 1.3-.1 3.1-.1 3.1s-1.3-1.7-1.3-2.4-.8-1-1 .4c-.1 1.4 1 3.2 1 3.2s0 1.8-.3 1.9c-.9.3-2.5-.7-2.2 1.1.1.6 1.2.1 2.5.5z"/><path class="st15" d="M36.9 21.5s.5-1.7 1.9-1.4c0 0-2.3-1.1-1.9 1.4z"/><path class="st16" d="M50.1 112.9s1.7 1.9 3.3 1.7c1.5-.2 2.9 0 2.9 0v1.7s-6.4.6-7.4.2l-1-.4s-1.1.6-1.8.2c-.7-.4.3-4.3.3-4.3s2.4-.1 3.7.9z"/><path class="st17" d="M46.1 113.3s.7 2 1.7 2.6 4.3.5 4.3.5v2.1s-6.5.9-8.8-.8c0 0-1.1.6-2.3 0-.4-1.1.6-4.8.6-4.8s2.6-.6 4.5.4z"/><path class="st13" d="M55.6 70.2s-3.3 33.3-5.5 42.7c0 0-1.2.8-4 0 0 0-.7-31.3.1-35.1.8-3.8 6-11 9.4-7.6z"/><path class="st13" d="M38.8 71.2s2.8 31.2 2.4 42.1c0 0 3.8 1 5.2-.4 0 0 1-31.1 1.8-34.6.7-3.5 4.1-6.7 4.7-8.2.6-1.4-11.7-2.6-14.1 1.1z"/><path class="st18" d="M50.5 73.7s-2.1 2.1-2.6 7.9c-.6 6.4-1.2 23.8-1.4 27.1 0 0 1.4-18.5 2-26.7.3-3.9.8-6.6 2-8.3z"/><g><path class="st13" d="M29.1 46.6s10-3.7 11.5-4.2c0 0 12.9 16.7 15.7 28.6 0 0-3.5-.7-4.6-.4l-1.3-1.3V71s-10.6 2.2-12.2 2.8c-.2-.1-1.8-16.4-9.1-27.2z"/><path class="st14" d="M36.2 38.9s.8 5.2 1.1 6.2c.3 1-.8 2.1-2 1.1S33 40.9 32.7 40c-.3-.8 3.5-1.1 3.5-1.1z"/><path class="st19" d="M45.4 59.1S41.7 48 38.3 43.2l-1.5.5v.2l.4 1.7-1.2-1.3-.3-.1c-.8.3-1.6.6-2.2.8 0 0 10.3 9.8 11.9 14.1z"/><path class="st20" d="M36.8 46l.9-.5s1 .9 1.1 1.1c0 0-1.2.8-1.4.7l-.6-1.3z"/><path class="st20" d="M39.7 51.4l-2.1-4.3 1.2-.4 3.4 3.7 3.2 8.7z"/><path class="st18" d="M45.8 59.7s3.1 2.5 4.1 9.3c0-.1-1.1-5.5-4.1-9.3z"/><path class="st21" d="M33.5 45s-.4 3.2-.4 5c0 0 4.2.3 5.3.9 0 0-.7 1.7-1.3 3 0 0 7.4 5 8.3 5.2 0 0-2.8-5.3-11.9-14.1z"/><path class="st21" d="M38.3 43.2s5.9 12.4 7.1 15.9c0 0-.4-7.7-.6-8.6 0 0-1.8-.5-2.6-.8 0 0 .5-4 .2-4.4 0 0-3.3-1.6-4.1-2.1z"/><path class="st1" d="M32.7 43.1s2.7 1.2 3.2 1.2v2.6s-3-1.2-3.5-1.5c0 0 .2-1.9.3-2.3zM36.8 44l2 1.2-.5-2-1.5-1.1z"/><path class="st18" d="M41 73s6.7-2.1 8.9-2.3v-1.8s1.1.9 1.7 1.7c0 0 2.7-.3 4.2.3 0 0-3.3-.4-4.6 0l-.9-1.2v1.2c-.1.1-6.3 1.3-9.3 2.1z"/><ellipse transform="rotate(-25.565 46.473 62.928)" class="st18" cx="46.5" cy="62.9" rx=".6" ry=".8"/><ellipse transform="rotate(-17.679 47.86 66.593)" class="st18" cx="47.9" cy="66.6" rx=".6" ry=".8"/></g><g><path class="st14" d="M35.6 66.6c-.2-.8-.2-2 .4-3.2 0 0 .2.8.5 2.1.1.4.1-1.6 1.2-2.7.8-.7 1.3 0 .6 1.2-.7 1.1-.2 1.6-.2 1.6s1.2-2.2 2.3-1.7c1 .6-.4.9-1.6 2.8 0 0 2.6-1.9 2.8-.6 0 .3-.1.8-1.2 1.2-.9.3-1.7 2.1-2.6 2.5-1 .3-1.9-2.1-2.2-3.2z"/><path class="st13" d="M29.1 46.6s-12.2 6.3-9.8 15.2 16.4 8.8 18 8.1c0 0-.4-1.8-1.8-3.8 0 0-9.5 3.2-12.6-5.2-2.2-6 8.1-11.2 8.1-11.2s1-3.6-1.9-3.1z"/></g><g><path class="st14" d="M31.2 18.1S43 33 43 35.7c0 2.8-11.2 5.7-12.7 5.5-1.5-.2-5.8-6.3-7.3-7.8-1.5-1.6-4.9-4.9-5.4-6.9-.4-1.9 7.3-13 13.6-8.4z"/><path class="st22" d="M24.8 36.3s.1-6.8-5.8-8.8c0 0 6.3-1.6 5.8-2.8-.4-1.2-2-.7-2-.7s5.3-1.2 4.9-2.9c-.3-1.7-2.4-1.1-2.4-1.1s8.8-1.4 8.2-3c-.6-1.6-2.7-3-4.2-1.5 0 0 1.9-5.7-1.7-6.3s-1.9 2.5-1.9 3.5c0 0-8.3-3.1-8.8 0-.4 3.1 1.9 3 3.4 2.8 0 0-9.7 4.1-7.3 10.1 0 0-6 1.3-4.6 3.3s3.2.8 3.2.8-1.1 2.5.7 2.7c1.8.2 1.3-1.1 1.3-1.1s5 9.7 11.2 5z"/><path class="st15" d="M31.3 25s.7 2.5 1.2 2.6c.6.1 1.8-1.2 2.8 0 1 1.2-1.2 2.2-2 2.8 0 0 1.8-2.1 1.2-2.7-.5-.6-2 1.2-2.6.7-.6-.5-.6-3.4-.6-3.4z"/><path class="st23" d="M25.8 25s-1.3 2.8-.7 3.9c0 0-2-1.9.7-3.9zM30.3 21.6s1.7-.9 2.5 0c0 0-1.7-2.7-2.5 0z"/><ellipse transform="rotate(-36.109 28.607 28.38)" class="st24" cx="28.6" cy="28.4" rx=".8" ry="1.4"/><ellipse transform="rotate(-36.109 33.78 25.567)" class="st24" cx="33.8" cy="25.6" rx=".8" ry="1.4"/><path class="st14" d="M24.8 34.5s-3.6-.8-4.3 1.2c-.7 2 2.1 5.5 4.3 4 2.2-1.4 1.8-4.1 0-5.2z"/><path class="st25" d="M36 35.4c-1.6.1-2.3 0-4.6.1 2.6 2.1 3.3 1.8 6.3 1.7 1 0 1.6-3 1.6-3s-.6 1-3.3 1.2z"/></g></svg>