<svg id="Layer_2" xmlns="http://www.w3.org/2000/svg" viewBox="0 0 312 304.2"><style>.st0{fill:#bfbfbf}.st1{fill:#fff}</style><path class="st0" d="M62.5 11.8L7.7 67.2h54.9V11.8zm0 0"/><path class="st0" d="M138.3 191.8c0-51.8 42.1-94 94-94 5 0 9.8.4 14.6 1.1V4.6H75.7v75.7H0v223.8h246.9v-19.5c-4.8.7-9.6 1.1-14.6 1.1-51.8.1-94-42.1-94-93.9zm0 0"/><path class="st0" d="M232.3 116.5c-41.6 0-75.3 33.7-75.3 75.3 0 41.6 33.7 75.3 75.3 75.3 41.6 0 75.3-33.7 75.3-75.3 0-41.6-33.7-75.3-75.3-75.3zm30.3 109.4"/><path class="st1" d="M198.3 184.5c.3.1 8 1.6 9.6 10.2-2.1 2.2-3.4 5.3-3.4 8.7v.1h21.9v-.1c0-3.4-1.3-6.5-3.4-8.7 1.7-8.6 9.3-10.2 9.6-10.2.7-.1 1.2-.8 1.1-1.5-.1-.7-.8-1.2-1.5-1.1-.1 0-8.9 1.7-11.4 11-1.6-.9-3.4-1.5-5.3-1.5s-3.7.5-5.3 1.5c-2.5-9.3-11.4-11-11.5-11-.7-.1-1.4.3-1.5 1.1-.1.7.4 1.4 1.1 1.5zm0 0"/><path class="st1" d="M240.1 195.2c-.9-.3-1.9.2-2.2 1.2 0 0-2.2 7-2.6 8.5-.9.3-3.8 1.1-5.8 1.6-.1-.3-.1-.6-.2-.9h-27.5c-.1.3-.1.6-.2.9-2-.5-4.9-1.4-5.8-1.6-.5-1.5-2.6-8.5-2.6-8.5-.3-.9-1.3-1.5-2.2-1.2-.9.3-1.5 1.3-1.2 2.2l3.2 10.3 8.1 2.3c-.1.7-.1 1.5-.1 2.3 0 .9.1 1.9.1 2.8l-8.1 3.6-2.5 14.2c-.2 1 .5 1.9 1.4 2 .9.2 1.9-.5 2-1.4 0 0 1.9-10.8 2.2-12.4.8-.3 3.3-1.5 5.5-2.5 1.9 8.1 7.4 14 13.8 14 6.5 0 11.9-5.9 13.9-14 2.2 1 4.7 2.1 5.5 2.5.3 1.6 2.2 12.4 2.2 12.4.2 1 1.1 1.6 2.1 1.4 1-.2 1.6-1.1 1.4-2l-2.5-14.2-8-3.7c.1-.9.1-1.8.1-2.8 0-.8 0-1.5-.1-2.3l8.1-2.2 3.2-10.3c.2-1-.3-1.9-1.2-2.2zm0 0"/><path class="st1" d="M281.6 207.2l-40-40.3-.1-18.9-19.4-5.2-2.1 2.1 10.3 10.3-10.1 10.1-10.3-10.3-2.1 2 5.2 19.4 18.4.1-.1.1 40.3 40.5h.1c2.7 2.6 7 2.6 9.7-.1 2.9-2.7 2.9-7.1.2-9.8zm-2.6 7.2c-1.2 1.2-3.1 1.2-4.3 0-1.2-1.2-1.2-3.1 0-4.3 1.2-1.2 3.1-1.2 4.3 0 1.2 1.1 1.2 3.1 0 4.3zm0 0"/></svg>