<svg id="Layer_1" xmlns="http://www.w3.org/2000/svg" xmlns:xlink="http://www.w3.org/1999/xlink" viewBox="-693 297.8 531.7 506.2"><style>.st0,.st1{fill:none;stroke:#a1c1c6;stroke-miterlimit:10}.st1{stroke-dasharray:3.0041,3.0041}.st2{fill:#a1c1c6}.st3,.st4{fill:none;stroke:#a1c1c6;stroke-miterlimit:10;stroke-dasharray:3.0057,3.0057}.st4{stroke-dasharray:3,3}.st5{fill:#39a6e2}.st6{fill:#c7eaf2}.st7{fill:#e23737}.st8{fill:#ffbf5d}.st9{fill:#c6dce0}.st10{fill:#00addc}.st11{fill:#f29232;stroke:#f1f1f1;stroke-miterlimit:10}.st12{fill:#f2ad58}.st13{fill:#465a72}.st14{fill:#fff}.st15{fill:#ecf0f1}.st16{fill:#2c3e50}.st17{fill:#e1e6e9}.st18{clip-path:url(#SVGID_2_);fill:#ebf0f3}.st19{clip-path:url(#SVGID_4_);fill:#f15f50}.st20{fill:#ffb700}.st21{fill:#27a3d9}.st22{fill:#ef4b39}.st23{fill:#34d18d}.st24{fill:#34d1bc}.st25{clip-path:url(#SVGID_6_)}.st26{fill:url(#SVGID_7_)}.st27{fill:#fff5e3}.st28{fill:#348ad1}.st29{fill:#c2e55d}.st30{fill:#2c4257}.st31{fill:#00c4d7}.st32{fill:#ffac32}.st33{fill:#eb5a49}.st34{fill:#fffdfa}.st35{fill:#69cbcc}.st36{opacity:.1;enable-background:new}.st37{fill:#f1f2f2}.st38{fill:#3a5870}.st39{fill:#e6e7e8}.st40{font-family:&apos;GillSansMTPro-Book&apos;}.st41{font-size:11.0173px}.st42{font-size:1.9722px}.st43{opacity:.85;fill:#c6c6c6;enable-background:new}.st44{fill:#d1d3d4}.st45{fill:#69bbb6}.st46{fill:#a7a9ac}.st47{fill:#5a6c75}.st48{opacity:.5;fill:#fff;enable-background:new}.st49{fill:#64798a}.st50{fill:#ff6e40}.st51{fill:#dd2c00}.st52,.st53{fill:none;stroke:#e94150;stroke-width:3;stroke-linecap:round;stroke-miterlimit:10}.st53{stroke:#fff;stroke-linejoin:round}.st54{fill:#1f1523}.st55{fill:#d9d7d9}.st56{fill:#3f3543}.st57{fill:#ffed99}</style><g id="Design_1_"><path class="st0" d="M-322.5 378.9l1.2.9"/><path class="st1" d="M-318.9 381.6c82.5 62.8 103.6 179.6 46.1 267.8-60.3 92.3-183.9 118.2-276.2 58-90-58.8-116.9-178-62.2-269.4"/><path class="st0" d="M-610.4 436.7c.3-.4.5-.9.8-1.3"/><path class="st2" d="M-324.8 385.8l-5.9-12.6 13.9 1.2z"/><circle class="st2" cx="-609.7" cy="435.7" r="5.3"/><path class="st0" d="M-595.8 615.5c-.2-.5-.4-.9-.6-1.4"/><path class="st3" d="M-597.8 611.4c-36.7-81.2-5.5-178.4 73.8-222.5 81.2-45.2 183.1-18 231.5 60.3"/><path class="st0" d="M-291.8 450.5c.3.4.5.9.8 1.3"/><path class="st2" d="M-590.5 610.5l-.7 14-11.7-7.7z"/><circle class="st2" cx="-291.2" cy="451.6" r="5.3"/><path class="st4" d="M-241.3 435.6c56.8 107.6 17.4 241.4-89.5 300.8-105.4 58.6-237.6 23.3-300.1-78.4"/><circle class="st2" cx="-241.3" cy="435.9" r="5.3"/><path class="st2" d="M-623.9 656.2l-12.1-6.8.1 13.9z"/><path class="st5" d="M-578.8 498.5c0 23.8-19.3 43.1-43.1 43.1s-43.1-19.3-43.1-43.1 19.3-43.1 43.1-43.1c23.8.1 43.1 19.3 43.1 43.1z"/><path class="st6" d="M-399.1 723c-.8-.2-1.3-.4-1.9-.9-1.6-1.1-3.4-2.5-4.7-4.3-1.4-1.8-2.1-3.9-2.1-6.1 0-1.7.6-3.2 1.7-4 .5-.4 1.1-.6 1.8-.7.4 0 .7-.1 1 0 .5 0 .9.1 1.4.2 1.2.3 2.1 1.1 3.2 1.9l.2.1.2-.1c1.1-.8 2.1-1.5 3.3-1.8.4-.1.9-.2 1.4-.1.3 0 .6 0 1 .1.7.1 1.3.4 1.7.8 1 .9 1.5 2.4 1.4 4.1-.2 2.3-1 4.3-2.5 6.1-1.4 1.7-3.3 3-5 4.1-.8.2-1.3.5-2.1.6zM-506.1 344.2l9.7 9.7v12.8h-6.4v-9.6h-6.5v9.6h-6.4v-12.8z"/><path class="st6" d="M-493.2 355.3c-.4 0-.7-.1-1-.4l-11.9-11.9-11.9 11.9c-.6.6-1.5.6-2 0-.6-.6-.6-1.5 0-2l12.9-12.9c.6-.6 1.5-.6 2 0l12.9 12.8c.6.6.6 1.5 0 2-.3.4-.6.5-1 .5zM-199.5 578.6c-5.7 0-10.4 4.6-10.4 10.4 0 2.7 1 5.1 2.7 7l-6.2 6.2c-.2.2-.4.6-.4.9s.1.6.4.9c.5.5 1.3.5 1.8 0l6.4-6.4c1.6 1.1 3.6 1.7 5.7 1.7 5.7 0 10.4-4.6 10.4-10.4 0-5.7-4.7-10.3-10.4-10.3zm0 1.8c4.7 0 8.5 3.8 8.5 8.5s-3.8 8.5-8.5 8.5-8.5-3.8-8.5-8.5 3.8-8.5 8.5-8.5zM-319.3 649.1c.4 1.9 1.8 3.2 3.3 3.2 1.6 0 3-1.4 3.3-3.3.2-.1.3-.4.4-.8 0-.5-.1-.9-.3-.9h-.1c-.3-1.5-1.5-2.7-3.1-2.8.3-.2.6-.2.6-.2-.4 0-.7.1-1 .2-.2-.1-.5-.1-.8-.1 0 0 .2 0 .5.2h-.1c-.3 0-.7 0-1.2.2 0 0 .3-.1.6 0-1.1.4-2 1.4-2.3 2.6h-.2c-.2 0-.4.4-.3.9.2.4.5.8.7.8zM-305.7 656.7c-.5-.5-1.3-.4-1.8.1l-1.6 1.8-1-2.6-.5-1.4c-.1-.3-.3-.6-.6-.7-.5-.3-1.1-.5-1.8-.5h-1c.1.3.1.7.1 1.1 0 1.3-.4 2.4-.9 3.1l-.4-2.6c0-.1 0-.1-.1-.1l.1-.1.4-1.3c0-.1 0-.1-.1-.1h-2.3c-.1 0-.1 0-.1.1l.5 1.3s0 .1.1.1l-.1.1-.5 2.6c-.6-.7-.9-1.8-.9-3.1 0-.4 0-.8.1-1.1h-.9c-.7 0-1.3.2-1.8.5-.3.2-.5.4-.6.7l-.5 1.4-3.2 8.6c-.3.7.2 1.5 1 1.7s1.7-.2 2-.9l2-5.2V679c0 1.1.8 2 1.8 2s1.8-.9 1.8-2v-12.5h.9V679c0 1.1.8 2 1.8 2s1.8-.9 1.8-2v-15.6-3.5l.7 1.8c.2.4.2.5.4.7.4.6 1.3.4 1.8-.1l.9-1 2.5-2.8c.6-.5.5-1.3 0-1.8zM-641.5 627.8c.5-.6.7-1.3.7-2.1 0-2-1.7-3.5-3.7-3.6-1.1 0-2.1.4-2.8 1.1-1.2-2.7-4-4.7-7.4-4.7-3.6 0-6.6 2.2-7.6 5.3-.4-.1-.7-.1-1.1-.1-3.6 0-6.5 2.7-6.5 6.1v.7c-1.7.6-3 2.1-3 3.9 0 1.4.8 2.6 1.9 3.4l32.7.1c1.2-1.1 2-2.6 2-4.3.2-2.9-2.2-5.4-5.2-5.8zM-243.3 413.3c1.9-1.5 2.9-3.2 2.9-5.3 0-2.1-1-3.8-2.9-5.3s-4.2-2.2-6.9-2.2-5 .7-6.9 2.2c-1.9 1.4-2.9 3.2-2.9 5.3 0 2 .9 3.7 2.7 5.1v.5c0 1.1-.3 1.9-.9 2.6s-1.3 1.1-2.2 1.2c.5.9 1.2 1.3 1.9 1.3 1.2 0 2.2-.4 3.1-1.1.9-.7 1.4-1.6 1.4-2.7 1.2.4 2.4.6 3.7.6 2.8 0 5.1-.7 7-2.2z"/><path class="st6" d="M-238.6 421c-.4-.5-.6-1.1-.6-1.8v-.3c1.2-1 1.8-2.2 1.8-3.5 0-1.4-.7-2.6-2-3.6-.5-.4-1-.7-1.5-.9 0 0-.1.1-.1.2-.5.9-1.2 1.7-2.2 2.5-1 .7-2.1 1.3-3.2 1.7-1.2.4-2.5.6-3.8.6h-.6c.1 1.3.8 2.4 2 3.3 1.3 1 2.9 1.5 4.8 1.5.9 0 1.8-.1 2.6-.4.1.7.4 1.4 1 1.9s1.3.8 2.1.8c.5 0 1-.3 1.3-.9-.7-.4-1.2-.7-1.6-1.1zM-233.5 411.3c-.6-.7-.9-1.5-.9-2.6v-.5c1.8-1.4 2.7-3.1 2.7-5.1 0-2.1-1-3.8-2.9-5.3-1.9-1.4-4.2-2.2-6.9-2.2s-5 .7-6.9 2.2c-1 .8-1.7 1.6-2.2 2.5h.4c1.4 0 2.7.2 3.8.6 1.2.4 2.3.9 3.2 1.7 1 .7 1.7 1.6 2.2 2.5.5.9.7 1.9.7 3 0 .9-.2 1.7-.5 2.5 1-.1 2-.3 2.9-.6.1 1.1.5 2 1.4 2.7s1.9 1.1 3.1 1.1c.8 0 1.4-.4 1.9-1.3-.7-.1-1.5-.5-2-1.2z"/><circle class="st7" cx="-253.9" cy="643.1" r="43.1"/><circle class="st8" cx="-546.6" cy="727.3" r="32.1"/><circle class="st9" cx="-252.8" cy="477.4" r="21.5"/><path class="st10" d="M-293.1 540.8h38.8v38.7h-38.8z"/><path class="st11" d="M-293.1 540.8l38.8 38.7-38.8-38.7zM-254.3 540.8l-38.8 38.7 38.8-38.7z"/><path class="st8" d="M-262.5 563.9c0-1.4-1-2.1-2.4-2.1h-.5c-1.4 0-3.1.6-3.1 2.1v6.2-9.6c0-1.4-1.1-2.7-2.5-2.7h-.5c-1.4 0-2 1.2-2 2.7v9.6V558c0-1.4-2.1-3.1-3.6-3.1h-.5c-1.4 0-1.9 1.7-1.9 3.1v10.8h-1v-7.5c0-1.4-1.2-3.5-2.6-3.5h-.5c-1.4 0-1.9 2.1-1.9 3.5v16.2c-2-2.4-5.7-2.8-8.1-1l3.9 5.8c4.1 6.1 13.2 8.4 14.3 8.4h2.1c6 0 10.7-4.4 10.7-10.4v-16.4h.1z"/><path class="st12" d="M-265 561.8h-.5c-1.4 0-3.1.5-3.1 1.9v-3.4c0-1.4-1.1-2.5-2.5-2.5h-.5c-1.4 0-2 1.1-2 2.5v-2.5c0-1.1-1-2-2-2.4v36s-.1-.6.1-.6h2.1c6 0 10.7-4.6 10.7-10.6v-16.5c.2-1.4-.8-1.9-2.3-1.9z"/><g><path class="st13" d="M-603.7 525.6c0 .8-.7 1.5-1.5 1.5h-37.7c-.8 0-1.5-.7-1.5-1.5v-48.1c0-.8.7-1.5 1.5-1.5h37.7c.8 0 1.5.7 1.5 1.5v48.1z"/><path class="st14" d="M-641 480.7h33.9v41.5H-641z"/><path class="st15" d="M-623.5 478.3c0 .4-.3.6-.6.6-.4 0-.6-.3-.6-.6s.3-.6.6-.6c.3-.1.6.2.6.6zM-622.8 524.5c0 .7-.6 1.3-1.3 1.3-.7 0-1.3-.6-1.3-1.3 0-.7.6-1.3 1.3-1.3.7 0 1.3.6 1.3 1.3z"/><path class="st16" d="M-623.5 524.5c0 .4-.3.6-.6.6-.4 0-.6-.3-.6-.6s.3-.6.6-.6c.3-.1.6.2.6.6z"/></g><g><path id="SVGID_60_" class="st17" d="M-456.9 759.5h-2.1c-8.3 0-15.1-6.7-15.1-15.1v-16.3c0-8.3 6.8-15.1 15.1-15.1h2.1c8.3 0 15.1 6.8 15.1 15.1v16.3c0 8.4-6.8 15.1-15.1 15.1z"/><defs><path id="SVGID_1_" d="M-456.9 759.5h-2.1c-8.3 0-15.1-6.7-15.1-15.1v-16.3c0-8.3 6.8-15.1 15.1-15.1h2.1c8.3 0 15.1 6.8 15.1 15.1v16.3c0 8.4-6.8 15.1-15.1 15.1z"/></defs><clipPath id="SVGID_2_"><use xlink:href="#SVGID_1_" overflow="visible"/></clipPath><path class="st18" d="M-471.3 753.6h-3.4c-13.5 0-24.5-10.6-24.5-23.7v-25.6c0-13.1 11-23.7 24.5-23.7h3.4c13.5 0 24.5 10.6 24.5 23.7v25.6c0 13-11 23.7-24.5 23.7z"/><g><defs><path id="SVGID_3_" d="M-456.9 759.5h-2.1c-8.3 0-15.1-6.7-15.1-15.1v-16.3c0-8.3 6.8-15.1 15.1-15.1h2.1c8.3 0 15.1 6.8 15.1 15.1v16.3c0 8.4-6.8 15.1-15.1 15.1z"/></defs><clipPath id="SVGID_4_"><use xlink:href="#SVGID_3_" overflow="visible"/></clipPath><path class="st19" d="M-475.1 713.1h17.6v13.5h-17.6z"/></g><g><path class="st8" d="M-454.1 755.7c0 1.5-2 1.8-3.5 1.8s-3.5-.3-3.5-1.8l.8-20c0-1.5 1.2-2.7 2.6-2.7 1.5 0 2.7 1.2 2.7 2.7l.9 20zM-455.8 770.8c.5.6-.9 2.1-2.1 3-1.1.9-2.8 2-3.4 1.4l-6.5-9.4c-.5-.7-4-3.6-2.8-4.5 0 0 .2-.3.9-.7 1.5-1.3 4.5.1 5 .7l8.9 9.5zM-446.5 756.6c0 .7-2 .9-3.5.9s-3.5-.2-3.5-.9l1.3-10c0-.7.8-1.3 2.2-1.3 1.5 0 2.2.6 2.2 1.3l1.3 10z"/><path class="st20" d="M-438.9 756.8c0 .5-2 .7-3.5.7s-3.5-.1-3.5-.7l1.3-7.3c0-.5.8-1 2.2-1 1.5 0 2.2.4 2.2 1l1.3 7.3zM-432.7 757.1c0 .3-1.5.4-3 .4s-3.1-.1-3.1-.4l1.3-4.5c.2-.3.3-.6 1.8-.6s1.6.3 1.8.6l1.2 4.5z"/><path class="st8" d="M-432.6 774.6c0 3-2.5 5.4-5.7 5.4h-17.2c-3.1 0-5.7-2.4-5.7-5.4v-21.2c0-3 2.5 1.8 5.7 1.8h10.5c1.4 0 3.9.6 6.3.5 2.9-.1 5.7-.6 6.1 1v17.9z"/><g><path class="st12" d="M-432.7 757.1v-.3c0-.2-.1-.3-.2-.4l-1-3.8c-.2-.3-.3-.6-1.8-.6s-1.6.3-1.8.6l-.9 3.1h-.8l-1.1-6.2c0-.5-.8-1-2.2-1-1.5 0-2.2.4-2.2 1l-1 5.7h-.8V780h8.2c3.1 0 5.7-2.4 5.7-5.4l-.1-17.5z"/></g><path class="st14" d="M-433.5 778.9c0 .7-.2 1.2-1.5 1.2h-23.8c-1.3 0-1.1-.6-1.1-1.2 0-.7-.2-1.3 1.1-1.3h23.8c1.2 0 1.5.6 1.5 1.3z"/><path class="st21" d="M-433.5 780.5c0 1.7-.2 5.7-1.5 5.7h-23.8c-1.3 0-1.1-4-1.1-5.7 0-1.7-.2-.6 1.1-.6h23.8c1.2 0 1.5-1.1 1.5.6z"/></g></g><g><path class="st22" d="M-521.5 440.4c0 9.5-7.7 17.1-17.1 17.1-9.5 0-17.1-7.7-17.1-17.1 0-9.5 7.7-17.1 17.1-17.1 9.4-.1 17.1 7.6 17.1 17.1z"/><path class="st14" d="M-529.5 440.4l-7.2 3.4-7.1 3.5v-13.9l7.1 3.5z"/></g><g><path class="st23" d="M-549.3 641.4c0 10.9-8.9 19.8-19.8 19.8s-19.8-8.9-19.8-19.8 8.9-19.8 19.8-19.8 19.8 8.8 19.8 19.8z"/><path class="st24" d="M-569.1 663.9c-12.4 0-22.5-10.1-22.5-22.5s10.1-22.5 22.5-22.5 22.5 10.1 22.5 22.5-10.1 22.5-22.5 22.5zm0-43.9c-11.8 0-21.3 9.6-21.3 21.3 0 11.8 9.6 21.3 21.3 21.3 11.8 0 21.3-9.6 21.3-21.3s-9.6-21.3-21.3-21.3z"/><defs><path id="SVGID_5_" d="M-549.3 641.4c0 10.9-8.9 19.8-19.8 19.8s-19.8-8.9-19.8-19.8 8.9-19.8 19.8-19.8 19.8 8.8 19.8 19.8z"/></defs><clipPath id="SVGID_6_"><use xlink:href="#SVGID_5_" overflow="visible"/></clipPath><g class="st25"><linearGradient id="SVGID_7_" gradientUnits="userSpaceOnUse" x1="-575.3" y1="449.3" x2="-563.462" y2="449.3" gradientTransform="matrix(1 0 0 -1 0 1103.6)"><stop offset=".51" stop-color="#fffce3"/><stop offset=".51" stop-color="#fffce3"/></linearGradient><path class="st26" d="M-563.5 652l-2.2 7.1h-8.4l-1.2-7.1 4.3-2.5h4z"/><path class="st27" d="M-561.9 639.4c0 4-3.3 10.8-7.3 10.8s-7.3-6.8-7.3-10.8 3.3-7.3 7.3-7.3 7.3 3.3 7.3 7.3z"/><path class="st13" d="M-576 641.6s-4.5-1.9-3.3-6.7 4.7-4.8 4.7-4.8c1-2.2 3.2-3.5 3.7-3.5.7 2.4 2.2 2.4 2.9 2.6.3.1.7 0 1-.2 1.8-1.1 3.4.4 3.4.4s5.2.3 4.3 6.6c-.9 6.3-1.3 3.7-2.4 4.7-1.1 1-2.7-4.4-3-4.4-1.3 3.3-6.9.3-6.9.6-3.5 1.1-4.4 4.7-4.4 4.7z"/><path class="st28" d="M-563.9 665.7h-10.2c-2.9 0-5.2-2.3-5.2-5.2v-4c0-2.9 2.3-5.2 5.2-5.2l5 5.5 4.7-5.5h.5c2.9 0 5.2 2.3 5.2 5.2v4c0 2.9-2.3 5.2-5.2 5.2z"/><path class="st14" d="M-569.3 660l-7.2-8.2 1-.4 6.1 6.8zM-569.3 660v-1.8l6.2-6.8 1.2.3z"/></g></g><circle class="st29" cx="-434.7" cy="363.9" r="43.1"/><g><path class="st30" d="M-580.8 535.7h15v53.5h-15z"/><path class="st31" d="M-575.7 538.8h3.9v23.4h-3.9z"/><path class="st32" d="M-580.8 564.6h14.9v8.1h-14.9zM-580.8 575.3h14.9v8.1h-14.9z"/><path class="st33" d="M-565.8 544.9h7.9v44.4h-7.9z"/><path class="st34" d="M-563.5 549h3.1v36.1h-3.1z"/><path class="st35" d="M-558 539.5h8.7v49.7h-8.7z"/><path class="st14" d="M-556 585.3c0 1 1.1 1.8 2.4 1.8 1.3 0 2.4-.8 2.4-1.8s-1.1-1.8-2.4-1.8c-1.3 0-2.4.8-2.4 1.8M-556 580.6c0 1 1.1 1.8 2.4 1.8 1.3 0 2.4-.8 2.4-1.8s-1.1-1.8-2.4-1.8c-1.3-.1-2.4.8-2.4 1.8M-554.3 539.5h1.4v35.3h-1.4z"/><path class="st36" d="M-565.8 535.7l-15 53.6v-53.6zM-557.9 544.9l-7.9 44.4v-44.4z"/><path class="st36" d="M-549.2 539.5l-8.8 49.8v-49.8z"/></g><g id="idea_2_"><path class="st6" d="M-340.3 360.5c-.2 0-.4-.2-.4-.4 0-2.5-2.1-4.6-4.6-4.6-.2 0-.4-.2-.4-.4s.2-.4.4-.4c3 0 5.4 2.4 5.4 5.4 0 .2-.2.4-.4.4zM-343.8 370.9l-.6-.1 1.2-7.5.7.1zM-346.9 370.9l-1.2-7.5.6-.1 1.2 7.5z"/><path class="st6" d="M-342.9 364.4c-.3 0-.4-.3-.5-.4 0-.1-.1-.2-.1-.2l-.1.2c-.1.2-.2.4-.5.4s-.4-.3-.4-.4c0-.1-.1-.2-.1-.2l-.1.2c-.1.2-.2.4-.5.4s-.4-.3-.5-.4c0-.1-.1-.2-.1-.2l-.1.2c-.1.2-.2.4-.5.4s-.4-.3-.4-.4c0-.1-.1-.2-.1-.2l-.1.2c-.1.2-.2.4-.5.4v-.3l.1-.2c.1-.2.2-.4.5-.4s.4.3.5.4c0 .1.1.2.1.2l.1-.2c.1-.2.2-.4.5-.4s.4.3.5.4c0 .1.1.2.1.2l.1-.2c.1-.2.2-.4.5-.4s.4.3.4.4.1.2.1.2l.1-.2c.1-.2.2-.4.5-.4s.4.3.5.4c0 .1.1.2.1.2v.3h-.1zM-345.3 351c-.2 0-.4-.2-.4-.4v-4.3c0-.2.2-.4.4-.4s.4.2.4.4v4.3c0 .2-.2.4-.4.4zM-340.4 352.3c-.1 0-.1 0-.2-.1-.2-.1-.3-.4-.2-.6l2.2-3.7c.1-.2.4-.3.6-.2s.3.4.1.6l-2.2 3.7c0 .2-.2.3-.3.3zM-336.8 355.9c-.1 0-.3-.1-.4-.2-.1-.2 0-.4.2-.6l3.7-2.2c.2-.1.4 0 .6.2.1.2 0 .5-.2.6l-3.7 2.2h-.2zM-331 360.9h-4.5c-.2 0-.4-.2-.4-.4s.2-.4.4-.4h4.5c.2 0 .4.2.4.4s-.2.4-.4.4zM-333 368c-.1 0-.1 0-.2-.1l-3.7-2.2c-.2-.1-.3-.4-.2-.6.1-.2.4-.3.6-.1l3.7 2.2c.2.1.3.4.1.6 0 .1-.2.2-.3.2zM-350.3 352.3c-.1 0-.3-.1-.4-.2l-2.2-3.7c-.1-.2 0-.4.2-.6.2-.1.4 0 .6.2l2.2 3.7c.1.2 0 .5-.1.6h-.3zM-353.9 355.9c-.1 0-.1 0-.2-.1l-3.7-2.2c-.2-.1-.3-.4-.2-.6.1-.2.4-.3.6-.2l3.7 2.2c.2.1.3.4.2.6-.1.3-.2.3-.4.3zM-355.2 360.9h-4.3c-.2 0-.4-.2-.4-.4s.2-.4.4-.4h4.3c.2 0 .4.2.4.4s-.2.4-.4.4z"/><g><path class="st6" d="M-357.6 368c-.1 0-.3-.1-.4-.2-.1-.2 0-.5.2-.6l3.7-2.2c.2-.1.4 0 .6.2.1.2 0 .4-.1.6l-3.7 2.2c-.2-.1-.3 0-.3 0z"/></g><g><path class="st6" d="M-341.7 371h-7.3c-.4 0-.7-.3-.7-.7v-.1c0-.5 0-2-.5-2.7-2.9-3.8-3-7.4-3-7.5 0-4.3 3.5-7.9 7.9-7.9 4.3 0 7.9 3.5 7.9 7.9 0 0-.1 3.7-3 7.5-.5.7-.5 2.2-.5 2.6v.1c-.1.5-.4.8-.8.8zm-7.3-1.4c-.4 0-.6.3-.7.6.1-.3.4-.6.7-.6zm7.4 0c.1 0 .2.1.3.1-.1 0-.2 0-.3-.1zm-6.7 0h5.9v-.6c.1-1 .4-1.8.8-2.3 2.6-3.4 2.7-6.6 2.7-6.6 0-3.6-2.9-6.5-6.5-6.5s-6.5 2.9-6.5 6.5c0 0 .1 3.2 2.7 6.6.4.5.7 1.3.8 2.3.1.1.1.3.1.6zM-341.9 372.5h-6.8c-.4 0-.7-.3-.7-.7s.3-.7.7-.7h6.8c.4 0 .7.3.7.7 0 .4-.3.7-.7.7zM-342.4 373.9h-5.8c-.4 0-.7-.3-.7-.7s.3-.7.7-.7h5.8c.4 0 .7.3.7.7 0 .4-.3.7-.7.7zM-343.3 375.4h-4.1c-.4 0-.7-.3-.7-.7s.3-.7.7-.7h4.1c.4 0 .7.3.7.7 0 .4-.3.7-.7.7z"/></g></g><g><path class="st6" d="M-590.3 388.9c-3 0-5.4 6.6-5.4 14.7s2.4 14.7 5.4 14.7 5.4-6.6 5.4-14.7-2.4-14.7-5.4-14.7zm0 27c-2.5 0-4.5-5.5-4.5-12.3 0-6.8 2-12.3 4.5-12.3s4.5 5.5 4.5 12.3c0 6.8-2 12.3-4.5 12.3z"/><path class="st6" d="M-575.6 403.6c0-3-6.6-5.4-14.7-5.4s-14.7 2.4-14.7 5.4 6.6 5.4 14.7 5.4 14.7-2.4 14.7-5.4zm-27 0c0-2.5 5.5-4.5 12.3-4.5s12.3 2 12.3 4.5-5.5 4.5-12.3 4.5-12.3-2-12.3-4.5z"/><path class="st6" d="M-579.9 393.2c-2.1-2.1-8.5.8-14.2 6.6-5.7 5.7-8.7 12.1-6.6 14.2 2.1 2.1 8.5-.8 14.2-6.6 5.8-5.7 8.7-12.1 6.6-14.2zm-19.1 19.1c-1.8-1.8.7-7.1 5.5-11.9 4.8-4.8 10.1-7.3 11.9-5.5 1.8 1.8-.7 7.1-5.5 11.9-4.8 4.8-10.1 7.2-11.9 5.5z"/><path class="st6" d="M-579.9 414c2.1-2.1-.8-8.5-6.6-14.2-5.7-5.7-12.1-8.7-14.2-6.6-2.1 2.1.8 8.5 6.6 14.2 5.7 5.7 12.1 8.7 14.2 6.6zm-19.1-19.1c1.8-1.8 7.1.7 11.9 5.5 4.8 4.8 7.3 10.1 5.5 11.9-1.8 1.8-7.1-.7-11.9-5.5s-7.2-10.1-5.5-11.9z"/><path class="st6" d="M-588 403.6c0-1.3-1-2.3-2.3-2.3s-2.3 1-2.3 2.3c0 1.2 1 2.3 2.3 2.3 1.3-.1 2.3-1.1 2.3-2.3z"/></g><g><path class="st6" d="M-664.9 451.6v-10.4l-5.8 5.4-.5-.5v5.5zM-657.4 451.6v-8.7l-4.6-4.8-1.8 1.6v11.9zM-649.9 451.6v-11.4l-5.4 4.8-1-1v7.6zM-642.5 451.6v-17.9l-6.3 5.6v12.3z"/><path class="st6" d="M-642.6 427.7l-12.5 10.8-5.8-5.7c-.3-.3-.6-.4-1-.4s-.7.1-1 .4l-8.3 8v2.8l.5.5 8.8-8.5 5.8 5.6c.5.5 1.4.5 1.9.1l11.8-10.1v-3.3l-.2-.2z"/></g><g><path class="st6" d="M-193.8 492.5l.3-2.8h-6.4l.2 2.8zM-192.6 488.8h5.8l1.3-4.8h-6.7zM-206.5 489.7l.7 2.8h5.2l-.2-2.8zM-187 489.7h-5.6l-.3 2.8h5.2zM-182.4 475.5c-.3 0-.5.1-.7.2l-.3.3-3.7 3.7c-.1.1-.2.3-.3.4h-4.5l-.3 3h6.8l.5-1.9c1-1 1.9-2 2.9-2.9h2.3c1.8 0 1.8-2.8 0-2.8h-2.7zM-200.5 483.1h7.5l.2-3h-7.9zM-200.9 488.8l-.4-4.8h-6.6l1.2 4.8zM-209 480.1l.8 3h6.8l-.2-3zM-193.1 484h-7.3l.4 4.8h6.5zM-203 493.3c1.3 0 2.4 1.1 2.4 2.4 0 1.3-1.1 2.4-2.4 2.4s-2.4-1.1-2.4-2.4c0-1.4 1-2.4 2.4-2.4M-190.4 493.3c1.3 0 2.4 1.1 2.4 2.4 0 1.3-1.1 2.4-2.4 2.4s-2.4-1.1-2.4-2.4c0-1.4 1-2.4 2.4-2.4"/></g><path class="st37" d="M-235.6 653.8c.7 0 1.2-.2 1.5-.8l8.8-19.8c.2-.5.2-1.2-.1-1.7-.3-.5-.8-.7-1.4-.7h-26.6c-.1 0-.3-.1-.4-.1s-.1.1-.2.1h-7.7c-.1 0-.3-.1-.4 0h-8.1l-7.9-6.3c-.7-.6-1.8-.7-2.3 0-.6.7-.4 1.9.3 2.4l8.5 6.8 6 19.1c.1.3.3.6.5.8l-.3 6.8c-1.6.3-2.8 1.7-2.8 3.4 0 1.9 1.5 3.1 3.4 3.1 1.3 0 2.4-1.1 3-2.1h22.1c.6 1 1.7 2.1 3 2.1 1.9 0 3.4-1.4 3.4-3.3s-1.5-3.3-3.4-3.3c-1.8 0-3.3 1.4-3.4 3.4h-21.3c-.1-1-1-2.8-2.2-3.3l.3-6.7h27.7v.1zm2.2-11h-2.6l1.4-3h2.8l-1.6 3zm-1.6 4h-2.4l.7-2h2.5l-.8 2zm-9.5 5l.2-2h4.4l-.7 2h-3.9zm-1.1-7l-.2 2h-5.4l-.2-2h5.8zm-6-2l-.4-3h7.1l-.4 3h-6.3zm-1.2 4h-5.8l-.3-2h5.9l.2 2zm.2 3l.2 2h-5.6l-.3-2h5.7zm1.6 0h5l-.2 2h-4.6l-.2-2zm6.9-3l.2-2h5.4l-.7 2h-4.9zm6.4-4h-6l.4-3h7l-1.4 3zm-5.4-5l.4-5h8.6l-1.4 5h-7.6zm-1.7 0h-7.5l-.4-5h8.3l-.4 5zm-9.2 0h-6.3l-.6-5h6.5l.4 5zm.3 2l.4 3h-6l-.6-3h6.2zm-7.3 3h-4.2l-1.2-3h4.8l.6 3zm.3 2l.3 2h-3.7l-.6-2h4zm-2.8 5h3.5l.3 2h-3.2l-.6-2zm24.7 2l.7-2h2.3l-.8 2h-2.2zm7.9-14h-2.9l1.4-5h3.1l-1.6 5zm-31.7-5l.6 5h-5l-1.2-5h5.6zM-266 471v13.2c0 1.4 1.1 2.5 2.6 2.5h21.6c1.4 0 2.5-1.1 2.5-2.5V471c0-1.4-1.1-2.6-2.5-2.6h-21.6c-1.5.1-2.6 1.2-2.6 2.6zm1.6 13.2V471l8.4 7-8.4 6.2c0 .1 0 .1 0 0zm23.4.2l-8.4-6.3 8.4-7V484.4zm-22-14.3h20.7l-9.5 7.9c-.4.4-1.2.4-1.6 0l-9.6-7.9zm20.3 15.1h-20.2l8.1-6.1.2.1c.5.4 1.2.6 1.9.6s1.3-.2 1.9-.6l.1-.1 8 6.1z"/><g><path class="st30" d="M-525.9 737.8c0 1.1-.9 2-2 2H-566c-1.1 0-2-.9-2-2v-19.5c0-1.1.9-2 2-2h38.1c1.1 0 2 .9 2 2v19.5z"/><path class="st38" d="M-567 736c15.1 0 28.4-7.8 36.1-19.6h-35c-1.1 0-2 .9-2 2v17.7c.3-.1.6-.1.9-.1z"/><text transform="matrix(.9397 0 0 1 -564.897 728.068)" class="st39 st40 st41">VISA</text><text transform="matrix(.9397 0 0 1 -554.954 733.41)" class="st39 st40 st42">Lorem ipsum dolor sit amet</text><text transform="matrix(.9397 0 0 1 -554.954 735.81)" class="st39 st40 st42">5656 343 787 888</text></g><g><g id="Shield_1_"><path class="st43" d="M-430.1 649.8c-25.4-12.5-46.1-33.3-59.7-59.9-12.2-24-18.8-52.2-18.8-81.6v-1.8l1.9-.1c30.7-2.5 33.3-28.6 33.3-28.9l.2-1.7h87.7l.2 1.7c.1 1.1 2.4 26.4 33 28.9l1.6.1v1.8c0 29.4-6.2 57.6-18.5 81.6-13.6 26.7-34.1 47.4-59.5 59.9l-.8.4-.6-.4z"/><path class="st44" d="M-387.2 477.6h-84s-2.3 28.1-35.1 30.8c0 55.3 23.5 113.2 77.1 139.7 53.6-26.5 77.1-84.4 77.1-139.7-32.8-2.7-35.1-30.8-35.1-30.8z"/><path class="st39" d="M-429.5 476.8h-41.7s-2.5 28.5-35.2 31.2c0 55.3 24 113.6 77 140.1V476.8h-.1z"/><path class="st45" d="M-429.2 638.2C-451 626.4-468 608.6-480 585c-10.4-20.4-16.3-44.5-17.3-69.4 20.1-4.5 29.6-17.8 33.2-29.8h69.9c3.6 12 13.2 25.4 33.2 29.8-1 24.9-6.9 48.8-17.3 69.2-12.1 23.6-29.2 41.6-50.9 53.4z"/><path class="st45" d="M-429.5 485.8h-34.6c-3.6 12-13.2 25.4-33.2 29.8 1 24.9 6.8 48.9 17.2 69.3 12 23.5 29.7 41.5 50.7 53.2V485.8h-.1z"/></g><circle class="st46" cx="-467.4" cy="482.4" r="2.1"/><circle class="st46" cx="-390.4" cy="482.4" r="2.1"/><circle class="st46" cx="-357.3" cy="512.9" r="2.1"/><circle class="st46" cx="-501.9" cy="512.9" r="2.1"/><circle class="st46" cx="-428.9" cy="642.9" r="2.1"/><circle class="st46" cx="-372.5" cy="583.2" r="2.1"/><circle class="st46" cx="-485.9" cy="583.2" r="2.1"/></g><g><path class="st47" d="M-376.9 636.3l-9.8 5.5-29.3-52.7 9.8-5.5z"/><path class="st47" d="M-381.7 639l-5 2.8-29.3-52.7 4.9-2.8z"/><path class="st48" d="M-409.4 591.5c-19.5 10.8-44 3.8-54.8-15.6-10.8-19.4-3.8-44 15.6-54.8 19.5-10.8 44-3.8 54.8 15.6 10.9 19.5 3.9 44-15.6 54.8z"/><path class="st49" d="M-385.2 568.8c-3.3 11.7-11 21.4-21.7 27.3-21.9 12.2-49.7 4.3-61.9-17.6-5.9-10.6-7.3-22.9-4-34.6s11-21.4 21.6-27.3c21.9-12.2 49.7-4.3 61.9 17.6 6 10.6 7.5 22.9 4.1 34.6zm-77.5-22.1c-2.6 9-1.5 18.5 3.1 26.7 9.4 16.9 30.8 23 47.7 13.6 8.2-4.5 14.1-12 16.7-21 2.5-9 1.5-18.5-3.1-26.7-9.4-16.9-30.8-23-47.7-13.6-8.2 4.5-14.1 12-16.7 21z"/><g><path class="st50" d="M-409.5 610l23.3 41.9c2.6 4.8 8.6 6.4 13.3 3.8l.2-.1-28.1-50.5-8.7 4.9z"/><path class="st51" d="M-400.7 605.1l28.1 50.5.2-.1c4.8-2.6 6.5-8.6 3.8-13.3l-23.3-41.9-8.8 4.8z"/></g></g></g><path class="st52" d="M-446.1 531.4l11.2 11.3M-446.1 542.7l11.2-11.3M-446.1 552l11.2 11.3M-446.1 563.3l11.2-11.3M-446.1 570.9l11.2 11.2M-446.1 582.1l11.2-11.2"/><path class="st53" d="M-405.7 550.2l-11.9 11.9-6.5-6.6"/><g><g id="XMLID_14_"><path class="st54" d="M-423.7 332.4c.7 0 1.2.6 1.2 1.2 0 .7-.6 1.2-1.2 1.2-.7 0-1.2-.6-1.2-1.2 0-.7.5-1.2 1.2-1.2zM-441 332.8h13v1.4h-13zM-434.5 386.5c1.8 0 3.2 1.4 3.2 3.2 0 1.8-1.5 3.2-3.2 3.2s-3.2-1.5-3.2-3.2c0-1.8 1.4-3.2 3.2-3.2z"/><path class="st55" d="M-449.7 337.5h30.4v45.8h-30.4z"/><path class="st56" d="M-415.6 334.2v56.9c0 2.7-2.2 4.8-4.8 4.8h-28c-2.7 0-4.8-2.2-4.8-4.8v-56.9c0-2.7 2.2-4.9 4.8-4.9h28c2.6 0 4.8 2.2 4.8 4.9zm-3.7 49.1v-45.8h-30.4v45.8h30.4zm-3.1-49.7c0-.7-.6-1.2-1.2-1.2-.7 0-1.2.6-1.2 1.2 0 .7.6 1.2 1.2 1.2s1.2-.5 1.2-1.2zm-5.6.7v-1.5h-13v1.4h13v.1zm-3.2 55.4c0-1.8-1.5-3.2-3.2-3.2s-3.2 1.4-3.2 3.2c0 1.8 1.5 3.2 3.2 3.2s3.2-1.4 3.2-3.2z"/></g><circle class="st14" cx="-434.1" cy="356.7" r="11.8"/><path class="st57" d="M-428.2 360.2c.6.6.6 1.6 0 2.1-.6.6-1.6.6-2.1 0l-9.3-9.3c-.6-.6-.6-1.6 0-2.1.6-.6 1.6-.6 2.1 0l9.3 9.3z"/><path class="st57" d="M-430.4 350.9c.6-.6 1.6-.6 2.1 0 .6.6.6 1.6 0 2.1l-9.3 9.3c-.6.6-1.6.6-2.1 0-.6-.6-.6-1.6 0-2.1l9.3-9.3z"/></g></svg>