<svg id="Layer_1" xmlns="http://www.w3.org/2000/svg" viewBox="0 0 36 36"><style>.st0{fill:none;stroke:#999;stroke-miterlimit:10}.st1{fill:#fff}.st2,.st3{fill-rule:evenodd;clip-rule:evenodd;fill:#211f1f}.st3{fill:#ee5345}.st4{fill:#231f20}.st5{fill:none;stroke:#000;stroke-width:.5;stroke-miterlimit:10}.st6{opacity:.6;fill:#f1f1f2;stroke:#fff}.st7{fill:none;stroke:#000;stroke-width:.6;stroke-miterlimit:10}.st8{fill:#ee5345}.st10,.st11,.st9{fill:none;stroke:#000;stroke-miterlimit:10}.st10,.st11{fill:#fff}.st11{fill:none;stroke:#808184}.st12{fill:#b3b3b3}.st13{fill:#464b4c}.st14{fill:#ffdcb8}.st15{fill:#cb8f5e}.st16{fill:#281d12}.st17{fill:#382b19}.st18{fill:#232728}.st19{fill:#e5e5e5}.st20{fill:#141414}.st21{fill:#676b6b}.st22{fill:#725c2b}.st23{fill:#493918}.st24{fill:#190f08}.st25{fill:#753427}.st26{fill:#fafafa}.st27{fill:#49bedf}.st28{fill:#999}.st29,.st30{stroke-miterlimit:10}.st29{fill:none;stroke:#c7b299}.st30{stroke:#fff}.st31{opacity:.8}.st32,.st33{fill:none;stroke-miterlimit:10}.st32{stroke-width:2;stroke:#000}.st33{stroke:#ccc}</style><path class="st12" d="M18 1C8.4 1 .7 8.8.7 18.3S8.4 35.6 18 35.6c9.5 0 17.3-7.7 17.3-17.3C35.2 8.8 27.5 1 18 1zm7.7 13.3v.5c0 5.2-4 11.3-11.3 11.3-2.2 0-4.3-.7-6.1-1.8.3 0 .6.1.9.1 1.9 0 3.6-.6 4.9-1.7-1.7 0-3.2-1.2-3.7-2.8.2 0 .5.1.7.1.4 0 .7 0 1-.1-1.8-.4-3.2-2-3.2-3.9v-.1c.5.3 1.1.5 1.8.5-1.1-.7-1.8-1.9-1.8-3.3 0-.7.2-1.4.5-2 2 2.4 4.9 4 8.2 4.2-.1-.3-.1-.6-.1-.9 0-2.2 1.8-4 4-4 1.1 0 2.2.5 2.9 1.3.9-.2 1.8-.5 2.5-1-.3.9-.9 1.7-1.7 2.2.8-.1 1.6-.3 2.3-.6-.4.8-1.1 1.5-1.8 2z"/></svg>