<svg id="Layer_2" xmlns="http://www.w3.org/2000/svg" viewBox="0 0 317.6 203"><style>.st0{fill:#c1c1c1}</style><g id="Layer_2"><path d="M288.3 102.9c1.1-5.4 1.7-10.9 1.7-16.6 0-46-37.3-83.3-83.3-83.3-34.1 0-63.5 20.5-76.4 49.9-9.9-6.5-21.7-10.2-34.4-10.2-33.4 0-60.6 25.9-62.9 58.7-18 8.3-30.5 26.4-30.5 47.4 0 28.8 23.4 52.2 52.2 52.2h75.4c3.7 0 3.9-4.1 3.9-4.1v-33.5c0-2.9-2.3-5.2-5.2-5.2h-14.3c-2.9 0-3.8-1.9-2.1-4.2l43.5-58.7c1.7-2.3 4.5-2.3 6.2 0l43.5 58.7c1.7 2.3.8 4.2-2.1 4.2h-14.3c-2.9 0-5.2 2.3-5.2 5.2V197s.2 4 4 4h75.3c28.8 0 52.2-23.4 52.2-52.2.1-19.8-10.9-37.1-27.2-45.9zm0 0"/><path class="st0" d="M288.3 102.9c1.1-5.4 1.7-10.9 1.7-16.6 0-46-37.3-83.3-83.3-83.3-34.1 0-63.5 20.5-76.4 49.9-9.9-6.5-21.7-10.2-34.4-10.2-33.4 0-60.6 25.9-62.9 58.7-18 8.3-30.5 26.4-30.5 47.4 0 28.8 23.4 52.2 52.2 52.2h75.4c3.7 0 3.9-4.1 3.9-4.1v-33.5c0-2.9-2.3-5.2-5.2-5.2h-14.3c-2.9 0-3.8-1.9-2.1-4.2l43.5-58.7c1.7-2.3 4.5-2.3 6.2 0l43.5 58.7c1.7 2.3.8 4.2-2.1 4.2h-14.3c-2.9 0-5.2 2.3-5.2 5.2V197s.2 4 4 4h75.3c28.8 0 52.2-23.4 52.2-52.2.1-19.8-10.9-37.1-27.2-45.9zm0 0"/></g></svg>