<?xml version="1.0" encoding="utf-8"?>
<!-- Generator: Adobe Illustrator 19.1.0, SVG Export Plug-In . SVG Version: 6.00 Build 0)  -->
<svg version="1.1" id="Layer_1" xmlns="http://www.w3.org/2000/svg" xmlns:xlink="http://www.w3.org/1999/xlink" x="0px" y="0px"
	 viewBox="-630 342 338 218" style="enable-background:new -630 342 338 218;" xml:space="preserve">
<style type="text/css">
	.st0{fill:#FFCFA8;}
	.st1{fill:#BAE5E3;}
	.st2{fill:#00A090;}
	.st3{fill:#35383F;}
	.st4{fill:#FFFFFF;}
	.st5{fill:#383838;}
	.st6{fill:#FF5D00;}
	.st7{fill:#FA0326;}
	.st8{fill:#BC062C;}
	.st9{fill:#A33500;}
	.st10{fill:#4382DD;}
	.st11{font-family:'NeoSans';}
	.st12{font-size:20px;}
</style>
<g>
	<path class="st0" d="M-366.2,426.6h-3.5v-2.7h3.5v-16.1h27.9v9.8h2.4v6.4h-2.4v13.6c-9.4-0.5-18.6,1-27.9,0V426.6z"/>
	<path class="st1" d="M-338.2,437.5v43.8h-27.9v-43.8C-356.9,438.5-347.7,437-338.2,437.5z"/>
	<g>
		<path class="st1" d="M-354.8,453.3l-4.2,4.9l-30-25.5c1.4-1.7,2.7-3.4,3.7-5.2L-354.8,453.3z"/>
		<path class="st0" d="M-392.7,421.1l7.5,6.4c-1,1.8-2.3,3.6-3.7,5.2l-7.9-6.7L-392.7,421.1z"/>
	</g>
	<g>
		<path class="st0" d="M-316.8,481.7l-5.7,2.8l-3.9-7.9c0,0,3.9-1.8,6.1-2.2L-316.8,481.7z"/>
		<path class="st1" d="M-338.8,437.4l18.4,37c-2.2,0.3-6.1,2.2-6.1,2.2l-18.1-36.4L-338.8,437.4z"/>
	</g>
	<rect x="-356.1" y="416" class="st2" width="1.9" height="4.6"/>
	<rect x="-363.9" y="417.5" class="st2" width="1.9" height="3.1"/>
	<path class="st3" d="M-351.3,410.5c0,0-12.7,3.6-19.7-2.7c-7-6.3,1-13.1,5.8-11.7c0,0-3.4,0.7-1.9,3.4s13.1,1.1,17.2,0.3
		c4.1-0.8,13.3,0,14,5.7s-2.4,12-2.4,12S-342.1,407.9-351.3,410.5z"/>
	<path class="st4" d="M-363.9,429.9c0,0,9.1-0.3,15.6-8.8C-348.3,421.1-352.1,441.4-363.9,429.9z"/>
	<g>
		<polygon class="st5" points="-367,524.9 -378.8,530.9 -358.8,530.9 -362.3,525.3 		"/>
		<polygon class="st5" points="-335.8,524.9 -323.9,530.9 -344,530.9 -340.5,525.3 		"/>
		<polygon class="st5" points="-366.2,481.3 -367.2,526 -362,526 -352.2,492.9 -340.7,526 -336,526 -338.2,481.3 		"/>
	</g>
	<polygon class="st4" points="-357.5,437.8 -363,446 -366.2,437.5 -338.2,437.4 -350.5,446 	"/>
	<polygon class="st5" points="-358.8,439.8 -362,470.1 -358.8,476.6 -354.2,468.4 -355.8,439.8 -357.5,437.8 	"/>
</g>
<g>
	<path class="st0" d="M-462,392.4l2,0l0-1.6l-2,0l0.1-9.2l-16-0.2l-0.1,5.6l-1.3,0l-0.1,3.7l1.3,0l-0.1,8.7c5.4-0.2,10.6-0.3,16-0.9
		L-462,392.4z"/>
	<path class="st6" d="M-478.1,399.5l-0.2,24l15.9,0.1l0.3-25C-467.4,399.1-472.7,399.3-478.1,399.5z"/>
	
		<rect x="-474.1" y="419.1" transform="matrix(-1.039579e-002 0.9999 -0.9999 -1.039579e-002 -48.2457 901.9379)" class="st7" width="7.3" height="15.9"/>
	<g>
		<path class="st6" d="M-468.7,407.6l2.4,2.8l17.2-14.4c-0.8-1-1.4-2-2.1-3L-468.7,407.6z"/>
		<path class="st0" d="M-446.9,389.4l-4.3,3.6c0.6,1.1,1.3,2,2.1,3l4.6-3.8L-446.9,389.4z"/>
	</g>
	<g>
		<path class="st0" d="M-491.7,387.8l-2.6,2.5l3.5,3.7c0,0,1.8-1.7,2.4-2.8L-491.7,387.8z"/>
		<path class="st6" d="M-472.4,408.4l-16.1-17.1c-0.6,1.2-2.4,2.8-2.4,2.8l15.8,16.9L-472.4,408.4z"/>
	</g>
	<g>
		<polygon class="st7" points="-478.3,423 -488.7,445.4 -485,445.6 -470.4,430.8 		"/>
		<polygon class="st7" points="-462.3,423.2 -454.6,441.8 -456.7,445 -470.4,430.8 		"/>
		<polygon class="st5" points="-488.7,445.4 -494.4,448.8 -483,448.9 -485,445.6 		"/>
		<polygon class="st5" points="-454.6,441.8 -448.4,439.4 -455.3,448.8 -456.7,445 		"/>
	</g>
	<g>
		<path class="st8" d="M-478.6,399.1c0,0,14.5-0.8,16.9-0.9l-0.1,3.9c0,0-10.4,1.9-16.6,0.6L-478.6,399.1z"/>
		<path class="st8" d="M-456.1,412.9c-0.1-0.2-0.3-0.1-0.4-0.2c-0.2-0.1-0.4-0.2-0.6-0.3c-0.3-0.1-0.5-0.1-0.7-0.2
			c-0.4-0.2-6.6-3.8-4.2-11.1l-2.7,0c0,0-4,11.4,4.1,15.1l0-0.1c0.2,0.1,0.4,0.2,0.4,0.2c0.3,0.1,0.4,0.3,0.7,0.5
			c0.4,0.3,1.3-0.2,0.9-0.6c-0.3-0.3-0.8-0.5-1.1-0.7c-0.1,0-0.2-0.1-0.3,0l0.5-0.8c0.1,0,0.2,0.1,0.3,0.1c0.2,0.2,0.5,0.4,0.7,0.6
			c0.3,0.3,1.3-0.3,0.8-0.6c-0.4-0.3-0.9-0.7-1.3-0.8l0.8-1.1c0.2,0.1,0.4,0.2,0.5,0.3c0.4,0.2,0.7,0.4,1.2,0.4
			C-456.3,413.4-455.8,413.1-456.1,412.9z"/>
	</g>
	<path class="st8" d="M-462.1,392.9l-11.7-1.5c0,0-1.1,4.3,3.4,6C-465.9,399.2-462.6,395.7-462.1,392.9z"/>
	
		<rect x="-468.8" y="386.3" transform="matrix(-0.9999 -1.039579e-002 1.039579e-002 -0.9999 -940.5468 770.23)" class="st9" width="1.1" height="2.6"/>
	
		<rect x="-464.3" y="387.3" transform="matrix(-0.9999 -1.039579e-002 1.039579e-002 -0.9999 -931.5986 771.4659)" class="st9" width="1.1" height="1.8"/>
	<path class="st9" d="M-470.4,383.2c0,0,7.3,2.1,11.2-1.5s-0.5-7.5-3.3-6.7c0,0,1.9,0.4,1,1.9c-0.9,1.5-7.5,0.5-9.8,0
		c-2.3-0.5-7.6-0.1-8,3.2c-0.4,3.3,1.3,6.9,1.3,6.9S-475.7,381.6-470.4,383.2z"/>
</g>
<polygon class="st10" points="-421.7,379 -419,382 -437.1,397.4 -452.6,448.8 -500.2,448.8 -546,514.5 -538,514.5 -496.7,455.5 
	-447.6,455.5 -431.3,401.2 -414.6,386.8 -411.5,390.2 -408.8,377.8 "/>
<text transform="matrix(1 0 0 1 -578.2997 533.4001)" class="st10 st11 st12">75% faster</text>
</svg>
