<?xml version="1.0" encoding="utf-8"?>
<!-- Generator: Adobe Illustrator 19.1.0, SVG Export Plug-In . SVG Version: 6.00 Build 0)  -->
<svg version="1.1" id="Layer_1" xmlns="http://www.w3.org/2000/svg" xmlns:xlink="http://www.w3.org/1999/xlink" x="0px" y="0px"
	 viewBox="0 0 40.5 45" style="enable-background:new 0 0 40.5 45;" xml:space="preserve">
<style type="text/css">
	.st0{opacity:0.3;fill:#F2F2F2;}
	.st1{fill:#FFFFFF;}
	.st2{fill-rule:evenodd;clip-rule:evenodd;fill:#211F1F;}
	.st3{fill-rule:evenodd;clip-rule:evenodd;fill:#E85345;}
	.st4{fill:none;stroke:#000000;stroke-width:0.5;stroke-miterlimit:10;}
	.st5{fill:#E85345;}
	.st6{opacity:0.3;fill:#FFFFFF;}
	.st7{fill:none;stroke:#FFFFFF;stroke-miterlimit:10;}
	.st8{opacity:0.3;fill:#CCCCCC;}
	.st9{fill:none;stroke:#000000;stroke-miterlimit:10;}
	.st10{opacity:0.3;fill:none;stroke:#666666;stroke-miterlimit:10;}
	.st11{opacity:0.3;fill:#666666;}
	.st12{opacity:0.3;fill:none;stroke:#333333;stroke-miterlimit:10;}
	.st13{fill:#61C6C4;}
	.st14{fill:#FBB47A;}
</style>
<g>
	<path d="M39.1,39.4c0.3,0.3,0.2,0.8-0.1,1.1l-4.2,3.2c-0.1,0.1-0.3,0.2-0.5,0.2c0,0-0.1,0-0.1,0c-0.2,0-0.4-0.1-0.5-0.3l-7.2-9.3
		l-2.4,3.6c-0.2,0.3-0.5,0.4-0.8,0.3c-0.3,0-0.6-0.3-0.6-0.5l-2.6-8c-1.2,0.3-2.4,0.5-3.6,0.5c-0.6,0-1.2,0-1.9-0.1
		c-3.8-0.5-7.2-2.4-9.6-5.5c-2.4-3.1-3.4-6.8-2.9-10.7c0.5-3.8,2.4-7.2,5.5-9.6c3.1-2.4,6.8-3.4,10.7-2.9c3.8,0.5,7.2,2.4,9.6,5.5
		c2.4,3.1,3.4,6.8,2.9,10.7c-0.2,1.9-0.8,3.6-1.7,5.2l7.1,4.5c0.3,0.2,0.4,0.5,0.4,0.8c0,0.3-0.2,0.6-0.5,0.7L31.9,30L39.1,39.4z
		 M37.3,39.7l-7.4-9.6c-0.2-0.2-0.2-0.5-0.1-0.7c0.1-0.2,0.3-0.4,0.5-0.5l3.5-1.2l-16-10.2l5.8,18.1l2.1-3.1
		c0.1-0.2,0.4-0.3,0.6-0.4c0,0,0,0,0,0c0.2,0,0.5,0.1,0.6,0.3l7.4,9.6L37.3,39.7z M29.1,17.2c0.4-3.4-0.5-6.8-2.6-9.5
		C24.5,5,21.4,3.3,18,2.8c-3.4-0.4-6.8,0.5-9.5,2.6C5.8,7.5,4.1,10.6,3.6,14c-0.4,3.4,0.5,6.8,2.6,9.5s5.1,4.5,8.5,4.9
		c1.6,0.2,3.3,0.1,4.8-0.3l-0.7-2.3c-0.8,0.2-1.6,0.3-2.5,0.3c-5.8,0-10.5-4.7-10.5-10.5c0-5.8,4.7-10.5,10.5-10.5
		s10.5,4.7,10.5,10.5c0,1.7-0.4,3.4-1.2,5l2,1.3C28.4,20.4,28.9,18.9,29.1,17.2z M24.3,19.7c0.7-1.3,1-2.7,1-4.1
		c0-4.9-4-8.9-8.9-8.9s-8.9,4-8.9,8.9c0,4.9,4,8.9,8.9,8.9c0.7,0,1.3-0.1,2-0.2l-2.7-8.4c-0.1-0.3,0-0.7,0.3-0.9
		c0.3-0.2,0.6-0.2,0.9,0L24.3,19.7z"/>
	<path class="st14" d="M26.6,7.7c2.1,2.7,3,6.1,2.6,9.5c-0.2,1.6-0.7,3.2-1.5,4.6l-2-1.3c0.8-1.5,1.2-3.2,1.2-5
		c0-5.8-4.7-10.5-10.5-10.5S5.9,9.8,5.9,15.6c0,5.8,4.7,10.5,10.5,10.5c0.8,0,1.7-0.1,2.5-0.3l0.7,2.3c-1.6,0.4-3.2,0.5-4.8,0.3
		c-3.4-0.4-6.4-2.2-8.5-4.9s-3-6.1-2.6-9.5c0.4-3.4,2.2-6.4,4.9-8.5c2.7-2.1,6.1-3,9.5-2.6C21.4,3.3,24.5,5,26.6,7.7z"/>
	<path class="st13" d="M25.3,15.6c0,1.4-0.3,2.8-1,4.1l-7.5-4.8c-0.3-0.2-0.6-0.2-0.9,0c-0.3,0.2-0.4,0.6-0.3,0.9l2.7,8.4
		c-0.6,0.1-1.3,0.2-2,0.2c-4.9,0-8.9-4-8.9-8.9c0-4.9,4-8.9,8.9-8.9S25.3,10.7,25.3,15.6z"/>
</g>
</svg>
