<?xml version="1.0" encoding="utf-8"?>
<!-- Generator: Adobe Illustrator 19.1.0, SVG Export Plug-In . SVG Version: 6.00 Build 0)  -->
<svg version="1.1" id="Layer_1" xmlns="http://www.w3.org/2000/svg" xmlns:xlink="http://www.w3.org/1999/xlink" x="0px" y="0px"
	 viewBox="0 0 319.4 480.7" style="enable-background:new 0 0 319.4 480.7;" xml:space="preserve">
<style type="text/css">
	.st0{fill:#00A8A2;}
	.st1{fill:#D2D3D4;}
	.st2{fill:none;stroke:#BBBDBF;stroke-miterlimit:10;}
	.st3{fill:#69A9B0;}
	.st4{opacity:0.9;}
	.st5{fill:#25292B;}
	.st6{fill:#F5DBB4;}
	.st7{fill:#CA8E5E;}
	.st8{fill:#3A8488;}
	.st9{fill:#221D10;}
	.st10{fill:#D98E88;}
	.st11{fill:#753528;}
	.st12{fill:#1B120D;}
	.st13{fill:#13110C;}
	.st14{opacity:0.8;fill:#FFFFFF;}
	.st15{fill:#2D2011;}
	.st16{fill:#4E9A98;}
	.st17{fill:#122830;}
	.st18{fill:#4A5356;}
	.st19{fill:#121617;}
	.st20{fill:#63B4B4;}
	.st21{fill:#FCEB0A;}
	.st22{fill:#FDF5B6;}
	.st23{fill:#979797;}
	.st24{fill:#EEC92C;}
	.st25{fill:#FFFFFF;}
	.st26{fill:#4D4930;}
	.st27{fill:#3F4040;}
	.st28{fill:#515252;}
	.st29{fill:#474B4C;}
	.st30{fill:#FDE0C4;}
	.st31{fill:#463615;}
	.st32{fill:#E4E4E4;}
	.st33{fill:#151515;}
	.st34{fill:#676B6B;}
	.st35{fill:#2E3030;}
	.st36{fill:#725C2A;}
	.st37{fill:#493A1A;}
	.st38{fill:none;stroke:#D2D3D4;stroke-miterlimit:10;}
	.st39{fill:#F1F1F2;}
	.st40{opacity:0.9;fill:#F5FBFD;}
	.st41{fill:#484359;}
	.st42{fill:#484359;stroke:#B6B5BD;stroke-linecap:round;}
	.st43{fill:#333333;}
	.st44{fill:#F2F2F2;}
	.st45{fill:none;stroke:#676767;stroke-miterlimit:10;}
	.st46{fill:url(#SVGID_1_);}
	.st47{fill:#E6E7E8;}
	.st48{fill:#FCFDFF;}
	.st49{opacity:0.6;fill:#FFFFFF;stroke:#BDE0DE;}
	.st50{fill:none;stroke:#000000;stroke-miterlimit:10;}
	.st51{fill:none;stroke:#231F20;}
	.st52{fill:none;stroke:#D0D2D3;}
	.st53{fill:none;stroke:#FFFFFF;}
	.st54{opacity:0.9;fill:url(#SVGID_2_);}
	.st55{fill:#CCCBCB;}
	.st56{fill:#1A1A1A;}
	.st57{opacity:0.3;fill:#FFFFFF;}
	.st58{fill:#FFFFFF;stroke:#EDDBD4;}
	.st59{fill:url(#SVGID_3_);}
	.st60{opacity:0.2;}
	.st61{fill:#37334A;}
	.st62{fill:none;stroke:#37334A;}
	.st63{fill:none;stroke:#B6B5BD;}
	.st64{fill:#6D697A;}
	.st65{fill:#ECF7FD;stroke:#EDEBE6;stroke-miterlimit:10;}
	.st66{fill:none;stroke:#69BAB5;stroke-width:5;stroke-linecap:round;stroke-linejoin:round;}
	.st67{fill:#69BAB5;}
	.st68{fill:#D0D2D3;stroke:#FFFFFF;stroke-miterlimit:10;}
	.st69{opacity:0.2;fill:#E5E5E4;}
	.st70{opacity:0.6;fill:#69BAB5;}
	.st71{fill:none;stroke:#EF5245;stroke-miterlimit:10;}
	.st72{fill:#EF5245;}
	.st73{fill:#BBBDBF;}
	.st74{fill:#E1E1E1;}
	.st75{fill:#F16541;}
	.st76{fill:#8F8E8E;}
	.st77{fill:#58595B;}
	.st78{fill:#F1F2EE;}
	.st79{fill:#929497;}
	.st80{fill:none;stroke:#FEEB99;stroke-miterlimit:10;}
	.st81{fill-rule:evenodd;clip-rule:evenodd;fill:#221F1F;}
	.st82{fill-rule:evenodd;clip-rule:evenodd;fill:#EF5245;}
	.st83{opacity:0.3;}
	.st84{opacity:0.7;fill:#69BAB5;}
	.st85{fill:#D1D2D3;}
	.st86{fill:#59595C;}
	.st87{fill:#E6E6E6;}
	.st88{fill:#221F1F;}
	.st89{fill:#F1F1F1;}
	.st90{fill:#C0C0C0;}
	.st91{fill:#E7D7BF;}
	.st92{fill:#CF9D76;}
	.st93{fill:#DEB18A;}
	.st94{fill:none;stroke:#221F1F;stroke-width:0.437;stroke-miterlimit:10;}
	.st95{fill:#7E8090;}
	.st96{fill:#8F939F;}
	.st97{fill:none;stroke:#E8D0A6;stroke-width:0.13;stroke-miterlimit:10;}
	.st98{fill:#686C7A;}
	.st99{fill:#C8C8C8;}
	.st100{fill:#D3D3D3;}
	.st101{fill:#3E5554;}
	.st102{fill:#595B61;}
	.st103{fill:#606269;}
	.st104{fill:#4F5056;}
	.st105{fill:#F1E4D2;}
	.st106{fill:#CBB295;}
	.st107{fill:#3C2417;}
	.st108{fill:#6D6E71;}
	.st109{fill:#E0EAE8;}
	.st110{fill:#EDF3F1;}
	.st111{fill:#A87C51;}
	.st112{fill:none;stroke:#221F1F;stroke-width:0.48;stroke-miterlimit:10;}
	.st113{fill:#B9DBE7;}
	.st114{fill:#D5E9F0;}
	.st115{fill:#27A8E0;}
	.st116{fill:#BCBDBF;}
	.st117{fill:#ADE0F4;}
	.st118{fill:#CCEBF7;}
	.st119{fill:#93A3A7;}
	.st120{fill:#56696E;}
	.st121{fill:#5C7075;}
	.st122{fill:none;stroke:#E8D0A6;stroke-width:0.116;stroke-miterlimit:10;}
	.st123{fill:#3E5156;}
	.st124{fill:#A3B1B4;}
	.st125{fill:#BCBCBF;}
	.st126{fill:#766E5C;}
	.st127{fill:#94A0A8;}
	.st128{fill:#6D6655;}
	.st129{fill:#564D3D;}
	.st130{fill:#A4AEB4;}
	.st131{fill:#3D4C55;}
	.st132{fill:#C2986B;}
	.st133{fill:none;stroke:#FFFFFF;stroke-miterlimit:10;}
	.st134{fill:url(#SVGID_4_);}
	.st135{opacity:0.9;fill:url(#SVGID_5_);}
	.st136{fill:url(#SVGID_6_);}
	.st137{fill:none;stroke:#BBBDBF;stroke-width:2;stroke-miterlimit:10;}
	.st138{fill:none;stroke:#E6E7E8;stroke-miterlimit:10;}
	.st139{fill:url(#SVGID_7_);}
	.st140{opacity:0.9;fill:url(#SVGID_8_);}
	.st141{fill:url(#SVGID_9_);}
	.st142{fill:url(#SVGID_10_);}
	.st143{opacity:0.9;fill:url(#SVGID_11_);}
	.st144{fill:url(#SVGID_12_);}
</style>
<g>
	<polygon class="st74" points="272,367.9 269.1,363.6 251.3,375.6 243.5,367.6 239.9,371.2 250.6,382.3 250.7,382.3 250.7,382.3 	
		"/>
	<g>
		<g>
			<g>
				<g>
					<g>
						<path class="st75" d="M256.8,418H76.4c-4,0-7.2-4.2-7.2-9.4V67.1c0-5.2,3.2-9.4,7.2-9.4h180.4c4,0,7.2,4.2,7.2,9.4v341.5
							C264,413.8,260.8,418,256.8,418z"/>
						<path class="st75" d="M175.9,403.5c0,6.7-4.2,11.1-9.3,11.1c-5.1,0-9.3-5.4-9.3-12.1c0-6.7,4.2-12.1,9.3-12.1
							C171.7,390.4,175.9,396.8,175.9,403.5z"/>
						<path class="st75" d="M182.5,77.6h-31.7c-0.1,0-0.3-0.1-0.3-0.3v-2.4c0-0.1,0.1-0.3,0.3-0.3h31.7c0.1,0,0.3,0.1,0.3,0.3v2.4
							C182.7,77.4,182.6,77.6,182.5,77.6z"/>
						<ellipse class="st75" cx="187.7" cy="76.1" rx="1.1" ry="1.5"/>
						<rect x="77.1" y="88.5" class="st74" width="178.9" height="298.8"/>
					</g>
				</g>
			</g>
		</g>
		<g>
			<g>
				<g>
					<g>
						<g>
							<path class="st76" d="M256,109.1c0,0-35.7-20.4-35.7-69L256,26.8V109.1z"/>
							<path class="st76" d="M256,109.1c0,0,35.7-20.4,35.7-69L256,26.8V109.1z"/>
						</g>
						<g>
							<path class="st76" d="M256,109.1c0,0-35.7-20.4-35.7-69L256,26.8V109.1z"/>
							<path class="st76" d="M256,109.1c0,0,35.7-20.4,35.7-69L256,26.8V109.1z"/>
						</g>
					</g>
				</g>
			</g>
			<polygon class="st74" points="279.1,58.4 275.4,53 252.8,68.3 242.9,58.1 238.2,62.6 251.9,76.7 251.9,76.7 251.9,76.7 			"/>
		</g>
	</g>
</g>
<g>
	<g>
		<g>
			<path class="st74" d="M71.1,337.4H58.3c-12.1,0-21.9,9.8-21.9,21.9v20.5H47v-20.5c0-6.3,5.1-11.3,11.3-11.3h12.8V337.4z"/>
			<path class="st78" d="M71.1,337.4h12.8c12.1,0,21.9,9.8,21.9,21.9v20.5H95.2v-20.5c0-6.3-5.1-11.3-11.3-11.3H71.1V337.4z"/>
		</g>
		<g>
			<path class="st74" d="M71.1,337.4H58.3c-12.1,0-21.9,9.8-21.9,21.9v20.5H47v-20.5c0-6.3,5.1-11.3,11.3-11.3h12.8V337.4z"/>
			<path class="st76" d="M71.1,337.4h12.8c12.1,0,21.9,9.8,21.9,21.9v20.5H95.2v-20.5c0-6.3-5.1-11.3-11.3-11.3H71.1V337.4z"/>
		</g>
	</g>
	<g>
		<g>
			<rect x="31.8" y="378.3" class="st74" width="39.3" height="61.7"/>
			<rect x="71.1" y="378.3" class="st78" width="39.3" height="61.7"/>
		</g>
		<g>
			<rect x="31.8" y="378.3" class="st39" width="39.3" height="61.7"/>
			<rect x="71.1" y="378.3" class="st39" width="39.3" height="61.7"/>
		</g>
	</g>
	<circle class="st76" cx="71.1" cy="409.2" r="15.9"/>
	<path class="st76" d="M76.9,406c0-3.2-2.6-5.8-5.8-5.8c-3.2,0-5.8,2.6-5.8,5.8c0,2.5,1.6,4.6,3.8,5.4v4.7c0,1.1,0.9,2,2,2
		c1.1,0,2-0.9,2-2v-4.7C75.3,410.6,76.9,408.5,76.9,406z"/>
</g>
<path class="st39" d="M165.2,237.8c4.3-6.5,6.8-14.1,6.8-22.2c0-23.4-20.6-42.4-46-42.4c-25.4,0-46,19-46,42.4s20.6,42.4,46,42.4
	c5.1,0,10-0.8,14.6-2.2l31.4,13.2L165.2,237.8z"/>
<g>
	<path class="st79" d="M214.5,153.2c0-7.6-6.2-13.8-13.8-13.8v-11.8c14.1,0,25.5,11.4,25.5,25.5c0,17.4-25.5,51.7-25.5,51.7v-38
		C208.3,167,214.5,160.8,214.5,153.2z"/>
	<path class="st79" d="M175.3,151.4c0.9-13.3,12-23.7,25.4-23.7v11.8c-6.3,0-11.6,4.2-13.2,10c-0.3,1.2-0.5,2.5-0.5,3.8
		c0,2,0.4,3.9,1.2,5.6c2.1,4.8,6.9,8.2,12.6,8.2v38c0,0-23.9-31-25.5-49.9c0-0.6-0.1-1.3-0.1-1.9C175.2,152.6,175.2,152,175.3,151.4
		z"/>
</g>
<g>
	<path class="st74" d="M188.5,443.3c-1.3,0-2.4,1.1-2.4,2.4v2.3h4.8v-2.3C190.9,444.3,189.8,443.3,188.5,443.3L188.5,443.3z
		 M188.5,443.3"/>
	<path class="st74" d="M195.1,431.9h-56.8c-5.1,0-9.2,4.2-9.2,9.3v16.3c0,5.1,4.2,9.2,9.2,9.2h56.8c5.1,0,9.3-4.2,9.3-9.2v-16.3
		C204.4,436,200.2,431.9,195.1,431.9L195.1,431.9z M149.2,451.8l2.2,2.4l-3.8,2.9l-1.6-2.9c-0.2-0.4-0.6-1.2-1.1-2.4
		c-0.6,1.3-0.9,2.1-1.1,2.4l-1.6,2.9l-4-2.9l2.4-2.4c0.7-0.7,1.3-1.2,2-1.7c-0.7-0.1-1.5-0.2-2.6-0.4l-3.3-0.5l1.5-4.5l3,1.3
		c0.3,0.1,1.1,0.6,2.3,1.3c-0.3-1.2-0.4-2.1-0.5-2.7l-0.4-3.2h4.7l-0.4,3.2c-0.1,0.8-0.3,1.7-0.5,2.7c0.5-0.3,0.9-0.5,1.1-0.6
		c0.6-0.3,1.1-0.6,1.4-0.7l3-1.4l1.5,4.5l-3.3,0.7c-0.6,0.1-1.5,0.2-2.7,0.2C148.1,450.7,148.7,451.3,149.2,451.8L149.2,451.8z
		 M170.9,451.8l2.2,2.4l-3.8,2.9l-1.6-2.9c-0.2-0.4-0.6-1.2-1.1-2.4c-0.6,1.3-0.9,2.1-1.1,2.4l-1.6,2.9l-3.9-2.9l2.4-2.4
		c0.7-0.7,1.3-1.2,2-1.7c-0.7-0.1-1.5-0.2-2.6-0.4l-3.3-0.5l1.5-4.5l3,1.3c0.3,0.1,1.1,0.6,2.3,1.3c-0.3-1.2-0.4-2.1-0.5-2.7
		l-0.4-3.2h4.7l-0.4,3.2c-0.1,0.8-0.3,1.7-0.5,2.7c0.5-0.3,0.9-0.5,1.1-0.6c0.6-0.3,1-0.6,1.4-0.7l3-1.4l1.5,4.5l-3.3,0.7
		c-0.6,0.1-1.5,0.2-2.7,0.2C169.8,450.7,170.5,451.3,170.9,451.8L170.9,451.8z M195.3,455.9c0,1-0.8,1.8-1.8,1.8h-10.1
		c-1,0-1.8-0.8-1.8-1.8v-6.1c0-1,0.8-1.8,1.8-1.8h0.2v-2.3c0-2.7,2.2-4.8,4.8-4.8c2.6,0,4.8,2.2,4.8,4.8v2.3h0.2
		c1,0,1.8,0.8,1.8,1.8V455.9z M195.3,455.9"/>
</g>
</svg>
