<?xml version="1.0" encoding="utf-8"?>
<!-- Generator: Adobe Illustrator 19.1.0, SVG Export Plug-In . SVG Version: 6.00 Build 0)  -->
<svg version="1.1" id="Layer_1" xmlns="http://www.w3.org/2000/svg" xmlns:xlink="http://www.w3.org/1999/xlink" x="0px" y="0px"
	 viewBox="-639 210.3 319.4 480.7" style="enable-background:new -639 210.3 319.4 480.7;" xml:space="preserve">
<style type="text/css">
	.st0{fill:#FF560B;}
	.st1{fill:#F16541;}
	.st2{fill:#E1E1E1;}
	.st3{fill:#8F8E8E;}
	.st4{fill:#F1F2EE;}
	.st5{fill:#F1F1F2;}
	.st6{fill:#929497;}
</style>
<g>
	<g>
		<g>
			<g>
				<g>
					<g>
						<path class="st0" d="M-382.2,628.3h-180.4c-4,0-7.2-4.2-7.2-9.4V277.4c0-5.2,3.2-9.4,7.2-9.4h180.4c4,0,7.2,4.2,7.2,9.4v341.5
							C-375,624.1-378.2,628.3-382.2,628.3z"/>
						<path class="st1" d="M-463.4,613.5c0,5-4.1,8.3-9,8.3c-4.9,0-9-4-9-9s4.1-9,9-9C-467.5,603.8-463.4,608.6-463.4,613.5z"/>
						<path class="st1" d="M-456.5,287.9h-31.7c-0.1,0-0.3-0.1-0.3-0.3v-2.4c0-0.1,0.1-0.3,0.3-0.3h31.7c0.1,0,0.3,0.1,0.3,0.3v2.4
							C-456.3,287.7-456.4,287.9-456.5,287.9z"/>
						<ellipse class="st1" cx="-451.3" cy="286.4" rx="1.1" ry="1.5"/>
						<rect x="-561.9" y="298.8" class="st2" width="178.9" height="298.8"/>
					</g>
				</g>
			</g>
		</g>
		<g>
			<g>
				<g>
					<g>
						<g>
							<path class="st3" d="M-383,319.4c0,0-35.7-20.4-35.7-69l35.7-13.3V319.4z"/>
							<path class="st3" d="M-383,319.4c0,0,35.7-20.4,35.7-69l-35.7-13.3V319.4z"/>
						</g>
						<g>
							<path class="st3" d="M-383,319.4c0,0-35.7-20.4-35.7-69l35.7-13.3V319.4z"/>
							<path class="st3" d="M-383,319.4c0,0,35.7-20.4,35.7-69l-35.7-13.3V319.4z"/>
						</g>
					</g>
				</g>
			</g>
			<polygon class="st2" points="-359.9,268.7 -363.6,263.3 -386.2,278.6 -396.1,268.4 -400.8,272.9 -387.1,287 -387.1,287 
				-387.1,287 			"/>
		</g>
	</g>
</g>
<g>
	<g>
		<g>
			<path class="st2" d="M-567.9,547.7h-12.8c-12.1,0-21.9,9.8-21.9,21.9v20.5h10.6v-20.5c0-6.3,5.1-11.3,11.3-11.3h12.8V547.7z"/>
			<path class="st4" d="M-567.9,547.7h12.8c12.1,0,21.9,9.8,21.9,21.9v20.5h-10.6v-20.5c0-6.3-5.1-11.3-11.3-11.3h-12.8V547.7z"/>
		</g>
		<g>
			<path class="st2" d="M-567.9,547.7h-12.8c-12.1,0-21.9,9.8-21.9,21.9v20.5h10.6v-20.5c0-6.3,5.1-11.3,11.3-11.3h12.8V547.7z"/>
			<path class="st3" d="M-567.9,547.7h12.8c12.1,0,21.9,9.8,21.9,21.9v20.5h-10.6v-20.5c0-6.3-5.1-11.3-11.3-11.3h-12.8V547.7z"/>
		</g>
	</g>
	<g>
		<g>
			<rect x="-607.2" y="588.6" class="st2" width="39.3" height="61.7"/>
			<rect x="-567.9" y="588.6" class="st4" width="39.3" height="61.7"/>
		</g>
		<g>
			<rect x="-607.2" y="588.6" class="st5" width="39.3" height="61.7"/>
			<rect x="-567.9" y="588.6" class="st5" width="39.3" height="61.7"/>
		</g>
	</g>
	<circle class="st3" cx="-567.9" cy="619.5" r="15.9"/>
	<path class="st3" d="M-562.1,616.3c0-3.2-2.6-5.8-5.8-5.8c-3.2,0-5.8,2.6-5.8,5.8c0,2.5,1.6,4.6,3.8,5.4v4.7c0,1.1,0.9,2,2,2
		c1.1,0,2-0.9,2-2v-4.7C-563.7,620.9-562.1,618.8-562.1,616.3z"/>
</g>
<path class="st5" d="M-473.8,448.1c4.3-6.5,6.8-14.1,6.8-22.2c0-23.4-20.6-42.4-46-42.4c-25.4,0-46,19-46,42.4s20.6,42.4,46,42.4
	c5.1,0,10-0.8,14.6-2.2l31.4,13.2L-473.8,448.1z"/>
<g>
	<path class="st6" d="M-424.5,363.5c0-7.6-6.2-13.8-13.8-13.8v-11.8c14.1,0,25.5,11.4,25.5,25.5c0,17.4-25.5,51.7-25.5,51.7v-38
		C-430.7,377.3-424.5,371.1-424.5,363.5z"/>
	<path class="st6" d="M-463.7,361.7c0.9-13.3,12-23.7,25.4-23.7v11.8c-6.3,0-11.6,4.2-13.2,10c-0.3,1.2-0.5,2.5-0.5,3.8
		c0,2,0.4,3.9,1.2,5.6c2.1,4.8,6.9,8.2,12.6,8.2v38c0,0-23.9-31-25.5-49.9c0-0.6-0.1-1.3-0.1-1.9
		C-463.8,362.9-463.8,362.3-463.7,361.7z"/>
</g>
<g>
	<path class="st2" d="M-450.5,653.6c-1.3,0-2.4,1.1-2.4,2.4v2.3h4.8V656C-448.1,654.6-449.2,653.6-450.5,653.6L-450.5,653.6z"/>
	<path class="st2" d="M-443.9,642.2h-56.8c-5.1,0-9.2,4.2-9.2,9.3v16.3c0,5.1,4.2,9.2,9.2,9.2h56.8c5.1,0,9.3-4.2,9.3-9.2v-16.3
		C-434.6,646.3-438.8,642.2-443.9,642.2L-443.9,642.2z M-489.8,662.1l2.2,2.4l-3.8,2.9l-1.6-2.9c-0.2-0.4-0.6-1.2-1.1-2.4
		c-0.6,1.3-0.9,2.1-1.1,2.4l-1.6,2.9l-4-2.9l2.4-2.4c0.7-0.7,1.3-1.2,2-1.7c-0.7-0.1-1.5-0.2-2.6-0.4l-3.3-0.5l1.5-4.5l3,1.3
		c0.3,0.1,1.1,0.6,2.3,1.3c-0.3-1.2-0.4-2.1-0.5-2.7l-0.4-3.2h4.7l-0.4,3.2c-0.1,0.8-0.3,1.7-0.5,2.7c0.5-0.3,0.9-0.5,1.1-0.6
		c0.6-0.3,1.1-0.6,1.4-0.7l3-1.4l1.5,4.5l-3.3,0.7c-0.6,0.1-1.5,0.2-2.7,0.2C-490.9,661-490.3,661.6-489.8,662.1L-489.8,662.1z
		 M-468.1,662.1l2.2,2.4l-3.8,2.9l-1.6-2.9c-0.2-0.4-0.6-1.2-1.1-2.4c-0.6,1.3-0.9,2.1-1.1,2.4l-1.6,2.9l-3.9-2.9l2.4-2.4
		c0.7-0.7,1.3-1.2,2-1.7c-0.7-0.1-1.5-0.2-2.6-0.4l-3.3-0.5l1.5-4.5l3,1.3c0.3,0.1,1.1,0.6,2.3,1.3c-0.3-1.2-0.4-2.1-0.5-2.7
		l-0.4-3.2h4.7l-0.4,3.2c-0.1,0.8-0.3,1.7-0.5,2.7c0.5-0.3,0.9-0.5,1.1-0.6c0.6-0.3,1-0.6,1.4-0.7l3-1.4l1.5,4.5l-3.3,0.7
		c-0.6,0.1-1.5,0.2-2.7,0.2C-469.2,661-468.5,661.6-468.1,662.1L-468.1,662.1z M-443.7,666.2c0,1-0.8,1.8-1.8,1.8h-10.1
		c-1,0-1.8-0.8-1.8-1.8v-6.1c0-1,0.8-1.8,1.8-1.8h0.2V656c0-2.7,2.2-4.8,4.8-4.8s4.8,2.2,4.8,4.8v2.3h0.2c1,0,1.8,0.8,1.8,1.8
		L-443.7,666.2L-443.7,666.2z"/>
</g>
</svg>
