<?xml version="1.0" encoding="utf-8"?>
<!-- Generator: Adobe Illustrator 19.1.0, SVG Export Plug-In . SVG Version: 6.00 Build 0)  -->
<svg version="1.1" id="Layer_1" xmlns="http://www.w3.org/2000/svg" xmlns:xlink="http://www.w3.org/1999/xlink" x="0px" y="0px"
	 viewBox="0 0 534.1 423.9" style="enable-background:new 0 0 534.1 423.9;" xml:space="preserve">
<style type="text/css">
	.st0{fill:#00A8A2;}
	.st1{fill:#D2D3D4;}
	.st2{fill:none;stroke:#BBBDBF;stroke-miterlimit:10;}
	.st3{fill:#69A9B0;}
	.st4{opacity:0.9;}
	.st5{fill:#25292B;}
	.st6{fill:#F5DBB4;}
	.st7{fill:#CA8E5E;}
	.st8{fill:#3A8488;}
	.st9{fill:#221D10;}
	.st10{fill:#D98E88;}
	.st11{fill:#753528;}
	.st12{fill:#1B120D;}
	.st13{fill:#13110C;}
	.st14{opacity:0.8;fill:#FFFFFF;}
	.st15{fill:#2D2011;}
	.st16{fill:#4E9A98;}
	.st17{fill:#122830;}
	.st18{fill:#4A5356;}
	.st19{fill:#121617;}
	.st20{fill:#63B4B4;}
	.st21{fill:#FCEB0A;}
	.st22{fill:#FDF5B6;}
	.st23{fill:#979797;}
	.st24{fill:#EEC92C;}
	.st25{fill:#FFFFFF;}
	.st26{fill:#4D4930;}
	.st27{fill:#3F4040;}
	.st28{fill:#515252;}
	.st29{fill:#474B4C;}
	.st30{fill:#FDE0C4;}
	.st31{fill:#463615;}
	.st32{fill:#E4E4E4;}
	.st33{fill:#151515;}
	.st34{fill:#676B6B;}
	.st35{fill:#2E3030;}
	.st36{fill:#725C2A;}
	.st37{fill:#493A1A;}
	.st38{fill:none;stroke:#D2D3D4;stroke-miterlimit:10;}
	.st39{fill:#F1F1F2;}
	.st40{opacity:0.9;fill:#F5FBFD;}
	.st41{fill:#484359;}
	.st42{fill:#484359;stroke:#B6B5BD;stroke-linecap:round;}
	.st43{fill:#333333;}
	.st44{fill:#F2F2F2;}
	.st45{fill:none;stroke:#676767;stroke-miterlimit:10;}
	.st46{fill:url(#SVGID_1_);}
	.st47{fill:#E6E7E8;}
	.st48{fill:#FCFDFF;}
	.st49{opacity:0.6;fill:#FFFFFF;stroke:#BDE0DE;}
	.st50{fill:none;stroke:#000000;stroke-miterlimit:10;}
	.st51{fill:none;stroke:#231F20;}
	.st52{fill:none;stroke:#D0D2D3;}
	.st53{fill:none;stroke:#FFFFFF;}
	.st54{opacity:0.9;fill:url(#SVGID_2_);}
	.st55{fill:#CCCBCB;}
	.st56{fill:#1A1A1A;}
	.st57{opacity:0.3;fill:#FFFFFF;}
	.st58{fill:#FFFFFF;stroke:#EDDBD4;}
	.st59{fill:url(#SVGID_3_);}
	.st60{opacity:0.2;}
	.st61{fill:#37334A;}
	.st62{fill:none;stroke:#37334A;}
	.st63{fill:none;stroke:#B6B5BD;}
	.st64{fill:#6D697A;}
	.st65{fill:#ECF7FD;stroke:#EDEBE6;stroke-miterlimit:10;}
	.st66{fill:none;stroke:#69BAB5;stroke-width:5;stroke-linecap:round;stroke-linejoin:round;}
	.st67{fill:#69BAB5;}
	.st68{fill:#D0D2D3;stroke:#FFFFFF;stroke-miterlimit:10;}
	.st69{opacity:0.2;fill:#E5E5E4;}
	.st70{opacity:0.6;fill:#69BAB5;}
	.st71{fill:none;stroke:#EF5245;stroke-miterlimit:10;}
	.st72{fill:#EF5245;}
	.st73{fill:#BBBDBF;}
	.st74{fill:#E1E1E1;}
	.st75{fill:#F16541;}
	.st76{fill:#8F8E8E;}
	.st77{fill:#58595B;}
	.st78{fill:#F1F2EE;}
	.st79{fill:#929497;}
	.st80{fill:none;stroke:#FEEB99;stroke-miterlimit:10;}
	.st81{fill-rule:evenodd;clip-rule:evenodd;fill:#221F1F;}
	.st82{fill-rule:evenodd;clip-rule:evenodd;fill:#EF5245;}
	.st83{opacity:0.3;}
	.st84{opacity:0.7;fill:#69BAB5;}
	.st85{fill:#D1D2D3;}
	.st86{fill:#59595C;}
	.st87{fill:#E6E6E6;}
	.st88{fill:#221F1F;}
	.st89{fill:#F1F1F1;}
	.st90{fill:#C0C0C0;}
	.st91{fill:#E7D7BF;}
	.st92{fill:#CF9D76;}
	.st93{fill:#DEB18A;}
	.st94{fill:none;stroke:#221F1F;stroke-width:0.437;stroke-miterlimit:10;}
	.st95{fill:#7E8090;}
	.st96{fill:#8F939F;}
	.st97{fill:none;stroke:#E8D0A6;stroke-width:0.13;stroke-miterlimit:10;}
	.st98{fill:#686C7A;}
	.st99{fill:#C8C8C8;}
	.st100{fill:#D3D3D3;}
	.st101{fill:#3E5554;}
	.st102{fill:#595B61;}
	.st103{fill:#606269;}
	.st104{fill:#4F5056;}
	.st105{fill:#F1E4D2;}
	.st106{fill:#CBB295;}
	.st107{fill:#3C2417;}
	.st108{fill:#6D6E71;}
	.st109{fill:#E0EAE8;}
	.st110{fill:#EDF3F1;}
	.st111{fill:#A87C51;}
	.st112{fill:none;stroke:#221F1F;stroke-width:0.48;stroke-miterlimit:10;}
	.st113{fill:#B9DBE7;}
	.st114{fill:#D5E9F0;}
	.st115{fill:#27A8E0;}
	.st116{fill:#BCBDBF;}
	.st117{fill:#ADE0F4;}
	.st118{fill:#CCEBF7;}
	.st119{fill:#93A3A7;}
	.st120{fill:#56696E;}
	.st121{fill:#5C7075;}
	.st122{fill:none;stroke:#E8D0A6;stroke-width:0.116;stroke-miterlimit:10;}
	.st123{fill:#3E5156;}
	.st124{fill:#A3B1B4;}
	.st125{fill:#BCBCBF;}
	.st126{fill:#766E5C;}
	.st127{fill:#94A0A8;}
	.st128{fill:#6D6655;}
	.st129{fill:#564D3D;}
	.st130{fill:#A4AEB4;}
	.st131{fill:#3D4C55;}
	.st132{fill:#C2986B;}
	.st133{fill:none;stroke:#FFFFFF;stroke-miterlimit:10;}
	.st134{fill:url(#SVGID_4_);}
	.st135{opacity:0.9;fill:url(#SVGID_5_);}
	.st136{fill:url(#SVGID_6_);}
	.st137{fill:none;stroke:#BBBDBF;stroke-width:2;stroke-miterlimit:10;}
	.st138{fill:none;stroke:#E6E7E8;stroke-miterlimit:10;}
	.st139{fill:url(#SVGID_7_);}
	.st140{opacity:0.9;fill:url(#SVGID_8_);}
	.st141{fill:url(#SVGID_9_);}
	.st142{fill:url(#SVGID_10_);}
	.st143{opacity:0.9;fill:url(#SVGID_11_);}
	.st144{fill:url(#SVGID_12_);}
</style>
<g>
	<g>
		<path class="st74" d="M432.1,360.2l-0.8-0.6c1.7-2.1,3.4-4.3,5-6.4l0.8,0.6C435.5,355.9,433.8,358.1,432.1,360.2z"/>
		<path class="st74" d="M111,358.5c-1.7-2.1-3.3-4.3-4.9-6.5l0.8-0.6c1.6,2.2,3.2,4.4,4.9,6.5L111,358.5z"/>
		<path class="st74" d="M441.8,347.1l-0.8-0.6c1.5-2.2,3-4.5,4.5-6.8l0.9,0.5C444.9,342.5,443.4,344.8,441.8,347.1z"/>
		<path class="st74" d="M101.4,345.3c-1.5-2.2-3-4.6-4.4-6.9l0.9-0.5c1.4,2.3,2.9,4.6,4.4,6.9L101.4,345.3z"/>
		<path class="st74" d="M450.5,333.2l-0.9-0.5c1.3-2.4,2.7-4.8,3.9-7.2l0.9,0.5C453.2,328.4,451.9,330.8,450.5,333.2z"/>
		<path class="st74" d="M92.9,331.4c-1.3-2.4-2.6-4.8-3.8-7.2l0.9-0.5c1.2,2.4,2.5,4.8,3.8,7.2L92.9,331.4z"/>
		<path class="st74" d="M458.1,318.6l-0.9-0.4c1.2-2.5,2.3-5,3.3-7.5l0.9,0.4C460.4,313.6,459.3,316.2,458.1,318.6z"/>
		<path class="st74" d="M85.5,316.8c-1.1-2.5-2.2-5-3.3-7.5l0.9-0.4c1,2.5,2.1,5,3.2,7.5L85.5,316.8z"/>
		<path class="st74" d="M464.5,303.5l-1-0.4c1-2.5,1.9-5.1,2.7-7.7l1,0.3C466.4,298.4,465.5,301,464.5,303.5z"/>
		<path class="st74" d="M79.3,301.7c-0.9-2.6-1.8-5.2-2.6-7.7l1-0.3c0.8,2.6,1.7,5.2,2.6,7.7L79.3,301.7z"/>
		<path class="st74" d="M469.6,287.9l-1-0.3c0.7-2.6,1.4-5.2,2.1-7.9l1,0.2C471.1,282.7,470.4,285.3,469.6,287.9z"/>
		<path class="st74" d="M74.3,286.1c-0.7-2.6-1.4-5.3-2-7.9l1-0.2c0.6,2.6,1.3,5.3,2,7.9L74.3,286.1z"/>
		<path class="st74" d="M473.5,272l-1-0.2c0.5-2.7,1-5.4,1.4-8l1,0.2C474.5,266.6,474,269.4,473.5,272z"/>
		<path class="st74" d="M70.6,270.1c-0.5-2.7-1-5.4-1.4-8.1l1-0.2c0.4,2.7,0.9,5.4,1.4,8L70.6,270.1z"/>
		<path class="st74" d="M476.1,255.9l-1-0.1c0.3-2.7,0.6-5.4,0.8-8.1l1,0.1C476.7,250.4,476.4,253.2,476.1,255.9z"/>
		<path class="st74" d="M68.1,253.9c-0.3-2.7-0.5-5.4-0.7-8.2l1-0.1c0.2,2.7,0.4,5.4,0.7,8.1L68.1,253.9z"/>
		<path class="st74" d="M477.4,239.5l-1,0c0.1-2.7,0.2-5.4,0.2-8.1h1C477.5,234.1,477.5,236.8,477.4,239.5z"/>
		<path class="st74" d="M67,237.6c-0.1-2.1-0.1-4.2-0.1-6.2c0-0.6,0-1.3,0-1.9l1,0c0,0.6,0,1.3,0,1.9c0,2.1,0,4.2,0.1,6.2L67,237.6z
			"/>
		<path class="st74" d="M476.5,227.1c-0.1-2.7-0.2-5.5-0.3-8.1l1-0.1c0.2,2.7,0.3,5.5,0.3,8.2L476.5,227.1z"/>
		<path class="st74" d="M68.2,221.3l-1,0c0.1-2.7,0.3-5.5,0.6-8.2l1,0.1C68.5,215.8,68.3,218.6,68.2,221.3z"/>
		<path class="st74" d="M475.5,210.8c-0.3-2.7-0.6-5.4-1-8.1l1-0.1c0.4,2.7,0.7,5.4,1,8.1L475.5,210.8z"/>
		<path class="st74" d="M69.6,205l-1-0.1c0.3-2.7,0.8-5.4,1.2-8.1l1,0.2C70.4,199.7,70,202.4,69.6,205z"/>
		<path class="st74" d="M473.2,194.7c-0.5-2.7-1-5.4-1.6-8l1-0.2c0.6,2.6,1.1,5.3,1.6,8L473.2,194.7z"/>
		<path class="st74" d="M72.3,189l-1-0.2c0.6-2.7,1.2-5.3,1.9-8l1,0.3C73.5,183.7,72.9,186.3,72.3,189z"/>
		<path class="st74" d="M469.7,178.8c-0.7-2.6-1.5-5.3-2.3-7.8l1-0.3c0.8,2.6,1.6,5.2,2.3,7.9L469.7,178.8z"/>
		<path class="st74" d="M76.3,173.2l-1-0.3c0.8-2.6,1.6-5.2,2.5-7.8l1,0.3C77.9,168,77.1,170.6,76.3,173.2z"/>
		<path class="st74" d="M464.9,163.2c-0.9-2.5-1.9-5.1-2.9-7.6l0.9-0.4c1,2.5,2,5.1,2.9,7.7L464.9,163.2z"/>
		<path class="st74" d="M81.6,157.7l-1-0.4c1-2.5,2-5.1,3.1-7.6l0.9,0.4C83.6,152.7,82.6,155.2,81.6,157.7z"/>
		<path class="st74" d="M458.8,148.1c-1.1-2.5-2.3-4.9-3.5-7.4l0.9-0.5c1.2,2.4,2.4,4.9,3.5,7.4L458.8,148.1z"/>
		<path class="st74" d="M88.1,142.8l-0.9-0.4c1.2-2.4,2.4-4.9,3.7-7.3l0.9,0.5C90.5,137.9,89.3,140.3,88.1,142.8z"/>
		<path class="st74" d="M451.6,133.5c-1.3-2.4-2.7-4.7-4-7.1l0.9-0.5c1.4,2.3,2.8,4.7,4.1,7.1L451.6,133.5z"/>
		<path class="st74" d="M95.8,128.4l-0.9-0.5c1.4-2.3,2.8-4.7,4.3-7l0.9,0.6C98.6,123.7,97.1,126,95.8,128.4z"/>
		<path class="st74" d="M443.2,119.6c-1.5-2.3-3-4.5-4.6-6.7l0.8-0.6c1.6,2.2,3.1,4.5,4.6,6.8L443.2,119.6z"/>
		<path class="st74" d="M109.4,108c-1.6,2.2-3.2,4.4-4.8,6.6l-0.8-0.6c1.6-2.2,3.2-4.5,4.8-6.6"/>
		<rect x="84.2" y="281" transform="matrix(0.3262 0.9453 -0.9453 0.3262 326.618 112.0101)" class="st74" width="1" height="8.2"/>
		
			<rect x="99.7" y="275.7" transform="matrix(0.3261 0.9453 -0.9453 0.3261 332.0115 93.8377)" class="st74" width="1" height="8.2"/>
		
			<rect x="115.1" y="270.4" transform="matrix(0.3262 0.9453 -0.9453 0.3262 337.3683 75.6197)" class="st74" width="1" height="8.2"/>
		
			<rect x="130.6" y="265.1" transform="matrix(0.3262 0.9453 -0.9453 0.3262 342.7458 57.4268)" class="st74" width="1" height="8.2"/>
		
			<rect x="146" y="259.7" transform="matrix(0.3261 0.9453 -0.9453 0.3261 348.1425 39.2512)" class="st74" width="1" height="8.2"/>
		
			<rect x="161.5" y="254.4" transform="matrix(0.3262 0.9453 -0.9453 0.3262 353.4972 21.0377)" class="st74" width="1" height="8.2"/>
		
			<rect x="176.9" y="249.1" transform="matrix(0.3262 0.9453 -0.9453 0.3262 358.8732 2.8432)" class="st74" width="1" height="8.2"/>
		
			<rect x="192.4" y="243.7" transform="matrix(0.3261 0.9453 -0.9453 0.3261 364.2734 -15.3353)" class="st74" width="1" height="8.2"/>
		
			<rect x="207.8" y="238.4" transform="matrix(0.3262 0.9453 -0.9453 0.3262 369.6245 -33.5459)" class="st74" width="1" height="8.2"/>
		
			<rect x="223.3" y="233.1" transform="matrix(0.3262 0.9453 -0.9453 0.3262 375.0005 -51.7404)" class="st74" width="1" height="8.2"/>
		
			<rect x="238.7" y="227.8" transform="matrix(0.3261 0.9453 -0.9453 0.3261 380.4044 -69.9217)" class="st74" width="1" height="8.2"/>
		
			<rect x="254.2" y="222.4" transform="matrix(0.326 0.9454 -0.9454 0.326 385.8062 -88.1068)" class="st74" width="1" height="8.2"/>
		<polygon class="st74" points="266.5,223 266.1,222.1 270.4,220.6 270.3,220.5 270.5,219.5 274,220.4 		"/>
		
			<rect x="254.4" y="216.6" transform="matrix(0.9704 0.2416 -0.2416 0.9704 60.0968 -56.0189)" class="st74" width="8.2" height="1"/>
		
			<rect x="238.6" y="212.6" transform="matrix(0.9704 0.2416 -0.2416 0.9704 58.6702 -52.3024)" class="st74" width="8.2" height="1"/>
		
			<rect x="222.7" y="208.7" transform="matrix(0.9704 0.2416 -0.2416 0.9704 57.2465 -48.5882)" class="st74" width="8.2" height="1"/>
		
			<rect x="206.8" y="204.7" transform="matrix(0.9704 0.2416 -0.2416 0.9704 55.8272 -44.8764)" class="st74" width="8.2" height="1"/>
		
			<rect x="191" y="200.8" transform="matrix(0.9704 0.2416 -0.2416 0.9704 54.4146 -41.1684)" class="st74" width="8.2" height="1"/>
		
			<rect x="175.1" y="196.8" transform="matrix(0.9704 0.2415 -0.2415 0.9704 52.9543 -37.4339)" class="st74" width="8.2" height="1"/>
		
			<rect x="159.3" y="192.9" transform="matrix(0.9704 0.2415 -0.2415 0.9704 51.5393 -33.7248)" class="st74" width="8.2" height="1"/>
		
			<rect x="143.4" y="188.9" transform="matrix(0.9704 0.2416 -0.2416 0.9704 50.1329 -30.0189)" class="st74" width="8.2" height="1"/>
		
			<rect x="127.5" y="185" transform="matrix(0.9704 0.2415 -0.2415 0.9704 48.6832 -26.2942)" class="st74" width="8.2" height="1"/>
		
			<rect x="111.7" y="181" transform="matrix(0.9704 0.2416 -0.2416 0.9704 47.2953 -22.5932)" class="st74" width="8.2" height="1"/>
		<rect x="95.8" y="177.1" transform="matrix(0.9704 0.2416 -0.2416 0.9704 45.86 -18.8751)" class="st74" width="8.2" height="1"/>
		<rect x="80" y="173.1" transform="matrix(0.9704 0.2415 -0.2415 0.9704 44.4247 -15.1584)" class="st74" width="8.2" height="1"/>
		
			<rect x="64.1" y="169.2" transform="matrix(0.9704 0.2416 -0.2416 0.9704 43.0126 -11.4467)" class="st74" width="8.2" height="1"/>
		
			<rect x="464.5" y="290.3" transform="matrix(0.9414 0.3373 -0.3373 0.9414 125.5402 -140.9976)" class="st74" width="8.2" height="1"/>
		
			<rect x="449.1" y="284.8" transform="matrix(0.9414 0.3372 -0.3372 0.9414 122.7354 -136.0964)" class="st74" width="8.2" height="1"/>
		
			<rect x="433.7" y="279.3" transform="matrix(0.9414 0.3372 -0.3372 0.9414 119.9782 -131.2328)" class="st74" width="8.2" height="1"/>
		
			<rect x="418.3" y="273.8" transform="matrix(0.9414 0.3372 -0.3372 0.9414 117.2187 -126.3677)" class="st74" width="8.2" height="1"/>
		
			<rect x="402.9" y="268.3" transform="matrix(0.9414 0.3372 -0.3372 0.9414 114.4597 -121.5029)" class="st74" width="8.2" height="1"/>
		
			<rect x="387.6" y="262.8" transform="matrix(0.9414 0.3373 -0.3373 0.9414 111.7451 -116.6704)" class="st74" width="8.2" height="1"/>
		
			<rect x="372.2" y="257.2" transform="matrix(0.9414 0.3373 -0.3373 0.9414 108.9849 -111.8042)" class="st74" width="8.2" height="1"/>
		
			<rect x="356.8" y="251.7" transform="matrix(0.9414 0.3372 -0.3372 0.9414 106.2049 -106.9238)" class="st74" width="8.2" height="1"/>
		
			<rect x="341.4" y="246.2" transform="matrix(0.9414 0.3373 -0.3373 0.9414 103.4584 -102.0672)" class="st74" width="8.2" height="1"/>
		
			<rect x="326" y="240.7" transform="matrix(0.9414 0.3373 -0.3373 0.9414 100.698 -97.2009)" class="st74" width="8.2" height="1"/>
		
			<rect x="310.6" y="235.2" transform="matrix(0.9414 0.3372 -0.3372 0.9414 97.924 -92.3255)" class="st74" width="8.2" height="1"/>
		
			<rect x="295.2" y="229.7" transform="matrix(0.9414 0.3372 -0.3372 0.9414 95.1439 -87.4465)" class="st74" width="8.2" height="1"/>
		
			<rect x="279.9" y="224.2" transform="matrix(0.9414 0.3372 -0.3372 0.9414 92.3849 -82.5818)" class="st74" width="8.2" height="1"/>
		<polygon class="st74" points="272.2,221 270.1,220.3 280.1,218.9 280.2,219.9 272.3,221 272.3,220.9 		"/>
		
			<rect x="291.8" y="213.6" transform="matrix(0.1367 0.9906 -0.9906 0.1367 468.014 -101.5567)" class="st74" width="1" height="8.2"/>
		
			<rect x="308" y="211.4" transform="matrix(0.1369 0.9906 -0.9906 0.1369 479.7312 -119.5452)" class="st74" width="1" height="8.2"/>
		
			<rect x="324.1" y="209.2" transform="matrix(0.1366 0.9906 -0.9906 0.1366 491.5955 -137.4581)" class="st74" width="1" height="8.2"/>
		
			<rect x="340.3" y="207" transform="matrix(0.1368 0.9906 -0.9906 0.1368 503.2976 -155.4505)" class="st74" width="1" height="8.2"/>
		
			<rect x="356.5" y="204.8" transform="matrix(0.1367 0.9906 -0.9906 0.1367 515.1243 -173.3866)" class="st74" width="1" height="8.2"/>
		
			<rect x="372.7" y="202.5" transform="matrix(0.1366 0.9906 -0.9906 0.1366 526.9512 -191.3252)" class="st74" width="1" height="8.2"/>
		
			<rect x="388.9" y="200.3" transform="matrix(0.1367 0.9906 -0.9906 0.1367 538.6735 -209.3043)" class="st74" width="1" height="8.2"/>
		
			<rect x="405.1" y="198.1" transform="matrix(0.1369 0.9906 -0.9906 0.1369 550.3536 -227.2947)" class="st74" width="1" height="8.2"/>
		
			<rect x="421.3" y="195.9" transform="matrix(0.1367 0.9906 -0.9906 0.1367 562.2017 -245.2272)" class="st74" width="1" height="8.2"/>
		
			<rect x="437.5" y="193.6" transform="matrix(0.1368 0.9906 -0.9906 0.1368 573.9711 -263.1872)" class="st74" width="1" height="8.2"/>
		
			<rect x="453.7" y="191.4" transform="matrix(0.1367 0.9906 -0.9906 0.1367 585.7795 -281.1358)" class="st74" width="1" height="8.2"/>
		
			<rect x="469.9" y="189.2" transform="matrix(0.1366 0.9906 -0.9906 0.1366 597.6239 -299.0762)" class="st74" width="1" height="8.2"/>
		
			<rect x="265.8" y="216.5" transform="matrix(0.5675 0.8234 -0.8234 0.5675 295.4232 -128.315)" class="st74" width="8.2" height="1"/>
		
			<rect x="280.1" y="207.6" transform="matrix(0.7207 0.6933 -0.6933 0.7207 225.1749 -135.4227)" class="st74" width="1" height="8.2"/>
		
			<rect x="256.5" y="203.1" transform="matrix(0.5674 0.8234 -0.8234 0.5674 280.3561 -126.4976)" class="st74" width="8.2" height="1"/>
		
			<rect x="291.5" y="195.9" transform="matrix(0.7209 0.6931 -0.6931 0.7209 220.0658 -146.5438)" class="st74" width="1" height="8.2"/>
		
			<rect x="247.2" y="189.6" transform="matrix(0.5674 0.8234 -0.8234 0.5674 265.2523 -124.6825)" class="st74" width="8.2" height="1"/>
		
			<rect x="302.8" y="184.1" transform="matrix(0.7206 0.6933 -0.6933 0.7206 215.1868 -157.7133)" class="st74" width="1" height="8.2"/>
		
			<rect x="237.9" y="176.2" transform="matrix(0.5674 0.8234 -0.8234 0.5674 250.1605 -122.8667)" class="st74" width="8.2" height="1"/>
		
			<rect x="314.1" y="172.3" transform="matrix(0.7209 0.6931 -0.6931 0.7209 210.0563 -168.8194)" class="st74" width="1" height="8.2"/>
		
			<rect x="325.4" y="160.5" transform="matrix(0.7206 0.6933 -0.6933 0.7206 205.1739 -180.0003)" class="st74" width="1" height="8.2"/>
		
			<rect x="228.7" y="162.7" transform="matrix(0.5675 0.8234 -0.8234 0.5675 235.0574 -121.0513)" class="st74" width="8.2" height="1"/>
		
			<rect x="336.8" y="148.7" transform="matrix(0.7204 0.6935 -0.6935 0.7204 200.2695 -191.1843)" class="st74" width="1" height="8.2"/>
		
			<rect x="219.4" y="149.2" transform="matrix(0.5674 0.8234 -0.8234 0.5674 219.9753 -119.2355)" class="st74" width="8.2" height="1"/>
		
			<rect x="348.1" y="136.9" transform="matrix(0.7207 0.6933 -0.6933 0.7207 195.1361 -202.2763)" class="st74" width="1" height="8.2"/>
		
			<rect x="210.1" y="135.8" transform="matrix(0.5675 0.8234 -0.8234 0.5675 204.873 -117.4196)" class="st74" width="8.2" height="1"/>
		
			<rect x="359.4" y="125.2" transform="matrix(0.7209 0.6931 -0.6931 0.7209 190.0313 -213.3691)" class="st74" width="1" height="8.2"/>
		
			<rect x="200.8" y="122.3" transform="matrix(0.5675 0.8234 -0.8234 0.5675 189.78 -115.6035)" class="st74" width="8.2" height="1"/>
		
			<rect x="370.7" y="113.4" transform="matrix(0.7211 0.6928 -0.6928 0.7211 184.9015 -224.44)" class="st74" width="1" height="8.2"/>
		<polyline class="st74" points="193.8,105.7 198.4,112.5 197.5,113 192.9,106.3 		"/>
		<polyline class="st74" points="385.8,103.1 380.1,109 379.4,108.3 385,102.4 		"/>
		<polyline class="st74" points="168.8,362.7 173.6,356.1 174.4,356.7 169.7,363.3 		"/>
		
			<rect x="421.3" y="355.9" transform="matrix(0.7471 0.6648 -0.6648 0.7471 344.4905 -192.6317)" class="st74" width="8.2" height="1"/>
		
			<rect x="180.7" y="342.4" transform="matrix(0.8104 0.5858 -0.5858 0.8104 237.3092 -40.4838)" class="st74" width="1" height="8.2"/>
		
			<rect x="409.1" y="345" transform="matrix(0.7472 0.6646 -0.6646 0.7472 334.0779 -187.2424)" class="st74" width="8.2" height="1"/>
		
			<rect x="396.8" y="334.1" transform="matrix(0.7473 0.6644 -0.6644 0.7473 323.6242 -181.8449)" class="st74" width="8.2" height="1"/>
		
			<rect x="190.3" y="329.1" transform="matrix(0.8104 0.5859 -0.5859 0.8104 231.3963 -48.5993)" class="st74" width="1" height="8.2"/>
		
			<rect x="384.6" y="323.2" transform="matrix(0.7476 0.6642 -0.6642 0.7476 313.143 -176.4379)" class="st74" width="8.2" height="1"/>
		
			<rect x="199.8" y="315.9" transform="matrix(0.8104 0.5858 -0.5858 0.8104 225.4198 -56.7216)" class="st74" width="1" height="8.2"/>
		
			<rect x="372.4" y="312.4" transform="matrix(0.7477 0.6641 -0.6641 0.7477 302.7576 -171.0432)" class="st74" width="8.2" height="1"/>
		
			<rect x="209.4" y="302.6" transform="matrix(0.8105 0.5858 -0.5858 0.8105 219.4524 -64.8414)" class="st74" width="1" height="8.2"/>
		
			<rect x="360.1" y="301.5" transform="matrix(0.7478 0.6639 -0.6639 0.7478 292.3747 -165.6459)" class="st74" width="8.2" height="1"/>
		
			<rect x="219" y="289.4" transform="matrix(0.8104 0.5859 -0.5859 0.8104 213.5368 -72.9599)" class="st74" width="1" height="8.2"/>
		
			<rect x="347.9" y="290.6" transform="matrix(0.748 0.6637 -0.6637 0.748 281.9134 -160.2329)" class="st74" width="8.2" height="1"/>
		
			<rect x="228.6" y="276.1" transform="matrix(0.8105 0.5858 -0.5858 0.8105 207.5596 -81.0777)" class="st74" width="1" height="8.2"/>
		
			<rect x="335.6" y="279.8" transform="matrix(0.7482 0.6634 -0.6634 0.7482 271.4718 -154.8185)" class="st74" width="8.2" height="1"/>
		
			<rect x="323.4" y="268.9" transform="matrix(0.7482 0.6635 -0.6635 0.7482 261.1903 -149.4275)" class="st74" width="8.2" height="1"/>
		
			<rect x="238.1" y="262.9" transform="matrix(0.8105 0.5858 -0.5858 0.8105 201.6165 -89.1959)" class="st74" width="1" height="8.2"/>
		
			<rect x="311.1" y="258" transform="matrix(0.7484 0.6632 -0.6632 0.7484 250.7583 -144.0076)" class="st74" width="8.2" height="1"/>
		
			<rect x="247.7" y="249.6" transform="matrix(0.8104 0.5858 -0.5858 0.8104 195.6915 -97.3172)" class="st74" width="1" height="8.2"/>
		
			<rect x="298.8" y="247.2" transform="matrix(0.7486 0.663 -0.663 0.7486 240.3821 -138.5914)" class="st74" width="8.2" height="1"/>
		
			<rect x="257.3" y="236.4" transform="matrix(0.8104 0.5858 -0.5858 0.8104 189.7455 -105.4363)" class="st74" width="1" height="8.2"/>
		
			<rect x="286.6" y="236.3" transform="matrix(0.7487 0.6629 -0.6629 0.7487 229.994 -133.1681)" class="st74" width="8.2" height="1"/>
		
			<rect x="266.8" y="223.1" transform="matrix(0.8106 0.5856 -0.5856 0.8106 183.6895 -113.5283)" class="st74" width="1" height="8.2"/>
		
			<rect x="274.2" y="225.4" transform="matrix(0.749 0.6626 -0.6626 0.749 219.5249 -127.7155)" class="st74" width="8.3" height="1"/>
		<circle class="st74" cx="76.6" cy="171.1" r="8.2"/>
		<circle class="st74" cx="105" cy="351.3" r="4.6"/>
		<path class="st74" d="M430.5,367.5c-4.5,0-8.2-3.7-8.2-8.2c0-4.5,3.7-8.2,8.2-8.2c4.5,0,8.2,3.7,8.2,8.2
			C438.8,363.9,435.1,367.5,430.5,367.5"/>
		<circle class="st74" cx="473.9" cy="192.4" r="6.8"/>
		<circle class="st74" cx="469.3" cy="291.2" r="4.6"/>
		<circle class="st74" cx="441.7" cy="119.5" r="6.7"/>
		<circle class="st74" cx="355.9" cy="209.9" r="5.1"/>
		<circle class="st74" cx="194" cy="247.3" r="3"/>
	</g>
</g>
</svg>
