<svg id="Layer_1" xmlns="http://www.w3.org/2000/svg" viewBox="0 0 368 370.8"><style>.st0{fill:#fafafa}.st1{fill:#fff}.st2{fill:#d0d2d3}.st3,.st4{fill:none;stroke-miterlimit:10}.st3{stroke-width:.6;stroke:#cda3df}.st4{stroke:#000d05;stroke-linecap:round;stroke-linejoin:round}.st5{fill:#231f20}.st6{opacity:.6;fill:#652d90}.st7{fill:none;stroke:#6d6e70;stroke-miterlimit:10}.st8{opacity:.8;fill:#e94150}.st9{fill:url(#SVGID_1_)}.st10{fill:url(#SVGID_2_)}.st11{opacity:.3;fill:url(#SVGID_3_)}.st12,.st13{fill:none;stroke-miterlimit:10}.st12{opacity:.3;stroke:#fff;stroke-width:.4}.st13{stroke:#d0d2d3;stroke-width:2;stroke-dasharray:12.0696,20.1161}.st14{clip-path:url(#XMLID_16_)}.st15{fill-rule:evenodd;clip-rule:evenodd;fill:#f1f0fa}.st16{fill:#ec1c24}.st17{fill:none;stroke:#babcbe;stroke-miterlimit:10}.st18{opacity:.9;fill:#f4fafc}.st19,.st20{fill:#484359}.st20{stroke:#b6b5bd;stroke-linecap:round}.st21{fill:none;stroke:#231f20}.st22{fill:#333}.st23{fill:#f2f2f2}.st24{fill:none;stroke:#676767;stroke-miterlimit:10}.st25{fill:url(#SVGID_4_)}.st26{opacity:.9;fill:url(#SVGID_5_)}.st27{fill:#cbcaca}.st28{fill:#1a1a1a}.st29{opacity:.3;fill:#fff}.st30{fill:#fff;stroke:#ecdad3}.st31{fill:url(#SVGID_6_)}.st32{opacity:.2}.st33{fill:#38334a}.st34,.st35{fill:none;stroke:#38334a}.st35{stroke:#b6b5bd}.st36{fill:#6d697a}.st37{opacity:.8}.st38{fill:none;stroke:#fff;stroke-width:5;stroke-linecap:round;stroke-linejoin:round}.st39{fill:#ebe6e5;stroke:#eceae5;stroke-miterlimit:10}.st40{opacity:.9}.st41{fill:none;stroke:#fff;stroke-width:2;stroke-linecap:round;stroke-linejoin:round}.st42{fill:#ebf7fd;stroke:#eceae5;stroke-miterlimit:10}.st43{opacity:.2;fill:#e4e4e3}.st44{opacity:.6;fill:#69bbb6}.st45{fill:none;stroke:#ee5345;stroke-miterlimit:10}.st46{fill:#ee5345}.st47{fill:#babcbe}.st48{fill:#e0e0e0}.st49{fill:#ef6541}.st50{fill:#8e8d8d}.st51{fill:#59595c}.st52{fill:#f1f2ee}.st53{fill:#f1f1f1}.st54{fill:#919395}.st55{fill:none;stroke:#fdeb98;stroke-miterlimit:10}.st56,.st57{fill-rule:evenodd;clip-rule:evenodd;fill:#211f1f}.st57{fill:#ee5345}.st58{fill:#00a7a1}.st59,.st60{opacity:.7;fill:#69bbb6}.st60{fill:#5c8b88}.st61{fill:#d1d2d2}.st62{fill:#5a595c}.st63{fill:#e5e5e4}.st64{fill:#211f1f}.st65{fill:#bfbfbf}.st66{fill:#e6d6bf}.st67{fill:#cf9d76}.st68{fill:#ddb089}.st69{fill:none;stroke:#211f1f;stroke-width:.437;stroke-miterlimit:10}.st70{fill:#7e808f}.st71{fill:#8e929e}.st72{fill:none;stroke:#e7cfa5;stroke-width:.13;stroke-miterlimit:10}.st73{fill:#686c7a}.st74{fill:#c7c7c7}.st75{fill:#d2d2d2}.st76{fill:#3f5554}.st77{fill:#595c62}.st78{fill:#61636a}.st79{fill:#505157}.st80{fill:#f0e3d1}.st81{fill:#cab194}.st82{fill:#3c2418}.st83{fill:#6d6e71}.st84{fill:#dee8e6}.st85{fill:#ecf2f0}.st86{fill:#a77d51}.st87{fill:none;stroke:#211f1f;stroke-width:.48;stroke-miterlimit:10}.st88{fill:#b8dae6}.st89{fill:#d3e7ef}.st90{fill:#28a6de}.st91{fill:#bcbcbe}.st92{fill:#addff2}.st93{fill:#cbeaf6}.st94{fill:#92a2a5}.st95{fill:#56696f}.st96{fill:#5c7075}.st97{fill:none;stroke:#e7cfa5;stroke-width:.116;stroke-miterlimit:10}.st98{fill:#3e5156}.st99{fill:#a2b0b4}.st100{fill:#bcbbbe}.st101{fill:#776f5c}.st102{fill:#949fa7}.st103{fill:#6e6656}.st104{fill:#564d3d}.st105{fill:#a4aeb4}.st106{fill:#3d4c55}.st107{fill:#c1966b}.st108{opacity:.3}.st109,.st110{fill:none;stroke-miterlimit:10}.st109{stroke-width:2;stroke:#babcbe}.st110{stroke:#e6e6e6}.st111{fill:#f05b27}.st112{opacity:.8;fill:#fff;stroke:#d0d1d2;stroke-miterlimit:10}.st113{fill:#474f59}.st114{fill:#264e60}.st115{fill:#3e454e}.st116{fill:#dae1db}.st117{fill:#2c5871}.st118{fill:url(#SVGID_7_)}.st119,.st120,.st121,.st122{fill:#fff;stroke:#231f20;stroke-width:4;stroke-miterlimit:10}.st120,.st121,.st122{fill:none;stroke:#f4777c;stroke-linecap:round}.st121,.st122{stroke:#00a7a1}.st122{stroke:#a6a8ab}.st123{opacity:.6;fill:#f1f1f2;stroke:#fff}.st124{fill:none;stroke:#000;stroke-miterlimit:10}.st125{fill:url(#SVGID_8_)}.st126{fill:none;stroke:#fdeb98;stroke-width:5;stroke-linecap:round;stroke-linejoin:round}.st127{fill:#fdeb98}.st128{fill:none;stroke:#69bbb6;stroke-width:3;stroke-linecap:round;stroke-linejoin:round}.st129{fill:#69bbb6}.st130{fill:none;stroke:#fdeb98;stroke-width:2;stroke-linecap:round;stroke-linejoin:round}.st131{fill:#d0d1d2;stroke:#fff;stroke-miterlimit:10}.st132{clip-path:url(#XMLID_18_)}.st133,.st134{fill:#fff;stroke:#69bbb6;stroke-miterlimit:10}.st134{stroke:#fdeb98}.st135{fill:#545454}.st136{fill:#6b6b6b}.st137{fill:#a3a3a3}.st138,.st139{fill:none;stroke:#fff;stroke-width:2;stroke-miterlimit:10}.st139{stroke:#808184}.st140{fill:#e6e6e6}.st141{fill:#999}.st142{fill:#6e7173}.st143{fill:#d9d9d9}.st144{fill:#a8aba8}.st145{fill:none;stroke:#a6a8ab;stroke-miterlimit:10}.st146{fill:#010102}.st147{fill:none}.st148{fill:#3f3543}.st149{fill:#4a4a4a}.st150{fill:#949494}.st151{fill:#ebebeb}.st152{fill:#0c120c}.st153{fill:#3b393a}.st154,.st155{opacity:.5}.st155{fill:none;stroke:#fff;stroke-width:.5;stroke-miterlimit:10}.st156,.st157{fill:#ee5345;stroke:#000;stroke-miterlimit:10}.st157{fill:none;stroke:#808184}.st158{fill:#54686f}.st159{fill:#f49002}.st160{fill:#ee7e97}.st161{fill:#47a036}.st162{fill:#ffecb3}.st163{fill:#9b856e}.st164{fill:#d9e5ef}.st165{fill:#8c695d}.st166{fill:#fcbc86}.st167{fill:#535959}.st168{fill:#353f40}.st169{fill:#2b2d2d}.st170{fill:#3f4e53}.st171{fill:#eaeff7}.st172{fill:#f8a280}.st173{fill:#f7ecd9}.st174{fill:none;stroke:#383838;stroke-linecap:round;stroke-linejoin:round;stroke-miterlimit:10}.st175{fill:#f47d71}.st176{fill:#4f8eb9}.st177{fill:#84585a}.st178{fill:#7a5253}.st179{fill:#6f5a53}.st180{fill:#cfb193}.st181{fill:#694f46}.st182{fill:#ffaf39}.st183{fill:#fcc200}.st184{fill:#ff7bac}.st185{fill:#f1f1f2}.st186{fill:none;stroke:#929497;stroke-miterlimit:10}.st187{fill:#929497}.st188{fill:url(#SVGID_9_)}.st189{fill:#1fc1b1}.st190,.st191{opacity:.4;fill:#a8c5bd}.st191{fill:#f0fbf2}.st192{fill:#4c5557}.st193{fill:#427782}.st194{fill:#e94150}.st195{fill:#1bb687}.st196{fill:none;stroke:#fff;stroke-width:1.5787;stroke-miterlimit:10}.st197{fill:#3dbdc4}.st198{clip-path:url(#XMLID_20_);fill:#fff;stroke:#ffaf39;stroke-width:2.7902;stroke-linecap:round;stroke-linejoin:round;stroke-miterlimit:10}.st199{fill:#6a696e}.st200{clip-path:url(#XMLID_21_);fill:#fff}.st201{fill:#0a5382}.st202{fill:#c5c7c4}.st203{fill:#353537}.st204{fill:#c3c3c5}.st205{fill:#ffbf61}.st206{clip-path:url(#XMLID_23_);fill:#ffaf39}.st207,.st208{fill-rule:evenodd;clip-rule:evenodd;fill:#fff;stroke:#dd553b;stroke-miterlimit:10}.st208{fill:none}.st209,.st210,.st211,.st212{fill-rule:evenodd;clip-rule:evenodd;fill:#595a5a}.st210,.st211,.st212{fill:#fcd97f}.st211,.st212{fill:#fff}.st212{fill:#495a68}.st213{fill:#dd553b}.st214{fill-rule:evenodd;clip-rule:evenodd;fill:#a5a7aa}.st215{fill:#fff;stroke:#bbbdbf;stroke-miterlimit:10}.st216{fill:#d62147}.st217{fill:#ff2756}.st218{opacity:.6}.st219{opacity:.4;fill:url(#SVGID_10_)}.st220,.st221{fill-rule:evenodd;clip-rule:evenodd;fill:#6d6e70}.st221{fill:#231f20}.st222{fill:#bb252e;stroke:#fff;stroke-width:2;stroke-miterlimit:10}.st223,.st224,.st225,.st226{fill-rule:evenodd;clip-rule:evenodd;fill:#414141}.st224,.st225,.st226{fill:#59595c}.st225,.st226{fill:#be1e2d}.st226{fill:#d0d2d3}.st227{opacity:.4;fill:#fff;stroke:#e94150;stroke-width:2;stroke-miterlimit:10}.st228,.st229{fill:none;stroke-miterlimit:10}.st228{opacity:.4;stroke:#e94150}.st229{stroke:#231f20}.st230{fill:#ffc999}.st231{fill:#5a1c00}.st232{fill:#404041}.st233{fill:none;stroke:#bf3800;stroke-width:5;stroke-linecap:round;stroke-linejoin:round;stroke-miterlimit:10}.st234{fill:#dde4f4}.st235{fill:#bf3800}.st236{opacity:.8;fill-rule:evenodd;clip-rule:evenodd;fill:#fff}.st237,.st238,.st239,.st240,.st241,.st242,.st243{opacity:.2;fill-rule:evenodd;clip-rule:evenodd;fill:url(#SVGID_27_)}.st238,.st239,.st240,.st241,.st242,.st243{fill:url(#SVGID_28_)}.st239,.st240,.st241,.st242,.st243{fill:url(#SVGID_29_)}.st240,.st241,.st242,.st243{fill:url(#SVGID_30_)}.st241,.st242,.st243{fill:url(#SVGID_31_)}.st242,.st243{fill:url(#SVGID_32_)}.st243{fill:url(#SVGID_33_)}.st244{clip-path:url(#SVGID_35_);fill:#fff}.st245{clip-path:url(#XMLID_24_)}.st246{fill:url(#SVGID_36_)}.st247{fill:#d6de23}.st248{fill:#00a14b}.st249{fill:#006838}.st250{opacity:.4;fill:url(#SVGID_37_)}.st251,.st252{opacity:.6;fill:url(#SVGID_38_)}.st252{fill:none;stroke:#f8edec;stroke-miterlimit:10}.st253,.st254{opacity:.8;fill:url(#SVGID_39_)}.st254{fill:none;stroke:#fbdad7;stroke-miterlimit:10}.st255{fill:url(#SVGID_40_)}.st256{fill:url(#SVGID_41_)}.st257{opacity:.3;fill:url(#SVGID_42_)}.st258,.st259,.st260,.st261,.st262,.st263,.st264{opacity:.2;fill-rule:evenodd;clip-rule:evenodd;fill:url(#SVGID_43_)}.st259,.st260,.st261,.st262,.st263,.st264{fill:url(#SVGID_44_)}.st260,.st261,.st262,.st263,.st264{fill:url(#SVGID_45_)}.st261,.st262,.st263,.st264{fill:url(#SVGID_46_)}.st262,.st263,.st264{fill:url(#SVGID_47_)}.st263,.st264{fill:url(#SVGID_48_)}.st264{fill:url(#SVGID_49_)}.st265{clip-path:url(#SVGID_51_);fill:#fff}.st266,.st267{fill:none;stroke:#a1c1c6;stroke-miterlimit:10}.st267{stroke-dasharray:3.0041,3.0041}.st268{fill:#a1c1c6}.st269,.st270{fill:none;stroke:#a1c1c6;stroke-miterlimit:10;stroke-dasharray:3.0057,3.0057}.st270{stroke-dasharray:3,3}.st271{fill:#39a6e2}.st272{fill:#c7eaf2}.st273{fill:#e23737}.st274{fill:#ffbf5d}.st275{fill:#c6dce0}.st276{fill:#00addc}.st277{fill:#f29232;stroke:#f1f1f1;stroke-miterlimit:10}.st278{fill:#f2ad58}.st279{fill:#465a72}.st280{fill:#ecf0f1}.st281{fill:#2c3e50}.st282,.st283{clip-path:url(#SVGID_53_);fill:#ebf0f3}.st283{fill:#f15f50}.st284{fill:#ffb700}.st285{fill:#27a3d9}.st286{fill:#ef4b39}.st287{fill:#34d18d}.st288{fill:#34d1bc}.st289{clip-path:url(#SVGID_55_)}.st290{fill:url(#SVGID_56_)}.st291{fill:#fff5e3}.st292{fill:#348ad1}.st293{fill:#c2e55d}.st294,.st295,.st296,.st297{fill-rule:evenodd;clip-rule:evenodd;fill:#2c4257}.st295,.st296,.st297{fill:#00c4d7}.st296,.st297{fill:#ffac32}.st297{fill:#eb5a49}.st298{fill:#fffdfa}.st298,.st299,.st300{fill-rule:evenodd;clip-rule:evenodd}.st299{fill:#69cbcc}.st300{opacity:.1}.st301{fill:#f1f2f2}.st302{fill:#2c4257}.st303{fill:#3a5870}.st304{opacity:.85;fill:#c6c6c6}.st305{fill:#d1d3d4}.st306{fill:#e6e7e8}.st307{fill:#a7a9ac}.st308{fill:#5a6c75}.st309{opacity:.5;fill:#fff}.st310{fill:#64798a}.st311{fill:#ff6e40}.st312{fill:#dd2c00}.st313,.st314{fill:none;stroke:#e94150;stroke-width:3;stroke-linecap:round;stroke-miterlimit:10}.st314{stroke:#fff;stroke-linejoin:round}.st315{fill:url(#SVGID_57_)}.st316{fill:url(#SVGID_58_)}.st317{opacity:.3;fill:#404041}.st318{fill:none;stroke:red;stroke-miterlimit:10}.st319{fill:#1f1523}.st320{fill:#d9d7d9}.st321{fill:#ffed99}.st322,.st323{clip-path:url(#SVGID_60_);fill:#ebf0f3}.st323{fill:#f15f50}.st324{clip-path:url(#SVGID_62_)}.st325{fill:url(#SVGID_63_)}.st326{opacity:.4;fill:#6a696e}.st327{fill:#aaddfb}.st328{fill:#d4eefd}.st329{clip-path:url(#XMLID_25_);fill:#fff;stroke:#ffaf39;stroke-width:2.7902;stroke-linecap:round;stroke-linejoin:round;stroke-miterlimit:10}.st330{clip-path:url(#XMLID_26_);fill:#fff}.st331{clip-path:url(#XMLID_28_);fill:#ffaf39}.st332{fill:url(#SVGID_64_)}.st333{fill:url(#SVGID_65_)}.st334{fill:#000d05}.st335,.st336{fill:none;stroke:#000d05;stroke-miterlimit:10}.st336{stroke-width:6;stroke-linecap:round;stroke-linejoin:round}.st337{fill:#2aabf4}.st338{fill:#55bcf6}.st339{clip-path:url(#XMLID_29_);fill:#fff;stroke:#ffaf39;stroke-width:2.7902;stroke-linecap:round;stroke-linejoin:round;stroke-miterlimit:10}.st340{fill:url(#SVGID_66_)}.st341{fill:url(#SVGID_67_)}.st342{opacity:.3;fill:url(#SVGID_68_)}.st343,.st344,.st345,.st346,.st347,.st348,.st349{opacity:.2;fill-rule:evenodd;clip-rule:evenodd;fill:url(#SVGID_69_)}.st344,.st345,.st346,.st347,.st348,.st349{fill:url(#SVGID_70_)}.st345,.st346,.st347,.st348,.st349{fill:url(#SVGID_71_)}.st346,.st347,.st348,.st349{fill:url(#SVGID_72_)}.st347,.st348,.st349{fill:url(#SVGID_73_)}.st348,.st349{fill:url(#SVGID_74_)}.st349{fill:url(#SVGID_75_)}.st350{clip-path:url(#SVGID_77_);fill:#fff}.st351{fill:#949699}.st352{fill:url(#SVGID_78_)}.st353{fill:url(#SVGID_79_)}.st354{fill:#59595a}.st355{fill:silver}.st356{fill:#808385}.st357,.st358{fill:#bbbdbf;stroke:#fff;stroke-miterlimit:10}.st358{fill:none;stroke:#bbbdbf}.st359{fill:#bbbdbf}.st360{fill:url(#SVGID_80_)}.st361{fill:none;stroke:#fafafa;stroke-miterlimit:10}.st362{fill:url(#SVGID_81_)}.st363{fill:url(#SVGID_82_)}.st364{fill:#a6a8ab}.st365{fill:#00747b}.st366{fill-rule:evenodd;clip-rule:evenodd;fill:none}</style><path class="st359" d="M322.6 296.8l-.7-.6c1.5-1.8 3-3.7 4.4-5.6l.7.5c-1.4 1.9-2.9 3.8-4.4 5.7zM42.5 295.3c-1.5-1.9-2.9-3.8-4.3-5.7l.7-.5c1.4 1.9 2.8 3.8 4.3 5.7l-.7.5zM331.2 285.3l-.7-.5c1.3-1.9 2.6-3.9 3.9-6l.8.5c-1.4 2-2.7 4.1-4 6zM34.1 283.8c-1.3-2-2.6-4-3.8-6l.8-.5c1.2 2 2.5 4 3.8 6l-.8.5zM338.8 273.2l-.8-.4c1.2-2.1 2.3-4.2 3.4-6.3l.8.4c-1.1 2.1-2.2 4.2-3.4 6.3zM26.6 271.6c-1.2-2.1-2.3-4.2-3.4-6.3l.8-.4 3.3 6.3-.7.4zM345.4 260.5l-.8-.4c1-2.1 2-4.3 2.9-6.5l.8.3c-.9 2.2-1.9 4.4-2.9 6.6zM20.1 258.9c-1-2.1-1.9-4.3-2.8-6.5l.8-.3c.9 2.2 1.8 4.4 2.8 6.5l-.8.3zM351 247.3l-.8-.3c.8-2.2 1.6-4.5 2.4-6.7l.8.3c-.8 2.2-1.6 4.5-2.4 6.7zM14.7 245.7c-.8-2.2-1.6-4.5-2.3-6.8l.8-.3c.7 2.2 1.5 4.5 2.3 6.7l-.8.4zM355.4 233.7l-.9-.2c.6-2.3 1.3-4.6 1.8-6.9l.9.2c-.5 2.3-1.1 4.6-1.8 6.9zM10.4 232.1l-1.8-6.9.9-.2c.5 2.3 1.1 4.6 1.8 6.9l-.9.2zM358.8 219.8l-.9-.2c.5-2.3.9-4.7 1.3-7l.9.1c-.4 2.4-.8 4.8-1.3 7.1zM7.1 218.1c-.4-2.3-.8-4.7-1.2-7l.9-.1c.4 2.3.8 4.7 1.2 7l-.9.1zM361.1 205.7l-.9-.1c.3-2.3.5-4.7.7-7.1l.9.1c-.2 2.3-.4 4.7-.7 7.1zM5 204c-.3-2.4-.5-4.8-.6-7.1l.9-.1c.2 2.4.4 4.7.6 7.1l-.9.1zM362.2 191.4h-.9c.1-2.4.1-4.8.1-7.1h.9c0 2.4 0 4.8-.1 7.1zM4 189.8c-.1-1.8-.1-3.6-.1-5.5v-1.7h.9v1.7c0 1.8 0 3.6.1 5.4l-.9.1zM361.4 180.5c0-2.4-.1-4.8-.3-7.1l.9-.1c.1 2.4.2 4.8.3 7.1l-.9.1zM5 175.5h-.9c.1-2.4.3-4.8.5-7.1l.9.1c-.2 2.2-.3 4.6-.5 7zM360.6 166.3c-.2-2.3-.5-4.7-.8-7.1l.9-.1c.3 2.4.6 4.7.9 7.1l-1 .1zM6.3 161.3l-.9-.1c.3-2.4.7-4.7 1.1-7.1l.9.1c-.5 2.4-.8 4.8-1.1 7.1zM358.6 152.3c-.4-2.3-.9-4.7-1.4-7l.9-.2c.5 2.3 1 4.7 1.4 7l-.9.2zM8.7 147.3l-.9-.2c.5-2.3 1-4.7 1.6-7l.9.2c-.6 2.4-1.2 4.7-1.6 7zM355.5 138.4c-.6-2.3-1.3-4.6-2-6.8l.9-.3c.7 2.3 1.4 4.6 2 6.9l-.9.2zM12.2 133.5l-.9-.3c.7-2.3 1.4-4.6 2.2-6.8l.8.3c-.8 2.3-1.5 4.6-2.1 6.8zM351.3 124.8c-.8-2.2-1.6-4.5-2.5-6.7l.8-.3c.9 2.2 1.7 4.5 2.5 6.7l-.8.3zM16.7 120l-.8-.3 2.7-6.6.8.4c-.9 2.1-1.8 4.3-2.7 6.5zM346 111.6c-1-2.2-2-4.3-3-6.4l.8-.4c1 2.1 2.1 4.3 3 6.5l-.8.3zM22.4 107l-.8-.4c1-2.1 2.1-4.3 3.2-6.4l.8.4c-1.1 2.1-2.2 4.2-3.2 6.4zM339.7 98.9c-1.1-2.1-2.3-4.1-3.5-6.2l.8-.5c1.2 2 2.4 4.1 3.5 6.2l-.8.5zM29.1 94.4l-.8-.5c1.2-2 2.5-4.1 3.7-6.1l.8.5c-1.2 2-2.5 4.1-3.7 6.1zM332.4 86.7c-1.3-2-2.6-3.9-4-5.9l.7-.5c1.4 1.9 2.7 3.9 4 5.9l-.7.5zM41 76.6c-1.4 1.9-2.8 3.8-4.2 5.8l-.7-.5c1.4-2 2.8-3.9 4.2-5.8"/><path transform="rotate(70.962 19.487 231.225)" class="st359" d="M19 227.7h.9v7.1H19z"/><path transform="rotate(70.967 32.975 226.584)" class="st359" d="M32.5 223h.9v7.1h-.9z"/><path transform="rotate(70.962 46.46 221.926)" class="st359" d="M46 218.4h.9v7.1H46z"/><path transform="rotate(70.962 59.946 217.278)" class="st359" d="M59.5 213.7h.9v7.1h-.9z"/><path transform="rotate(70.967 73.435 212.636)" class="st359" d="M73 209.1h.9v7.1H73z"/><path transform="rotate(70.962 86.919 207.98)" class="st359" d="M86.5 204.4h.9v7.1h-.9z"/><path transform="rotate(70.962 100.405 203.331)" class="st359" d="M100 199.8h.9v7.1h-.9z"/><path transform="rotate(70.967 113.895 198.688)" class="st359" d="M113.4 195.1h.9v7.1h-.9z"/><path transform="rotate(70.962 127.377 194.033)" class="st359" d="M126.9 190.5h.9v7.1h-.9z"/><path transform="rotate(70.962 140.864 189.384)" class="st359" d="M140.4 185.8h.9v7.1h-.9z"/><path transform="rotate(70.967 154.355 184.74)" class="st359" d="M153.9 181.2h.9v7.1h-.9z"/><path transform="rotate(70.974 167.83 180.07)" class="st359" d="M167.4 176.5h.9v7.1h-.9z"/><path class="st359" d="M178.1 177l-.3-.8 3.8-1.3-.2-.1.2-.8 3.1.7z"/><path transform="rotate(13.975 171.128 171.834)" class="st359" d="M167.6 171.4h7.1v.9h-7.1z"/><path transform="rotate(13.975 157.28 168.378)" class="st359" d="M153.7 167.9h7.1v.9h-7.1z"/><path transform="rotate(13.975 143.439 164.93)" class="st359" d="M139.9 164.5h7.1v.9h-7.1z"/><path transform="rotate(13.975 129.605 161.495)" class="st359" d="M126.1 161h7.1v.9h-7.1z"/><path transform="rotate(13.975 115.781 158.08)" class="st359" d="M112.2 157.6h7.1v.9h-7.1z"/><path transform="rotate(13.975 101.934 154.584)" class="st359" d="M98.4 154.2h7.1v.9h-7.1z"/><path transform="rotate(13.975 88.102 151.161)" class="st359" d="M84.5 150.7h7.1v.9h-7.1z"/><path transform="rotate(13.975 74.239 147.707)" class="st359" d="M70.7 147.3h7.1v.9h-7.1z"/><path transform="rotate(13.975 60.407 144.239)" class="st359" d="M56.8 143.8h7.1v.9h-7.1z"/><path transform="rotate(13.975 46.56 140.84)" class="st359" d="M43 140.4h7.1v.9H43z"/><path transform="rotate(13.975 32.713 137.358)" class="st359" d="M29.2 136.9h7.1v.9h-7.1z"/><path transform="rotate(13.975 18.886 133.93)" class="st359" d="M15.3 133.5h7.1v.9h-7.1z"/><path transform="rotate(19.712 354.492 236.179)" class="st359" d="M351 235.8h7.1v.9H351z"/><path transform="rotate(19.707 341.067 231.364)" class="st359" d="M337.5 230.9h7.1v.9h-7.1z"/><path transform="rotate(19.707 327.642 226.558)" class="st359" d="M324.1 226.1h7.1v.9h-7.1z"/><path transform="rotate(19.707 314.213 221.748)" class="st359" d="M310.7 221.3h7.1v.9h-7.1z"/><path transform="rotate(19.707 300.785 216.939)" class="st359" d="M297.2 216.5h7.1v.9h-7.1z"/><path transform="rotate(19.712 287.361 212.142)" class="st359" d="M283.8 211.7h7.1v.9h-7.1z"/><path transform="rotate(19.712 273.933 207.332)" class="st359" d="M270.4 206.9h7.1v.9h-7.1z"/><path transform="rotate(19.707 260.54 202.555)" class="st359" d="M256.9 202.1h7.1v.9h-7.1z"/><path transform="rotate(19.712 247.065 197.7)" class="st359" d="M243.5 197.3h7.1v.9h-7.1z"/><path transform="rotate(19.712 233.636 192.89)" class="st359" d="M230.1 192.5h7.1v.9h-7.1z"/><path transform="rotate(19.707 220.245 188.119)" class="st359" d="M216.7 187.7h7.1v.9h-7.1z"/><path transform="rotate(19.707 206.781 183.267)" class="st359" d="M203.2 182.8h7.1v.9h-7.1z"/><path transform="rotate(19.707 193.353 178.458)" class="st359" d="M189.8 178h7.1v.9h-7.1z"/><path class="st359" d="M183.1 175.3l-1.8-.7 8.7-1.2.1.9-6.9 1v-.1z"/><path transform="rotate(82.143 200.638 172.412)" class="st359" d="M200.2 168.8h.9v7.1h-.9z"/><path transform="rotate(82.131 214.766 170.478)" class="st359" d="M214.3 166.9h.9v7.1h-.9z"/><path transform="rotate(82.149 228.905 168.534)" class="st359" d="M228.5 165h.9v7.1h-.9z"/><path transform="rotate(82.137 243.031 166.588)" class="st359" d="M242.6 163h.9v7.1h-.9z"/><path transform="rotate(82.143 257.17 164.655)" class="st359" d="M256.7 161.1h.9v7.1h-.9z"/><path transform="rotate(82.149 271.308 162.727)" class="st359" d="M270.9 159.1h.9v7.1h-.9z"/><path transform="rotate(82.143 285.434 160.773)" class="st359" d="M285 157.2h.9v7.1h-.9z"/><path transform="rotate(82.131 299.558 158.83)" class="st359" d="M299.1 155.3h.9v7.1h-.9z"/><path transform="rotate(82.143 313.694 156.88)" class="st359" d="M313.2 153.3h.9v7.1h-.9z"/><path transform="rotate(82.137 327.832 154.963)" class="st359" d="M327.4 151.4h.9v7.1h-.9z"/><path transform="rotate(82.143 341.965 153.014)" class="st359" d="M341.5 149.4h.9v7.1h-.9z"/><path transform="rotate(82.149 356.109 151.09)" class="st359" d="M355.6 147.5h.9v7.1h-.9z"/><path transform="rotate(55.424 181.056 171.808)" class="st359" d="M177.5 171.4h7.1v.9h-7.1z"/><path transform="rotate(43.89 190.477 167.158)" class="st359" d="M190 163.6h.9v7.1h-.9z"/><path transform="rotate(55.43 172.971 160.063)" class="st359" d="M169.4 159.6h7.1v.9h-7.1z"/><path transform="rotate(43.874 200.358 156.868)" class="st359" d="M199.9 153.3h.9v7.1h-.9z"/><path transform="rotate(55.43 164.873 148.31)" class="st359" d="M161.3 147.9h7.1v.9h-7.1z"/><path transform="rotate(43.894 210.26 146.6)" class="st359" d="M209.8 143h.9v7.1h-.9z"/><path transform="rotate(55.43 156.778 136.564)" class="st359" d="M153.2 136.1h7.1v.9h-7.1z"/><path transform="rotate(43.874 220.127 136.3)" class="st359" d="M219.7 132.7h.9v7.1h-.9z"/><path transform="rotate(43.894 230.03 126.027)" class="st359" d="M229.6 122.5h.9v7.1h-.9z"/><path transform="rotate(55.424 148.677 124.824)" class="st359" d="M145.1 124.4h7.1v.9h-7.1z"/><path transform="rotate(43.91 239.919 115.745)" class="st359" d="M239.5 112.2h.9v7.1h-.9z"/><path transform="rotate(55.43 140.587 113.071)" class="st359" d="M137 112.6h7.1v.9H137z"/><path transform="rotate(43.89 249.78 105.446)" class="st359" d="M249.3 101.9h.9v7.1h-.9z"/><path transform="rotate(55.424 132.487 101.33)" class="st359" d="M128.9 100.9h7.1v.9h-7.1z"/><path transform="rotate(43.874 259.66 95.16)" class="st359" d="M259.2 91.6h.9v7.1h-.9z"/><path transform="rotate(55.424 124.392 89.584)" class="st359" d="M120.8 89.1h7.1v.9h-7.1z"/><path transform="rotate(43.855 269.56 84.87)" class="st359" d="M269.1 81.3h.9v7.1h-.9z"/><path class="st359" d="M114.6 74.6l4.1 5.9-.7.5-4.1-5.9M282.2 72.3l-4.9 5.2-.7-.6 5-5.2M92.9 298.9l4.2-5.7.7.5-4.2 5.8"/><path transform="rotate(41.664 316.793 293.393)" class="st359" d="M313.2 293h7.1v.9h-7.1z"/><path transform="rotate(35.861 103.697 284.77)" class="st359" d="M103.2 281.2h.9v7.1h-.9z"/><path transform="rotate(41.652 306.152 283.942)" class="st359" d="M302.6 283.5h7.1v.9h-7.1z"/><path transform="rotate(41.639 295.485 274.442)" class="st359" d="M291.9 274h7.1v.9h-7.1z"/><path transform="rotate(35.865 112.041 273.197)" class="st359" d="M111.6 269.6h.9v7.1h-.9z"/><path transform="rotate(41.619 284.784 264.935)" class="st359" d="M281.2 264.5h7.1v.9h-7.1z"/><path transform="rotate(35.861 120.409 261.646)" class="st359" d="M120 258.1h.9v7.1h-.9z"/><path transform="rotate(41.611 274.097 255.437)" class="st359" d="M270.5 255h7.1v.9h-7.1z"/><path transform="rotate(35.858 128.755 250.062)" class="st359" d="M128.3 246.5h.9v7.1h-.9z"/><path transform="rotate(41.6 263.444 245.981)" class="st359" d="M259.9 245.5h7.1v.9h-7.1z"/><path transform="rotate(35.865 137.103 238.485)" class="st359" d="M136.7 234.9h.9v7.1h-.9z"/><path transform="rotate(41.583 252.735 236.47)" class="st359" d="M249.2 236h7.1v.9h-7.1z"/><path transform="rotate(35.858 145.465 226.936)" class="st359" d="M145 223.4h.9v7.1h-.9z"/><path transform="rotate(41.562 242.06 227.008)" class="st359" d="M238.5 226.6h7.1v.9h-7.1z"/><path transform="rotate(41.565 231.338 217.498)" class="st359" d="M227.8 217.1h7.1v.9h-7.1z"/><path transform="rotate(35.858 153.82 215.377)" class="st359" d="M153.4 211.8h.9v7.1h-.9z"/><path transform="rotate(41.546 220.655 208.025)" class="st359" d="M217.1 207.6h7.2v.9h-7.2z"/><path transform="rotate(35.861 162.189 203.83)" class="st359" d="M161.7 200.2h.9v7.1h-.9z"/><path transform="rotate(41.531 209.957 198.555)" class="st359" d="M206.4 198.1h7.2v.9h-7.2z"/><path transform="rotate(35.861 170.545 192.267)" class="st359" d="M170.1 188.7h.9v7.1h-.9z"/><path transform="rotate(41.522 199.217 189.028)" class="st359" d="M195.6 188.6h7.2v.9h-7.2z"/><path transform="rotate(35.845 178.884 180.68)" class="st359" d="M178.4 177.1h.9v7.1h-.9z"/><path transform="rotate(41.496 188.455 179.52)" class="st359" d="M184.9 179.1h7.2v.9h-7.2z"/><circle class="st359" cx="12.4" cy="131.7" r="7.1"/><circle class="st359" cx="37.2" cy="289" r="4"/><path class="st359" d="M321.3 303.2c-4 0-7.2-3.2-7.2-7.2s3.2-7.2 7.2-7.2 7.2 3.2 7.2 7.2-3.2 7.2-7.2 7.2"/><circle class="st359" cx="359.2" cy="150.3" r="5.9"/><circle class="st359" cx="355.2" cy="236.6" r="4"/><circle class="st359" cx="331.1" cy="86.7" r="5.8"/><circle class="st359" cx="256.2" cy="165.6" r="4.4"/><circle class="st359" cx="114.8" cy="198.2" r="2.6"/><g><path class="st185" d="M263.3 347.9c-2.1 1-4.3 2.1-6.5 3l-.4-.8c2.2-1 4.3-2 6.4-3l.5.8zM250.2 353.7c-2.2.9-4.4 1.7-6.7 2.5l-.3-.8c2.2-.8 4.5-1.6 6.6-2.5l.4.8zM236.8 358.5c-2.3.7-4.6 1.4-6.8 2l-.2-.9c2.3-.6 4.6-1.3 6.8-2l.2.9zM223 362.1c-2.3.5-4.7 1-7 1.4l-.2-.9c2.3-.4 4.7-.9 7-1.4l.2.9zM246.8 18.1l-.3.8c-2.2-.8-4.5-1.6-6.7-2.3l.3-.8c2.2.7 4.5 1.5 6.7 2.3zM209 364.7c-2.3.3-4.7.6-7.1.8l-.1-.9c2.4-.2 4.7-.5 7.1-.8l.1.9zM233.2 13.7l-.2.9-6.9-1.8.2-.9c2.3.5 4.7 1.1 6.9 1.8zM194.8 366.1c-2.4.1-4.8.2-7.1.3v-.9c2.4 0 4.7-.1 7.1-.3v.9zM219.4 10.3l-.2.9c-2.3-.5-4.7-.9-7-1.2l.1-.9c2.4.3 4.7.8 7.1 1.2zM180.5 366.3c-2.4 0-4.8-.1-7.1-.3l.1-.9c2.4.1 4.7.2 7.1.3l-.1.9zM205.3 8.1l-.1.9c-2.3-.3-4.7-.5-7.1-.7l.1-.9c2.3.2 4.7.4 7.1.7zM166.3 365.5l-5.4-.6c-.6-.1-1.1-.1-1.7-.2l.1-.9c.6.1 1.1.2 1.7.2l5.4.6-.1.9zM194.4 8c-2.4-.1-4.8-.2-7.1-.3v-.9c2.4 0 4.8.1 7.1.3V8zM152.3 362.6l-.2.9c-2.3-.4-4.7-.9-7-1.4l.2-.9c2.3.5 4.7 1 7 1.4zM180.2 7.8c-2.4.1-4.7.2-7.1.3l-.1-.9c2.4-.1 4.8-.2 7.1-.3l.1.9zM138.4 359.5l-.2.9c-2.3-.6-4.6-1.3-6.9-2l.3-.9c2.2.8 4.5 1.4 6.8 2zM166 8.7c-2.4.2-4.7.5-7 .9l-.1-.9c2.3-.3 4.7-.6 7.1-.9v.9zM124.8 355.4l-.3.8c-2.2-.8-4.5-1.6-6.7-2.5l.3-.8c2.3.9 4.5 1.7 6.7 2.5zM151.9 10.7c-2.3.4-4.7.9-7 1.4l-.2-.9c2.3-.5 4.7-1 7-1.4l.2.9zM111.6 350.1l-.4.8c-2.2-1-4.3-2-6.5-3l.4-.8c2.2 1.1 4.4 2.1 6.5 3zM138.1 13.8c-2.3.6-4.6 1.3-6.8 2l-.3-.8c2.3-.7 4.6-1.4 6.9-2l.2.8zM124.5 18c-2.2.8-4.5 1.6-6.6 2.5l-.3-.8c2.2-.9 4.4-1.7 6.7-2.5l.2.8zM111.4 23.3c-2.1 1-4.3 2-6.4 3l-.4-.8c2.1-1.1 4.3-2.1 6.4-3.1l.4.9zM98.7 29.6c-2.1 1.1-4.1 2.3-6.2 3.5l-.5-.8c2-1.2 4.1-2.4 6.2-3.6l.5.9z"/><path transform="rotate(-11.593 209.267 355.475)" class="st185" d="M208.9 352h.9v7.1h-.9z"/><path transform="rotate(-11.584 206.44 341.523)" class="st185" d="M206 338h.9v7.1h-.9z"/><path transform="rotate(-11.593 203.562 327.574)" class="st185" d="M203.2 324h.9v7.1h-.9z"/><path transform="rotate(-11.593 200.7 313.61)" class="st185" d="M200.3 310.1h.9v7.1h-.9z"/><path transform="rotate(-11.584 197.87 299.657)" class="st185" d="M197.5 296.1h.9v7.1h-.9z"/><path transform="rotate(-11.593 194.99 285.7)" class="st185" d="M194.6 282.2h.9v7.1h-.9z"/><path transform="rotate(-11.593 192.133 271.746)" class="st185" d="M191.7 268.2h.9v7.1h-.9z"/><path transform="rotate(-11.584 189.3 257.79)" class="st185" d="M188.9 254.3h.9v7.1h-.9z"/><path transform="rotate(-68.574 112.898 343.514)" class="st185" d="M109.3 343.1h7.1v.9h-7.1z"/><path transform="rotate(-65.834 249.224 19.222)" class="st185" d="M245.7 18.8h7.1v.9h-7.1z"/><path transform="rotate(-3.4 170.433 110.602) scale(.99996)" class="st185" d="M170 107h.9v7.1h-.9z"/><path transform="rotate(-3.39 169.601 96.372) scale(.99995)" class="st185" d="M169.2 92.8h.9v7.1h-.9z"/><path transform="rotate(-3.4 168.766 82.156) scale(.99996)" class="st185" d="M168.3 78.6h.9v7.1h-.9z"/><path transform="matrix(.9982 -.05953 .05953 .9982 -3.747 10.118)" class="st185" d="M167.5 64.4h.9v7.1h-.9z"/><path transform="matrix(.9982 -.05936 .05936 .9982 -2.894 10.015)" class="st185" d="M166.7 50.2h.9v7.1h-.9z"/><path transform="matrix(.9982 -.05938 .05938 .9982 -2.052 9.942)" class="st185" d="M165.8 35.9h.9V43h-.9z"/><path transform="rotate(-3.4 165.426 25.27) scale(.99996)" class="st185" d="M165 21.7h.9v7.1h-.9z"/><path transform="rotate(-3.39 164.59 11.042) scale(.99995)" class="st185" d="M164.2 7.5h.9v7.1h-.9z"/><circle class="st185" cx="109.8" cy="349.7" r="7.1"/><circle class="st185" cx="268.8" cy="345.4" r="4"/><circle class="st185" cx="164.1" cy="7.9" r="5.9"/><circle class="st185" cx="249.6" cy="18.6" r="4"/><circle class="st185" cx="98.5" cy="30.9" r="5.8"/><circle class="st185" cx="171.3" cy="111.6" r="4.4"/><circle class="st185" cx="189" cy="256.8" r="2.6"/></g></svg>