<?xml version="1.0" encoding="utf-8"?>
<!-- Generator: Adobe Illustrator 19.1.0, SVG Export Plug-In . SVG Version: 6.00 Build 0)  -->
<svg version="1.1" id="Layer_1" xmlns="http://www.w3.org/2000/svg" xmlns:xlink="http://www.w3.org/1999/xlink" x="0px" y="0px"
	 viewBox="0 0 368 370.8" style="enable-background:new 0 0 368 370.8;" xml:space="preserve">
<style type="text/css">
	.st0{fill:#FAFAFA;}
	.st1{fill:#FFFFFF;}
	.st2{fill:#D0D2D3;}
	.st3{fill:none;stroke:#CDA3DF;stroke-width:0.6;stroke-miterlimit:10;}
	.st4{fill:none;stroke:#000D05;stroke-linecap:round;stroke-linejoin:round;stroke-miterlimit:10;}
	.st5{fill:#231F20;}
	.st6{opacity:0.6;fill:#652D90;}
	.st7{fill:none;stroke:#6D6E70;stroke-miterlimit:10;}
	.st8{opacity:0.8;fill:#E94150;}
	.st9{fill:url(#SVGID_1_);}
	.st10{fill:url(#SVGID_2_);}
	.st11{opacity:0.3;fill:url(#SVGID_3_);}
	.st12{opacity:0.3;fill:none;stroke:#FFFFFF;stroke-width:0.4;stroke-miterlimit:10;}
	.st13{fill:none;stroke:#D0D2D3;stroke-width:2;stroke-miterlimit:10;stroke-dasharray:12.0696,20.1161;}
	.st14{clip-path:url(#XMLID_16_);}
	.st15{fill-rule:evenodd;clip-rule:evenodd;fill:#F1F0FA;}
	.st16{fill:#EC1C24;}
	.st17{fill:none;stroke:#BABCBE;stroke-miterlimit:10;}
	.st18{opacity:0.9;fill:#F4FAFC;}
	.st19{fill:#484359;}
	.st20{fill:#484359;stroke:#B6B5BD;stroke-linecap:round;}
	.st21{fill:none;stroke:#231F20;}
	.st22{fill:#333333;}
	.st23{fill:#F2F2F2;}
	.st24{fill:none;stroke:#676767;stroke-miterlimit:10;}
	.st25{fill:url(#SVGID_4_);}
	.st26{opacity:0.9;fill:url(#SVGID_5_);}
	.st27{fill:#CBCACA;}
	.st28{fill:#1A1A1A;}
	.st29{opacity:0.3;fill:#FFFFFF;}
	.st30{fill:#FFFFFF;stroke:#ECDAD3;}
	.st31{fill:url(#SVGID_6_);}
	.st32{opacity:0.2;}
	.st33{fill:#38334A;}
	.st34{fill:none;stroke:#38334A;}
	.st35{fill:none;stroke:#B6B5BD;}
	.st36{fill:#6D697A;}
	.st37{opacity:0.8;}
	.st38{fill:none;stroke:#FFFFFF;stroke-width:5;stroke-linecap:round;stroke-linejoin:round;}
	.st39{fill:#EBE6E5;stroke:#ECEAE5;stroke-miterlimit:10;}
	.st40{opacity:0.9;}
	.st41{fill:none;stroke:#FFFFFF;stroke-width:2;stroke-linecap:round;stroke-linejoin:round;}
	.st42{fill:#EBF7FD;stroke:#ECEAE5;stroke-miterlimit:10;}
	.st43{opacity:0.2;fill:#E4E4E3;}
	.st44{opacity:0.6;fill:#69BBB6;}
	.st45{fill:none;stroke:#EE5345;stroke-miterlimit:10;}
	.st46{fill:#EE5345;}
	.st47{fill:#BABCBE;}
	.st48{fill:#E0E0E0;}
	.st49{fill:#EF6541;}
	.st50{fill:#8E8D8D;}
	.st51{fill:#59595C;}
	.st52{fill:#F1F2EE;}
	.st53{fill:#F1F1F1;}
	.st54{fill:#919395;}
	.st55{fill:none;stroke:#FDEB98;stroke-miterlimit:10;}
	.st56{fill-rule:evenodd;clip-rule:evenodd;fill:#211F1F;}
	.st57{fill-rule:evenodd;clip-rule:evenodd;fill:#EE5345;}
	.st58{fill:#00A7A1;}
	.st59{opacity:0.7;fill:#69BBB6;}
	.st60{opacity:0.7;fill:#5C8B88;}
	.st61{fill:#D1D2D2;}
	.st62{fill:#5A595C;}
	.st63{fill:#E5E5E4;}
	.st64{fill:#211F1F;}
	.st65{fill:#BFBFBF;}
	.st66{fill:#E6D6BF;}
	.st67{fill:#CF9D76;}
	.st68{fill:#DDB089;}
	.st69{fill:none;stroke:#211F1F;stroke-width:0.437;stroke-miterlimit:10;}
	.st70{fill:#7E808F;}
	.st71{fill:#8E929E;}
	.st72{fill:none;stroke:#E7CFA5;stroke-width:0.13;stroke-miterlimit:10;}
	.st73{fill:#686C7A;}
	.st74{fill:#C7C7C7;}
	.st75{fill:#D2D2D2;}
	.st76{fill:#3F5554;}
	.st77{fill:#595C62;}
	.st78{fill:#61636A;}
	.st79{fill:#505157;}
	.st80{fill:#F0E3D1;}
	.st81{fill:#CAB194;}
	.st82{fill:#3C2418;}
	.st83{fill:#6D6E71;}
	.st84{fill:#DEE8E6;}
	.st85{fill:#ECF2F0;}
	.st86{fill:#A77D51;}
	.st87{fill:none;stroke:#211F1F;stroke-width:0.48;stroke-miterlimit:10;}
	.st88{fill:#B8DAE6;}
	.st89{fill:#D3E7EF;}
	.st90{fill:#28A6DE;}
	.st91{fill:#BCBCBE;}
	.st92{fill:#ADDFF2;}
	.st93{fill:#CBEAF6;}
	.st94{fill:#92A2A5;}
	.st95{fill:#56696F;}
	.st96{fill:#5C7075;}
	.st97{fill:none;stroke:#E7CFA5;stroke-width:0.116;stroke-miterlimit:10;}
	.st98{fill:#3E5156;}
	.st99{fill:#A2B0B4;}
	.st100{fill:#BCBBBE;}
	.st101{fill:#776F5C;}
	.st102{fill:#949FA7;}
	.st103{fill:#6E6656;}
	.st104{fill:#564D3D;}
	.st105{fill:#A4AEB4;}
	.st106{fill:#3D4C55;}
	.st107{fill:#C1966B;}
	.st108{opacity:0.3;}
	.st109{fill:none;stroke:#BABCBE;stroke-width:2;stroke-miterlimit:10;}
	.st110{fill:none;stroke:#E6E6E6;stroke-miterlimit:10;}
	.st111{fill:#F05B27;}
	.st112{opacity:0.8;fill:#FFFFFF;stroke:#D0D1D2;stroke-miterlimit:10;}
	.st113{fill:#474F59;}
	.st114{fill:#264E60;}
	.st115{fill:#3E454E;}
	.st116{fill:#DAE1DB;}
	.st117{fill:#2C5871;}
	.st118{fill:url(#SVGID_7_);}
	.st119{fill:#FFFFFF;stroke:#231F20;stroke-width:4;stroke-miterlimit:10;}
	.st120{fill:none;stroke:#F4777C;stroke-width:4;stroke-linecap:round;stroke-miterlimit:10;}
	.st121{fill:none;stroke:#00A7A1;stroke-width:4;stroke-linecap:round;stroke-miterlimit:10;}
	.st122{fill:none;stroke:#A6A8AB;stroke-width:4;stroke-linecap:round;stroke-miterlimit:10;}
	.st123{opacity:0.6;fill:#F1F1F2;stroke:#FFFFFF;}
	.st124{fill:none;stroke:#000000;stroke-miterlimit:10;}
	.st125{fill:url(#SVGID_8_);}
	.st126{fill:none;stroke:#FDEB98;stroke-width:5;stroke-linecap:round;stroke-linejoin:round;}
	.st127{fill:#FDEB98;}
	.st128{fill:none;stroke:#69BBB6;stroke-width:3;stroke-linecap:round;stroke-linejoin:round;}
	.st129{fill:#69BBB6;}
	.st130{fill:none;stroke:#FDEB98;stroke-width:2;stroke-linecap:round;stroke-linejoin:round;}
	.st131{fill:#D0D1D2;stroke:#FFFFFF;stroke-miterlimit:10;}
	.st132{clip-path:url(#XMLID_18_);}
	.st133{fill:#FFFFFF;stroke:#69BBB6;stroke-miterlimit:10;}
	.st134{fill:#FFFFFF;stroke:#FDEB98;stroke-miterlimit:10;}
	.st135{fill:#545454;}
	.st136{fill:#6B6B6B;}
	.st137{fill:#A3A3A3;}
	.st138{fill:none;stroke:#FFFFFF;stroke-width:2;stroke-miterlimit:10;}
	.st139{fill:none;stroke:#808184;stroke-width:2;stroke-miterlimit:10;}
	.st140{fill:#E6E6E6;}
	.st141{fill:#999999;}
	.st142{fill:#6E7173;}
	.st143{fill:#D9D9D9;}
	.st144{fill:#A8ABA8;}
	.st145{fill:none;stroke:#A6A8AB;stroke-miterlimit:10;}
	.st146{fill:#010102;}
	.st147{fill:none;}
	.st148{fill:#3F3543;}
	.st149{fill:#4A4A4A;}
	.st150{fill:#949494;}
	.st151{fill:#EBEBEB;}
	.st152{fill:#0C120C;}
	.st153{fill:#3B393A;}
	.st154{opacity:0.5;}
	.st155{opacity:0.5;fill:none;stroke:#FFFFFF;stroke-width:0.5;stroke-miterlimit:10;}
	.st156{fill:#EE5345;stroke:#000000;stroke-miterlimit:10;}
	.st157{fill:none;stroke:#808184;stroke-miterlimit:10;}
	.st158{fill:#54686F;}
	.st159{fill:#F49002;}
	.st160{fill:#EE7E97;}
	.st161{fill:#47A036;}
	.st162{fill:#FFECB3;}
	.st163{fill:#9B856E;}
	.st164{fill:#D9E5EF;}
	.st165{fill:#8C695D;}
	.st166{fill:#FCBC86;}
	.st167{fill:#535959;}
	.st168{fill:#353F40;}
	.st169{fill:#2B2D2D;}
	.st170{fill:#3F4E53;}
	.st171{fill:#EAEFF7;}
	.st172{fill:#F8A280;}
	.st173{fill:#F7ECD9;}
	.st174{fill:none;stroke:#383838;stroke-linecap:round;stroke-linejoin:round;stroke-miterlimit:10;}
	.st175{fill:#F47D71;}
	.st176{fill:#4F8EB9;}
	.st177{fill:#84585A;}
	.st178{fill:#7A5253;}
	.st179{fill:#6F5A53;}
	.st180{fill:#CFB193;}
	.st181{fill:#694F46;}
	.st182{fill:#FFAF39;}
	.st183{fill:#FCC200;}
	.st184{fill:#FF7BAC;}
	.st185{fill:#F1F1F2;}
	.st186{fill:none;stroke:#929497;stroke-miterlimit:10;}
	.st187{fill:#929497;}
	.st188{fill:url(#SVGID_9_);}
	.st189{fill:#1FC1B1;}
	.st190{opacity:0.4;fill:#A8C5BD;}
	.st191{opacity:0.4;fill:#F0FBF2;}
	.st192{fill:#4C5557;}
	.st193{fill:#427782;}
	.st194{fill:#E94150;}
	.st195{fill:#1BB687;}
	.st196{fill:none;stroke:#FFFFFF;stroke-width:1.5787;stroke-miterlimit:10;}
	.st197{fill:#3DBDC4;}
	
		.st198{clip-path:url(#XMLID_20_);fill:#FFFFFF;stroke:#FFAF39;stroke-width:2.7902;stroke-linecap:round;stroke-linejoin:round;stroke-miterlimit:10;}
	.st199{fill:#6A696E;}
	.st200{clip-path:url(#XMLID_21_);fill:#FFFFFF;}
	.st201{fill:#0A5382;}
	.st202{fill:#C5C7C4;}
	.st203{fill:#353537;}
	.st204{fill:#C3C3C5;}
	.st205{fill:#FFBF61;}
	.st206{clip-path:url(#XMLID_23_);fill:#FFAF39;}
	.st207{fill-rule:evenodd;clip-rule:evenodd;fill:#FFFFFF;stroke:#DD553B;stroke-miterlimit:10;}
	.st208{fill-rule:evenodd;clip-rule:evenodd;fill:none;stroke:#DD553B;stroke-miterlimit:10;}
	.st209{fill-rule:evenodd;clip-rule:evenodd;fill:#595A5A;}
	.st210{fill-rule:evenodd;clip-rule:evenodd;fill:#FCD97F;}
	.st211{fill-rule:evenodd;clip-rule:evenodd;fill:#FFFFFF;}
	.st212{fill-rule:evenodd;clip-rule:evenodd;fill:#495A68;}
	.st213{fill:#DD553B;}
	.st214{fill-rule:evenodd;clip-rule:evenodd;fill:#A5A7AA;}
	.st215{fill:#FFFFFF;stroke:#BBBDBF;stroke-miterlimit:10;}
	.st216{fill:#D62147;}
	.st217{fill:#FF2756;}
	.st218{opacity:0.6;}
	.st219{opacity:0.4;fill:url(#SVGID_10_);}
	.st220{fill-rule:evenodd;clip-rule:evenodd;fill:#6D6E70;}
	.st221{fill-rule:evenodd;clip-rule:evenodd;fill:#231F20;}
	.st222{fill:#BB252E;stroke:#FFFFFF;stroke-width:2;stroke-miterlimit:10;}
	.st223{fill-rule:evenodd;clip-rule:evenodd;fill:#414141;}
	.st224{fill-rule:evenodd;clip-rule:evenodd;fill:#59595C;}
	.st225{fill-rule:evenodd;clip-rule:evenodd;fill:#BE1E2D;}
	.st226{fill-rule:evenodd;clip-rule:evenodd;fill:#D0D2D3;}
	.st227{opacity:0.4;fill:#FFFFFF;stroke:#E94150;stroke-width:2;stroke-miterlimit:10;}
	.st228{opacity:0.4;fill:none;stroke:#E94150;stroke-miterlimit:10;}
	.st229{fill:none;stroke:#231F20;stroke-miterlimit:10;}
	.st230{fill:#FFC999;}
	.st231{fill:#5A1C00;}
	.st232{fill:#404041;}
	.st233{fill:none;stroke:#BF3800;stroke-width:5;stroke-linecap:round;stroke-linejoin:round;stroke-miterlimit:10;}
	.st234{fill:#DDE4F4;}
	.st235{fill:#BF3800;}
	.st236{opacity:0.8;fill-rule:evenodd;clip-rule:evenodd;fill:#FFFFFF;}
	.st237{opacity:0.2;fill-rule:evenodd;clip-rule:evenodd;fill:url(#SVGID_27_);}
	.st238{opacity:0.2;fill-rule:evenodd;clip-rule:evenodd;fill:url(#SVGID_28_);}
	.st239{opacity:0.2;fill-rule:evenodd;clip-rule:evenodd;fill:url(#SVGID_29_);}
	.st240{opacity:0.2;fill-rule:evenodd;clip-rule:evenodd;fill:url(#SVGID_30_);}
	.st241{opacity:0.2;fill-rule:evenodd;clip-rule:evenodd;fill:url(#SVGID_31_);}
	.st242{opacity:0.2;fill-rule:evenodd;clip-rule:evenodd;fill:url(#SVGID_32_);}
	.st243{opacity:0.2;fill-rule:evenodd;clip-rule:evenodd;fill:url(#SVGID_33_);}
	.st244{clip-path:url(#SVGID_35_);fill:#FFFFFF;}
	.st245{clip-path:url(#XMLID_24_);}
	.st246{fill:url(#SVGID_36_);}
	.st247{fill:#D6DE23;}
	.st248{fill:#00A14B;}
	.st249{fill:#006838;}
	.st250{opacity:0.4;fill:url(#SVGID_37_);}
	.st251{opacity:0.6;fill:url(#SVGID_38_);}
	.st252{opacity:0.6;fill:none;stroke:#F8EDEC;stroke-miterlimit:10;}
	.st253{opacity:0.8;fill:url(#SVGID_39_);}
	.st254{opacity:0.8;fill:none;stroke:#FBDAD7;stroke-miterlimit:10;}
	.st255{fill:url(#SVGID_40_);}
	.st256{fill:url(#SVGID_41_);}
	.st257{opacity:0.3;fill:url(#SVGID_42_);}
	.st258{opacity:0.2;fill-rule:evenodd;clip-rule:evenodd;fill:url(#SVGID_43_);}
	.st259{opacity:0.2;fill-rule:evenodd;clip-rule:evenodd;fill:url(#SVGID_44_);}
	.st260{opacity:0.2;fill-rule:evenodd;clip-rule:evenodd;fill:url(#SVGID_45_);}
	.st261{opacity:0.2;fill-rule:evenodd;clip-rule:evenodd;fill:url(#SVGID_46_);}
	.st262{opacity:0.2;fill-rule:evenodd;clip-rule:evenodd;fill:url(#SVGID_47_);}
	.st263{opacity:0.2;fill-rule:evenodd;clip-rule:evenodd;fill:url(#SVGID_48_);}
	.st264{opacity:0.2;fill-rule:evenodd;clip-rule:evenodd;fill:url(#SVGID_49_);}
	.st265{clip-path:url(#SVGID_51_);fill:#FFFFFF;}
	.st266{fill:none;stroke:#A1C1C6;stroke-miterlimit:10;}
	.st267{fill:none;stroke:#A1C1C6;stroke-miterlimit:10;stroke-dasharray:3.0041,3.0041;}
	.st268{fill:#A1C1C6;}
	.st269{fill:none;stroke:#A1C1C6;stroke-miterlimit:10;stroke-dasharray:3.0057,3.0057;}
	.st270{fill:none;stroke:#A1C1C6;stroke-miterlimit:10;stroke-dasharray:3,3;}
	.st271{fill:#39A6E2;}
	.st272{fill:#C7EAF2;}
	.st273{fill:#E23737;}
	.st274{fill:#FFBF5D;}
	.st275{fill:#C6DCE0;}
	.st276{fill:#00ADDC;}
	.st277{fill:#F29232;stroke:#F1F1F1;stroke-miterlimit:10;}
	.st278{fill:#F2AD58;}
	.st279{fill:#465A72;}
	.st280{fill:#ECF0F1;}
	.st281{fill:#2C3E50;}
	.st282{clip-path:url(#SVGID_53_);fill:#EBF0F3;}
	.st283{clip-path:url(#SVGID_53_);fill:#F15F50;}
	.st284{fill:#FFB700;}
	.st285{fill:#27A3D9;}
	.st286{fill:#EF4B39;}
	.st287{fill:#34D18D;}
	.st288{fill:#34D1BC;}
	.st289{clip-path:url(#SVGID_55_);}
	.st290{fill:url(#SVGID_56_);}
	.st291{fill:#FFF5E3;}
	.st292{fill:#348AD1;}
	.st293{fill:#C2E55D;}
	.st294{fill-rule:evenodd;clip-rule:evenodd;fill:#2C4257;}
	.st295{fill-rule:evenodd;clip-rule:evenodd;fill:#00C4D7;}
	.st296{fill-rule:evenodd;clip-rule:evenodd;fill:#FFAC32;}
	.st297{fill-rule:evenodd;clip-rule:evenodd;fill:#EB5A49;}
	.st298{fill-rule:evenodd;clip-rule:evenodd;fill:#FFFDFA;}
	.st299{fill-rule:evenodd;clip-rule:evenodd;fill:#69CBCC;}
	.st300{opacity:0.1;fill-rule:evenodd;clip-rule:evenodd;}
	.st301{fill:#F1F2F2;}
	.st302{fill:#2C4257;}
	.st303{fill:#3A5870;}
	.st304{opacity:0.85;fill:#C6C6C6;}
	.st305{fill:#D1D3D4;}
	.st306{fill:#E6E7E8;}
	.st307{fill:#A7A9AC;}
	.st308{fill:#5A6C75;}
	.st309{opacity:0.5;fill:#FFFFFF;}
	.st310{fill:#64798A;}
	.st311{fill:#FF6E40;}
	.st312{fill:#DD2C00;}
	.st313{fill:none;stroke:#E94150;stroke-width:3;stroke-linecap:round;stroke-miterlimit:10;}
	.st314{fill:none;stroke:#FFFFFF;stroke-width:3;stroke-linecap:round;stroke-linejoin:round;stroke-miterlimit:10;}
	.st315{fill:url(#SVGID_57_);}
	.st316{fill:url(#SVGID_58_);}
	.st317{opacity:0.3;fill:#404041;}
	.st318{fill:none;stroke:#FF0000;stroke-miterlimit:10;}
	.st319{fill:#1F1523;}
	.st320{fill:#D9D7D9;}
	.st321{fill:#FFED99;}
	.st322{clip-path:url(#SVGID_60_);fill:#EBF0F3;}
	.st323{clip-path:url(#SVGID_60_);fill:#F15F50;}
	.st324{clip-path:url(#SVGID_62_);}
	.st325{fill:url(#SVGID_63_);}
	.st326{opacity:0.4;fill:#6A696E;}
	.st327{fill:#AADDFB;}
	.st328{fill:#D4EEFD;}
	
		.st329{clip-path:url(#XMLID_25_);fill:#FFFFFF;stroke:#FFAF39;stroke-width:2.7902;stroke-linecap:round;stroke-linejoin:round;stroke-miterlimit:10;}
	.st330{clip-path:url(#XMLID_26_);fill:#FFFFFF;}
	.st331{clip-path:url(#XMLID_28_);fill:#FFAF39;}
	.st332{fill:url(#SVGID_64_);}
	.st333{fill:url(#SVGID_65_);}
	.st334{fill:#000D05;}
	.st335{fill:none;stroke:#000D05;stroke-miterlimit:10;}
	.st336{fill:none;stroke:#000D05;stroke-width:6;stroke-linecap:round;stroke-linejoin:round;stroke-miterlimit:10;}
	.st337{fill:#2AABF4;}
	.st338{fill:#55BCF6;}
	
		.st339{clip-path:url(#XMLID_29_);fill:#FFFFFF;stroke:#FFAF39;stroke-width:2.7902;stroke-linecap:round;stroke-linejoin:round;stroke-miterlimit:10;}
	.st340{fill:url(#SVGID_66_);}
	.st341{fill:url(#SVGID_67_);}
	.st342{opacity:0.3;fill:url(#SVGID_68_);}
	.st343{opacity:0.2;fill-rule:evenodd;clip-rule:evenodd;fill:url(#SVGID_69_);}
	.st344{opacity:0.2;fill-rule:evenodd;clip-rule:evenodd;fill:url(#SVGID_70_);}
	.st345{opacity:0.2;fill-rule:evenodd;clip-rule:evenodd;fill:url(#SVGID_71_);}
	.st346{opacity:0.2;fill-rule:evenodd;clip-rule:evenodd;fill:url(#SVGID_72_);}
	.st347{opacity:0.2;fill-rule:evenodd;clip-rule:evenodd;fill:url(#SVGID_73_);}
	.st348{opacity:0.2;fill-rule:evenodd;clip-rule:evenodd;fill:url(#SVGID_74_);}
	.st349{opacity:0.2;fill-rule:evenodd;clip-rule:evenodd;fill:url(#SVGID_75_);}
	.st350{clip-path:url(#SVGID_77_);fill:#FFFFFF;}
	.st351{fill:#949699;}
	.st352{fill:url(#SVGID_78_);}
	.st353{fill:url(#SVGID_79_);}
	.st354{fill:#59595A;}
	.st355{fill:#C0C0C0;}
	.st356{fill:#808385;}
	.st357{fill:#BBBDBF;stroke:#FFFFFF;stroke-miterlimit:10;}
	.st358{fill:none;stroke:#BBBDBF;stroke-miterlimit:10;}
	.st359{fill:#BBBDBF;}
	.st360{fill:url(#SVGID_80_);}
	.st361{fill:none;stroke:#FAFAFA;stroke-miterlimit:10;}
	.st362{fill:url(#SVGID_81_);}
	.st363{fill:url(#SVGID_82_);}
	.st364{fill:#A6A8AB;}
	.st365{fill:#00747B;}
	.st366{fill-rule:evenodd;clip-rule:evenodd;fill:none;}
</style>
<g>
	<g>
		<path class="st359" d="M322.6,296.8l-0.7-0.6c1.5-1.8,3-3.7,4.4-5.6l0.7,0.5C325.6,293,324.1,294.9,322.6,296.8z"/>
		<path class="st359" d="M42.5,295.3c-1.5-1.9-2.9-3.8-4.3-5.7l0.7-0.5c1.4,1.9,2.8,3.8,4.3,5.7L42.5,295.3z"/>
		<path class="st359" d="M331.2,285.3l-0.7-0.5c1.3-1.9,2.6-3.9,3.9-6l0.8,0.5C333.8,281.3,332.5,283.4,331.2,285.3z"/>
		<path class="st359" d="M34.1,283.8c-1.3-2-2.6-4-3.8-6l0.8-0.5c1.2,2,2.5,4,3.8,6L34.1,283.8z"/>
		<path class="st359" d="M338.8,273.2l-0.8-0.4c1.2-2.1,2.3-4.2,3.4-6.3l0.8,0.4C341.1,269,340,271.1,338.8,273.2z"/>
		<path class="st359" d="M26.6,271.6c-1.2-2.1-2.3-4.2-3.4-6.3l0.8-0.4c1.1,2.1,2.2,4.2,3.3,6.3L26.6,271.6z"/>
		<path class="st359" d="M345.4,260.5l-0.8-0.4c1-2.1,2-4.3,2.9-6.5l0.8,0.3C347.4,256.1,346.4,258.3,345.4,260.5z"/>
		<path class="st359" d="M20.1,258.9c-1-2.1-1.9-4.3-2.8-6.5l0.8-0.3c0.9,2.2,1.8,4.4,2.8,6.5L20.1,258.9z"/>
		<path class="st359" d="M351,247.3l-0.8-0.3c0.8-2.2,1.6-4.5,2.4-6.7l0.8,0.3C352.6,242.8,351.8,245.1,351,247.3z"/>
		<path class="st359" d="M14.7,245.7c-0.8-2.2-1.6-4.5-2.3-6.8l0.8-0.3c0.7,2.2,1.5,4.5,2.3,6.7L14.7,245.7z"/>
		<path class="st359" d="M355.4,233.7l-0.9-0.2c0.6-2.3,1.3-4.6,1.8-6.9l0.9,0.2C356.7,229.1,356.1,231.4,355.4,233.7z"/>
		<path class="st359" d="M10.4,232.1c-0.6-2.3-1.2-4.6-1.8-6.9l0.9-0.2c0.5,2.3,1.1,4.6,1.8,6.9L10.4,232.1z"/>
		<path class="st359" d="M358.8,219.8l-0.9-0.2c0.5-2.3,0.9-4.7,1.3-7l0.9,0.1C359.7,215.1,359.3,217.5,358.8,219.8z"/>
		<path class="st359" d="M7.1,218.1c-0.4-2.3-0.8-4.7-1.2-7l0.9-0.1c0.4,2.3,0.8,4.7,1.2,7L7.1,218.1z"/>
		<path class="st359" d="M361.1,205.7l-0.9-0.1c0.3-2.3,0.5-4.7,0.7-7.1l0.9,0.1C361.6,200.9,361.4,203.3,361.1,205.7z"/>
		<path class="st359" d="M5,204c-0.3-2.4-0.5-4.8-0.6-7.1l0.9-0.1c0.2,2.4,0.4,4.7,0.6,7.1L5,204z"/>
		<path class="st359" d="M362.2,191.4l-0.9,0c0.1-2.4,0.1-4.8,0.1-7.1h0.9C362.3,186.7,362.3,189.1,362.2,191.4z"/>
		<path class="st359" d="M4,189.8c-0.1-1.8-0.1-3.6-0.1-5.5c0-0.6,0-1.1,0-1.7l0.9,0c0,0.6,0,1.1,0,1.7c0,1.8,0,3.6,0.1,5.4L4,189.8
			z"/>
		<path class="st359" d="M361.4,180.5c0-2.4-0.1-4.8-0.3-7.1l0.9-0.1c0.1,2.4,0.2,4.8,0.3,7.1L361.4,180.5z"/>
		<path class="st359" d="M5,175.5l-0.9,0c0.1-2.4,0.3-4.8,0.5-7.1l0.9,0.1C5.3,170.7,5.2,173.1,5,175.5z"/>
		<path class="st359" d="M360.6,166.3c-0.2-2.3-0.5-4.7-0.8-7.1l0.9-0.1c0.3,2.4,0.6,4.7,0.9,7.1L360.6,166.3z"/>
		<path class="st359" d="M6.3,161.3l-0.9-0.1c0.3-2.4,0.7-4.7,1.1-7.1l0.9,0.1C6.9,156.6,6.6,159,6.3,161.3z"/>
		<path class="st359" d="M358.6,152.3c-0.4-2.3-0.9-4.7-1.4-7l0.9-0.2c0.5,2.3,1,4.7,1.4,7L358.6,152.3z"/>
		<path class="st359" d="M8.7,147.3l-0.9-0.2c0.5-2.3,1-4.7,1.6-7l0.9,0.2C9.7,142.7,9.1,145,8.7,147.3z"/>
		<path class="st359" d="M355.5,138.4c-0.6-2.3-1.3-4.6-2-6.8l0.9-0.3c0.7,2.3,1.4,4.6,2,6.9L355.5,138.4z"/>
		<path class="st359" d="M12.2,133.5l-0.9-0.3c0.7-2.3,1.4-4.6,2.2-6.8l0.8,0.3C13.5,129,12.8,131.3,12.2,133.5z"/>
		<path class="st359" d="M351.3,124.8c-0.8-2.2-1.6-4.5-2.5-6.7l0.8-0.3c0.9,2.2,1.7,4.5,2.5,6.7L351.3,124.8z"/>
		<path class="st359" d="M16.7,120l-0.8-0.3c0.9-2.2,1.8-4.4,2.7-6.6l0.8,0.4C18.5,115.6,17.6,117.8,16.7,120z"/>
		<path class="st359" d="M346,111.6c-1-2.2-2-4.3-3-6.4l0.8-0.4c1,2.1,2.1,4.3,3,6.5L346,111.6z"/>
		<path class="st359" d="M22.4,107l-0.8-0.4c1-2.1,2.1-4.3,3.2-6.4l0.8,0.4C24.5,102.7,23.4,104.8,22.4,107z"/>
		<path class="st359" d="M339.7,98.9c-1.1-2.1-2.3-4.1-3.5-6.2l0.8-0.5c1.2,2,2.4,4.1,3.5,6.2L339.7,98.9z"/>
		<path class="st359" d="M29.1,94.4l-0.8-0.5c1.2-2,2.5-4.1,3.7-6.1l0.8,0.5C31.6,90.3,30.3,92.4,29.1,94.4z"/>
		<path class="st359" d="M332.4,86.7c-1.3-2-2.6-3.9-4-5.9l0.7-0.5c1.4,1.9,2.7,3.9,4,5.9L332.4,86.7z"/>
		<path class="st359" d="M41,76.6c-1.4,1.9-2.8,3.8-4.2,5.8l-0.7-0.5c1.4-2,2.8-3.9,4.2-5.8"/>
		
			<rect x="19" y="227.7" transform="matrix(0.3262 0.9453 -0.9453 0.3262 231.7079 137.3782)" class="st359" width="0.9" height="7.1"/>
		
			<rect x="32.5" y="223" transform="matrix(0.3261 0.9453 -0.9453 0.3261 236.4102 121.5165)" class="st359" width="0.9" height="7.1"/>
		
			<rect x="46" y="218.4" transform="matrix(0.3262 0.9453 -0.9453 0.3262 241.0916 105.6149)" class="st359" width="0.9" height="7.1"/>
		
			<rect x="59.5" y="213.7" transform="matrix(0.3262 0.9453 -0.9453 0.3262 245.785 89.7352)" class="st359" width="0.9" height="7.1"/>
		
			<rect x="73" y="209.1" transform="matrix(0.3261 0.9453 -0.9453 0.3261 250.4901 73.8707)" class="st359" width="0.9" height="7.1"/>
		
			<rect x="86.5" y="204.4" transform="matrix(0.3262 0.9453 -0.9453 0.3262 255.1693 57.9729)" class="st359" width="0.9" height="7.1"/>
		
			<rect x="100" y="199.8" transform="matrix(0.3262 0.9453 -0.9453 0.3262 259.8618 42.0919)" class="st359" width="0.9" height="7.1"/>
		
			<rect x="113.4" y="195.1" transform="matrix(0.3261 0.9453 -0.9453 0.3261 264.57 26.2249)" class="st359" width="0.9" height="7.1"/>
		
			<rect x="126.9" y="190.5" transform="matrix(0.3262 0.9453 -0.9453 0.3262 269.2461 10.3296)" class="st359" width="0.9" height="7.1"/>
		
			<rect x="140.4" y="185.8" transform="matrix(0.3262 0.9453 -0.9453 0.3262 273.9385 -5.5514)" class="st359" width="0.9" height="7.1"/>
		
			<rect x="153.9" y="181.2" transform="matrix(0.3261 0.9453 -0.9453 0.3261 278.6499 -21.4209)" class="st359" width="0.9" height="7.1"/>
		
			<rect x="167.4" y="176.5" transform="matrix(0.326 0.9454 -0.9454 0.326 283.3604 -37.2936)" class="st359" width="0.9" height="7.1"/>
		<polygon class="st359" points="178.1,177 177.8,176.2 181.6,174.9 181.4,174.8 181.6,174 184.7,174.7 		"/>
		
			<rect x="167.6" y="171.4" transform="matrix(0.9704 0.2416 -0.2416 0.9704 46.5804 -36.2582)" class="st359" width="7.1" height="0.9"/>
		
			<rect x="153.7" y="167.9" transform="matrix(0.9704 0.2416 -0.2416 0.9704 45.3356 -33.0149)" class="st359" width="7.1" height="0.9"/>
		
			<rect x="139.9" y="164.5" transform="matrix(0.9704 0.2416 -0.2416 0.9704 44.093 -29.7729)" class="st359" width="7.1" height="0.9"/>
		
			<rect x="126.1" y="161" transform="matrix(0.9704 0.2416 -0.2416 0.9704 42.8536 -26.5323)" class="st359" width="7.1" height="0.9"/>
		
			<rect x="112.2" y="157.6" transform="matrix(0.9704 0.2416 -0.2416 0.9704 41.6193 -23.2936)" class="st359" width="7.1" height="0.9"/>
		
			<rect x="98.4" y="154.2" transform="matrix(0.9704 0.2415 -0.2415 0.9704 40.3494 -20.0414)" class="st359" width="7.1" height="0.9"/>
		
			<rect x="84.5" y="150.7" transform="matrix(0.9704 0.2415 -0.2415 0.9704 39.1133 -16.8023)" class="st359" width="7.1" height="0.9"/>
		
			<rect x="70.7" y="147.3" transform="matrix(0.9704 0.2416 -0.2416 0.9704 37.8834 -13.564)" class="st359" width="7.1" height="0.9"/>
		
			<rect x="56.8" y="143.8" transform="matrix(0.9704 0.2415 -0.2415 0.9704 36.6217 -10.3189)" class="st359" width="7.1" height="0.9"/>
		
			<rect x="43" y="140.4" transform="matrix(0.9704 0.2416 -0.2416 0.9704 35.4052 -7.0802)" class="st359" width="7.1" height="0.9"/>
		
			<rect x="29.2" y="136.9" transform="matrix(0.9704 0.2416 -0.2416 0.9704 34.1541 -3.8377)" class="st359" width="7.1" height="0.9"/>
		
			<rect x="15.3" y="133.5" transform="matrix(0.9704 0.2415 -0.2415 0.9704 32.9032 -0.5966)" class="st359" width="7.1" height="0.9"/>
		
			<rect x="351" y="235.8" transform="matrix(0.9414 0.3373 -0.3373 0.9414 100.4364 -105.7302)" class="st359" width="7.1" height="0.9"/>
		
			<rect x="337.5" y="230.9" transform="matrix(0.9414 0.3372 -0.3372 0.9414 97.992 -101.4569)" class="st359" width="7.1" height="0.9"/>
		
			<rect x="324.1" y="226.1" transform="matrix(0.9414 0.3372 -0.3372 0.9414 95.5851 -97.2115)" class="st359" width="7.1" height="0.9"/>
		
			<rect x="310.7" y="221.3" transform="matrix(0.9414 0.3372 -0.3372 0.9414 93.1766 -92.965)" class="st359" width="7.1" height="0.9"/>
		
			<rect x="297.2" y="216.5" transform="matrix(0.9414 0.3372 -0.3372 0.9414 90.7684 -88.7188)" class="st359" width="7.1" height="0.9"/>
		
			<rect x="283.8" y="211.7" transform="matrix(0.9414 0.3373 -0.3373 0.9414 88.3948 -84.4955)" class="st359" width="7.1" height="0.9"/>
		
			<rect x="270.4" y="206.9" transform="matrix(0.9414 0.3373 -0.3373 0.9414 85.9856 -80.2479)" class="st359" width="7.1" height="0.9"/>
		
			<rect x="256.9" y="202.1" transform="matrix(0.9414 0.3372 -0.3372 0.9414 83.5609 -75.9905)" class="st359" width="7.1" height="0.9"/>
		
			<rect x="243.5" y="197.3" transform="matrix(0.9414 0.3373 -0.3373 0.9414 81.1623 -71.7497)" class="st359" width="7.1" height="0.9"/>
		
			<rect x="230.1" y="192.5" transform="matrix(0.9414 0.3373 -0.3373 0.9414 78.7529 -67.5022)" class="st359" width="7.1" height="0.9"/>
		
			<rect x="216.7" y="187.7" transform="matrix(0.9414 0.3372 -0.3372 0.9414 76.3331 -63.2486)" class="st359" width="7.1" height="0.9"/>
		
			<rect x="203.2" y="182.8" transform="matrix(0.9414 0.3372 -0.3372 0.9414 73.9087 -58.9929)" class="st359" width="7.1" height="0.9"/>
		
			<rect x="189.8" y="178" transform="matrix(0.9414 0.3372 -0.3372 0.9414 71.5005 -54.7467)" class="st359" width="7.1" height="0.9"/>
		<polygon class="st359" points="183.1,175.3 181.3,174.6 190,173.4 190.1,174.3 183.2,175.3 183.2,175.2 		"/>
		
			<rect x="200.2" y="168.8" transform="matrix(0.1367 0.9906 -0.9906 0.1367 344.0022 -49.9081)" class="st359" width="0.9" height="7.1"/>
		
			<rect x="214.3" y="166.9" transform="matrix(0.1369 0.9906 -0.9906 0.1369 354.2396 -65.6075)" class="st359" width="0.9" height="7.1"/>
		
			<rect x="228.5" y="165" transform="matrix(0.1366 0.9906 -0.9906 0.1366 364.5807 -81.2454)" class="st359" width="0.9" height="7.1"/>
		
			<rect x="242.6" y="163" transform="matrix(0.1368 0.9906 -0.9906 0.1368 374.8065 -96.9481)" class="st359" width="0.9" height="7.1"/>
		
			<rect x="256.7" y="161.1" transform="matrix(0.1367 0.9906 -0.9906 0.1367 385.1217 -112.6049)" class="st359" width="0.9" height="7.1"/>
		
			<rect x="270.9" y="159.1" transform="matrix(0.1366 0.9906 -0.9906 0.1366 395.4378 -128.2639)" class="st359" width="0.9" height="7.1"/>
		
			<rect x="285" y="157.2" transform="matrix(0.1367 0.9906 -0.9906 0.1367 405.6774 -143.9556)" class="st359" width="0.9" height="7.1"/>
		
			<rect x="299.1" y="155.3" transform="matrix(0.1369 0.9906 -0.9906 0.1369 415.8849 -159.6563)" class="st359" width="0.9" height="7.1"/>
		
			<rect x="313.2" y="153.3" transform="matrix(0.1367 0.9906 -0.9906 0.1367 426.217 -175.3104)" class="st359" width="0.9" height="7.1"/>
		
			<rect x="327.4" y="151.4" transform="matrix(0.1368 0.9906 -0.9906 0.1368 436.4907 -190.9866)" class="st359" width="0.9" height="7.1"/>
		
			<rect x="341.5" y="149.4" transform="matrix(0.1367 0.9906 -0.9906 0.1367 446.7938 -206.6537)" class="st359" width="0.9" height="7.1"/>
		
			<rect x="355.6" y="147.5" transform="matrix(0.1366 0.9906 -0.9906 0.1366 457.1245 -222.3143)" class="st359" width="0.9" height="7.1"/>
		
			<rect x="177.5" y="171.4" transform="matrix(0.5675 0.8234 -0.8234 0.5675 219.7729 -74.7745)" class="st359" width="7.1" height="0.9"/>
		
			<rect x="190" y="163.6" transform="matrix(0.7207 0.6933 -0.6933 0.7207 169.0981 -85.3644)" class="st359" width="0.9" height="7.1"/>
		
			<rect x="169.4" y="159.6" transform="matrix(0.5674 0.8234 -0.8234 0.5674 206.6176 -73.1869)" class="st359" width="7.1" height="0.9"/>
		
			<rect x="199.9" y="153.3" transform="matrix(0.7209 0.6931 -0.6931 0.7209 164.6536 -95.0794)" class="st359" width="0.9" height="7.1"/>
		
			<rect x="161.3" y="147.9" transform="matrix(0.5674 0.8234 -0.8234 0.5674 193.4361 -71.6032)" class="st359" width="7.1" height="0.9"/>
		
			<rect x="209.8" y="143" transform="matrix(0.7206 0.6933 -0.6933 0.7206 160.3764 -104.8188)" class="st359" width="0.9" height="7.1"/>
		
			<rect x="153.2" y="136.1" transform="matrix(0.5674 0.8234 -0.8234 0.5674 180.2632 -70.0183)" class="st359" width="7.1" height="0.9"/>
		
			<rect x="219.7" y="132.7" transform="matrix(0.7209 0.6931 -0.6931 0.7209 155.9164 -114.5225)" class="st359" width="0.9" height="7.1"/>
		
			<rect x="229.6" y="122.5" transform="matrix(0.7206 0.6933 -0.6933 0.7206 151.6367 -124.272)" class="st359" width="0.9" height="7.1"/>
		
			<rect x="145.1" y="124.4" transform="matrix(0.5675 0.8234 -0.8234 0.5675 167.0824 -68.4343)" class="st359" width="7.1" height="0.9"/>
		
			<rect x="239.5" y="112.2" transform="matrix(0.7204 0.6935 -0.6935 0.7204 147.3409 -134.0259)" class="st359" width="0.9" height="7.1"/>
		
			<rect x="137" y="112.6" transform="matrix(0.5674 0.8234 -0.8234 0.5674 153.9161 -66.8488)" class="st359" width="7.1" height="0.9"/>
		
			<rect x="249.3" y="101.9" transform="matrix(0.7207 0.6933 -0.6933 0.7207 142.8788 -143.7175)" class="st359" width="0.9" height="7.1"/>
		
			<rect x="128.9" y="100.9" transform="matrix(0.5675 0.8234 -0.8234 0.5675 140.7362 -65.2644)" class="st359" width="7.1" height="0.9"/>
		
			<rect x="259.2" y="91.6" transform="matrix(0.7209 0.6931 -0.6931 0.7209 138.4376 -153.4077)" class="st359" width="0.9" height="7.1"/>
		
			<rect x="120.8" y="89.1" transform="matrix(0.5675 0.8234 -0.8234 0.5675 127.5626 -63.6793)" class="st359" width="7.1" height="0.9"/>
		
			<rect x="269.1" y="81.3" transform="matrix(0.7211 0.6928 -0.6928 0.7211 133.9783 -163.0807)" class="st359" width="0.9" height="7.1"/>
		<polyline class="st359" points="114.6,74.6 118.7,80.5 118,81 113.9,75.1 		"/>
		<polyline class="st359" points="282.2,72.3 277.3,77.5 276.6,76.9 281.6,71.7 		"/>
		<polyline class="st359" points="92.9,298.9 97.1,293.2 97.8,293.7 93.6,299.5 		"/>
		
			<rect x="313.2" y="293" transform="matrix(0.7471 0.6648 -0.6648 0.7471 275.1833 -136.3874)" class="st359" width="7.1" height="0.9"/>
		
			<rect x="103.2" y="281.2" transform="matrix(0.8104 0.5858 -0.5858 0.8104 186.474 -6.7662)" class="st359" width="0.9" height="7.1"/>
		
			<rect x="302.6" y="283.5" transform="matrix(0.7472 0.6646 -0.6646 0.7472 266.1029 -131.6881)" class="st359" width="7.1" height="0.9"/>
		
			<rect x="291.9" y="274" transform="matrix(0.7473 0.6644 -0.6644 0.7473 256.9911 -126.9844)" class="st359" width="7.1" height="0.9"/>
		
			<rect x="111.6" y="269.6" transform="matrix(0.8104 0.5859 -0.5859 0.8104 181.309 -13.8469)" class="st359" width="0.9" height="7.1"/>
		
			<rect x="281.2" y="264.5" transform="matrix(0.7476 0.6642 -0.6642 0.7476 247.8591 -122.2746)" class="st359" width="7.1" height="0.9"/>
		
			<rect x="120" y="258.1" transform="matrix(0.8104 0.5858 -0.5858 0.8104 176.0961 -20.9393)" class="st359" width="0.9" height="7.1"/>
		
			<rect x="270.5" y="255" transform="matrix(0.7477 0.6641 -0.6641 0.7477 238.802 -117.5704)" class="st359" width="7.1" height="0.9"/>
		
			<rect x="128.3" y="246.5" transform="matrix(0.8105 0.5858 -0.5858 0.8105 170.8902 -28.0286)" class="st359" width="0.9" height="7.1"/>
		
			<rect x="259.9" y="245.5" transform="matrix(0.7478 0.6639 -0.6639 0.7478 229.7476 -112.8642)" class="st359" width="7.1" height="0.9"/>
		
			<rect x="136.7" y="234.9" transform="matrix(0.8104 0.5859 -0.5859 0.8104 165.723 -35.1121)" class="st359" width="0.9" height="7.1"/>
		
			<rect x="249.2" y="236" transform="matrix(0.748 0.6637 -0.6637 0.748 220.6338 -108.1497)" class="st359" width="7.1" height="0.9"/>
		
			<rect x="145" y="223.4" transform="matrix(0.8105 0.5858 -0.5858 0.8105 160.5098 -42.2007)" class="st359" width="0.9" height="7.1"/>
		
			<rect x="238.5" y="226.6" transform="matrix(0.7482 0.6634 -0.6634 0.7482 211.5362 -103.4335)" class="st359" width="7.1" height="0.9"/>
		
			<rect x="227.8" y="217.1" transform="matrix(0.7482 0.6635 -0.6635 0.7482 202.5606 -98.727)" class="st359" width="7.1" height="0.9"/>
		
			<rect x="153.4" y="211.8" transform="matrix(0.8105 0.5858 -0.5858 0.8105 155.3221 -49.2864)" class="st359" width="0.9" height="7.1"/>
		
			<rect x="217.1" y="207.6" transform="matrix(0.7484 0.6632 -0.6632 0.7484 193.4719 -94.0062)" class="st359" width="7.2" height="0.9"/>
		
			<rect x="161.7" y="200.2" transform="matrix(0.8104 0.5858 -0.5858 0.8104 150.1478 -56.3731)" class="st359" width="0.9" height="7.1"/>
		
			<rect x="206.4" y="198.1" transform="matrix(0.7486 0.663 -0.663 0.7486 184.4254 -89.2848)" class="st359" width="7.2" height="0.9"/>
		
			<rect x="170.1" y="188.7" transform="matrix(0.8104 0.5858 -0.5858 0.8104 144.9578 -63.4599)" class="st359" width="0.9" height="7.1"/>
		
			<rect x="195.6" y="188.6" transform="matrix(0.7487 0.6629 -0.6629 0.7487 175.3699 -84.558)" class="st359" width="7.2" height="0.9"/>
		
			<rect x="178.4" y="177.1" transform="matrix(0.8106 0.5856 -0.5856 0.8106 139.6868 -70.5339)" class="st359" width="0.9" height="7.1"/>
		
			<rect x="184.9" y="179.1" transform="matrix(0.749 0.6626 -0.6626 0.749 166.2519 -79.8105)" class="st359" width="7.2" height="0.9"/>
		<circle class="st359" cx="12.4" cy="131.7" r="7.1"/>
		<circle class="st359" cx="37.2" cy="289" r="4"/>
		<path class="st359" d="M321.3,303.2c-4,0-7.2-3.2-7.2-7.2c0-4,3.2-7.2,7.2-7.2c4,0,7.2,3.2,7.2,7.2
			C328.5,300,325.3,303.2,321.3,303.2"/>
		<circle class="st359" cx="359.2" cy="150.3" r="5.9"/>
		<circle class="st359" cx="355.2" cy="236.6" r="4"/>
		<circle class="st359" cx="331.1" cy="86.7" r="5.8"/>
		<circle class="st359" cx="256.2" cy="165.6" r="4.4"/>
		<circle class="st359" cx="114.8" cy="198.2" r="2.6"/>
	</g>
</g>
<g>
	<g>
		<path class="st185" d="M263.3,347.9c-2.1,1-4.3,2.1-6.5,3l-0.4-0.8c2.2-1,4.3-2,6.4-3L263.3,347.9z"/>
		<path class="st185" d="M250.2,353.7c-2.2,0.9-4.4,1.7-6.7,2.5l-0.3-0.8c2.2-0.8,4.5-1.6,6.6-2.5L250.2,353.7z"/>
		<path class="st185" d="M236.8,358.5c-2.3,0.7-4.6,1.4-6.8,2l-0.2-0.9c2.3-0.6,4.6-1.3,6.8-2L236.8,358.5z"/>
		<path class="st185" d="M223,362.1c-2.3,0.5-4.7,1-7,1.4l-0.2-0.9c2.3-0.4,4.7-0.9,7-1.4L223,362.1z"/>
		<path class="st185" d="M246.8,18.1l-0.3,0.8c-2.2-0.8-4.5-1.6-6.7-2.3l0.3-0.8C242.3,16.5,244.6,17.3,246.8,18.1z"/>
		<path class="st185" d="M209,364.7c-2.3,0.3-4.7,0.6-7.1,0.8l-0.1-0.9c2.4-0.2,4.7-0.5,7.1-0.8L209,364.7z"/>
		<path class="st185" d="M233.2,13.7l-0.2,0.9c-2.3-0.6-4.6-1.2-6.9-1.8l0.2-0.9C228.6,12.4,231,13,233.2,13.7z"/>
		<path class="st185" d="M194.8,366.1c-2.4,0.1-4.8,0.2-7.1,0.3l0-0.9c2.4,0,4.7-0.1,7.1-0.3L194.8,366.1z"/>
		<path class="st185" d="M219.4,10.3l-0.2,0.9c-2.3-0.5-4.7-0.9-7-1.2l0.1-0.9C214.7,9.4,217,9.9,219.4,10.3z"/>
		<path class="st185" d="M180.5,366.3c-2.4,0-4.8-0.1-7.1-0.3l0.1-0.9c2.4,0.1,4.7,0.2,7.1,0.3L180.5,366.3z"/>
		<path class="st185" d="M205.3,8.1L205.2,9c-2.3-0.3-4.7-0.5-7.1-0.7l0.1-0.9C200.5,7.6,202.9,7.8,205.3,8.1z"/>
		<path class="st185" d="M166.3,365.5c-1.8-0.2-3.6-0.4-5.4-0.6c-0.6-0.1-1.1-0.1-1.7-0.2l0.1-0.9c0.6,0.1,1.1,0.2,1.7,0.2
			c1.8,0.2,3.6,0.4,5.4,0.6L166.3,365.5z"/>
		<path class="st185" d="M194.4,8c-2.4-0.1-4.8-0.2-7.1-0.3l0-0.9c2.4,0,4.8,0.1,7.1,0.3L194.4,8z"/>
		<path class="st185" d="M152.3,362.6l-0.2,0.9c-2.3-0.4-4.7-0.9-7-1.4l0.2-0.9C147.6,361.7,150,362.2,152.3,362.6z"/>
		<path class="st185" d="M180.2,7.8c-2.4,0.1-4.7,0.2-7.1,0.3L173,7.2c2.4-0.1,4.8-0.2,7.1-0.3L180.2,7.8z"/>
		<path class="st185" d="M138.4,359.5l-0.2,0.9c-2.3-0.6-4.6-1.3-6.9-2l0.3-0.9C133.8,358.3,136.1,358.9,138.4,359.5z"/>
		<path class="st185" d="M166,8.7c-2.4,0.2-4.7,0.5-7,0.9l-0.1-0.9c2.3-0.3,4.7-0.6,7.1-0.9L166,8.7z"/>
		<path class="st185" d="M124.8,355.4l-0.3,0.8c-2.2-0.8-4.5-1.6-6.7-2.5l0.3-0.8C120.4,353.8,122.6,354.6,124.8,355.4z"/>
		<path class="st185" d="M151.9,10.7c-2.3,0.4-4.7,0.9-7,1.4l-0.2-0.9c2.3-0.5,4.7-1,7-1.4L151.9,10.7z"/>
		<path class="st185" d="M111.6,350.1l-0.4,0.8c-2.2-1-4.3-2-6.5-3l0.4-0.8C107.3,348.2,109.5,349.2,111.6,350.1z"/>
		<path class="st185" d="M138.1,13.8c-2.3,0.6-4.6,1.3-6.8,2l-0.3-0.8c2.3-0.7,4.6-1.4,6.9-2L138.1,13.8z"/>
		<path class="st185" d="M124.5,18c-2.2,0.8-4.5,1.6-6.6,2.5l-0.3-0.8c2.2-0.9,4.4-1.7,6.7-2.5L124.5,18z"/>
		<path class="st185" d="M111.4,23.3c-2.1,1-4.3,2-6.4,3l-0.4-0.8c2.1-1.1,4.3-2.1,6.4-3.1L111.4,23.3z"/>
		<path class="st185" d="M98.7,29.6c-2.1,1.1-4.1,2.3-6.2,3.5l-0.5-0.8c2-1.2,4.1-2.4,6.2-3.6L98.7,29.6z"/>
		
			<rect x="208.9" y="352" transform="matrix(0.9796 -0.2009 0.2009 0.9796 -67.1459 49.2935)" class="st185" width="0.9" height="7.1"/>
		
			<rect x="206" y="338" transform="matrix(0.9796 -0.2008 0.2008 0.9796 -64.3729 48.4095)" class="st185" width="0.9" height="7.1"/>
		
			<rect x="203.2" y="324" transform="matrix(0.9796 -0.2009 0.2009 0.9796 -61.6569 47.5782)" class="st185" width="0.9" height="7.1"/>
		
			<rect x="200.3" y="310.1" transform="matrix(0.9796 -0.2009 0.2009 0.9796 -58.91 46.7184)" class="st185" width="0.9" height="7.1"/>
		
			<rect x="197.5" y="296.1" transform="matrix(0.9796 -0.2008 0.2008 0.9796 -56.1408 45.8359)" class="st185" width="0.9" height="7.1"/>
		
			<rect x="194.6" y="282.2" transform="matrix(0.9796 -0.2009 0.2009 0.9796 -53.4195 45.0016)" class="st185" width="0.9" height="7.1"/>
		
			<rect x="191.7" y="268.2" transform="matrix(0.9796 -0.2009 0.2009 0.9796 -50.6742 44.1432)" class="st185" width="0.9" height="7.1"/>
		
			<rect x="188.9" y="254.3" transform="matrix(0.9796 -0.2008 0.2008 0.9796 -47.9086 43.2623)" class="st185" width="0.9" height="7.1"/>
		
			<rect x="109.3" y="343.1" transform="matrix(0.3653 -0.9309 0.9309 0.3653 -248.121 323.1248)" class="st185" width="7.1" height="0.9"/>
		
			<rect x="245.7" y="18.8" transform="matrix(0.4094 -0.9124 0.9124 0.4094 129.6634 238.7452)" class="st185" width="7.1" height="0.9"/>
		
			<rect x="170" y="107" transform="matrix(0.9982 -5.929747e-002 5.929747e-002 0.9982 -6.2587 10.3013)" class="st185" width="0.9" height="7.1"/>
		
			<rect x="169.2" y="92.8" transform="matrix(0.9982 -5.917314e-002 5.917314e-002 0.9982 -5.4061 10.205)" class="st185" width="0.9" height="7.1"/>
		
			<rect x="168.3" y="78.6" transform="matrix(0.9982 -5.930944e-002 5.930944e-002 0.9982 -4.5758 10.1544)" class="st185" width="0.9" height="7.1"/>
		
			<rect x="167.5" y="64.4" transform="matrix(0.9982 -5.953130e-002 5.953130e-002 0.9982 -3.7466 10.1179)" class="st185" width="0.9" height="7.1"/>
		
			<rect x="166.7" y="50.2" transform="matrix(0.9982 -5.936403e-002 5.936403e-002 0.9982 -2.8941 10.0146)" class="st185" width="0.9" height="7.1"/>
		
			<rect x="165.8" y="35.9" transform="matrix(0.9982 -5.937769e-002 5.937769e-002 0.9982 -2.0517 9.9422)" class="st185" width="0.9" height="7.1"/>
		
			<rect x="165" y="21.7" transform="matrix(0.9982 -5.930944e-002 5.930944e-002 0.9982 -1.2076 9.8562)" class="st185" width="0.9" height="7.1"/>
		
			<rect x="164.2" y="7.5" transform="matrix(0.9982 -5.917314e-002 5.917314e-002 0.9982 -0.3654 9.7591)" class="st185" width="0.9" height="7.1"/>
		<circle class="st185" cx="109.8" cy="349.7" r="7.1"/>
		<circle class="st185" cx="268.8" cy="345.4" r="4"/>
		<circle class="st185" cx="164.1" cy="7.9" r="5.9"/>
		<circle class="st185" cx="249.6" cy="18.6" r="4"/>
		<circle class="st185" cx="98.5" cy="30.9" r="5.8"/>
		<circle class="st185" cx="171.3" cy="111.6" r="4.4"/>
		<circle class="st185" cx="189" cy="256.8" r="2.6"/>
	</g>
</g>
</svg>
