<?xml version="1.0" encoding="utf-8"?>
<!-- Generator: Adobe Illustrator 19.1.0, SVG Export Plug-In . SVG Version: 6.00 Build 0)  -->
<svg version="1.1" id="Layer_2" xmlns="http://www.w3.org/2000/svg" xmlns:xlink="http://www.w3.org/1999/xlink" x="0px" y="0px"
	 viewBox="0 0 312 304.2" style="enable-background:new 0 0 312 304.2;" xml:space="preserve">
<style type="text/css">
	.st0{fill:#BFBFBF;}
	.st1{fill:#FFFFFF;}
</style>
<path class="st0" d="M62.5,11.8L7.7,67.2h54.9V11.8z M62.5,11.8"/>
<path class="st0" d="M138.3,191.8c0-51.8,42.1-94,94-94c5,0,9.8,0.4,14.6,1.1V4.6H75.7v75.7H0v223.8h246.9v-19.5
	c-4.8,0.7-9.6,1.1-14.6,1.1C180.5,285.8,138.3,243.6,138.3,191.8L138.3,191.8z M138.3,191.8"/>
<path class="st0" d="M232.3,116.5c-41.6,0-75.3,33.7-75.3,75.3c0,41.6,33.7,75.3,75.3,75.3c41.6,0,75.3-33.7,75.3-75.3
	C307.6,150.2,273.9,116.5,232.3,116.5L232.3,116.5z M262.6,225.9"/>
<path class="st1" d="M198.3,184.5c0.3,0.1,8,1.6,9.6,10.2c-2.1,2.2-3.4,5.3-3.4,8.7c0,0,0,0.1,0,0.1h21.9v-0.1
	c0-3.4-1.3-6.5-3.4-8.7c1.7-8.6,9.3-10.2,9.6-10.2c0.7-0.1,1.2-0.8,1.1-1.5c-0.1-0.7-0.8-1.2-1.5-1.1c-0.1,0-8.9,1.7-11.4,11
	c-1.6-0.9-3.4-1.5-5.3-1.5c-1.9,0-3.7,0.5-5.3,1.5c-2.5-9.3-11.4-11-11.5-11c-0.7-0.1-1.4,0.3-1.5,1.1
	C197.1,183.7,197.6,184.4,198.3,184.5L198.3,184.5z M198.3,184.5"/>
<path class="st1" d="M240.1,195.2c-0.9-0.3-1.9,0.2-2.2,1.2c0,0-2.2,7-2.6,8.5c-0.9,0.3-3.8,1.1-5.8,1.6c-0.1-0.3-0.1-0.6-0.2-0.9
	h-27.5c-0.1,0.3-0.1,0.6-0.2,0.9c-2-0.5-4.9-1.4-5.8-1.6c-0.5-1.5-2.6-8.5-2.6-8.5c-0.3-0.9-1.3-1.5-2.2-1.2
	c-0.9,0.3-1.5,1.3-1.2,2.2l3.2,10.3l8.1,2.3c-0.1,0.7-0.1,1.5-0.1,2.3c0,0.9,0.1,1.9,0.1,2.8l-8.1,3.6l-2.5,14.2
	c-0.2,1,0.5,1.9,1.4,2c0.9,0.2,1.9-0.5,2-1.4c0,0,1.9-10.8,2.2-12.4c0.8-0.3,3.3-1.5,5.5-2.5c1.9,8.1,7.4,14,13.8,14
	c6.5,0,11.9-5.9,13.9-14c2.2,1,4.7,2.1,5.5,2.5c0.3,1.6,2.2,12.4,2.2,12.4c0.2,1,1.1,1.6,2.1,1.4c1-0.2,1.6-1.1,1.4-2l-2.5-14.2
	L230,215c0.1-0.9,0.1-1.8,0.1-2.8c0-0.8,0-1.5-0.1-2.3l8.1-2.2l3.2-10.3C241.5,196.4,241,195.5,240.1,195.2L240.1,195.2z
	 M240.1,195.2"/>
<path class="st1" d="M281.6,207.2L281.6,207.2l-40-40.3l-0.1-18.9l-19.4-5.2l-2.1,2.1l10.3,10.3l-10.1,10.1l-10.3-10.3l-2.1,2
	l5.2,19.4l18.4,0.1l-0.1,0.1l40.3,40.5l0.1,0c2.7,2.6,7,2.6,9.7-0.1C284.3,214.3,284.3,209.9,281.6,207.2L281.6,207.2z M279,214.4
	c-1.2,1.2-3.1,1.2-4.3,0c-1.2-1.2-1.2-3.1,0-4.3c1.2-1.2,3.1-1.2,4.3,0C280.2,211.2,280.2,213.2,279,214.4L279,214.4z M279,214.4"/>
</svg>
