<?xml version="1.0" encoding="utf-8"?>
<!-- Generator: Adobe Illustrator 19.1.0, SVG Export Plug-In . SVG Version: 6.00 Build 0)  -->
<svg version="1.1" id="Layer_2" xmlns="http://www.w3.org/2000/svg" xmlns:xlink="http://www.w3.org/1999/xlink" x="0px" y="0px"
	 viewBox="0 0 265 338" style="enable-background:new 0 0 265 338;" xml:space="preserve">
<style type="text/css">
	.st0{fill:#C2C2C2;}
	.st1{fill:#FFFFFF;}
</style>
<path class="st0" d="M26.8,115.5c0-7.7,7.8-14.2,17.5-14.5c5.8-0.2,10.5-5,10.5-10.8v-0.3c0.1-19,18.6-34.5,41.3-34.6
	c4.7,0,8.9-3.1,10.3-7.6c4-13,18-22,33.8-22c18.6,0,33.9,12.2,34.9,27.8c0.3,5.7,5.3,10,12.8,10c17.4,0,31.7,11.6,32,26
	c0,7.4,3.7,10.8,8.9,11.7c8.3,1.5,14.4,7.4,14.4,14.2c0,8-8.2,14.6-18.2,14.6H45C35,130.1,26.8,123.5,26.8,115.5L26.8,115.5z
	 M245,214.2h-75.2c-3.7-12.7-13.8-22.8-26.6-26.5v-36H225c22,0,39.9-16.2,39.9-36.2c0-14.6-9.7-27.6-24-33.2
	c-3.8-20.8-22.5-37.2-45.9-40C188.8,20.2,166.5,4,140.2,4c-22.4,0-42.6,12-51.6,30C60.8,37,38.6,56.2,34,80.7
	C17.2,85.1,5.1,99,5.1,115.5c0,20,17.9,36.2,39.9,36.2h76.5v36c-12.8,3.7-22.9,13.8-26.6,26.5H19.7c-6,0-10.8,4.8-10.8,10.8
	c0,6,4.9,10.8,10.8,10.8h75.2c4.7,16.2,19.7,28.1,37.4,28.1c17.7,0,32.7-11.9,37.4-28.1h75.2c6,0,10.8-4.8,10.8-10.8
	C255.8,219,251,214.2,245,214.2L245,214.2z M245,214.2"/>
<path class="st0" d="M143.7,304.6c-4.9-6.4-9.5-10.6-9.9-19.1c0-0.2-0.1-0.4-0.2-0.6c-0.1-0.4-0.5-0.7-0.9-0.4
	c-0.5,0-0.9,0.3-0.9,0.9c-10.4,11.2-28,39.7-5.9,47.8c10,3.7,21.3-1.3,23.3-12.2C150.2,315.3,147.1,309.1,143.7,304.6L143.7,304.6z
	 M125.9,328.1c-2.4-1.4-3.9-4.2-4.6-6.7c-0.3-1.2-0.5-2.5-0.4-3.7c0.5-2.1,1.2-4.2,1.9-6.3c0.4,1.8,1.2,3.6,2.4,4.9
	c2.6,2.9,8,4.6,9.5,8.3c0.9,2.2-2.6,4.1-4.1,4.6C129,329.7,127.3,328.9,125.9,328.1L125.9,328.1z M125.9,328.1"/>
<path class="st1" d="M141,205.4h-17.5c-1.2,0-2.1,0.9-2.1,2v36.4c0,1.1,0.9,2,2.1,2H141c1.2,0,2.1-0.9,2.1-2v-36.4
	C143.1,206.3,142.2,205.4,141,205.4L141,205.4z M129.2,208.5h6.1v0.4h-6.1V208.5z M132.3,243.7c-0.6,0-1.2-0.5-1.2-1.2
	c0-0.6,0.5-1.2,1.2-1.2c0.6,0,1.2,0.5,1.2,1.2C133.4,243.2,132.9,243.7,132.3,243.7L132.3,243.7z M141.7,239.3h-18.8v-27.9h18.8
	V239.3z M141.7,239.3"/>
</svg>
