<svg id="Layer_1" xmlns="http://www.w3.org/2000/svg" viewBox="0 0 42 31"><style>.st0{opacity:.3;fill:#f2f2f2}.st1{fill:#fff}.st2,.st3{fill-rule:evenodd;clip-rule:evenodd;fill:#211f1f}.st3{fill:#e85345}.st4{fill:none;stroke:#000;stroke-width:.5;stroke-miterlimit:10}.st5{fill:#e85345}.st6{opacity:.3;fill:#fff}.st7{fill:none;stroke:#fff;stroke-miterlimit:10}.st8{opacity:.3;fill:#ccc}.st10,.st9{fill:none;stroke:#000;stroke-miterlimit:10}.st10{opacity:.3;stroke:#666}.st11,.st12{opacity:.3;fill:#666}.st12{fill:none;stroke:#333;stroke-miterlimit:10}.st13{fill:#61c6c4}.st14{fill:#fbb47a}</style><path d="M41.4 3.7v21.1c0 1.7-1.3 3-3 3h-9.9l1.1 1.2h1.7c.4 0 .7.3.7.7 0 .4-.3.7-.7.7H10.6c-.4 0-.7-.3-.7-.7 0-.4.3-.7.7-.7h1.7l1.1-1.2H3.6c-1.7 0-3-1.3-3-3V3.7c0-1.7 1.3-3 3-3h34.9c1.6 0 2.9 1.3 2.9 3zM40 24V4.5H2V24h38zM2.1 3.1h37.8c-.2-.6-.8-1-1.5-1H3.6c-.7 0-1.3.4-1.5 1zm37.8 22.2H2.1c.2.6.8 1 1.5 1h34.9c.6.1 1.2-.4 1.4-1zM27.8 29l-1.1-1.2H15.3L14.2 29h13.6z"/><path class="st13" d="M39.9 3.1H2.1c.2-.6.8-1 1.5-1h34.9c.6 0 1.2.4 1.4 1zM2.1 25.3h37.8c-.2.6-.8 1-1.5 1H3.6c-.7.1-1.3-.4-1.5-1z"/><path d="M35.4 9.9c.8.8.8 2.2 0 3.1-.4.4-1 .6-1.5.6-.3 0-.7-.1-1-.3l-5.6 4.4c.1.3.2.6.2.9 0 .6-.2 1.1-.6 1.5-.4.4-1 .6-1.5.6-.6 0-1.1-.2-1.5-.6-.7-.7-.8-1.6-.4-2.4l-5.6-4.4c-.3.2-.7.3-1 .3-.3 0-.7-.1-1-.3l-5.6 4.4c.4.8.2 1.8-.4 2.4-.4.4-1 .6-1.5.6-.6 0-1.1-.2-1.5-.6-.8-.8-.8-2.2 0-3.1.7-.7 1.7-.8 2.5-.4l5.6-4.4c-.4-.8-.2-1.8.4-2.4.6-.8 2-.8 2.8.1.7.7.8 1.6.4 2.4l5.6 4.4c.6-.3 1.4-.3 2 0l5.6-4.4c-.1-.3-.2-.6-.2-.9 0-.6.2-1.1.6-1.5.9-.9 2.3-.9 3.2 0zm-1 2c.3-.3.3-.8 0-1.1-.1-.1-.3-.2-.5-.2s-.4.1-.5.2c-.1.1-.2.3-.2.5s.1.4.2.5c.2.4.7.4 1 .1zm-8.6 7.2c.3-.3.3-.8 0-1.1-.1-.1-.3-.2-.5-.2s-.4.1-.5.2c-.3.3-.3.8 0 1.1.2.3.7.3 1 0zm-8.5-7.2c.3-.3.3-.8 0-1.1-.1-.1-.3-.2-.5-.2s-.4.1-.5.2c-.3.3-.3.8 0 1.1.2.3.7.3 1 0zm-8.6 7.2c.3-.3.3-.8 0-1.1-.1-.1-.3-.2-.5-.2s-.4.1-.5.2c-.3.3-.3.8 0 1.1.2.3.7.3 1 0z"/><path class="st14" d="M34.4 10.9c.3.3.3.8 0 1.1-.3.3-.8.3-1.1 0-.1-.1-.2-.3-.2-.5s.1-.4.2-.5c.1-.1.3-.2.5-.2.2-.2.4-.1.6.1z"/><path class="st13" d="M26.6 27.7l1.2 1.3H14.2l1.1-1.3z"/><path class="st14" d="M25.8 18c.3.3.3.8 0 1.1-.3.3-.8.3-1.1 0-.3-.3-.3-.8 0-1.1.1-.1.3-.2.5-.2.3 0 .5.1.6.2zM17.3 10.9c.3.3.3.8 0 1.1-.3.3-.8.3-1.1 0-.3-.3-.3-.8 0-1.1.1-.1.3-.2.5-.2.2-.1.4 0 .6.2zM8.7 18c.3.3.3.8 0 1.1-.3.3-.8.3-1.1 0-.3-.3-.3-.8 0-1.1.1-.1.3-.2.5-.2.3 0 .5.1.6.2z"/></svg>