<?xml version="1.0" encoding="utf-8"?>
<!-- Generator: Adobe Illustrator 19.1.0, SVG Export Plug-In . SVG Version: 6.00 Build 0)  -->
<svg version="1.1" id="Layer_1" xmlns="http://www.w3.org/2000/svg" xmlns:xlink="http://www.w3.org/1999/xlink" x="0px" y="0px"
	 viewBox="0 0 42 31" style="enable-background:new 0 0 42 31;" xml:space="preserve">
<style type="text/css">
	.st0{opacity:0.3;fill:#F2F2F2;}
	.st1{fill:#FFFFFF;}
	.st2{fill-rule:evenodd;clip-rule:evenodd;fill:#211F1F;}
	.st3{fill-rule:evenodd;clip-rule:evenodd;fill:#E85345;}
	.st4{fill:none;stroke:#000000;stroke-width:0.5;stroke-miterlimit:10;}
	.st5{fill:#E85345;}
	.st6{opacity:0.3;fill:#FFFFFF;}
	.st7{fill:none;stroke:#FFFFFF;stroke-miterlimit:10;}
	.st8{opacity:0.3;fill:#CCCCCC;}
	.st9{fill:none;stroke:#000000;stroke-miterlimit:10;}
	.st10{opacity:0.3;fill:none;stroke:#666666;stroke-miterlimit:10;}
	.st11{opacity:0.3;fill:#666666;}
	.st12{opacity:0.3;fill:none;stroke:#333333;stroke-miterlimit:10;}
	.st13{fill:#61C6C4;}
	.st14{fill:#FBB47A;}
</style>
<g>
	<path d="M41.4,3.7v21.1c0,1.7-1.3,3-3,3h-9.9l1.1,1.2h1.7c0.4,0,0.7,0.3,0.7,0.7c0,0.4-0.3,0.7-0.7,0.7H10.6
		c-0.4,0-0.7-0.3-0.7-0.7c0-0.4,0.3-0.7,0.7-0.7h1.7l1.1-1.2H3.6c-1.7,0-3-1.3-3-3V3.7c0-1.7,1.3-3,3-3h34.9
		C40.1,0.7,41.4,2,41.4,3.7z M40,24V4.5H2V24H40z M2.1,3.1h37.8c-0.2-0.6-0.8-1-1.5-1H3.6C2.9,2.1,2.3,2.5,2.1,3.1z M39.9,25.3H2.1
		c0.2,0.6,0.8,1,1.5,1h34.9C39.1,26.4,39.7,25.9,39.9,25.3z M27.8,29l-1.1-1.2H15.3L14.2,29H27.8z"/>
	<path class="st13" d="M39.9,3.1H2.1c0.2-0.6,0.8-1,1.5-1h34.9C39.1,2.1,39.7,2.5,39.9,3.1z"/>
	<path class="st13" d="M2.1,25.3h37.8c-0.2,0.6-0.8,1-1.5,1H3.6C2.9,26.4,2.3,25.9,2.1,25.3z"/>
	<path d="M35.4,9.9c0.8,0.8,0.8,2.2,0,3.1c-0.4,0.4-1,0.6-1.5,0.6c-0.3,0-0.7-0.1-1-0.3l-5.6,4.4c0.1,0.3,0.2,0.6,0.2,0.9
		c0,0.6-0.2,1.1-0.6,1.5c-0.4,0.4-1,0.6-1.5,0.6c-0.6,0-1.1-0.2-1.5-0.6c-0.7-0.7-0.8-1.6-0.4-2.4l-5.6-4.4c-0.3,0.2-0.7,0.3-1,0.3
		c-0.3,0-0.7-0.1-1-0.3l-5.6,4.4c0.4,0.8,0.2,1.8-0.4,2.4c-0.4,0.4-1,0.6-1.5,0.6c-0.6,0-1.1-0.2-1.5-0.6c-0.8-0.8-0.8-2.2,0-3.1
		c0.7-0.7,1.7-0.8,2.5-0.4l5.6-4.4c-0.4-0.8-0.2-1.8,0.4-2.4C16,9,17.4,9,18.2,9.9c0.7,0.7,0.8,1.6,0.4,2.4l5.6,4.4
		c0.6-0.3,1.4-0.3,2,0l5.6-4.4c-0.1-0.3-0.2-0.6-0.2-0.9c0-0.6,0.2-1.1,0.6-1.5C33.1,9,34.5,9,35.4,9.9z M34.4,11.9
		c0.3-0.3,0.3-0.8,0-1.1c-0.1-0.1-0.3-0.2-0.5-0.2c-0.2,0-0.4,0.1-0.5,0.2c-0.1,0.1-0.2,0.3-0.2,0.5c0,0.2,0.1,0.4,0.2,0.5
		C33.6,12.2,34.1,12.2,34.4,11.9z M25.8,19.1c0.3-0.3,0.3-0.8,0-1.1c-0.1-0.1-0.3-0.2-0.5-0.2c-0.2,0-0.4,0.1-0.5,0.2
		c-0.3,0.3-0.3,0.8,0,1.1C25,19.4,25.5,19.4,25.8,19.1z M17.3,11.9c0.3-0.3,0.3-0.8,0-1.1c-0.1-0.1-0.3-0.2-0.5-0.2
		c-0.2,0-0.4,0.1-0.5,0.2c-0.3,0.3-0.3,0.8,0,1.1C16.5,12.2,17,12.2,17.3,11.9z M8.7,19.1C9,18.8,9,18.3,8.7,18
		c-0.1-0.1-0.3-0.2-0.5-0.2c-0.2,0-0.4,0.1-0.5,0.2c-0.3,0.3-0.3,0.8,0,1.1C7.9,19.4,8.4,19.4,8.7,19.1z"/>
	<path class="st14" d="M34.4,10.9c0.3,0.3,0.3,0.8,0,1.1c-0.3,0.3-0.8,0.3-1.1,0c-0.1-0.1-0.2-0.3-0.2-0.5c0-0.2,0.1-0.4,0.2-0.5
		c0.1-0.1,0.3-0.2,0.5-0.2C34,10.6,34.2,10.7,34.4,10.9z"/>
	<polygon class="st13" points="26.6,27.7 27.8,29 14.2,29 15.3,27.7 	"/>
	<path class="st14" d="M25.8,18c0.3,0.3,0.3,0.8,0,1.1c-0.3,0.3-0.8,0.3-1.1,0c-0.3-0.3-0.3-0.8,0-1.1c0.1-0.1,0.3-0.2,0.5-0.2
		C25.5,17.8,25.7,17.9,25.8,18z"/>
	<path class="st14" d="M17.3,10.9c0.3,0.3,0.3,0.8,0,1.1c-0.3,0.3-0.8,0.3-1.1,0c-0.3-0.3-0.3-0.8,0-1.1c0.1-0.1,0.3-0.2,0.5-0.2
		C16.9,10.6,17.1,10.7,17.3,10.9z"/>
	<path class="st14" d="M8.7,18c0.3,0.3,0.3,0.8,0,1.1c-0.3,0.3-0.8,0.3-1.1,0c-0.3-0.3-0.3-0.8,0-1.1c0.1-0.1,0.3-0.2,0.5-0.2
		C8.4,17.8,8.6,17.9,8.7,18z"/>
</g>
</svg>
