<?xml version="1.0" encoding="utf-8"?>
<!-- Generator: Adobe Illustrator 19.1.0, SVG Export Plug-In . SVG Version: 6.00 Build 0)  -->
<svg version="1.1" id="Layer_1" xmlns="http://www.w3.org/2000/svg" xmlns:xlink="http://www.w3.org/1999/xlink" x="0px" y="0px"
	 viewBox="0 0 36 36" style="enable-background:new 0 0 36 36;" xml:space="preserve">
<style type="text/css">
	.st0{fill:none;stroke:#999999;stroke-miterlimit:10;}
	.st1{fill:#FFFFFF;}
	.st2{fill-rule:evenodd;clip-rule:evenodd;fill:#211F1F;}
	.st3{fill-rule:evenodd;clip-rule:evenodd;fill:#EE5345;}
	.st4{fill:#231F20;}
	.st5{fill:none;stroke:#000000;stroke-width:0.5;stroke-miterlimit:10;}
	.st6{opacity:0.6;fill:#F1F1F2;stroke:#FFFFFF;}
	.st7{fill:none;stroke:#000000;stroke-width:0.6;stroke-miterlimit:10;}
	.st8{fill:#EE5345;}
	.st9{fill:none;stroke:#000000;stroke-miterlimit:10;}
	.st10{fill:#FFFFFF;stroke:#000000;stroke-miterlimit:10;}
	.st11{fill:none;stroke:#808184;stroke-miterlimit:10;}
	.st12{fill:#B3B3B3;}
	.st13{fill:#464B4C;}
	.st14{fill:#FFDCB8;}
	.st15{fill:#CB8F5E;}
	.st16{fill:#281D12;}
	.st17{fill:#382B19;}
	.st18{fill:#232728;}
	.st19{fill:#E5E5E5;}
	.st20{fill:#141414;}
	.st21{fill:#676B6B;}
	.st22{fill:#725C2B;}
	.st23{fill:#493918;}
	.st24{fill:#190F08;}
	.st25{fill:#753427;}
	.st26{fill:#FAFAFA;}
	.st27{fill:#49BEDF;}
	.st28{fill:#999999;}
	.st29{fill:none;stroke:#C7B299;stroke-miterlimit:10;}
	.st30{stroke:#FFFFFF;stroke-miterlimit:10;}
	.st31{opacity:0.8;}
	.st32{fill:none;stroke:#000000;stroke-width:2;stroke-miterlimit:10;}
	.st33{fill:none;stroke:#CCCCCC;stroke-miterlimit:10;}
</style>
<g>
	<g>
		<path class="st12" d="M18,1C8.5,1,0.7,8.8,0.7,18.3c0,9.5,7.7,17.3,17.3,17.3c9.5,0,17.3-7.7,17.3-17.3C35.3,8.8,27.5,1,18,1z
			 M22.3,18.9h-2.8c0,4.5,0,10,0,10h-4.2c0,0,0-5.5,0-10h-2v-3.5h2v-2.3c0-1.6,0.8-4.2,4.2-4.2l3.1,0v3.4c0,0-1.9,0-2.2,0
			c-0.4,0-0.9,0.2-0.9,1v2.1h3.2L22.3,18.9z"/>
	</g>
</g>
</svg>
