<?xml version="1.0" encoding="utf-8"?>
<!-- Generator: Adobe Illustrator 19.1.0, SVG Export Plug-In . SVG Version: 6.00 Build 0)  -->
<svg version="1.1" id="Layer_2" xmlns="http://www.w3.org/2000/svg" xmlns:xlink="http://www.w3.org/1999/xlink" x="0px" y="0px"
	 viewBox="0 0 332 332" style="enable-background:new 0 0 332 332;" xml:space="preserve">
<style type="text/css">
	.st0{fill:#C3C3C3;}
</style>
<path id="Configuration" class="st0" d="M300,61.3L271,32.2c-1.8-1.8-4.6-2.1-6.8-0.8l-15.2,9.2c-7.4-4.1-15.3-7.4-23.5-9.8
	l-4.2-17.2c-0.6-2.5-2.8-4.2-5.4-4.2h-41.1c-2.5,0-4.8,1.7-5.4,4.2l-4.2,17.2c-8.3,2.3-16.2,5.6-23.5,9.8l-15.2-9.2
	c-2.2-1.3-5-1-6.8,0.8L90.7,61.3c-1.8,1.8-2.1,4.6-0.8,6.8l9.2,15.2c-4.1,7.4-7.4,15.3-9.8,23.5l-17.2,4.2c-2.5,0.6-4.2,2.8-4.2,5.4
	v41.1c0,2.5,1.7,4.8,4.2,5.4l17.2,4.2c2.3,8.3,5.6,16.2,9.8,23.5l-9.2,15.2c-1.3,2.2-1,5,0.8,6.8l29.1,29.1c1.8,1.8,4.6,2.1,6.8,0.8
	l15.2-9.2c7.4,4.1,15.3,7.4,23.5,9.8l4.2,17.2c0.6,2.5,2.8,4.2,5.4,4.2h41.1c2.5,0,4.8-1.7,5.4-4.2l4.2-17.2
	c8.3-2.3,16.2-5.6,23.5-9.8l15.2,9.2c2.2,1.3,5,1,6.8-0.8l29.1-29.1c1.8-1.8,2.1-4.6,0.8-6.8l-9.2-15.2c4.1-7.4,7.4-15.3,9.8-23.5
	l17.2-4.2c2.5-0.6,4.2-2.8,4.2-5.4v-41.1c0-2.5-1.7-4.8-4.2-5.4l-17.2-4.2c-2.4-8.3-5.6-16.2-9.8-23.5l9.2-15.2
	C302.2,65.8,301.8,63.1,300,61.3L300,61.3z M195.4,209.3c-40,0-72.5-32.5-72.5-72.5c0-40,32.5-72.5,72.5-72.5
	c40,0,72.5,32.5,72.5,72.5C267.9,176.9,235.4,209.3,195.4,209.3L195.4,209.3z M195.4,194.4"/>
<path id="Iris" class="st0" d="M207.1,136.6c0,6.2-5,11.3-11.3,11.3c-6.2,0-11.3-5.1-11.3-11.3c0-6.2,5.1-11.3,11.3-11.3
	C202.1,125.4,207.1,130.4,207.1,136.6L207.1,136.6z M207.1,136.6"/>
<path id="Eye" class="st0" d="M247.9,135c-1-1-23.6-24.7-52.1-24.7c-28.5,0-51.1,23.7-52,24.7c-0.9,0.9-0.9,2.4,0,3.3
	c0.9,1,23.6,24.7,52,24.7c28.5,0,51.1-23.7,52.1-24.7C248.8,137.4,248.8,135.9,247.9,135L247.9,135z M195.8,156.7
	c-11.1,0-20.1-9-20.1-20.1c0-11.1,9-20.1,20.1-20.1c11.1,0,20.1,9,20.1,20.1C215.9,147.7,206.9,156.7,195.8,156.7L195.8,156.7z
	 M179.9,117.7c-5.4,4.6-9,11.3-9,18.9c0,7.6,3.5,14.4,9,18.9c-15-4.8-26.8-15-31-18.9C153.1,132.7,164.9,122.5,179.9,117.7
	L179.9,117.7z M211.7,155.6c5.4-4.6,9-11.3,9-18.9c0-7.6-3.5-14.4-9-18.9c15,4.8,26.8,15,31,18.9
	C238.5,140.6,226.7,150.7,211.7,155.6L211.7,155.6z M211.7,155.6"/>
<rect x="44" y="213.9" transform="matrix(0.7148 0.6993 -0.6993 0.7148 207.4304 34.5615)" class="st0" width="34.7" height="115.4"/>
</svg>
