<svg id="Layer_1" xmlns="http://www.w3.org/2000/svg" viewBox="0 0 40.8 39.5"><style>.st0{opacity:.3;fill:#f2f2f2}.st1{fill:#fff}.st2,.st3{fill-rule:evenodd;clip-rule:evenodd;fill:#211f1f}.st3{fill:#e85345}.st4{fill:none;stroke:#000;stroke-width:.5;stroke-miterlimit:10}.st5{fill:#e85345}.st6{opacity:.3;fill:#fff}.st7{fill:none;stroke:#fff;stroke-miterlimit:10}.st8{opacity:.3;fill:#ccc}.st10,.st9{fill:none;stroke:#000;stroke-miterlimit:10}.st10{opacity:.3;stroke:#666}.st11,.st12{opacity:.3;fill:#666}.st12{fill:none;stroke:#333;stroke-miterlimit:10}.st13{fill:#61c6c4}.st14{fill:#fbb47a}</style><path d="M40.4 15.8v14.6c0 3.6-2.9 6.5-6.5 6.5H25c-.3 1.2-1.4 2-2.6 2h-2.7c-1.5 0-2.7-1.2-2.7-2.7 0-1.5 1.2-2.7 2.7-2.7h2.7c1.3 0 2.3.8 2.6 2h8.9c2.8 0 5-2.3 5-5V30c-.7.6-1.7 1-2.7 1h-3.3c-1 0-1.8-.8-1.8-1.8V17.6c0-1 .8-1.8 1.8-1.8h3.3c1 0 2 .4 2.7 1v-1c0-6.3-4.7-11.4-10.9-12.1-.3.7-1 1.2-1.9 1.2H14.7c-.8 0-1.5-.5-1.9-1.2-6.1.7-10.9 5.9-10.9 12.1v1c.7-.6 1.7-1 2.7-1h3.3c1 0 1.8.8 1.8 1.8v11.5c0 1-.8 1.8-1.8 1.8H4.7C2.4 30.9.5 29 .5 26.7V15.8C.5 8.8 5.8 3 12.7 2.3c.3-.9 1-1.5 2-1.5h11.4c.9 0 1.7.6 2 1.5C35 3 40.4 8.8 40.4 15.8zm-1.5 10.9V20c0-1.5-1.2-2.7-2.7-2.7h-1.5v12.1h1.5c1.5 0 2.7-1.2 2.7-2.7zm-5.7 2.7V17.3h-.3c-.2 0-.3.1-.3.3v11.5c0 .2.1.3.3.3h.3zM26.7 2.9c0-.3-.3-.6-.6-.6H14.7c-.3 0-.6.3-.6.6s.3.6.6.6h11.4c.4 0 .6-.3.6-.6zm-3.1 33.2c0-.7-.6-1.3-1.3-1.3h-2.7c-.7 0-1.3.6-1.3 1.3 0 .7.6 1.3 1.3 1.3h2.7c.8 0 1.3-.6 1.3-1.3zm-15.4-7V17.6c0-.2-.1-.3-.3-.3h-.3v12.1h.3c.2 0 .3-.2.3-.3zm-2 .3V17.3H4.7C3.2 17.3 2 18.5 2 20v6.7c0 1.5 1.2 2.7 2.7 2.7h1.5z"/><path class="st13" d="M38.9 20v6.7c0 1.5-1.2 2.7-2.7 2.7h-1.5V17.3h1.5c1.5 0 2.7 1.2 2.7 2.7z"/><path class="st1" d="M26.1 2.3c.3 0 .6.3.6.6s-.3.6-.6.6H14.7c-.3 0-.6-.3-.6-.6s.3-.6.6-.6h11.4z"/><path class="st14" d="M22.4 34.8c.7 0 1.3.6 1.3 1.3 0 .7-.6 1.3-1.3 1.3h-2.7c-.7 0-1.3-.6-1.3-1.3 0-.7.6-1.3 1.3-1.3h2.7z"/><path class="st13" d="M6.2 17.3v12.1H4.7c-1.5 0-2.7-1.2-2.7-2.7V20c0-1.5 1.2-2.7 2.7-2.7h1.5z"/></svg>