<?xml version="1.0" encoding="utf-8"?>
<!-- Generator: Adobe Illustrator 19.1.0, SVG Export Plug-In . SVG Version: 6.00 Build 0)  -->
<svg version="1.1" id="Layer_1" xmlns="http://www.w3.org/2000/svg" xmlns:xlink="http://www.w3.org/1999/xlink" x="0px" y="0px"
	 viewBox="0 0 40.8 39.5" style="enable-background:new 0 0 40.8 39.5;" xml:space="preserve">
<style type="text/css">
	.st0{opacity:0.3;fill:#F2F2F2;}
	.st1{fill:#FFFFFF;}
	.st2{fill-rule:evenodd;clip-rule:evenodd;fill:#211F1F;}
	.st3{fill-rule:evenodd;clip-rule:evenodd;fill:#E85345;}
	.st4{fill:none;stroke:#000000;stroke-width:0.5;stroke-miterlimit:10;}
	.st5{fill:#E85345;}
	.st6{opacity:0.3;fill:#FFFFFF;}
	.st7{fill:none;stroke:#FFFFFF;stroke-miterlimit:10;}
	.st8{opacity:0.3;fill:#CCCCCC;}
	.st9{fill:none;stroke:#000000;stroke-miterlimit:10;}
	.st10{opacity:0.3;fill:none;stroke:#666666;stroke-miterlimit:10;}
	.st11{opacity:0.3;fill:#666666;}
	.st12{opacity:0.3;fill:none;stroke:#333333;stroke-miterlimit:10;}
	.st13{fill:#61C6C4;}
	.st14{fill:#FBB47A;}
</style>
<g>
	<path d="M40.4,15.8v14.6c0,3.6-2.9,6.5-6.5,6.5H25c-0.3,1.2-1.4,2-2.6,2h-2.7c-1.5,0-2.7-1.2-2.7-2.7c0-1.5,1.2-2.7,2.7-2.7h2.7
		c1.3,0,2.3,0.8,2.6,2h8.9c2.8,0,5-2.3,5-5v-0.5c-0.7,0.6-1.7,1-2.7,1h-3.3c-1,0-1.8-0.8-1.8-1.8V17.6c0-1,0.8-1.8,1.8-1.8h3.3
		c1,0,2,0.4,2.7,1v-1c0-6.3-4.7-11.4-10.9-12.1c-0.3,0.7-1,1.2-1.9,1.2H14.7c-0.8,0-1.5-0.5-1.9-1.2C6.7,4.4,1.9,9.6,1.9,15.8v1
		c0.7-0.6,1.7-1,2.7-1h3.3c1,0,1.8,0.8,1.8,1.8v11.5c0,1-0.8,1.8-1.8,1.8H4.7c-2.3,0-4.2-1.9-4.2-4.2V15.8c0-7,5.3-12.8,12.2-13.5
		c0.3-0.9,1-1.5,2-1.5h11.4c0.9,0,1.7,0.6,2,1.5C35,3,40.4,8.8,40.4,15.8z M38.9,26.7V20c0-1.5-1.2-2.7-2.7-2.7h-1.5v12.1h1.5
		C37.7,29.4,38.9,28.2,38.9,26.7z M33.2,29.4V17.3h-0.3c-0.2,0-0.3,0.1-0.3,0.3v11.5c0,0.2,0.1,0.3,0.3,0.3H33.2z M26.7,2.9
		c0-0.3-0.3-0.6-0.6-0.6H14.7c-0.3,0-0.6,0.3-0.6,0.6c0,0.3,0.3,0.6,0.6,0.6h11.4C26.5,3.5,26.7,3.2,26.7,2.9z M23.6,36.1
		c0-0.7-0.6-1.3-1.3-1.3h-2.7c-0.7,0-1.3,0.6-1.3,1.3c0,0.7,0.6,1.3,1.3,1.3h2.7C23.1,37.4,23.6,36.8,23.6,36.1z M8.2,29.1V17.6
		c0-0.2-0.1-0.3-0.3-0.3H7.6v12.1h0.3C8.1,29.4,8.2,29.2,8.2,29.1z M6.2,29.4V17.3H4.7c-1.5,0-2.7,1.2-2.7,2.7v6.7
		c0,1.5,1.2,2.7,2.7,2.7H6.2z"/>
	<path class="st13" d="M38.9,20v6.7c0,1.5-1.2,2.7-2.7,2.7h-1.5V17.3h1.5C37.7,17.3,38.9,18.5,38.9,20z"/>
	<path class="st1" d="M26.1,2.3c0.3,0,0.6,0.3,0.6,0.6c0,0.3-0.3,0.6-0.6,0.6H14.7c-0.3,0-0.6-0.3-0.6-0.6c0-0.3,0.3-0.6,0.6-0.6
		H26.1z"/>
	<path class="st14" d="M22.4,34.8c0.7,0,1.3,0.6,1.3,1.3c0,0.7-0.6,1.3-1.3,1.3h-2.7c-0.7,0-1.3-0.6-1.3-1.3c0-0.7,0.6-1.3,1.3-1.3
		H22.4z"/>
	<path class="st13" d="M6.2,17.3v12.1H4.7c-1.5,0-2.7-1.2-2.7-2.7V20c0-1.5,1.2-2.7,2.7-2.7H6.2z"/>
</g>
</svg>
