<?xml version="1.0" encoding="utf-8"?>
<!-- Generator: Adobe Illustrator 19.1.0, SVG Export Plug-In . SVG Version: 6.00 Build 0)  -->
<svg version="1.1" id="Layer_1" xmlns="http://www.w3.org/2000/svg" xmlns:xlink="http://www.w3.org/1999/xlink" x="0px" y="0px"
	 viewBox="0 0 36 36" style="enable-background:new 0 0 36 36;" xml:space="preserve">
<style type="text/css">
	.st0{fill:none;stroke:#999999;stroke-miterlimit:10;}
	.st1{fill:#FFFFFF;}
	.st2{fill-rule:evenodd;clip-rule:evenodd;fill:#211F1F;}
	.st3{fill-rule:evenodd;clip-rule:evenodd;fill:#EE5345;}
	.st4{fill:#231F20;}
	.st5{fill:none;stroke:#000000;stroke-width:0.5;stroke-miterlimit:10;}
	.st6{opacity:0.6;fill:#F1F1F2;stroke:#FFFFFF;}
	.st7{fill:none;stroke:#000000;stroke-width:0.6;stroke-miterlimit:10;}
	.st8{fill:#EE5345;}
	.st9{fill:none;stroke:#000000;stroke-miterlimit:10;}
	.st10{fill:#FFFFFF;stroke:#000000;stroke-miterlimit:10;}
	.st11{fill:none;stroke:#808184;stroke-miterlimit:10;}
	.st12{fill:#B3B3B3;}
	.st13{fill:#464B4C;}
	.st14{fill:#FFDCB8;}
	.st15{fill:#CB8F5E;}
	.st16{fill:#281D12;}
	.st17{fill:#382B19;}
	.st18{fill:#232728;}
	.st19{fill:#E5E5E5;}
	.st20{fill:#141414;}
	.st21{fill:#676B6B;}
	.st22{fill:#725C2B;}
	.st23{fill:#493918;}
	.st24{fill:#190F08;}
	.st25{fill:#753427;}
	.st26{fill:#FAFAFA;}
	.st27{fill:#49BEDF;}
	.st28{fill:#999999;}
	.st29{fill:none;stroke:#C7B299;stroke-miterlimit:10;}
	.st30{stroke:#FFFFFF;stroke-miterlimit:10;}
	.st31{opacity:0.8;}
	.st32{fill:none;stroke:#000000;stroke-width:2;stroke-miterlimit:10;}
	.st33{fill:none;stroke:#CCCCCC;stroke-miterlimit:10;}
</style>
<g>
	<g>
		<g>
			<path class="st12" d="M21.1,15.7c-1.5,0-2.1,0.8-2.5,1.4v-1.2h-2.8c0,0.8,0,8.4,0,8.4h2.8v-4.7c0-0.2,0-0.5,0.1-0.7
				c0.2-0.5,0.7-1,1.4-1c1,0,1.4,0.8,1.4,1.9v4.5h2.8h0v-4.8C24.3,16.9,23,15.7,21.1,15.7z M18.6,17.2L18.6,17.2
				C18.6,17.1,18.6,17.1,18.6,17.2L18.6,17.2z"/>
			<rect x="11.5" y="15.9" class="st12" width="2.8" height="8.4"/>
			<path class="st12" d="M18,0.9C8.5,0.9,0.7,8.7,0.7,18.2c0,9.5,7.7,17.3,17.3,17.3c9.5,0,17.3-7.7,17.3-17.3
				C35.3,8.7,27.5,0.9,18,0.9z M27.1,26c0,0.7-0.6,1.3-1.4,1.3H10.1c-0.8,0-1.4-0.6-1.4-1.3V10.1c0-0.7,0.6-1.3,1.4-1.3h15.7
				c0.8,0,1.4,0.6,1.4,1.3L27.1,26L27.1,26z"/>
			<path class="st12" d="M12.9,11.9c-1,0-1.6,0.6-1.6,1.4c0,0.8,0.6,1.4,1.5,1.4h0c1,0,1.6-0.6,1.6-1.4
				C14.5,12.5,13.9,11.9,12.9,11.9z"/>
		</g>
	</g>
</g>
</svg>
