<svg id="Layer_1" xmlns="http://www.w3.org/2000/svg" viewBox="0 0 36 36"><style>.st0{fill:none;stroke:#999;stroke-miterlimit:10}.st1{fill:#fff}.st2,.st3{fill-rule:evenodd;clip-rule:evenodd;fill:#211f1f}.st3{fill:#ee5345}.st4{fill:#231f20}.st5{fill:none;stroke:#000;stroke-width:.5;stroke-miterlimit:10}.st6{opacity:.6;fill:#f1f1f2;stroke:#fff}.st7{fill:none;stroke:#000;stroke-width:.6;stroke-miterlimit:10}.st8{fill:#ee5345}.st10,.st11,.st9{fill:none;stroke:#000;stroke-miterlimit:10}.st10,.st11{fill:#fff}.st11{fill:none;stroke:#808184}.st12{fill:#b3b3b3}.st13{fill:#464b4c}.st14{fill:#ffdcb8}.st15{fill:#cb8f5e}.st16{fill:#281d12}.st17{fill:#382b19}.st18{fill:#232728}.st19{fill:#e5e5e5}.st20{fill:#141414}.st21{fill:#676b6b}.st22{fill:#725c2b}.st23{fill:#493918}.st24{fill:#190f08}.st25{fill:#753427}.st26{fill:#fafafa}.st27{fill:#49bedf}.st28{fill:#999}.st29,.st30{stroke-miterlimit:10}.st29{fill:none;stroke:#c7b299}.st30{stroke:#fff}.st31{opacity:.8}.st32,.st33{fill:none;stroke-miterlimit:10}.st32{stroke-width:2;stroke:#000}.st33{stroke:#ccc}</style><path class="st12" d="M21.1 15.7c-1.5 0-2.1.8-2.5 1.4v-1.2h-2.8v8.4h2.8v-4.7c0-.2 0-.5.1-.7.2-.5.7-1 1.4-1 1 0 1.4.8 1.4 1.9v4.5h2.8v-4.8c0-2.6-1.3-3.8-3.2-3.8zm-2.5 1.5c0-.1 0-.1 0 0zM11.5 15.9h2.8v8.4h-2.8z"/><path class="st12" d="M18 .9C8.5.9.7 8.7.7 18.2S8.4 35.5 18 35.5c9.5 0 17.3-7.7 17.3-17.3C35.3 8.7 27.5.9 18 .9zM27.1 26c0 .7-.6 1.3-1.4 1.3H10.1c-.8 0-1.4-.6-1.4-1.3V10.1c0-.7.6-1.3 1.4-1.3h15.7c.8 0 1.4.6 1.4 1.3L27.1 26z"/><path class="st12" d="M12.9 11.9c-1 0-1.6.6-1.6 1.4 0 .8.6 1.4 1.5 1.4 1 0 1.6-.6 1.6-1.4.1-.8-.5-1.4-1.5-1.4z"/></svg>