<svg id="Layer_1" xmlns="http://www.w3.org/2000/svg" viewBox="0 0 40.8 39.5"><style>.st0{opacity:.3;fill:#f2f2f2}.st1{fill:#fff}.st2,.st3{fill-rule:evenodd;clip-rule:evenodd;fill:#211f1f}.st3{fill:#e85345}.st4{fill:none;stroke:#000;stroke-width:.5;stroke-miterlimit:10}.st5{fill:#e85345}.st6{opacity:.3;fill:#fff}.st7{fill:none;stroke:#fff;stroke-miterlimit:10}.st8{opacity:.3;fill:#ccc}.st10,.st9{fill:none;stroke:#000;stroke-miterlimit:10}.st10{opacity:.3;stroke:#666}.st11,.st12{opacity:.3;fill:#666}.st12{fill:none;stroke:#333;stroke-miterlimit:10}.st13{fill:#61c6c4}.st14{fill:#fbb47a}.st15{font-family:&apos;OpenSans&apos;}.st16{font-size:5px}</style><path d="M39.2 1.9c.4 0 .7.3.7.7s-.3.7-.7.7H2c-.4 0-.7-.3-.7-.7s.3-.7.7-.7h37.2zM39.2 6.1c.4 0 .7.3.7.7s-.3.7-.7.7H2c-.4 0-.7-.3-.7-.7s.3-.7.7-.7h37.2zM39.2 10.4c.4 0 .7.3.7.7 0 .4-.3.7-.7.7H2c-.4 0-.7-.3-.7-.7 0-.4.3-.7.7-.7h37.2zM39.2 14.6c.4 0 .7.3.7.7s-.3.7-.7.7h-8.6c.1.2.2.4.4.6.4.7.7 1.5.9 2.3h7.3c.4 0 .7.3.7.7 0 .4-.3.7-.7.7H32c0 .8-.1 1.7-.3 2.5 0 .1-.1.2-.1.4h7.5c.4 0 .7.3.7.7 0 .4-.3.7-.7.7H31c-.4.8-.9 1.4-1.5 2l5.2 9c.5.9.2 2.2-.7 2.7-.3.2-.6.3-1 .3-.7 0-1.4-.4-1.7-1l-5.2-9c-.7.2-1.5.3-2.2.3-.7 0-1.4-.1-2.2-.3-2.1-.6-3.9-1.9-4.9-3.8 0-.1-.1-.1-.1-.2H2c-.4 0-.7-.3-.7-.7 0-.4.3-.7.7-.7h14.1c-.3-.9-.4-1.9-.4-2.9H2c-.4 0-.7-.3-.7-.7 0-.4.3-.7.7-.7h13.9c.2-1 .6-2 1.2-2.9H2c-.4 0-.7-.3-.7-.7s.3-.7.7-.7h16.3c.4-.4 1-.8 1.5-1.1 3.2-1.8 7.1-1.3 9.6 1.1h9.8zm-5.6 22.1c0-.2 0-.3-.1-.5l-5-8.8c-.2.1-.3.2-.5.3-.2.1-.4.2-.5.3l5 8.8c.2.3.5.4.8.2.2 0 .3-.2.3-.3zm-3.1-14.3c.5-1.8.2-3.6-.7-5.2-.9-1.6-2.4-2.7-4.1-3.2-.6-.2-1.2-.2-1.8-.2-1.2 0-2.3.3-3.4.9-3.3 1.9-4.4 6-2.5 9.3.9 1.6 2.4 2.7 4.1 3.2 1.8.5 3.6.2 5.2-.7 1.6-.9 2.7-2.3 3.2-4.1z"/><path class="st13" d="M33.5 36.2c.1.1.1.3.1.5s-.1.3-.3.4c-.3.2-.7.1-.8-.2l-5-8.8c.2-.1.4-.2.5-.3.2-.1.4-.2.5-.3l5 8.7z"/><path class="st14" d="M29.8 17.2c.9 1.6 1.1 3.4.7 5.2-.5 1.8-1.6 3.2-3.2 4.1-1.6.9-3.4 1.1-5.2.7-1.8-.5-3.2-1.6-4.1-3.2-1.9-3.3-.7-7.4 2.5-9.3 1-.6 2.2-.9 3.4-.9.6 0 1.2.1 1.8.2 1.8.5 3.2 1.7 4.1 3.2zm-2.9 8.7c2.9-1.7 3.9-5.4 2.3-8.3-.8-1.4-2.1-2.4-3.7-2.8-1.6-.4-3.2-.2-4.6.6-1.4.8-2.4 2.1-2.8 3.7-.4 1.6-.2 3.2.6 4.6 1.1 2 3.2 3.1 5.3 3.1.9-.1 2-.4 2.9-.9z"/><path class="st7" d="M29.2 17.6c1.7 2.9.7 6.6-2.3 8.3-1 .5-2 .8-3 .8-2.1 0-4.2-1.1-5.3-3.1-.8-1.4-1-3.1-.6-4.6.4-1.6 1.4-2.9 2.8-3.7 1.4-.8 3.1-1 4.6-.6 1.7.5 3 1.5 3.8 2.9zm-10 2.8h9.4c0-.7-.2-1.5-.6-2.1-.6-1.1-1.6-1.9-2.9-2.2-.4-.1-.8-.2-1.2-.2-.8 0-1.6.2-2.3.6-1.1.6-1.9 1.6-2.2 2.9-.1.3-.2.7-.2 1zm9.3 1.4h-9.2c.1.4.3.8.5 1.2.6 1.1 1.6 1.9 2.9 2.2 1.2.3 2.5.2 3.6-.5s1.9-1.7 2.2-2.9z"/><text transform="translate(20.078 20.27)"><tspan x="0" y="0" class="st15 st16">10</tspan><tspan x="0" y="4.2" class="st15 st16">010</tspan></text></svg>