<?xml version="1.0" encoding="utf-8"?>
<!-- Generator: Adobe Illustrator 19.1.0, SVG Export Plug-In . SVG Version: 6.00 Build 0)  -->
<svg version="1.1" id="Layer_1" xmlns="http://www.w3.org/2000/svg" xmlns:xlink="http://www.w3.org/1999/xlink" x="0px" y="0px"
	 viewBox="0 0 40.8 39.5" style="enable-background:new 0 0 40.8 39.5;" xml:space="preserve">
<style type="text/css">
	.st0{opacity:0.3;fill:#F2F2F2;}
	.st1{fill:#FFFFFF;}
	.st2{fill-rule:evenodd;clip-rule:evenodd;fill:#211F1F;}
	.st3{fill-rule:evenodd;clip-rule:evenodd;fill:#E85345;}
	.st4{fill:none;stroke:#000000;stroke-width:0.5;stroke-miterlimit:10;}
	.st5{fill:#E85345;}
	.st6{opacity:0.3;fill:#FFFFFF;}
	.st7{fill:none;stroke:#FFFFFF;stroke-miterlimit:10;}
	.st8{opacity:0.3;fill:#CCCCCC;}
	.st9{fill:none;stroke:#000000;stroke-miterlimit:10;}
	.st10{opacity:0.3;fill:none;stroke:#666666;stroke-miterlimit:10;}
	.st11{opacity:0.3;fill:#666666;}
	.st12{opacity:0.3;fill:none;stroke:#333333;stroke-miterlimit:10;}
	.st13{fill:#61C6C4;}
	.st14{fill:#FBB47A;}
	.st15{font-family:'OpenSans';}
	.st16{font-size:5px;}
</style>
<g>
	<path d="M39.2,1.9c0.4,0,0.7,0.3,0.7,0.7s-0.3,0.7-0.7,0.7H2c-0.4,0-0.7-0.3-0.7-0.7S1.6,1.9,2,1.9H39.2z"/>
	<path d="M39.2,6.1c0.4,0,0.7,0.3,0.7,0.7s-0.3,0.7-0.7,0.7H2c-0.4,0-0.7-0.3-0.7-0.7S1.6,6.1,2,6.1H39.2z"/>
	<path d="M39.2,10.4c0.4,0,0.7,0.3,0.7,0.7c0,0.4-0.3,0.7-0.7,0.7H2c-0.4,0-0.7-0.3-0.7-0.7c0-0.4,0.3-0.7,0.7-0.7H39.2z"/>
	<path d="M39.2,14.6c0.4,0,0.7,0.3,0.7,0.7S39.6,16,39.2,16h-8.6c0.1,0.2,0.2,0.4,0.4,0.6c0.4,0.7,0.7,1.5,0.9,2.3h7.3
		c0.4,0,0.7,0.3,0.7,0.7c0,0.4-0.3,0.7-0.7,0.7h-7.2c0,0.8-0.1,1.7-0.3,2.5c0,0.1-0.1,0.2-0.1,0.4h7.5c0.4,0,0.7,0.3,0.7,0.7
		c0,0.4-0.3,0.7-0.7,0.7h-8.1c-0.4,0.8-0.9,1.4-1.5,2l5.2,9c0.5,0.9,0.2,2.2-0.7,2.7c-0.3,0.2-0.6,0.3-1,0.3c-0.7,0-1.4-0.4-1.7-1
		l-5.2-9c-0.7,0.2-1.5,0.3-2.2,0.3c-0.7,0-1.4-0.1-2.2-0.3c-2.1-0.6-3.9-1.9-4.9-3.8c0-0.1-0.1-0.1-0.1-0.2H2
		c-0.4,0-0.7-0.3-0.7-0.7c0-0.4,0.3-0.7,0.7-0.7h14.1c-0.3-0.9-0.4-1.9-0.4-2.9H2c-0.4,0-0.7-0.3-0.7-0.7c0-0.4,0.3-0.7,0.7-0.7
		h13.9c0.2-1,0.6-2,1.2-2.9H2c-0.4,0-0.7-0.3-0.7-0.7s0.3-0.7,0.7-0.7h16.3c0.4-0.4,1-0.8,1.5-1.1c3.2-1.8,7.1-1.3,9.6,1.1H39.2z
		 M33.6,36.7c0-0.2,0-0.3-0.1-0.5l-5-8.8c-0.2,0.1-0.3,0.2-0.5,0.3c-0.2,0.1-0.4,0.2-0.5,0.3l5,8.8c0.2,0.3,0.5,0.4,0.8,0.2
		C33.5,37,33.6,36.8,33.6,36.7z M30.5,22.4c0.5-1.8,0.2-3.6-0.7-5.2c-0.9-1.6-2.4-2.7-4.1-3.2c-0.6-0.2-1.2-0.2-1.8-0.2
		c-1.2,0-2.3,0.3-3.4,0.9c-3.3,1.9-4.4,6-2.5,9.3c0.9,1.6,2.4,2.7,4.1,3.2c1.8,0.5,3.6,0.2,5.2-0.7C28.9,25.6,30,24.2,30.5,22.4z"/>
	<path class="st13" d="M33.5,36.2c0.1,0.1,0.1,0.3,0.1,0.5c0,0.2-0.1,0.3-0.3,0.4c-0.3,0.2-0.7,0.1-0.8-0.2l-5-8.8
		c0.2-0.1,0.4-0.2,0.5-0.3c0.2-0.1,0.4-0.2,0.5-0.3L33.5,36.2z"/>
	<path class="st14" d="M29.8,17.2c0.9,1.6,1.1,3.4,0.7,5.2c-0.5,1.8-1.6,3.2-3.2,4.1c-1.6,0.9-3.4,1.1-5.2,0.7
		c-1.8-0.5-3.2-1.6-4.1-3.2c-1.9-3.3-0.7-7.4,2.5-9.3c1-0.6,2.2-0.9,3.4-0.9c0.6,0,1.2,0.1,1.8,0.2C27.5,14.5,28.9,15.7,29.8,17.2z
		 M26.9,25.9c2.9-1.7,3.9-5.4,2.3-8.3c-0.8-1.4-2.1-2.4-3.7-2.8c-1.6-0.4-3.2-0.2-4.6,0.6c-1.4,0.8-2.4,2.1-2.8,3.7
		c-0.4,1.6-0.2,3.2,0.6,4.6c1.1,2,3.2,3.1,5.3,3.1C24.9,26.7,26,26.4,26.9,25.9z"/>
	<path class="st7" d="M29.2,17.6c1.7,2.9,0.7,6.6-2.3,8.3c-1,0.5-2,0.8-3,0.8c-2.1,0-4.2-1.1-5.3-3.1c-0.8-1.4-1-3.1-0.6-4.6
		c0.4-1.6,1.4-2.9,2.8-3.7c1.4-0.8,3.1-1,4.6-0.6C27.1,15.2,28.4,16.2,29.2,17.6z M19.2,20.4h9.4c0-0.7-0.2-1.5-0.6-2.1
		c-0.6-1.1-1.6-1.9-2.9-2.2c-0.4-0.1-0.8-0.2-1.2-0.2c-0.8,0-1.6,0.2-2.3,0.6c-1.1,0.6-1.9,1.6-2.2,2.9
		C19.3,19.7,19.2,20.1,19.2,20.4z M28.5,21.8h-9.2c0.1,0.4,0.3,0.8,0.5,1.2c0.6,1.1,1.6,1.9,2.9,2.2c1.2,0.3,2.5,0.2,3.6-0.5
		C27.4,24,28.2,23,28.5,21.8z"/>
</g>
<text transform="matrix(1 0 0 1 20.0778 20.27)"><tspan x="0" y="0" class="st15 st16">10</tspan><tspan x="0" y="4.2" class="st15 st16">010</tspan></text>
</svg>
