<?xml version="1.0" encoding="utf-8"?>
<!-- Generator: Adobe Illustrator 19.1.0, SVG Export Plug-In . SVG Version: 6.00 Build 0)  -->
<svg version="1.1" id="Layer_1" xmlns="http://www.w3.org/2000/svg" xmlns:xlink="http://www.w3.org/1999/xlink" x="0px" y="0px"
	 viewBox="0 0 82.9 130" style="enable-background:new 0 0 82.9 130;" xml:space="preserve">
<style type="text/css">
	.st0{fill:none;stroke:#999999;stroke-miterlimit:10;}
	.st1{fill:#FFFFFF;}
	.st2{fill-rule:evenodd;clip-rule:evenodd;fill:#211F1F;}
	.st3{fill-rule:evenodd;clip-rule:evenodd;fill:#EE5345;}
	.st4{fill:#231F20;}
	.st5{fill:none;stroke:#000000;stroke-width:0.5;stroke-miterlimit:10;}
	.st6{opacity:0.6;fill:#F1F1F2;stroke:#FFFFFF;}
	.st7{fill:none;stroke:#000000;stroke-width:0.6;stroke-miterlimit:10;}
	.st8{fill:#EE5345;}
	.st9{fill:none;stroke:#000000;stroke-miterlimit:10;}
	.st10{fill:#FFFFFF;stroke:#000000;stroke-miterlimit:10;}
	.st11{fill:none;stroke:#808184;stroke-miterlimit:10;}
	.st12{fill:#B3B3B3;}
	.st13{fill:#464B4C;}
	.st14{fill:#FFDCB8;}
	.st15{fill:#CB8F5E;}
	.st16{fill:#281D12;}
	.st17{fill:#382B19;}
	.st18{fill:#232728;}
	.st19{fill:#E5E5E5;}
	.st20{fill:#141414;}
	.st21{fill:#676B6B;}
	.st22{fill:#725C2B;}
	.st23{fill:#493918;}
	.st24{fill:#190F08;}
	.st25{fill:#753427;}
	.st26{fill:#867878;}
	.st27{fill:#484359;}
	.st28{fill:#FAFAFA;}
	.st29{fill:#49BEDF;}
	.st30{fill:#999999;}
	.st31{fill:none;stroke:#C7B299;stroke-miterlimit:10;}
	.st32{stroke:#FFFFFF;stroke-miterlimit:10;}
	.st33{opacity:0.8;}
	.st34{fill:none;stroke:#CCCCCC;stroke-miterlimit:10;}
</style>
<g>
	<ellipse class="st12" cx="46.9" cy="116.6" rx="23.2" ry="4.3"/>
	<g>
		<g>
			<path class="st13" d="M40,42.6c0,0,6.4-2.4,8.5-8.4c2.1-6-2.2-11.2-9.2-12.5c0,0,0.6-1.8,0-3.6c0,0,16.7,2.3,12.6,16.1
				C48.7,45,41.3,45.5,41.3,45.5L40,42.6z"/>
			<g>
				<path class="st14" d="M35.3,22.8c0,0,4.1-0.1,4.8-1s0.5-4.2,1.3-5.4s0-2-1.3-1.1s-0.9,2.7-1.4,2.8c0,0-1.1-1.9-0.4-3.1
					s-1-1.3-1.6,0c-0.6,1.3-0.1,3.1-0.1,3.1s-1.3-1.7-1.3-2.4c0-0.7-0.8-1-1,0.4c-0.1,1.4,1,3.2,1,3.2s0,1.8-0.3,1.9
					c-0.9,0.3-2.5-0.7-2.2,1.1C32.9,22.9,34,22.4,35.3,22.8z"/>
				<path class="st15" d="M36.9,21.5c0,0,0.5-1.7,1.9-1.4C38.8,20.1,36.5,19,36.9,21.5z"/>
			</g>
		</g>
		<g>
			<path class="st16" d="M50.1,112.9c0,0,1.7,1.9,3.3,1.7c1.5-0.2,2.9,0,2.9,0v1.7c0,0-6.4,0.6-7.4,0.2l-1-0.4c0,0-1.1,0.6-1.8,0.2
				c-0.7-0.4,0.3-4.3,0.3-4.3S48.8,111.9,50.1,112.9z"/>
			<path class="st17" d="M46.1,113.3c0,0,0.7,2,1.7,2.6s4.3,0.5,4.3,0.5v2.1c0,0-6.5,0.9-8.8-0.8c0,0-1.1,0.6-2.3,0
				c-0.4-1.1,0.6-4.8,0.6-4.8S44.2,112.3,46.1,113.3z"/>
			<path class="st13" d="M55.6,70.2c0,0-3.3,33.3-5.5,42.7c0,0-1.2,0.8-4,0c0,0-0.7-31.3,0.1-35.1C47,74,52.2,66.8,55.6,70.2z"/>
			<g>
				<path class="st13" d="M38.8,71.2c0,0,2.8,31.2,2.4,42.1c0,0,3.8,1,5.2-0.4c0,0,1-31.1,1.8-34.6c0.7-3.5,4.1-6.7,4.7-8.2
					C53.5,68.7,41.2,67.5,38.8,71.2z"/>
				<path class="st18" d="M50.5,73.7c0,0-2.1,2.1-2.6,7.9c-0.6,6.4-1.2,23.8-1.4,27.1c0,0,1.4-18.5,2-26.7
					C48.8,78.1,49.3,75.4,50.5,73.7z"/>
			</g>
		</g>
		<g>
			<path class="st13" d="M29.1,46.6c0,0,10-3.7,11.5-4.2c0,0,12.9,16.7,15.7,28.6c0,0-3.5-0.7-4.6-0.4l-1.3-1.3l0,1.7
				c0,0-10.6,2.2-12.2,2.8C38,73.7,36.4,57.4,29.1,46.6z"/>
			<path class="st14" d="M36.2,38.9c0,0,0.8,5.2,1.1,6.2c0.3,1-0.8,2.1-2,1.1c-1.2-1-2.3-5.3-2.6-6.2C32.4,39.2,36.2,38.9,36.2,38.9
				z"/>
			<g>
				<path class="st19" d="M45.4,59.1c0,0-3.7-11.1-7.1-15.9c0,0-0.6,0.2-1.5,0.5l0,0.2l0.4,1.7L36,44.3l-0.3-0.1
					c-0.8,0.3-1.6,0.6-2.2,0.8C33.5,45,43.8,54.8,45.4,59.1z"/>
			</g>
			<path class="st20" d="M36.8,46l0.9-0.5c0,0,1,0.9,1.1,1.1c0,0-1.2,0.8-1.4,0.7L36.8,46z"/>
			<polygon class="st20" points="39.7,51.4 37.6,47.1 38.8,46.7 42.2,50.4 45.4,59.1 			"/>
			<path class="st18" d="M45.8,59.7c0,0,3.1,2.5,4.1,9.3C49.9,68.9,48.8,63.5,45.8,59.7z"/>
			<path class="st21" d="M33.5,45c0,0-0.4,3.2-0.4,5c0,0,4.2,0.3,5.3,0.9c0,0-0.7,1.7-1.3,3c0,0,7.4,5,8.3,5.2
				C45.4,59.1,42.6,53.8,33.5,45z"/>
			<path class="st21" d="M38.3,43.2c0,0,5.9,12.4,7.1,15.9c0,0-0.4-7.7-0.6-8.6c0,0-1.8-0.5-2.6-0.8c0,0,0.5-4,0.2-4.4
				C42.4,45.3,39.1,43.7,38.3,43.2z"/>
			<path class="st1" d="M32.7,43.1c0,0,2.7,1.2,3.2,1.2v2.6c0,0-3-1.2-3.5-1.5C32.4,45.4,32.6,43.5,32.7,43.1z"/>
			<polygon class="st1" points="36.8,44 38.8,45.2 38.3,43.2 36.8,42.1 			"/>
			<path class="st18" d="M41,73c0,0,6.7-2.1,8.9-2.3v-1.8c0,0,1.1,0.9,1.7,1.7c0,0,2.7-0.3,4.2,0.3c0,0-3.3-0.4-4.6,0l-0.9-1.2
				l0,1.2C50.2,71,44,72.2,41,73z"/>
			
				<ellipse transform="matrix(0.9021 -0.4315 0.4315 0.9021 -22.6037 26.2138)" class="st18" cx="46.5" cy="62.9" rx="0.6" ry="0.8"/>
			
				<ellipse transform="matrix(0.9528 -0.3037 0.3037 0.9528 -17.9637 17.6802)" class="st18" cx="47.9" cy="66.6" rx="0.6" ry="0.8"/>
		</g>
		<g>
			<path class="st14" d="M35.6,66.6c-0.2-0.8-0.2-2,0.4-3.2c0,0,0.2,0.8,0.5,2.1c0.1,0.4,0.1-1.6,1.2-2.7c0.8-0.7,1.3,0,0.6,1.2
				c-0.7,1.1-0.2,1.6-0.2,1.6s1.2-2.2,2.3-1.7c1,0.6-0.4,0.9-1.6,2.8c0,0,2.6-1.9,2.8-0.6c0,0.3-0.1,0.8-1.2,1.2
				c-0.9,0.3-1.7,2.1-2.6,2.5C36.8,70.1,35.9,67.7,35.6,66.6z"/>
			<path class="st13" d="M29.1,46.6c0,0-12.2,6.3-9.8,15.2s16.4,8.8,18,8.1c0,0-0.4-1.8-1.8-3.8c0,0-9.5,3.2-12.6-5.2
				c-2.2-6,8.1-11.2,8.1-11.2S32,46.1,29.1,46.6z"/>
		</g>
		<g>
			<path class="st14" d="M31.2,18.1c0,0,11.8,14.9,11.8,17.6c0,2.8-11.2,5.7-12.7,5.5c-1.5-0.2-5.8-6.3-7.3-7.8
				c-1.5-1.6-4.9-4.9-5.4-6.9C17.2,24.6,24.9,13.5,31.2,18.1z"/>
			<path class="st22" d="M24.8,36.3c0,0,0.1-6.8-5.8-8.8c0,0,6.3-1.6,5.8-2.8c-0.4-1.2-2-0.7-2-0.7s5.3-1.2,4.9-2.9
				c-0.3-1.7-2.4-1.1-2.4-1.1s8.8-1.4,8.2-3c-0.6-1.6-2.7-3-4.2-1.5c0,0,1.9-5.7-1.7-6.3s-1.9,2.5-1.9,3.5c0,0-8.3-3.1-8.8,0
				c-0.4,3.1,1.9,3,3.4,2.8c0,0-9.7,4.1-7.3,10.1c0,0-6,1.3-4.6,3.3s3.2,0.8,3.2,0.8s-1.1,2.5,0.7,2.7c1.8,0.2,1.3-1.1,1.3-1.1
				S18.6,41,24.8,36.3z"/>
			<path class="st15" d="M31.3,25c0,0,0.7,2.5,1.2,2.6c0.6,0.1,1.8-1.2,2.8,0c1,1.2-1.2,2.2-2,2.8c0,0,1.8-2.1,1.2-2.7
				c-0.5-0.6-2,1.2-2.6,0.7C31.3,27.9,31.3,25,31.3,25z"/>
			<path class="st23" d="M25.8,25c0,0-1.3,2.8-0.7,3.9C25.1,28.9,23.1,27,25.8,25z"/>
			<path class="st23" d="M30.3,21.6c0,0,1.7-0.9,2.5,0C32.8,21.6,31.1,18.9,30.3,21.6z"/>
			
				<ellipse transform="matrix(0.8079 -0.5893 0.5893 0.8079 -11.2294 22.3103)" class="st24" cx="28.6" cy="28.4" rx="0.8" ry="1.4"/>
			
				<ellipse transform="matrix(0.8079 -0.5893 0.5893 0.8079 -8.5774 24.8184)" class="st24" cx="33.8" cy="25.6" rx="0.8" ry="1.4"/>
			<path class="st14" d="M24.8,34.5c0,0-3.6-0.8-4.3,1.2c-0.7,2,2.1,5.5,4.3,4C27,38.3,26.6,35.6,24.8,34.5z"/>
			<g>
				<path class="st25" d="M36,35.4c-1.6,0.1-2.3,0-4.6,0.1c2.6,2.1,3.3,1.8,6.3,1.7c1,0,1.6-3,1.6-3S38.7,35.2,36,35.4z"/>
			</g>
		</g>
	</g>
</g>
</svg>
