<?xml version="1.0" encoding="utf-8"?>
<!-- Generator: Adobe Illustrator 19.1.0, SVG Export Plug-In . SVG Version: 6.00 Build 0)  -->
<svg version="1.1" id="Layer_1" xmlns="http://www.w3.org/2000/svg" xmlns:xlink="http://www.w3.org/1999/xlink" x="0px" y="0px"
	 viewBox="-93 334.5 268 172.9" style="enable-background:new -93 334.5 268 172.9;" xml:space="preserve">
<style type="text/css">
	.st0{fill:#FFCFA8;}
	.st1{fill:#BAE5E3;}
	.st2{fill:#00A090;}
	.st3{fill:#35383F;}
	.st4{fill:#FFFFFF;}
	.st5{fill:#383838;}
	.st6{fill:#FF5D00;}
	.st7{fill:#FA0326;}
	.st8{fill:#BC062C;}
	.st9{fill:#A33500;}
	.st10{fill:#4382DD;}
</style>
<g>
	<path class="st0" d="M99.8,394.6h-3.5v-2.7h3.5v-16.1h27.9v9.8h2.4v6.4h-2.4v13.6c-9.4-0.5-18.6,1-27.9,0V394.6z"/>
	<path class="st1" d="M127.8,405.5v43.8H99.9v-43.8C109.1,406.5,118.3,405,127.8,405.5z"/>
	<g>
		<path class="st1" d="M111.2,421.3l-4.2,4.9l-30-25.5c1.4-1.7,2.7-3.4,3.7-5.2L111.2,421.3z"/>
		<path class="st0" d="M73.3,389.1l7.5,6.4c-1,1.8-2.3,3.6-3.7,5.2l-7.9-6.7L73.3,389.1z"/>
	</g>
	<g>
		<path class="st0" d="M149.2,449.7l-5.7,2.8l-3.9-7.9c0,0,3.9-1.8,6.1-2.2L149.2,449.7z"/>
		<path class="st1" d="M127.2,405.4l18.4,37c-2.2,0.3-6.1,2.2-6.1,2.2l-18.1-36.4L127.2,405.4z"/>
	</g>
	<rect x="109.9" y="384" class="st2" width="1.9" height="4.6"/>
	<rect x="102.1" y="385.5" class="st2" width="1.9" height="3.1"/>
	<path class="st3" d="M114.7,378.5c0,0-12.7,3.6-19.7-2.7c-7-6.3,1-13.1,5.8-11.7c0,0-3.4,0.7-1.9,3.4s13.1,1.1,17.2,0.3
		c4.1-0.8,13.3,0,14,5.7s-2.4,12-2.4,12S123.9,375.9,114.7,378.5z"/>
	<path class="st4" d="M102.1,397.9c0,0,9.1-0.3,15.6-8.8C117.7,389.1,113.9,409.4,102.1,397.9z"/>
	<g>
		<polygon class="st5" points="99,492.9 87.2,498.9 107.2,498.9 103.7,493.3 		"/>
		<polygon class="st5" points="130.2,492.9 142.1,498.9 122,498.9 125.5,493.3 		"/>
		<polygon class="st5" points="99.8,449.3 98.8,494 104,494 113.8,460.9 125.3,494 130,494 127.8,449.3 		"/>
	</g>
	<polygon class="st4" points="108.5,405.8 103,414 99.8,405.5 127.8,405.4 115.5,414 	"/>
	<polygon class="st5" points="107.2,407.8 104,438.1 107.2,444.6 111.8,436.4 110.2,407.8 108.5,405.8 	"/>
</g>
<g>
	<path class="st0" d="M4,367.4h2v-1.6H4l0.1-9.2l-16-0.2L-12,362h-1.3l-0.1,3.7h1.3l-0.1,8.7c5.4-0.2,10.6-0.3,16-0.9L4,367.4z"/>
	<path class="st6" d="M-12.1,374.5l-0.2,24l15.9,0.1l0.3-25C-1.4,374.1-6.7,374.3-12.1,374.5z"/>
	
		<rect x="-8" y="394.1" transform="matrix(1.039627e-002 -0.9999 0.9999 1.039627e-002 -406.3834 393.5459)" class="st7" width="7.3" height="15.9"/>
	<g>
		<path class="st6" d="M-2.7,382.6l2.4,2.8L16.9,371c-0.8-1-1.4-2-2.1-3L-2.7,382.6z"/>
		<path class="st0" d="M19.1,364.4l-4.3,3.6c0.6,1.1,1.3,2,2.1,3l4.6-3.8L19.1,364.4z"/>
	</g>
	<g>
		<path class="st0" d="M-25.7,362.8l-2.6,2.5l3.5,3.7c0,0,1.8-1.7,2.4-2.8L-25.7,362.8z"/>
		<path class="st6" d="M-6.4,383.4l-16.1-17.1c-0.6,1.2-2.4,2.8-2.4,2.8L-9.1,386L-6.4,383.4z"/>
	</g>
	<g>
		<polygon class="st7" points="-12.3,398 -22.7,420.4 -19,420.6 -4.4,405.8 		"/>
		<polygon class="st7" points="3.7,398.2 11.4,416.8 9.3,420 -4.4,405.8 		"/>
		<polygon class="st5" points="-22.7,420.4 -28.4,423.8 -17,423.9 -19,420.6 		"/>
		<polygon class="st5" points="11.4,416.8 17.6,414.4 10.7,423.8 9.3,420 		"/>
	</g>
	<g>
		<path class="st8" d="M-12.6,374.1c0,0,14.5-0.8,16.9-0.9l-0.1,3.9c0,0-10.4,1.9-16.6,0.6L-12.6,374.1z"/>
		<path class="st8" d="M9.9,387.9c-0.1-0.2-0.3-0.1-0.4-0.2c-0.2-0.1-0.4-0.2-0.6-0.3c-0.3-0.1-0.5-0.1-0.7-0.2
			c-0.4-0.2-6.6-3.8-4.2-11.1H1.3c0,0-4,11.4,4.1,15.1v-0.1c0.2,0.1,0.4,0.2,0.4,0.2c0.3,0.1,0.4,0.3,0.7,0.5
			c0.4,0.3,1.3-0.2,0.9-0.6c-0.3-0.3-0.8-0.5-1.1-0.7c-0.1,0-0.2-0.1-0.3,0l0.5-0.8c0.1,0,0.2,0.1,0.3,0.1c0.2,0.2,0.5,0.4,0.7,0.6
			c0.3,0.3,1.3-0.3,0.8-0.6c-0.4-0.3-0.9-0.7-1.3-0.8l0.8-1.1c0.2,0.1,0.4,0.2,0.5,0.3c0.4,0.2,0.7,0.4,1.2,0.4
			C9.7,388.4,10.2,388.1,9.9,387.9z"/>
	</g>
	<path class="st8" d="M3.9,367.9l-11.7-1.5c0,0-1.1,4.3,3.4,6C0.1,374.2,3.4,370.7,3.9,367.9z"/>
	
		<rect x="-2.9" y="361.2" transform="matrix(0.9999 1.039627e-002 -1.039627e-002 0.9999 3.7688 4.365165e-002)" class="st9" width="1.1" height="2.6"/>
	
		<rect x="1.6" y="362.2" transform="matrix(0.9999 1.039627e-002 -1.039627e-002 0.9999 3.7752 -2.631152e-003)" class="st9" width="1.1" height="1.8"/>
	<path class="st9" d="M-4.4,358.2c0,0,7.3,2.1,11.2-1.5s-0.5-7.5-3.3-6.7c0,0,1.9,0.4,1,1.9s-7.5,0.5-9.8,0s-7.6-0.1-8,3.2
		c-0.4,3.3,1.3,6.9,1.3,6.9S-9.7,356.6-4.4,358.2z"/>
</g>
<polygon class="st10" points="44.3,354 47,357 28.9,372.4 13.4,423.8 -34.2,423.8 -86.7,498.9 -78.7,498.9 -30.7,430.5 18.4,430.5 
	34.7,376.2 51.4,361.8 54.5,365.2 57.2,352.8 "/>
</svg>
