<svg id="Layer_1" xmlns="http://www.w3.org/2000/svg" viewBox="-93 334.5 268 172.9"><style>.st0{fill:#ffcfa8}.st1{fill:#bae5e3}.st2{fill:#00a090}.st3{fill:#35383f}.st4{fill:#fff}.st5{fill:#383838}.st6{fill:#ff5d00}.st7{fill:#fa0326}.st8{fill:#bc062c}.st9{fill:#a33500}.st10{fill:#4382dd}</style><path class="st0" d="M99.8 394.6h-3.5v-2.7h3.5v-16.1h27.9v9.8h2.4v6.4h-2.4v13.6c-9.4-.5-18.6 1-27.9 0v-11z"/><path class="st1" d="M127.8 405.5v43.8H99.9v-43.8c9.2 1 18.4-.5 27.9 0z"/><path class="st1" d="M111.2 421.3l-4.2 4.9-30-25.5c1.4-1.7 2.7-3.4 3.7-5.2l30.5 25.8z"/><path class="st0" d="M73.3 389.1l7.5 6.4c-1 1.8-2.3 3.6-3.7 5.2l-7.9-6.7 4.1-4.9zM149.2 449.7l-5.7 2.8-3.9-7.9s3.9-1.8 6.1-2.2l3.5 7.3z"/><path class="st1" d="M127.2 405.4l18.4 37c-2.2.3-6.1 2.2-6.1 2.2l-18.1-36.4 5.8-2.8z"/><path class="st2" d="M109.9 384h1.9v4.6h-1.9zM102.1 385.5h1.9v3.1h-1.9z"/><path class="st3" d="M114.7 378.5s-12.7 3.6-19.7-2.7c-7-6.3 1-13.1 5.8-11.7 0 0-3.4.7-1.9 3.4s13.1 1.1 17.2.3 13.3 0 14 5.7-2.4 12-2.4 12-3.8-9.6-13-7z"/><path class="st4" d="M102.1 397.9s9.1-.3 15.6-8.8c0 0-3.8 20.3-15.6 8.8z"/><path class="st5" d="M99 492.9l-11.8 6h20l-3.5-5.6zM130.2 492.9l11.9 6H122l3.5-5.6z"/><path class="st5" d="M99.8 449.3l-1 44.7h5.2l9.8-33.1 11.5 33.1h4.7l-2.2-44.7z"/><path class="st4" d="M108.5 405.8L103 414l-3.2-8.5 28-.1-12.3 8.6z"/><path class="st5" d="M107.2 407.8l-3.2 30.3 3.2 6.5 4.6-8.2-1.6-28.6-1.7-2z"/><g><path class="st0" d="M4 367.4h2v-1.6H4l.1-9.2-16-.2-.1 5.6h-1.3l-.1 3.7h1.3l-.1 8.7c5.4-.2 10.6-.3 16-.9l.2-6.1z"/><path class="st6" d="M-12.1 374.5l-.2 24 15.9.1.3-25c-5.3.5-10.6.7-16 .9z"/><path transform="matrix(.0104 -.9999 .9999 .0104 -406.383 393.546)" class="st7" d="M-8 394.1h7.3V410H-8z"/><path class="st6" d="M-2.7 382.6l2.4 2.8L16.9 371c-.8-1-1.4-2-2.1-3l-17.5 14.6z"/><path class="st0" d="M19.1 364.4l-4.3 3.6c.6 1.1 1.3 2 2.1 3l4.6-3.8-2.4-2.8zM-25.7 362.8l-2.6 2.5 3.5 3.7s1.8-1.7 2.4-2.8l-3.3-3.4z"/><path class="st6" d="M-6.4 383.4l-16.1-17.1c-.6 1.2-2.4 2.8-2.4 2.8L-9.1 386l2.7-2.6z"/><path class="st7" d="M-12.3 398l-10.4 22.4 3.7.2 14.6-14.8zM3.7 398.2l7.7 18.6-2.1 3.2-13.7-14.2z"/><path class="st5" d="M-22.7 420.4l-5.7 3.4 11.4.1-2-3.3zM11.4 416.8l6.2-2.4-6.9 9.4-1.4-3.8z"/><g><path class="st8" d="M-12.6 374.1s14.5-.8 16.9-.9l-.1 3.9s-10.4 1.9-16.6.6l-.2-3.6z"/><path class="st8" d="M9.9 387.9c-.1-.2-.3-.1-.4-.2l-.6-.3c-.3-.1-.5-.1-.7-.2-.4-.2-6.6-3.8-4.2-11.1H1.3s-4 11.4 4.1 15.1v-.1l.4.2c.3.1.4.3.7.5.4.3 1.3-.2.9-.6-.3-.3-.8-.5-1.1-.7-.1 0-.2-.1-.3 0l.5-.8c.1 0 .2.1.3.1.2.2.5.4.7.6.3.3 1.3-.3.8-.6-.4-.3-.9-.7-1.3-.8l.8-1.1c.2.1.4.2.5.3.4.2.7.4 1.2.4.2-.2.7-.5.4-.7z"/></g><path class="st8" d="M3.9 367.9l-11.7-1.5s-1.1 4.3 3.4 6c4.5 1.8 7.8-1.7 8.3-4.5z"/><path transform="matrix(.9999 .0104 -.0104 .9999 3.769 .044)" class="st9" d="M-2.9 361.2h1.1v2.6h-1.1z"/><path transform="matrix(.9999 .0104 -.0104 .9999 3.775 -.003)" class="st9" d="M1.6 362.2h1.1v1.8H1.6z"/><path class="st9" d="M-4.4 358.2s7.3 2.1 11.2-1.5-.5-7.5-3.3-6.7c0 0 1.9.4 1 1.9s-7.5.5-9.8 0-7.6-.1-8 3.2c-.4 3.3 1.3 6.9 1.3 6.9s2.3-5.4 7.6-3.8z"/></g><path class="st10" d="M44.3 354l2.7 3-18.1 15.4-15.5 51.4h-47.6l-52.5 75.1h8l48-68.4h49.1l16.3-54.3 16.7-14.4 3.1 3.4 2.7-12.4z"/></svg>