<?xml version="1.0" encoding="utf-8"?>
<!-- Generator: Adobe Illustrator 19.1.0, SVG Export Plug-In . SVG Version: 6.00 Build 0)  -->
<svg version="1.1" id="Layer_1" xmlns="http://www.w3.org/2000/svg" xmlns:xlink="http://www.w3.org/1999/xlink" x="0px" y="0px"
	 viewBox="-693 297.8 531.7 506.2" style="enable-background:new -693 297.8 531.7 506.2;" xml:space="preserve">
<style type="text/css">
	.st0{fill:none;stroke:#A1C1C6;stroke-miterlimit:10;}
	.st1{fill:none;stroke:#A1C1C6;stroke-miterlimit:10;stroke-dasharray:3.0041,3.0041;}
	.st2{fill:#A1C1C6;}
	.st3{fill:none;stroke:#A1C1C6;stroke-miterlimit:10;stroke-dasharray:3.0057,3.0057;}
	.st4{fill:none;stroke:#A1C1C6;stroke-miterlimit:10;stroke-dasharray:3,3;}
	.st5{fill:#39A6E2;}
	.st6{fill:#C7EAF2;}
	.st7{fill:#E23737;}
	.st8{fill:#FFBF5D;}
	.st9{fill:#C6DCE0;}
	.st10{fill:#00ADDC;}
	.st11{fill:#F29232;stroke:#F1F1F1;stroke-miterlimit:10;}
	.st12{fill:#F2AD58;}
	.st13{fill:#465A72;}
	.st14{fill:#FFFFFF;}
	.st15{fill:#ECF0F1;}
	.st16{fill:#2C3E50;}
	.st17{fill:#E1E6E9;}
	.st18{clip-path:url(#SVGID_2_);fill:#EBF0F3;}
	.st19{clip-path:url(#SVGID_4_);fill:#F15F50;}
	.st20{fill:#FFB700;}
	.st21{fill:#27A3D9;}
	.st22{fill:#EF4B39;}
	.st23{fill:#34D18D;}
	.st24{fill:#34D1BC;}
	.st25{clip-path:url(#SVGID_6_);}
	.st26{fill:url(#SVGID_7_);}
	.st27{fill:#FFF5E3;}
	.st28{fill:#348AD1;}
	.st29{fill:#C2E55D;}
	.st30{fill:#2C4257;}
	.st31{fill:#00C4D7;}
	.st32{fill:#FFAC32;}
	.st33{fill:#EB5A49;}
	.st34{fill:#FFFDFA;}
	.st35{fill:#69CBCC;}
	.st36{opacity:0.1;enable-background:new    ;}
	.st37{fill:#F1F2F2;}
	.st38{fill:#3A5870;}
	.st39{fill:#E6E7E8;}
	.st40{font-family:'GillSansMTPro-Book';}
	.st41{font-size:11.0173px;}
	.st42{font-size:1.9722px;}
	.st43{opacity:0.85;fill:#C6C6C6;enable-background:new    ;}
	.st44{fill:#D1D3D4;}
	.st45{fill:#69BBB6;}
	.st46{fill:#A7A9AC;}
	.st47{fill:#5A6C75;}
	.st48{opacity:0.5;fill:#FFFFFF;enable-background:new    ;}
	.st49{fill:#64798A;}
	.st50{fill:#FF6E40;}
	.st51{fill:#DD2C00;}
	.st52{fill:none;stroke:#E94150;stroke-width:3;stroke-linecap:round;stroke-miterlimit:10;}
	.st53{fill:none;stroke:#FFFFFF;stroke-width:3;stroke-linecap:round;stroke-linejoin:round;stroke-miterlimit:10;}
	.st54{fill:#1F1523;}
	.st55{fill:#D9D7D9;}
	.st56{fill:#3F3543;}
	.st57{fill:#FFED99;}
</style>
<g id="Design_1_">
	<g>
		<g>
			<path class="st0" d="M-322.5,378.9c0.4,0.3,0.8,0.6,1.2,0.9"/>
			<path class="st1" d="M-318.9,381.6c82.5,62.8,103.6,179.6,46.1,267.8c-60.3,92.3-183.9,118.2-276.2,58
				c-90-58.8-116.9-178-62.2-269.4"/>
			<path class="st0" d="M-610.4,436.7c0.3-0.4,0.5-0.9,0.8-1.3"/>
			<g>
				<polygon class="st2" points="-324.8,385.8 -330.7,373.2 -316.8,374.4 				"/>
			</g>
			<g>
				<circle class="st2" cx="-609.7" cy="435.7" r="5.3"/>
			</g>
		</g>
	</g>
	<g>
		<g>
			<path class="st0" d="M-595.8,615.5c-0.2-0.5-0.4-0.9-0.6-1.4"/>
			<path class="st3" d="M-597.8,611.4c-36.7-81.2-5.5-178.4,73.8-222.5c81.2-45.2,183.1-18,231.5,60.3"/>
			<path class="st0" d="M-291.8,450.5c0.3,0.4,0.5,0.9,0.8,1.3"/>
			<g>
				<polygon class="st2" points="-590.5,610.5 -591.2,624.5 -602.9,616.8 				"/>
			</g>
			<g>
				<circle class="st2" cx="-291.2" cy="451.6" r="5.3"/>
			</g>
		</g>
	</g>
	<g>
		<g>
			<path class="st4" d="M-241.3,435.6c56.8,107.6,17.4,241.4-89.5,300.8C-436.2,795-568.4,759.7-630.9,658"/>
			<g>
				<circle class="st2" cx="-241.3" cy="435.9" r="5.3"/>
			</g>
			<g>
				<polygon class="st2" points="-623.9,656.2 -636,649.4 -635.9,663.3 				"/>
			</g>
		</g>
	</g>
	<path class="st5" d="M-578.8,498.5c0,23.8-19.3,43.1-43.1,43.1c-23.8,0-43.1-19.3-43.1-43.1s19.3-43.1,43.1-43.1
		C-598.1,455.5-578.8,474.7-578.8,498.5z"/>
	<path class="st6" d="M-399.1,723c-0.8-0.2-1.3-0.4-1.9-0.9c-1.6-1.1-3.4-2.5-4.7-4.3c-1.4-1.8-2.1-3.9-2.1-6.1c0-1.7,0.6-3.2,1.7-4
		c0.5-0.4,1.1-0.6,1.8-0.7c0.4,0,0.7-0.1,1,0c0.5,0,0.9,0.1,1.4,0.2c1.2,0.3,2.1,1.1,3.2,1.9l0.2,0.1l0.2-0.1
		c1.1-0.8,2.1-1.5,3.3-1.8c0.4-0.1,0.9-0.2,1.4-0.1c0.3,0,0.6,0,1,0.1c0.7,0.1,1.3,0.4,1.7,0.8c1,0.9,1.5,2.4,1.4,4.1
		c-0.2,2.3-1,4.3-2.5,6.1c-1.4,1.7-3.3,3-5,4.1C-397.8,722.6-398.3,722.9-399.1,723z"/>
	<g>
		<polygon class="st6" points="-506.1,344.2 -496.4,353.9 -496.4,366.7 -502.8,366.7 -502.8,357.1 -509.3,357.1 -509.3,366.7 
			-515.7,366.7 -515.7,353.9 		"/>
		<path class="st6" d="M-493.2,355.3c-0.4,0-0.7-0.1-1-0.4l-11.9-11.9l-11.9,11.9c-0.6,0.6-1.5,0.6-2,0c-0.6-0.6-0.6-1.5,0-2
			l12.9-12.9c0.6-0.6,1.5-0.6,2,0l12.9,12.8c0.6,0.6,0.6,1.5,0,2C-492.5,355.2-492.8,355.3-493.2,355.3z"/>
	</g>
	<path class="st6" d="M-199.5,578.6c-5.7,0-10.4,4.6-10.4,10.4c0,2.7,1,5.1,2.7,7l-6.2,6.2c-0.2,0.2-0.4,0.6-0.4,0.9
		s0.1,0.6,0.4,0.9c0.5,0.5,1.3,0.5,1.8,0l6.4-6.4c1.6,1.1,3.6,1.7,5.7,1.7c5.7,0,10.4-4.6,10.4-10.4
		C-189.1,583.2-193.8,578.6-199.5,578.6z M-199.5,580.4c4.7,0,8.5,3.8,8.5,8.5c0,4.7-3.8,8.5-8.5,8.5s-8.5-3.8-8.5-8.5
		C-208,584.2-204.2,580.4-199.5,580.4z"/>
	<g>
		<path class="st6" d="M-319.3,649.1c0.4,1.9,1.8,3.2,3.3,3.2c1.6,0,3-1.4,3.3-3.3c0.2-0.1,0.3-0.4,0.4-0.8c0-0.5-0.1-0.9-0.3-0.9
			c0,0,0,0-0.1,0c-0.3-1.5-1.5-2.7-3.1-2.8c0.3-0.2,0.6-0.2,0.6-0.2c-0.4,0-0.7,0.1-1,0.2c-0.2-0.1-0.5-0.1-0.8-0.1
			c0,0,0.2,0,0.5,0.2h-0.1c-0.3,0-0.7,0-1.2,0.2c0,0,0.3-0.1,0.6,0c-1.1,0.4-2,1.4-2.3,2.6c-0.1,0-0.1,0-0.2,0
			c-0.2,0-0.4,0.4-0.3,0.9C-319.8,648.7-319.5,649.1-319.3,649.1z"/>
		<path class="st6" d="M-305.7,656.7c-0.5-0.5-1.3-0.4-1.8,0.1l-1.6,1.8l-1-2.6l-0.5-1.4c-0.1-0.3-0.3-0.6-0.6-0.7l0,0
			c-0.5-0.3-1.1-0.5-1.8-0.5h-1c0.1,0.3,0.1,0.7,0.1,1.1c0,1.3-0.4,2.4-0.9,3.1l-0.4-2.6c0-0.1,0-0.1-0.1-0.1l0.1-0.1l0.4-1.3
			c0-0.1,0-0.1-0.1-0.1h-2.3c-0.1,0-0.1,0-0.1,0.1l0.5,1.3c0,0,0,0.1,0.1,0.1l-0.1,0.1l-0.5,2.6c-0.6-0.7-0.9-1.8-0.9-3.1
			c0-0.4,0-0.8,0.1-1.1h-0.9c-0.7,0-1.3,0.2-1.8,0.5l0,0c-0.3,0.2-0.5,0.4-0.6,0.7l-0.5,1.4l-3.2,8.6c-0.3,0.7,0.2,1.5,1,1.7
			s1.7-0.2,2-0.9l2-5.2v3.1l0,0c0,0,0,0,0,0.1V679c0,1.1,0.8,2,1.8,2s1.8-0.9,1.8-2v-12.5h0.9V679c0,1.1,0.8,2,1.8,2s1.8-0.9,1.8-2
			v-15.6c0,0,0,0,0-0.1l0,0v-3.4l0.7,1.8c0.2,0.4,0.2,0.5,0.4,0.7c0.4,0.6,1.3,0.4,1.8-0.1l0.9-1l2.5-2.8
			C-305.1,658-305.2,657.2-305.7,656.7z"/>
	</g>
	<path class="st6" d="M-641.5,627.8c0.5-0.6,0.7-1.3,0.7-2.1c0-2-1.7-3.5-3.7-3.6c-1.1,0-2.1,0.4-2.8,1.1c-1.2-2.7-4-4.7-7.4-4.7
		c-3.6,0-6.6,2.2-7.6,5.3c-0.4-0.1-0.7-0.1-1.1-0.1c-3.6,0-6.5,2.7-6.5,6.1c0,0.2,0,0.5,0,0.7c-1.7,0.6-3,2.1-3,3.9
		c0,1.4,0.8,2.6,1.9,3.4l32.7,0.1c1.2-1.1,2-2.6,2-4.3C-636.1,630.7-638.5,628.2-641.5,627.8z"/>
	<g>
		<path class="st6" d="M-243.3,413.3c1.9-1.5,2.9-3.2,2.9-5.3c0-2.1-1-3.8-2.9-5.3s-4.2-2.2-6.9-2.2c-2.7,0-5,0.7-6.9,2.2
			c-1.9,1.4-2.9,3.2-2.9,5.3c0,2,0.9,3.7,2.7,5.1c0,0.2,0,0.3,0,0.5c0,1.1-0.3,1.9-0.9,2.6s-1.3,1.1-2.2,1.2
			c0.5,0.9,1.2,1.3,1.9,1.3c1.2,0,2.2-0.4,3.1-1.1c0.9-0.7,1.4-1.6,1.4-2.7c1.2,0.4,2.4,0.6,3.7,0.6
			C-247.5,415.5-245.2,414.8-243.3,413.3z"/>
		<path class="st6" d="M-238.6,421c-0.4-0.5-0.6-1.1-0.6-1.8c0-0.1,0-0.2,0-0.3c1.2-1,1.8-2.2,1.8-3.5c0-1.4-0.7-2.6-2-3.6
			c-0.5-0.4-1-0.7-1.5-0.9c0,0-0.1,0.1-0.1,0.2c-0.5,0.9-1.2,1.7-2.2,2.5c-1,0.7-2.1,1.3-3.2,1.7c-1.2,0.4-2.5,0.6-3.8,0.6
			c-0.2,0-0.4,0-0.6,0c0.1,1.3,0.8,2.4,2,3.3c1.3,1,2.9,1.5,4.8,1.5c0.9,0,1.8-0.1,2.6-0.4c0.1,0.7,0.4,1.4,1,1.9s1.3,0.8,2.1,0.8
			c0.5,0,1-0.3,1.3-0.9C-237.7,421.7-238.2,421.4-238.6,421z"/>
		<path class="st6" d="M-233.5,411.3c-0.6-0.7-0.9-1.5-0.9-2.6c0-0.2,0-0.3,0-0.5c1.8-1.4,2.7-3.1,2.7-5.1c0-2.1-1-3.8-2.9-5.3
			c-1.9-1.4-4.2-2.2-6.9-2.2c-2.7,0-5,0.7-6.9,2.2c-1,0.8-1.7,1.6-2.2,2.5c0.1,0,0.3,0,0.4,0c1.4,0,2.7,0.2,3.8,0.6
			c1.2,0.4,2.3,0.9,3.2,1.7c1,0.7,1.7,1.6,2.2,2.5c0.5,0.9,0.7,1.9,0.7,3c0,0.9-0.2,1.7-0.5,2.5c1-0.1,2-0.3,2.9-0.6
			c0.1,1.1,0.5,2,1.4,2.7s1.9,1.1,3.1,1.1c0.8,0,1.4-0.4,1.9-1.3C-232.2,412.4-233,412-233.5,411.3z"/>
	</g>
	<circle class="st7" cx="-253.9" cy="643.1" r="43.1"/>
	<circle class="st8" cx="-546.6" cy="727.3" r="32.1"/>
	<circle class="st9" cx="-252.8" cy="477.4" r="21.5"/>
	<g>
		<g>
			<rect x="-293.1" y="540.8" class="st10" width="38.8" height="38.7"/>
			<path class="st11" d="M-293.1,540.8l38.8,38.7L-293.1,540.8z"/>
			<path class="st11" d="M-254.3,540.8l-38.8,38.7L-254.3,540.8z"/>
		</g>
		<path class="st8" d="M-262.5,563.9c0-1.4-1-2.1-2.4-2.1h-0.5c-1.4,0-3.1,0.6-3.1,2.1v6.2l0,0v-9.6c0-1.4-1.1-2.7-2.5-2.7h-0.5
			c-1.4,0-2,1.2-2,2.7v9.6l0,0V558c0-1.4-2.1-3.1-3.6-3.1h-0.5c-1.4,0-1.9,1.7-1.9,3.1v10.8h-1v-7.5c0-1.4-1.2-3.5-2.6-3.5h-0.5
			c-1.4,0-1.9,2.1-1.9,3.5v8.7l0,0v7.5c-2-2.4-5.7-2.8-8.1-1l3.9,5.8c4.1,6.1,13.2,8.4,14.3,8.4h2.1c6,0,10.7-4.4,10.7-10.4v-9.4
			l0,0v-7H-262.5z"/>
		<path class="st12" d="M-265,561.8h-0.5c-1.4,0-3.1,0.5-3.1,1.9v-3.4c0-1.4-1.1-2.5-2.5-2.5h-0.5c-1.4,0-2,1.1-2,2.5v-2.5
			c0-1.1-1-2-2-2.4v36c0,0-0.1-0.6,0.1-0.6h2.1c6,0,10.7-4.6,10.7-10.6v-9.4v-7.1C-262.5,562.3-263.5,561.8-265,561.8z"/>
	</g>
	<g>
		<g>
			<g>
				<path class="st13" d="M-603.7,525.6c0,0.8-0.7,1.5-1.5,1.5h-37.7c-0.8,0-1.5-0.7-1.5-1.5v-48.1c0-0.8,0.7-1.5,1.5-1.5h37.7
					c0.8,0,1.5,0.7,1.5,1.5V525.6z"/>
				<rect x="-641" y="480.7" class="st14" width="33.9" height="41.5"/>
				<path class="st15" d="M-623.5,478.3c0,0.4-0.3,0.6-0.6,0.6c-0.4,0-0.6-0.3-0.6-0.6s0.3-0.6,0.6-0.6
					C-623.8,477.6-623.5,477.9-623.5,478.3z"/>
				<path class="st15" d="M-622.8,524.5c0,0.7-0.6,1.3-1.3,1.3c-0.7,0-1.3-0.6-1.3-1.3c0-0.7,0.6-1.3,1.3-1.3
					C-623.4,523.2-622.8,523.8-622.8,524.5z"/>
				<path class="st16" d="M-623.5,524.5c0,0.4-0.3,0.6-0.6,0.6c-0.4,0-0.6-0.3-0.6-0.6c0-0.3,0.3-0.6,0.6-0.6
					C-623.8,523.8-623.5,524.1-623.5,524.5z"/>
			</g>
		</g>
	</g>
	<g>
		<g>
			<g>
				<g>
					<path id="SVGID_60_" class="st17" d="M-456.9,759.5h-2.1c-8.3,0-15.1-6.7-15.1-15.1v-16.3c0-8.3,6.8-15.1,15.1-15.1h2.1
						c8.3,0,15.1,6.8,15.1,15.1v16.3C-441.8,752.8-448.6,759.5-456.9,759.5z"/>
				</g>
				<g>
					<defs>
						<path id="SVGID_1_" d="M-456.9,759.5h-2.1c-8.3,0-15.1-6.7-15.1-15.1v-16.3c0-8.3,6.8-15.1,15.1-15.1h2.1
							c8.3,0,15.1,6.8,15.1,15.1v16.3C-441.8,752.8-448.6,759.5-456.9,759.5z"/>
					</defs>
					<clipPath id="SVGID_2_">
						<use xlink:href="#SVGID_1_"  style="overflow:visible;"/>
					</clipPath>
					<path class="st18" d="M-471.3,753.6h-3.4c-13.5,0-24.5-10.6-24.5-23.7v-25.6c0-13.1,11-23.7,24.5-23.7h3.4
						c13.5,0,24.5,10.6,24.5,23.7v25.6C-446.8,742.9-457.8,753.6-471.3,753.6z"/>
				</g>
				<g>
					<defs>
						<path id="SVGID_3_" d="M-456.9,759.5h-2.1c-8.3,0-15.1-6.7-15.1-15.1v-16.3c0-8.3,6.8-15.1,15.1-15.1h2.1
							c8.3,0,15.1,6.8,15.1,15.1v16.3C-441.8,752.8-448.6,759.5-456.9,759.5z"/>
					</defs>
					<clipPath id="SVGID_4_">
						<use xlink:href="#SVGID_3_"  style="overflow:visible;"/>
					</clipPath>
					<rect x="-475.1" y="713.1" class="st19" width="17.6" height="13.5"/>
				</g>
			</g>
		</g>
		<g>
			<g>
				<path class="st8" d="M-454.1,755.7c0,1.5-2,1.8-3.5,1.8l0,0c-1.5,0-3.5-0.3-3.5-1.8l0.8-20c0-1.5,1.2-2.7,2.6-2.7l0,0
					c1.5,0,2.7,1.2,2.7,2.7L-454.1,755.7z"/>
				<path class="st8" d="M-455.8,770.8c0.5,0.6-0.9,2.1-2.1,3l0,0c-1.1,0.9-2.8,2-3.4,1.4l-6.5-9.4c-0.5-0.7-4-3.6-2.8-4.5
					c0,0,0.2-0.3,0.9-0.7c1.5-1.3,4.5,0.1,5,0.7L-455.8,770.8z"/>
				<path class="st8" d="M-446.5,756.6c0,0.7-2,0.9-3.5,0.9l0,0c-1.5,0-3.5-0.2-3.5-0.9l1.3-10c0-0.7,0.8-1.3,2.2-1.3l0,0
					c1.5,0,2.2,0.6,2.2,1.3L-446.5,756.6z"/>
				<path class="st20" d="M-438.9,756.8c0,0.5-2,0.7-3.5,0.7l0,0c-1.5,0-3.5-0.1-3.5-0.7l1.3-7.3c0-0.5,0.8-1,2.2-1l0,0
					c1.5,0,2.2,0.4,2.2,1L-438.9,756.8z"/>
				<path class="st20" d="M-432.7,757.1c0,0.3-1.5,0.4-3,0.4l0,0c-1.5,0-3.1-0.1-3.1-0.4l1.3-4.5c0.2-0.3,0.3-0.6,1.8-0.6l0,0
					c1.5,0,1.6,0.3,1.8,0.6L-432.7,757.1z"/>
				<path class="st8" d="M-432.6,774.6c0,3-2.5,5.4-5.7,5.4h-17.2c-3.1,0-5.7-2.4-5.7-5.4v-21.2c0-3,2.5,1.8,5.7,1.8h10.5
					c1.4,0,3.9,0.6,6.3,0.5c2.9-0.1,5.7-0.6,6.1,1V774.6z"/>
			</g>
			<g>
				<path class="st12" d="M-432.7,757.1L-432.7,757.1L-432.7,757.1v-0.3c0-0.2-0.1-0.3-0.2-0.4l-1-3.8c-0.2-0.3-0.3-0.6-1.8-0.6
					s-1.6,0.3-1.8,0.6l-0.9,3.1c-0.1,0-0.3,0-0.4,0c-0.1,0-0.2,0-0.4,0l-1.1-6.2c0-0.5-0.8-1-2.2-1c-1.5,0-2.2,0.4-2.2,1l-1,5.7
					h-0.8V780h8.2c3.1,0,5.7-2.4,5.7-5.4L-432.7,757.1z"/>
			</g>
			<path class="st14" d="M-433.5,778.9c0,0.7-0.2,1.2-1.5,1.2h-23.8c-1.3,0-1.1-0.6-1.1-1.2l0,0c0-0.7-0.2-1.3,1.1-1.3h23.8
				C-433.8,777.6-433.5,778.2-433.5,778.9L-433.5,778.9z"/>
			<path class="st21" d="M-433.5,780.5c0,1.7-0.2,5.7-1.5,5.7h-23.8c-1.3,0-1.1-4-1.1-5.7l0,0c0-1.7-0.2-0.6,1.1-0.6h23.8
				C-433.8,779.9-433.5,778.8-433.5,780.5L-433.5,780.5z"/>
		</g>
	</g>
	<g>
		<path class="st22" d="M-521.5,440.4c0,9.5-7.7,17.1-17.1,17.1c-9.5,0-17.1-7.7-17.1-17.1c0-9.5,7.7-17.1,17.1-17.1
			C-529.2,423.2-521.5,430.9-521.5,440.4z"/>
		<polygon class="st14" points="-529.5,440.4 -536.7,443.8 -543.8,447.3 -543.8,440.4 -543.8,433.4 -536.7,436.9 		"/>
	</g>
	<g>
		<path class="st23" d="M-549.3,641.4c0,10.9-8.9,19.8-19.8,19.8c-10.9,0-19.8-8.9-19.8-19.8c0-10.9,8.9-19.8,19.8-19.8
			C-558.2,621.6-549.3,630.4-549.3,641.4z"/>
		<g>
			<path class="st24" d="M-569.1,663.9c-12.4,0-22.5-10.1-22.5-22.5c0-12.4,10.1-22.5,22.5-22.5c12.4,0,22.5,10.1,22.5,22.5
				C-546.6,653.8-556.7,663.9-569.1,663.9z M-569.1,620c-11.8,0-21.3,9.6-21.3,21.3c0,11.8,9.6,21.3,21.3,21.3
				c11.8,0,21.3-9.6,21.3-21.3S-557.4,620-569.1,620z"/>
		</g>
		<g>
			<g>
				<defs>
					<path id="SVGID_5_" d="M-549.3,641.4c0,10.9-8.9,19.8-19.8,19.8c-10.9,0-19.8-8.9-19.8-19.8c0-10.9,8.9-19.8,19.8-19.8
						C-558.2,621.6-549.3,630.4-549.3,641.4z"/>
				</defs>
				<clipPath id="SVGID_6_">
					<use xlink:href="#SVGID_5_"  style="overflow:visible;"/>
				</clipPath>
				<g class="st25">
					
						<linearGradient id="SVGID_7_" gradientUnits="userSpaceOnUse" x1="-575.3" y1="449.3" x2="-563.4621" y2="449.3" gradientTransform="matrix(1 0 0 -1 0 1103.6)">
						<stop  offset="0.5096" style="stop-color:#FFFCE3"/>
						<stop  offset="0.5096" style="stop-color:#FFFCE3"/>
					</linearGradient>
					<polygon class="st26" points="-563.5,652 -565.7,659.1 -574.1,659.1 -575.3,652 -571,649.5 -567,649.5 					"/>
					<path class="st27" d="M-561.9,639.4c0,4-3.3,10.8-7.3,10.8s-7.3-6.8-7.3-10.8s3.3-7.3,7.3-7.3S-561.9,635.4-561.9,639.4z"/>
					<path class="st13" d="M-576,641.6c0,0-4.5-1.9-3.3-6.7s4.7-4.8,4.7-4.8c1-2.2,3.2-3.5,3.7-3.5c0.7,2.4,2.2,2.4,2.9,2.6
						c0.3,0.1,0.7,0,1-0.2c1.8-1.1,3.4,0.4,3.4,0.4s5.2,0.3,4.3,6.6c-0.9,6.3-1.3,3.7-2.4,4.7c-1.1,1-2.7-4.4-3-4.4
						c-1.3,3.3-6.9,0.3-6.9,0.6C-575.1,638-576,641.6-576,641.6z"/>
					<path class="st28" d="M-563.9,665.7h-10.2c-2.9,0-5.2-2.3-5.2-5.2v-4c0-2.9,2.3-5.2,5.2-5.2l5,5.5l4.7-5.5h0.5
						c2.9,0,5.2,2.3,5.2,5.2v4C-558.7,663.4-561,665.7-563.9,665.7z"/>
					<g>
						<polygon class="st14" points="-569.3,660 -576.5,651.8 -575.5,651.4 -569.4,658.2 						"/>
					</g>
					<g>
						<polygon class="st14" points="-569.3,660 -569.3,658.2 -563.1,651.4 -561.9,651.7 						"/>
					</g>
				</g>
			</g>
		</g>
	</g>
	<circle class="st29" cx="-434.7" cy="363.9" r="43.1"/>
	<g>
		<g>
			<rect x="-580.8" y="535.7" class="st30" width="15" height="53.5"/>
			<rect x="-575.7" y="538.8" class="st31" width="3.9" height="23.4"/>
			<rect x="-580.8" y="564.6" class="st32" width="14.9" height="8.1"/>
			<rect x="-580.8" y="575.3" class="st32" width="14.9" height="8.1"/>
			<rect x="-565.8" y="544.9" class="st33" width="7.9" height="44.4"/>
			<rect x="-563.5" y="549" class="st34" width="3.1" height="36.1"/>
			<rect x="-558" y="539.5" class="st35" width="8.7" height="49.7"/>
			<path class="st14" d="M-556,585.3c0,1,1.1,1.8,2.4,1.8c1.3,0,2.4-0.8,2.4-1.8s-1.1-1.8-2.4-1.8C-554.9,583.5-556,584.3-556,585.3
				"/>
			<path class="st14" d="M-556,580.6c0,1,1.1,1.8,2.4,1.8c1.3,0,2.4-0.8,2.4-1.8s-1.1-1.8-2.4-1.8C-554.9,578.7-556,579.6-556,580.6
				"/>
			<rect x="-554.3" y="539.5" class="st14" width="1.4" height="35.3"/>
		</g>
		<polygon class="st36" points="-565.8,535.7 -580.8,589.3 -580.8,535.7 		"/>
		<polygon class="st36" points="-557.9,544.9 -565.8,589.3 -565.8,544.9 		"/>
		<polygon class="st36" points="-549.2,539.5 -558,589.3 -558,539.5 		"/>
	</g>
	<g id="idea_2_">
		<g>
			<g>
				<path class="st6" d="M-340.3,360.5c-0.2,0-0.4-0.2-0.4-0.4c0-2.5-2.1-4.6-4.6-4.6c-0.2,0-0.4-0.2-0.4-0.4c0-0.2,0.2-0.4,0.4-0.4
					c3,0,5.4,2.4,5.4,5.4C-339.9,360.3-340.1,360.5-340.3,360.5z"/>
			</g>
		</g>
		<g>
			<g>
				<g>
					<polygon class="st6" points="-343.8,370.9 -344.4,370.8 -343.2,363.3 -342.5,363.4 					"/>
				</g>
				<g>
					<polygon class="st6" points="-346.9,370.9 -348.1,363.4 -347.5,363.3 -346.3,370.8 					"/>
				</g>
			</g>
			<g>
				<path class="st6" d="M-342.9,364.4c-0.3,0-0.4-0.3-0.5-0.4c0-0.1-0.1-0.2-0.1-0.2l-0.1,0.2c-0.1,0.2-0.2,0.4-0.5,0.4
					s-0.4-0.3-0.4-0.4c0-0.1-0.1-0.2-0.1-0.2l-0.1,0.2c-0.1,0.2-0.2,0.4-0.5,0.4s-0.4-0.3-0.5-0.4c0-0.1-0.1-0.2-0.1-0.2l-0.1,0.2
					c-0.1,0.2-0.2,0.4-0.5,0.4s-0.4-0.3-0.4-0.4c0-0.1-0.1-0.2-0.1-0.2l-0.1,0.2c-0.1,0.2-0.2,0.4-0.5,0.4v-0.3l0.1-0.2
					c0.1-0.2,0.2-0.4,0.5-0.4s0.4,0.3,0.5,0.4c0,0.1,0.1,0.2,0.1,0.2l0.1-0.2c0.1-0.2,0.2-0.4,0.5-0.4s0.4,0.3,0.5,0.4
					c0,0.1,0.1,0.2,0.1,0.2l0.1-0.2c0.1-0.2,0.2-0.4,0.5-0.4s0.4,0.3,0.4,0.4s0.1,0.2,0.1,0.2l0.1-0.2c0.1-0.2,0.2-0.4,0.5-0.4
					s0.4,0.3,0.5,0.4c0,0.1,0.1,0.2,0.1,0.2v0.3H-342.9z"/>
			</g>
		</g>
		<g>
			<path class="st6" d="M-345.3,351c-0.2,0-0.4-0.2-0.4-0.4v-4.3c0-0.2,0.2-0.4,0.4-0.4c0.2,0,0.4,0.2,0.4,0.4v4.3
				C-344.9,350.8-345.1,351-345.3,351z"/>
		</g>
		<g>
			<path class="st6" d="M-340.4,352.3c-0.1,0-0.1,0-0.2-0.1c-0.2-0.1-0.3-0.4-0.2-0.6l2.2-3.7c0.1-0.2,0.4-0.3,0.6-0.2
				s0.3,0.4,0.1,0.6l-2.2,3.7C-340.1,352.2-340.3,352.3-340.4,352.3z"/>
		</g>
		<g>
			<path class="st6" d="M-336.8,355.9c-0.1,0-0.3-0.1-0.4-0.2c-0.1-0.2,0-0.4,0.2-0.6l3.7-2.2c0.2-0.1,0.4,0,0.6,0.2
				c0.1,0.2,0,0.5-0.2,0.6l-3.7,2.2C-336.6,355.9-336.7,355.9-336.8,355.9z"/>
		</g>
		<g>
			<path class="st6" d="M-331,360.9h-4.5c-0.2,0-0.4-0.2-0.4-0.4c0-0.2,0.2-0.4,0.4-0.4h4.5c0.2,0,0.4,0.2,0.4,0.4
				C-330.6,360.7-330.8,360.9-331,360.9z"/>
		</g>
		<g>
			<path class="st6" d="M-333,368c-0.1,0-0.1,0-0.2-0.1l-3.7-2.2c-0.2-0.1-0.3-0.4-0.2-0.6c0.1-0.2,0.4-0.3,0.6-0.1l3.7,2.2
				c0.2,0.1,0.3,0.4,0.1,0.6C-332.7,367.9-332.9,368-333,368z"/>
		</g>
		<g>
			<path class="st6" d="M-350.3,352.3c-0.1,0-0.3-0.1-0.4-0.2l-2.2-3.7c-0.1-0.2,0-0.4,0.2-0.6c0.2-0.1,0.4,0,0.6,0.2l2.2,3.7
				c0.1,0.2,0,0.5-0.1,0.6C-350.1,352.3-350.2,352.3-350.3,352.3z"/>
		</g>
		<g>
			<path class="st6" d="M-353.9,355.9c-0.1,0-0.1,0-0.2-0.1l-3.7-2.2c-0.2-0.1-0.3-0.4-0.2-0.6c0.1-0.2,0.4-0.3,0.6-0.2l3.7,2.2
				c0.2,0.1,0.3,0.4,0.2,0.6C-353.6,355.9-353.7,355.9-353.9,355.9z"/>
		</g>
		<g>
			<path class="st6" d="M-355.2,360.9h-4.3c-0.2,0-0.4-0.2-0.4-0.4c0-0.2,0.2-0.4,0.4-0.4h4.3c0.2,0,0.4,0.2,0.4,0.4
				C-354.8,360.7-355,360.9-355.2,360.9z"/>
		</g>
		<g>
			<path class="st6" d="M-357.6,368c-0.1,0-0.3-0.1-0.4-0.2c-0.1-0.2,0-0.5,0.2-0.6l3.7-2.2c0.2-0.1,0.4,0,0.6,0.2
				c0.1,0.2,0,0.4-0.1,0.6l-3.7,2.2C-357.5,367.9-357.6,368-357.6,368z"/>
		</g>
		<g>
			<g>
				<path class="st6" d="M-341.7,371L-341.7,371h-7.3c-0.4,0-0.7-0.3-0.7-0.7v-0.1c0-0.5,0-2-0.5-2.7c-2.9-3.8-3-7.4-3-7.5
					c0-4.3,3.5-7.9,7.9-7.9c4.3,0,7.9,3.5,7.9,7.9c0,0-0.1,3.7-3,7.5c-0.5,0.7-0.5,2.2-0.5,2.6v0.1C-341,370.7-341.3,371-341.7,371z
					 M-349,369.6c-0.4,0-0.6,0.3-0.7,0.6C-349.6,369.9-349.3,369.6-349,369.6z M-341.6,369.6c0.1,0,0.2,0.1,0.3,0.1
					C-341.4,369.7-341.5,369.7-341.6,369.6z M-348.3,369.6h5.9c0-0.3,0-0.6,0-0.6c0.1-1,0.4-1.8,0.8-2.3c2.6-3.4,2.7-6.6,2.7-6.6
					c0-3.6-2.9-6.5-6.5-6.5s-6.5,2.9-6.5,6.5c0,0,0.1,3.2,2.7,6.6c0.4,0.5,0.7,1.3,0.8,2.3C-348.3,369.1-348.3,369.3-348.3,369.6z"
					/>
			</g>
			<g>
				<path class="st6" d="M-341.9,372.5h-6.8c-0.4,0-0.7-0.3-0.7-0.7s0.3-0.7,0.7-0.7h6.8c0.4,0,0.7,0.3,0.7,0.7
					C-341.2,372.2-341.5,372.5-341.9,372.5z"/>
			</g>
			<g>
				<path class="st6" d="M-342.4,373.9h-5.8c-0.4,0-0.7-0.3-0.7-0.7s0.3-0.7,0.7-0.7h5.8c0.4,0,0.7,0.3,0.7,0.7
					C-341.7,373.6-342,373.9-342.4,373.9z"/>
			</g>
			<g>
				<path class="st6" d="M-343.3,375.4h-4.1c-0.4,0-0.7-0.3-0.7-0.7s0.3-0.7,0.7-0.7h4.1c0.4,0,0.7,0.3,0.7,0.7
					C-342.6,375.1-342.9,375.4-343.3,375.4z"/>
			</g>
		</g>
	</g>
	<g>
		<path class="st6" d="M-590.3,388.9c-3,0-5.4,6.6-5.4,14.7c0,8.1,2.4,14.7,5.4,14.7s5.4-6.6,5.4-14.7
			C-584.9,395.5-587.3,388.9-590.3,388.9z M-590.3,415.9c-2.5,0-4.5-5.5-4.5-12.3c0-6.8,2-12.3,4.5-12.3s4.5,5.5,4.5,12.3
			C-585.8,410.4-587.8,415.9-590.3,415.9z"/>
		<path class="st6" d="M-575.6,403.6c0-3-6.6-5.4-14.7-5.4c-8.1,0-14.7,2.4-14.7,5.4s6.6,5.4,14.7,5.4
			C-582.2,409-575.6,406.6-575.6,403.6z M-602.6,403.6c0-2.5,5.5-4.5,12.3-4.5s12.3,2,12.3,4.5s-5.5,4.5-12.3,4.5
			S-602.6,406.1-602.6,403.6z"/>
		<path class="st6" d="M-579.9,393.2c-2.1-2.1-8.5,0.8-14.2,6.6c-5.7,5.7-8.7,12.1-6.6,14.2c2.1,2.1,8.5-0.8,14.2-6.6
			C-580.7,401.7-577.8,395.3-579.9,393.2z M-599,412.3c-1.8-1.8,0.7-7.1,5.5-11.9c4.8-4.8,10.1-7.3,11.9-5.5
			c1.8,1.8-0.7,7.1-5.5,11.9C-591.9,411.6-597.2,414-599,412.3z"/>
		<path class="st6" d="M-579.9,414c2.1-2.1-0.8-8.5-6.6-14.2c-5.7-5.7-12.1-8.7-14.2-6.6c-2.1,2.1,0.8,8.5,6.6,14.2
			C-588.4,413.1-582,416.1-579.9,414z M-599,394.9c1.8-1.8,7.1,0.7,11.9,5.5c4.8,4.8,7.3,10.1,5.5,11.9c-1.8,1.8-7.1-0.7-11.9-5.5
			S-600.7,396.7-599,394.9z"/>
		<path class="st6" d="M-588,403.6c0-1.3-1-2.3-2.3-2.3s-2.3,1-2.3,2.3c0,1.2,1,2.3,2.3,2.3C-589,405.8-588,404.8-588,403.6z"/>
	</g>
	<g>
		<polygon class="st6" points="-664.9,451.6 -664.9,441.2 -670.7,446.6 -671.2,446.1 -671.2,451.6 		"/>
		<polygon class="st6" points="-657.4,451.6 -657.4,442.9 -662,438.1 -663.8,439.7 -663.8,451.6 		"/>
		<polygon class="st6" points="-649.9,451.6 -649.9,440.2 -655.3,445 -656.3,444 -656.3,451.6 		"/>
		<polygon class="st6" points="-642.5,451.6 -642.5,433.7 -648.8,439.3 -648.8,451.6 		"/>
		<path class="st6" d="M-642.6,427.7l-12.5,10.8l-5.8-5.7c-0.3-0.3-0.6-0.4-1-0.4c-0.4,0-0.7,0.1-1,0.4l-8.3,8v2.8l0.5,0.5l8.8-8.5
			l5.8,5.6c0.5,0.5,1.4,0.5,1.9,0.1l11.8-10.1v-3.3L-642.6,427.7z"/>
	</g>
	<g>
		<polygon class="st6" points="-193.8,492.5 -193.5,489.7 -199.9,489.7 -199.7,492.5 		"/>
		<polygon class="st6" points="-192.6,488.8 -186.8,488.8 -185.5,484 -192.2,484 		"/>
		<polygon class="st6" points="-206.5,489.7 -205.8,492.5 -200.6,492.5 -200.8,489.7 		"/>
		<polygon class="st6" points="-187,489.7 -192.6,489.7 -192.9,492.5 -187.7,492.5 		"/>
		<path class="st6" d="M-182.4,475.5c-0.3,0-0.5,0.1-0.7,0.2c-0.1,0.1-0.2,0.2-0.3,0.3c-1.2,1.2-2.4,2.4-3.7,3.7
			c-0.1,0.1-0.2,0.3-0.3,0.4h-4.5l-0.3,3h6.8l0.5-1.9c1-1,1.9-2,2.9-2.9h2.3c1.8,0,1.8-2.8,0-2.8H-182.4z"/>
		<polygon class="st6" points="-200.5,483.1 -193,483.1 -192.8,480.1 -200.7,480.1 		"/>
		<polygon class="st6" points="-200.9,488.8 -201.3,484 -207.9,484 -206.7,488.8 		"/>
		<polygon class="st6" points="-209,480.1 -208.2,483.1 -201.4,483.1 -201.6,480.1 		"/>
		<polygon class="st6" points="-193.1,484 -200.4,484 -200,488.8 -193.5,488.8 		"/>
		<path class="st6" d="M-203,493.3c1.3,0,2.4,1.1,2.4,2.4c0,1.3-1.1,2.4-2.4,2.4s-2.4-1.1-2.4-2.4
			C-205.4,494.3-204.4,493.3-203,493.3"/>
		<path class="st6" d="M-190.4,493.3c1.3,0,2.4,1.1,2.4,2.4c0,1.3-1.1,2.4-2.4,2.4s-2.4-1.1-2.4-2.4
			C-192.8,494.3-191.8,493.3-190.4,493.3"/>
	</g>
	<path class="st37" d="M-235.6,653.8c0.7,0,1.2-0.2,1.5-0.8l8.8-19.8c0.2-0.5,0.2-1.2-0.1-1.7c-0.3-0.5-0.8-0.7-1.4-0.7h-26.6
		c-0.1,0-0.3-0.1-0.4-0.1s-0.1,0.1-0.2,0.1h-7.7c-0.1,0-0.3-0.1-0.4,0h-0.1h-8l-7.9-6.3c-0.7-0.6-1.8-0.7-2.3,0
		c-0.6,0.7-0.4,1.9,0.3,2.4l8.5,6.8l6,19.1c0.1,0.3,0.3,0.6,0.5,0.8l-0.3,6.8c-1.6,0.3-2.8,1.7-2.8,3.4c0,1.9,1.5,3.1,3.4,3.1
		c1.3,0,2.4-1.1,3-2.1h22.1c0.6,1,1.7,2.1,3,2.1c1.9,0,3.4-1.4,3.4-3.3s-1.5-3.3-3.4-3.3c-1.8,0-3.3,1.4-3.4,3.4h-21.3
		c-0.1-1-1-2.8-2.2-3.3l0.3-6.7h27.7V653.8z M-233.4,642.8h-2.6l1.4-3h2.8L-233.4,642.8z M-235,646.8h-2.4l0.7-2h2.5L-235,646.8z
		 M-244.5,651.8l0.2-2h4.4l-0.7,2H-244.5z M-245.6,644.8l-0.2,2h-5.4l-0.2-2H-245.6z M-251.6,642.8l-0.4-3h7.1l-0.4,3H-251.6z
		 M-252.8,646.8h-5.8l-0.3-2h5.9L-252.8,646.8z M-252.6,649.8l0.2,2h-5.6l-0.3-2H-252.6z M-251,649.8h5l-0.2,2h-4.6L-251,649.8z
		 M-244.1,646.8l0.2-2h5.4l-0.7,2H-244.1z M-237.7,642.8h-6l0.4-3h7L-237.7,642.8z M-243.1,637.8l0.4-5h8.6l-1.4,5H-243.1z
		 M-244.8,637.8h-7.5l-0.4-5h8.3L-244.8,637.8z M-254,637.8h-6.3l-0.6-5h6.5L-254,637.8z M-253.7,639.8l0.4,3h-6l-0.6-3H-253.7z
		 M-261,642.8h-4.2l-1.2-3h4.8L-261,642.8z M-260.7,644.8l0.3,2h-3.7l-0.6-2H-260.7z M-263.5,649.8h3.5l0.3,2h-3.2L-263.5,649.8z
		 M-238.8,651.8l0.7-2h2.3l-0.8,2H-238.8z M-230.9,637.8h-2.9l1.4-5h3.1L-230.9,637.8z M-262.6,632.8l0.6,5h-5l-1.2-5H-262.6z"/>
	<path class="st37" d="M-266,471v13.2c0,1.4,1.1,2.5,2.6,2.5h21.6c1.4,0,2.5-1.1,2.5-2.5V471c0-1.4-1.1-2.6-2.5-2.6h-21.6
		C-264.9,468.5-266,469.6-266,471z M-264.4,484.2V471l8.4,7L-264.4,484.2C-264.4,484.3-264.4,484.3-264.4,484.2z M-241,484.4
		l-8.4-6.3l8.4-7v13.1C-241,484.3-241,484.3-241,484.4z M-263,470.1h20.7l-9.5,7.9c-0.4,0.4-1.2,0.4-1.6,0L-263,470.1z
		 M-242.7,485.2h-20.2l8.1-6.1l0.2,0.1c0.5,0.4,1.2,0.6,1.9,0.6c0.7,0,1.3-0.2,1.9-0.6l0.1-0.1L-242.7,485.2z"/>
	<g>
		<path class="st30" d="M-525.9,737.8c0,1.1-0.9,2-2,2H-566c-1.1,0-2-0.9-2-2v-19.5c0-1.1,0.9-2,2-2h38.1c1.1,0,2,0.9,2,2V737.8z"/>
		<path class="st38" d="M-567,736c15.1,0,28.4-7.8,36.1-19.6h-35c-1.1,0-2,0.9-2,2v17.7C-567.6,736-567.3,736-567,736z"/>
		<text transform="matrix(0.9397 0 0 1 -564.897 728.0676)" class="st39 st40 st41">VISA</text>
		<text transform="matrix(0.9397 0 0 1 -554.9536 733.4103)" class="st39 st40 st42">Lorem ipsum dolor sit amet</text>
		<text transform="matrix(0.9397 0 0 1 -554.9536 735.8102)" class="st39 st40 st42">5656 343 787 888</text>
	</g>
	<g>
		<g id="Shield_1_">
			<path class="st43" d="M-430.1,649.8c-25.4-12.5-46.1-33.3-59.7-59.9c-12.2-24-18.8-52.2-18.8-81.6v-1.8l1.9-0.1
				c30.7-2.5,33.3-28.6,33.3-28.9l0.2-1.7h87.7l0.2,1.7c0.1,1.1,2.4,26.4,33,28.9l1.6,0.1v1.8c0,29.4-6.2,57.6-18.5,81.6
				c-13.6,26.7-34.1,47.4-59.5,59.9l-0.8,0.4L-430.1,649.8z"/>
			<path class="st44" d="M-387.2,477.6h-42h-42c0,0-2.3,28.1-35.1,30.8c0,55.3,23.5,113.2,77.1,139.7
				c53.6-26.5,77.1-84.4,77.1-139.7C-384.9,505.7-387.2,477.6-387.2,477.6z"/>
			<path class="st39" d="M-429.5,476.8h-41.7c0,0-2.5,28.5-35.2,31.2c0,55.3,24,113.6,77,140.1V476.8H-429.5z"/>
			<path class="st45" d="M-429.2,638.2C-451,626.4-468,608.6-480,585c-10.4-20.4-16.3-44.5-17.3-69.4c20.1-4.5,29.6-17.8,33.2-29.8
				h69.9c3.6,12,13.2,25.4,33.2,29.8c-1,24.9-6.9,48.8-17.3,69.2C-390.4,608.4-407.5,626.4-429.2,638.2z"/>
			<path class="st45" d="M-429.5,485.8h-34.6c-3.6,12-13.2,25.4-33.2,29.8c1,24.9,6.8,48.9,17.2,69.3c12,23.5,29.7,41.5,50.7,53.2
				V485.8H-429.5z"/>
		</g>
		<circle class="st46" cx="-467.4" cy="482.4" r="2.1"/>
		<circle class="st46" cx="-390.4" cy="482.4" r="2.1"/>
		<circle class="st46" cx="-357.3" cy="512.9" r="2.1"/>
		<circle class="st46" cx="-501.9" cy="512.9" r="2.1"/>
		<circle class="st46" cx="-428.9" cy="642.9" r="2.1"/>
		<circle class="st46" cx="-372.5" cy="583.2" r="2.1"/>
		<circle class="st46" cx="-485.9" cy="583.2" r="2.1"/>
	</g>
	<g>
		<polygon class="st47" points="-376.9,636.3 -386.7,641.8 -416,589.1 -406.2,583.6 		"/>
		<polygon class="st47" points="-381.7,639 -386.7,641.8 -416,589.1 -411.1,586.3 		"/>
		<g>
			<path class="st48" d="M-409.4,591.5c-19.5,10.8-44,3.8-54.8-15.6c-10.8-19.4-3.8-44,15.6-54.8c19.5-10.8,44-3.8,54.8,15.6
				C-382.9,556.2-389.9,580.7-409.4,591.5z"/>
			<path class="st49" d="M-385.2,568.8c-3.3,11.7-11,21.4-21.7,27.3c-21.9,12.2-49.7,4.3-61.9-17.6c-5.9-10.6-7.3-22.9-4-34.6
				s11-21.4,21.6-27.3c21.9-12.2,49.7-4.3,61.9,17.6C-383.3,544.8-381.8,557.1-385.2,568.8z M-462.7,546.7c-2.6,9-1.5,18.5,3.1,26.7
				c9.4,16.9,30.8,23,47.7,13.6c8.2-4.5,14.1-12,16.7-21c2.5-9,1.5-18.5-3.1-26.7c-9.4-16.9-30.8-23-47.7-13.6
				C-454.2,530.2-460.1,537.7-462.7,546.7z"/>
		</g>
		<g>
			<path class="st50" d="M-409.5,610l23.3,41.9c2.6,4.8,8.6,6.4,13.3,3.8l0.2-0.1l-28.1-50.5L-409.5,610z"/>
			<path class="st51" d="M-400.7,605.1l28.1,50.5l0.2-0.1c4.8-2.6,6.5-8.6,3.8-13.3l-23.3-41.9L-400.7,605.1z"/>
		</g>
	</g>
</g>
<g>
	<line class="st52" x1="-446.1" y1="531.4" x2="-434.9" y2="542.7"/>
	<line class="st52" x1="-446.1" y1="542.7" x2="-434.9" y2="531.4"/>
	<line class="st52" x1="-446.1" y1="552" x2="-434.9" y2="563.3"/>
	<line class="st52" x1="-446.1" y1="563.3" x2="-434.9" y2="552"/>
	<line class="st52" x1="-446.1" y1="570.9" x2="-434.9" y2="582.1"/>
	<line class="st52" x1="-446.1" y1="582.1" x2="-434.9" y2="570.9"/>
</g>
<polyline class="st53" points="-405.7,550.2 -417.6,562.1 -424.1,555.5 "/>
<g>
	<g id="XMLID_14_">
		<g>
			<path class="st54" d="M-423.7,332.4c0.7,0,1.2,0.6,1.2,1.2c0,0.7-0.6,1.2-1.2,1.2c-0.7,0-1.2-0.6-1.2-1.2
				C-424.9,332.9-424.4,332.4-423.7,332.4z"/>
			<rect x="-441" y="332.8" class="st54" width="13" height="1.4"/>
			<path class="st54" d="M-434.5,386.5c1.8,0,3.2,1.4,3.2,3.2c0,1.8-1.5,3.2-3.2,3.2s-3.2-1.5-3.2-3.2
				C-437.7,387.9-436.3,386.5-434.5,386.5z"/>
			<rect x="-449.7" y="337.5" class="st55" width="30.4" height="45.8"/>
			<path class="st56" d="M-415.6,334.2v56.9c0,2.7-2.2,4.8-4.8,4.8h-28c-2.7,0-4.8-2.2-4.8-4.8v-56.9c0-2.7,2.2-4.9,4.8-4.9h28
				C-417.8,329.3-415.6,331.5-415.6,334.2z M-419.3,383.3v-45.8h-30.4v45.8H-419.3z M-422.4,333.6c0-0.7-0.6-1.2-1.2-1.2
				c-0.7,0-1.2,0.6-1.2,1.2c0,0.7,0.6,1.2,1.2,1.2S-422.4,334.3-422.4,333.6z M-428,334.3v-1.5h-13v1.4h13V334.3z M-431.2,389.7
				c0-1.8-1.5-3.2-3.2-3.2s-3.2,1.4-3.2,3.2c0,1.8,1.5,3.2,3.2,3.2S-431.2,391.5-431.2,389.7z"/>
		</g>
	</g>
	<g>
		<circle class="st14" cx="-434.1" cy="356.7" r="11.8"/>
		<g>
			<path class="st57" d="M-428.2,360.2c0.6,0.6,0.6,1.6,0,2.1l0,0c-0.6,0.6-1.6,0.6-2.1,0l-9.3-9.3c-0.6-0.6-0.6-1.6,0-2.1l0,0
				c0.6-0.6,1.6-0.6,2.1,0L-428.2,360.2z"/>
			<path class="st57" d="M-430.4,350.9c0.6-0.6,1.6-0.6,2.1,0l0,0c0.6,0.6,0.6,1.6,0,2.1l-9.3,9.3c-0.6,0.6-1.6,0.6-2.1,0l0,0
				c-0.6-0.6-0.6-1.6,0-2.1L-430.4,350.9z"/>
		</g>
	</g>
</g>
</svg>
