<?xml version="1.0" encoding="utf-8"?>
<!-- Generator: Adobe Illustrator 19.1.0, SVG Export Plug-In . SVG Version: 6.00 Build 0)  -->
<svg version="1.1" id="Layer_1" xmlns="http://www.w3.org/2000/svg" xmlns:xlink="http://www.w3.org/1999/xlink" x="0px" y="0px"
	 viewBox="0 0 655.7 199.2" style="enable-background:new 0 0 655.7 199.2;" xml:space="preserve">
<style type="text/css">
	.st0{fill:#00A7A1;}
	.st1{fill:none;stroke:#BABCBE;stroke-miterlimit:10;}
	.st2{fill:#F1F1F1;}
	.st3{opacity:0.9;fill:#F4FAFC;}
	.st4{fill:#484359;}
	.st5{fill:#484359;stroke:#B6B5BD;stroke-linecap:round;}
	.st6{fill:#333333;}
	.st7{fill:#F2F2F2;}
	.st8{fill:none;stroke:#676767;stroke-miterlimit:10;}
	.st9{fill:url(#SVGID_1_);}
	.st10{opacity:0.6;fill:#FFFFFF;stroke:#BEE0DD;}
	.st11{fill:none;stroke:#000000;stroke-miterlimit:10;}
	.st12{fill:none;stroke:#221F1F;}
	.st13{fill:none;stroke:#D0D1D2;}
	.st14{fill:none;stroke:#231F20;}
	.st15{fill:#231F20;}
	.st16{opacity:0.9;fill:url(#SVGID_2_);}
	.st17{fill:#CBCACA;}
	.st18{fill:#1A1A1A;}
	.st19{opacity:0.3;fill:#FFFFFF;}
	.st20{fill:#FFFFFF;stroke:#ECDAD3;}
	.st21{fill:url(#SVGID_3_);}
	.st22{opacity:0.2;}
	.st23{fill:#FFFFFF;}
	.st24{fill:#38334A;}
	.st25{fill:none;stroke:#38334A;}
	.st26{fill:none;stroke:#B6B5BD;}
	.st27{fill:#6D697A;}
	.st28{opacity:0.8;}
	.st29{fill:none;stroke:#FFFFFF;stroke-width:5;stroke-linecap:round;stroke-linejoin:round;}
	.st30{fill:#EBE6E5;stroke:#ECEAE5;stroke-miterlimit:10;}
	.st31{opacity:0.9;}
	.st32{fill:none;stroke:#FFFFFF;stroke-width:2;stroke-linecap:round;stroke-linejoin:round;}
	.st33{fill:#EBF7FD;stroke:#ECEAE5;stroke-miterlimit:10;}
	.st34{fill:#D0D1D2;stroke:#FFFFFF;stroke-miterlimit:10;}
	.st35{opacity:0.2;fill:#E4E4E3;}
	.st36{opacity:0.6;fill:#69BBB6;}
	.st37{fill:none;stroke:#EE5345;stroke-miterlimit:10;}
	.st38{fill:#EE5345;}
	.st39{fill:#BABCBE;}
	.st40{fill:#E0E0E0;}
	.st41{fill:#EF6541;}
	.st42{fill:#8E8D8D;}
	.st43{fill:#59595C;}
	.st44{fill:#F1F2EE;}
	.st45{fill:#919395;}
	.st46{fill:none;stroke:#FDEB98;stroke-miterlimit:10;}
	.st47{fill-rule:evenodd;clip-rule:evenodd;fill:#211F1F;}
	.st48{fill-rule:evenodd;clip-rule:evenodd;fill:#EE5345;}
	.st49{opacity:0.3;}
	.st50{opacity:0.7;fill:#69BBB6;}
	.st51{opacity:0.7;fill:#5C8B88;}
	.st52{fill:#D1D2D2;}
	.st53{fill:#5A595C;}
	.st54{fill:#E5E5E4;}
	.st55{fill:#211F1F;}
	.st56{fill:#BFBFBF;}
	.st57{fill:#E6D6BF;}
	.st58{fill:#CF9D76;}
	.st59{fill:#DDB089;}
	.st60{fill:none;stroke:#211F1F;stroke-width:0.437;stroke-miterlimit:10;}
	.st61{fill:#7E808F;}
	.st62{fill:#8E929E;}
	.st63{fill:none;stroke:#E7CFA5;stroke-width:0.13;stroke-miterlimit:10;}
	.st64{fill:#686C7A;}
	.st65{fill:#C7C7C7;}
	.st66{fill:#D2D2D2;}
	.st67{fill:#3F5554;}
	.st68{fill:#595C62;}
	.st69{fill:#61636A;}
	.st70{fill:#505157;}
	.st71{fill:#F0E3D1;}
	.st72{fill:#CAB194;}
	.st73{fill:#3C2418;}
	.st74{fill:#6D6E71;}
	.st75{fill:#DEE8E6;}
	.st76{fill:#ECF2F0;}
	.st77{fill:#A77D51;}
	.st78{fill:none;stroke:#211F1F;stroke-width:0.48;stroke-miterlimit:10;}
	.st79{fill:#B8DAE6;}
	.st80{fill:#D3E7EF;}
	.st81{fill:#28A6DE;}
	.st82{fill:#BCBCBE;}
	.st83{fill:#ADDFF2;}
	.st84{fill:#CBEAF6;}
	.st85{fill:#92A2A5;}
	.st86{fill:#56696F;}
	.st87{fill:#5C7075;}
	.st88{fill:none;stroke:#E7CFA5;stroke-width:0.116;stroke-miterlimit:10;}
	.st89{fill:#3E5156;}
	.st90{fill:#A2B0B4;}
	.st91{fill:#BCBBBE;}
	.st92{fill:#776F5C;}
	.st93{fill:#949FA7;}
	.st94{fill:#6E6656;}
	.st95{fill:#564D3D;}
	.st96{fill:#A4AEB4;}
	.st97{fill:#3D4C55;}
	.st98{fill:#C1966B;}
	.st99{fill:none;stroke:#231F20;stroke-miterlimit:10;}
	.st100{fill:none;stroke:#BABCBE;stroke-width:2;stroke-miterlimit:10;}
	.st101{fill:none;stroke:#E6E6E6;stroke-miterlimit:10;}
	.st102{fill:#F05B27;}
	.st103{opacity:0.7;fill:#FFFFFF;stroke:#D0D1D2;stroke-miterlimit:10;}
</style>
<path class="st50" d="M0,179.5c0-10.9,146.8-19.7,327.8-19.7c181.1,0,327.8,8.8,327.8,19.7"/>
<path class="st50" d="M655.7,179.5c0,10.9-146.8,19.7-327.8,19.7C146.8,199.2,0,190.4,0,179.5"/>
<path class="st51" d="M362.8,179.5c0,2.6-15.6,4.7-34.9,4.7c-19.3,0-34.9-2.1-34.9-4.7c0-2.6,15.6-4.7,34.9-4.7
	C347.1,174.8,362.8,176.9,362.8,179.5"/>
<path class="st52" d="M567.8,11.2c6,0.6,1.1,30.9,3.6,41.3c1.5,6,7.4,6,7.4,6s-35.6,10.2-64.5,2.4c-28.8-7.9-16.8-30.7-16.8-30.7
	L567.8,11.2z"/>
<polygon class="st53" points="535.9,34.1 529.6,34.1 484.5,175.9 490.8,175.9 "/>
<polygon class="st53" points="520.4,34.1 526.7,34.1 571.8,175.9 565.5,175.9 "/>
<rect x="488.5" y="21" class="st53" width="80.2" height="68.1"/>
<rect x="492" y="24.4" class="st54" width="73.1" height="62.1"/>
<rect x="487.8" y="87.2" class="st55" width="81.8" height="2"/>
<path class="st2" d="M565.1,23.4c0,0,7-4.3,3-12.4l-75.7,4.3c0,0-5.3,3.7-0.4,8.1H565.1z"/>
<rect x="187.6" y="63.3" class="st55" width="45.3" height="61.4"/>
<path class="st56" d="M231.4,70.2c-4-4.5-9.8-7.4-16.2-7.4l-9.1-0.1c-6.9-0.1-13,3.1-17.1,8c3.2,3.8,5.1,8.7,5,14.1l-0.3,36.4
	l32.5,0.2l-0.3-36.7C225.9,79.2,228,74.1,231.4,70.2"/>
<rect x="279.5" y="63.3" class="st55" width="45.3" height="61.4"/>
<path class="st57" d="M323.3,70.2c-4-4.5-9.8-7.4-16.2-7.4l-9.1-0.1c-6.9-0.1-13,3.1-17.1,8c3.2,3.8,5,8.7,5,14.1l-0.3,36.4
	l32.5,0.2l-0.3-36.7C317.8,79.2,319.9,74.1,323.3,70.2"/>
<path class="st58" d="M307.6,64.2c0,0-1.5,2.2-5,2.2c-3.5,0-5.4-2.2-5.4-2.2V46.3h10.4V64.2z"/>
<path class="st59" d="M287.8,37.6c-0.3,0.9-0.8,1.6-1.3,2.1l0,5.4c0.1,7.7,5.9,13.9,13,13.8l5.4,0c7.1,0,12.9-6.3,12.8-14l-0.1-14
	C310.1,25.7,291,29.2,287.8,37.6"/>
<path class="st58" d="M216.2,64c0,0-1.5,2.2-5.2,2.2c-3.6,0-5.5-2.2-5.5-2.2V46.2h10.7V64z"/>
<path class="st59" d="M208.2,28.8c-2,0-13.6-0.3-13.7,2.8c0,0.1,0,0.3,0,0.4l0.1,12.7c0.1,8,6.1,14.4,13.4,14.3l5.5,0
	c7.4,0,13.3-6.6,13.2-14.5l-0.1-9.7C221.7,29.4,215.2,28.7,208.2,28.8"/>
<line class="st60" x1="226.9" y1="126.5" x2="229.6" y2="166.7"/>
<line class="st60" x1="193.6" y1="126.5" x2="190.9" y2="166.7"/>
<rect x="187.6" y="124.3" class="st55" width="45.3" height="9.5"/>
<path class="st61" d="M193.7,109.9l0.1,7.3c0,6.1,6.1,10.9,13.5,10.9l5.6,0c7.4,0,13.3-5,13.3-11.1l-0.1-7.1H193.7z"/>
<rect x="193.8" y="120.7" class="st61" width="14" height="47.7"/>
<rect x="211.8" y="120.8" class="st61" width="14.3" height="47.6"/>
<path class="st55" d="M195.4,170.4c0,2.1,0,3.8,1.7,3.8h7.6c1.7,0,1.8-1.7,1.8-3.8c0-2.1-1.4-3.8-3.1-3.8h-4.8
	C196.8,166.6,195.4,168.3,195.4,170.4"/>
<path class="st55" d="M213.3,170.4c0,2.1,0,3.8,1.7,3.8h7.6c1.7,0,1.8-1.7,1.8-3.8c0-2.1-1.4-3.8-3.1-3.8h-4.9
	C214.7,166.6,213.3,168.3,213.3,170.4"/>
<path class="st61" d="M202.5,62.3c0,0,5.4,30.8,3.2,59.2h-13.2l0.4-41.1l-4.4-9.4C188.5,71,191.6,64,202.5,62.3"/>
<path class="st61" d="M218.8,62.3c0,0-5.3,30.6-3.1,59l12,0.3l0.7-41.2l4.4-9.4C232.8,71,229.7,64,218.8,62.3"/>
<path class="st62" d="M197.1,63.7c0,0,3.8,17.1,3.5,19l2.2-0.1l-2.4,1.4l5.8,16.2c0,0-0.5-25.2-3.3-38.8
	C202.8,61.5,198.9,62,197.1,63.7"/>
<path class="st62" d="M224.3,63.7c0,0-3.8,17.1-3.5,19l-2.2-0.1L221,84l-5.8,16.2c0,0,0.5-25.2,3.3-38.8
	C218.6,61.5,222.4,62,224.3,63.7"/>
<rect x="206" y="110" class="st55" width="9.2" height="3.5"/>
<rect x="208" y="109.6" class="st63" width="5.4" height="4.2"/>
<path class="st62" d="M194.2,102.3l9,0.3c0,0,1.2,13-4.4,13.7C193.3,116.9,194.2,102.3,194.2,102.3"/>
<path class="st62" d="M227.4,102.3l-9,0.3c0,0-1.2,13,4.4,13.7C228.3,116.9,227.4,102.3,227.4,102.3"/>
<polygon class="st64" points="206,113.5 205.9,122 193.8,121.5 206.5,122.7 "/>
<polygon class="st64" points="215.2,113.5 215.3,122 227.5,121.5 214.7,122.7 "/>
<path class="st65" d="M209.9,64.9l-1.4,5.9c0,0-4.9-5.5-5.1-6.5c-0.1-1-0.2-1.7-0.2-1.7l0.7-2.3L209.9,64.9z"/>
<path class="st65" d="M211.5,64.9l1.4,5.9c0,0,4.9-5.5,5.1-6.5c0.1-1,0.2-1.7,0.2-1.7l-0.7-2.3L211.5,64.9z"/>
<path class="st66" d="M209.9,64.9l0,3l-0.7-0.1C209.2,67.8,209.6,66,209.9,64.9"/>
<path class="st66" d="M211.5,64.9l0,3.1l0.7,0C212.2,67.9,211.8,66,211.5,64.9"/>
<polygon class="st67" points="209.6,65.9 211.7,65.9 212.5,68.8 211.7,70.6 209.8,70.6 209,68.6 "/>
<polygon class="st67" points="210.6,100.9 206.5,95.7 209.8,70.6 211.7,70.6 214.7,95.7 "/>
<line class="st60" x1="189.4" y1="133.8" x2="186.7" y2="174"/>
<line class="st60" x1="231.3" y1="133.8" x2="234" y2="174"/>
<path class="st62" d="M213.6,127c-0.4,0.3,3-3.8,6.2-3.3c3.2,0.5,5.5,2.5,5.3,21.5c0,0-1.8-11.3-4.5-12.7c-2.7-1.3-2.7-5.3-3.8-3.7
	c-1.2,1.7-0.8-1-0.8-1S215.3,126,213.6,127"/>
<path class="st62" d="M205.6,127c0.4,0.3-3-3.8-6.2-3.3c-3.2,0.5-5.5,2.5-5.3,21.5c0,0,1.8-11.3,4.5-12.7c2.7-1.3,2.7-5.3,3.8-3.7
	c1.2,1.7,0.8-1,0.8-1S203.9,126,205.6,127"/>
<line class="st60" x1="318.8" y1="126.5" x2="321.5" y2="166.7"/>
<line class="st60" x1="285.5" y1="126.5" x2="282.9" y2="166.7"/>
<rect x="279.5" y="124.3" class="st55" width="45.3" height="9.5"/>
<path class="st68" d="M285.6,109.9l0.1,7.3c0.1,6.1,6.1,10.9,13.5,10.9l5.6,0c7.4,0,13.3-5,13.3-11.1l-0.1-7.1H285.6z"/>
<rect x="285.7" y="120.7" class="st68" width="14" height="47.7"/>
<rect x="303.7" y="120.8" class="st68" width="14.3" height="47.6"/>
<path class="st55" d="M287.3,170.4c0,2.1,0,3.8,1.7,3.8h7.6c1.7,0,1.8-1.7,1.8-3.8c0-2.1-1.4-3.8-3.1-3.8h-4.8
	C288.7,166.6,287.3,168.3,287.3,170.4"/>
<path class="st55" d="M305.3,170.4c0,2.1,0,3.8,1.7,3.8h7.6c1.7,0,1.8-1.7,1.8-3.8c0-2.1-1.4-3.8-3.1-3.8h-4.8
	C306.7,166.6,305.3,168.3,305.3,170.4"/>
<path class="st68" d="M294.5,62.3c0,0,5.4,30.8,3.2,59.2h-13.2l0.4-41.1l-4.4-9.4C280.5,71,283.5,64,294.5,62.3"/>
<path class="st68" d="M310.7,62.3c0,0-5.2,30.6-3.1,59l12,0.3l0.6-41.2l4.4-9.4C324.7,71,321.7,64,310.7,62.3"/>
<path class="st69" d="M289,63.7c0,0,3.8,17.1,3.5,19l2.2-0.1l-2.4,1.4l5.8,16.2c0,0-0.5-25.2-3.4-38.8C294.7,61.5,290.9,62,289,63.7
	"/>
<path class="st69" d="M316.2,63.7c0,0-3.8,17.1-3.5,19l-2.2-0.1L313,84l-5.8,16.2c0,0,0.5-25.2,3.3-38.8
	C310.6,61.5,314.4,62,316.2,63.7"/>
<rect x="298" y="110" class="st55" width="9.2" height="3.5"/>
<rect x="299.9" y="109.6" class="st63" width="5.4" height="4.2"/>
<path class="st69" d="M286.2,102.3l9,0.3c0,0,1.2,13-4.4,13.7C285.2,116.9,286.2,102.3,286.2,102.3"/>
<path class="st69" d="M319.3,102.3l-9,0.3c0,0-1.2,13,4.4,13.7C320.3,116.9,319.3,102.3,319.3,102.3"/>
<polygon class="st70" points="298,113.5 297.9,122 285.7,121.5 298.5,122.7 "/>
<polygon class="st70" points="307.1,113.5 307.2,122 319.4,121.5 306.6,122.7 "/>
<path class="st71" d="M301.9,64.9l-1.4,5.9c0,0-4.9-5.5-5.1-6.5c-0.1-1-0.2-1.7-0.2-1.7l0.7-2.3L301.9,64.9z"/>
<path class="st71" d="M303.4,64.9l1.4,5.9c0,0,4.9-5.5,5.1-6.5c0.1-1,0.2-1.7,0.2-1.7l-0.7-2.3L303.4,64.9z"/>
<path class="st72" d="M301.9,64.9l0,3l-0.7-0.1C301.2,67.8,301.5,66,301.9,64.9"/>
<path class="st72" d="M303.4,64.9l0,3.1l0.7,0C304.1,67.9,303.8,66,303.4,64.9"/>
<polygon class="st67" points="301.6,65.9 303.7,65.9 304.4,68.8 303.7,70.6 301.7,70.6 301,68.6 "/>
<polygon class="st67" points="302.5,100.9 298.5,95.7 301.7,70.6 303.7,70.6 306.6,95.7 "/>
<line class="st60" x1="281.3" y1="133.8" x2="278.6" y2="174"/>
<line class="st60" x1="323.3" y1="133.8" x2="325.9" y2="174"/>
<path class="st69" d="M305.6,127c-0.4,0.3,3-3.8,6.2-3.3c3.2,0.5,5.5,2.5,5.3,21.5c0,0-1.8-11.3-4.5-12.7c-2.7-1.3-2.7-5.3-3.8-3.7
	c-1.2,1.7-0.8-1-0.8-1S307.2,126,305.6,127"/>
<path class="st69" d="M297.6,127c0.4,0.3-3-3.8-6.2-3.3c-3.2,0.5-5.5,2.5-5.3,21.5c0,0,1.8-11.3,4.5-12.7c2.7-1.3,2.7-5.3,3.8-3.7
	c1.2,1.7,0.8-1,0.8-1S295.9,126,297.6,127"/>
<path class="st73" d="M128.8,161.9c0,0-1.5,9,3.6,11.4c5.1,2.4,9.1,2,8.1,4.8c0,0,0.1,3.5-10.7,2.2c0,0-7.5-0.6-9.3-2.1
	c-1.4-1.3,0.4-11.3,1.7-14.2C122.1,164,126.7,161.3,128.8,161.9"/>
<path class="st74" d="M96.7,67.4c0,0,6.2,13.4,5.3,22.8l-1.7,1.7l-2.3-2.4c0,0,1.5-8.4-2.8-21.5L96.7,67.4z"/>
<path class="st74" d="M95.1,63.5c0,0,2,4.2,1.6,4.4c-0.3,0.2-2,0.3-2,0.3l-1.2-3.9C93.5,64.3,94.5,62.3,95.1,63.5"/>
<path class="st58" d="M93.2,66c0,0-1.3,2.6-6.2,1.6c-4-0.8-5.8-3.5-5.8-3.5l3.1-19.9l11.9,1.9L93.2,66z"/>
<path class="st59" d="M101.6,18.4c-4.5-0.2-9-0.2-13.2,1.6c-5.4,2.3-9.3,5.8-13.8,9.1l-0.4,9.3c-0.5,10.3,6.5,18.9,15.5,19.3
	l6.8,0.3c9,0.4,16.6-7.6,17.1-17.9l0.6-14.8C114.3,21.8,108.7,19.5,101.6,18.4"/>
<path class="st75" d="M84.4,60.3c0,0-11.7-3.8-9.7,22c1,13.3-1,35.4-1,35.4l23.5,0.2C97.2,117.8,109.5,59.9,84.4,60.3"/>
<path class="st74" d="M95.6,134.1l2.1-17.3l-24.3-0.9c0,0-2.3,13.5,5.4,16.7C86.4,135.8,95.6,134.1,95.6,134.1"/>
<polygon class="st73" points="73.6,112.9 72.7,117.3 98,118.6 98.1,114.9 "/>
<rect x="75.2" y="112.8" transform="matrix(0.9964 8.523729e-002 -8.523729e-002 0.9964 10.1034 -6.0463)" class="st74" width="1.3" height="4.9"/>
<rect x="80.1" y="113.1" transform="matrix(0.9966 8.198974e-002 -8.198974e-002 0.9966 9.7488 -6.2334)" class="st74" width="1.3" height="4.9"/>
<polygon class="st74" points="94.8,119.1 93.5,119 93.9,114.1 95.2,114.2 "/>
<path class="st76" d="M79.3,60.6l2.2-2.8c5.2-0.4,13.5,3.9,13.5,3.9l-0.3,4.6C94.7,66.3,91.5,60.4,79.3,60.6"/>
<path class="st77" d="M71.6,35.1c-1.2-16.3,11.1-18,11.1-18s6.1-1.2,15.2-0.8c14.6,0.7,21.9,9.9,16.3,15.8
	c-3.4,3.2-8.7,2.5-13.8,3.9c-5.5,1.5-7.4,9-9.2,8.5c-1-0.3-1-2.6-1-2.6s-0.5-2.4-2.4-1.7c-1.9,0.7-3.6,5-0.1,8.1
	c0,0,0.4,8.1-2.6,8.6C81.9,57.4,72.9,53,71.6,35.1"/>
<path class="st74" d="M97.3,119.5c0,0,27.4,7.7,28.3,10.4c0.8,2.7,5.3,41.1,5.3,41.1l-11.7,1.7c0,0-5.8-30.5-5.5-34
	c-3.5-2-22-4.7-22.8-4.5C90.2,134.4,82.4,121,97.3,119.5"/>
<line class="st78" x1="99.3" y1="134.6" x2="102.2" y2="174.5"/>
<line class="st78" x1="72.7" y1="134.6" x2="69.8" y2="174.5"/>
<path class="st55" d="M105.9,143H66.1v-10.5c0,0,25.3,0,33.5,0C109.4,132.4,105.9,143,105.9,143"/>
<path class="st55" d="M66.1,132.7V71.1c0,0,8.1-1.5,8.5,13.2c0.3,10.2,0.4,26.4,0,37.6C74.2,133.3,66.1,132.7,66.1,132.7"/>
<line class="st78" x1="68.1" y1="142.6" x2="65.1" y2="182.5"/>
<line class="st78" x1="104.2" y1="142.6" x2="107.1" y2="182.5"/>
<path class="st55" d="M139.1,99.9c0,1-0.8,1.8-1.8,1.8h-26.6c-1,0-1.8-0.8-1.8-1.8c0-1,0.8-1.8,1.8-1.8h26.6
	C138.3,98.1,139.1,98.9,139.1,99.9"/>
<path class="st55" d="M136.7,101.6c-1-0.3-1.5-1.3-1.2-2.3l8.1-25.3c0.3-1,1.3-1.5,2.3-1.2c1,0.3,1.5,1.3,1.2,2.3l-8.1,25.3
	C138.7,101.4,137.7,101.9,136.7,101.6"/>
<path class="st76" d="M83.2,63.4c0,0-3.7,5.7,1.8,8.7c5.5,2.9,27-5.4,29.6-9.2c2.9-4.2,7.1-16.2,7.5-20.1c0,0-6.8-3.9-7.2-3.5
	c-0.9,1.1-9.4,15.9-9.4,15.9S85.9,60.4,83.2,63.4"/>
<polygon class="st76" points="114.9,38.6 113.5,41.1 121.6,45.9 122.3,42.5 "/>
<path class="st79" d="M254.6,87.6c-2.4-1.7-1.9-4.3-1.9-4.3h-0.6h-0.6h-0.6c0,0,0.5,2.7-1.9,4.3c-1.2,0.9-1.3,2.6-0.6,3
	c0,0-0.8,1.8,0.3,2.4c1.1,0.6-0.3,5.1-0.4,6.8c-0.1,1.7,1.6,2.5,2.6,2.5c0.5,0,0.7,0,0.8,0v0c0,0,0,0,0.1,0c0.1,0,0.1,0,0.1,0v0
	c0.1,0,0.4,0,0.8,0c1-0.1,2.9-0.9,2.8-2.5c-0.1-1.7-1.8-6.2-0.6-6.8c1.1-0.6,0.3-2.4,0.3-2.4C255.9,90.2,255.9,88.4,254.6,87.6"/>
<path class="st80" d="M251.6,102c-0.8-0.1-2.4-0.7-2.4-2.3c0-0.5,0.2-1.3,0.3-2.2c0.4-2.1,0.9-4.3-0.1-4.8c-0.9-0.5-0.2-2.1-0.2-2.1
	l0.1-0.2l-0.2-0.1c-0.2-0.1-0.3-0.4-0.3-0.8c0-0.5,0.2-1.3,0.9-1.8c2-1.4,2.1-3.5,2-4.3h-0.6c0,0.7,0,2.9-2,4.3
	c-0.7,0.5-1,1.3-0.9,1.8c0,0.4,0.1,0.7,0.3,0.8l0.2,0.1l-0.1,0.2c0,0-0.7,1.6,0.2,2.1c0.9,0.5,0.5,2.7,0.1,4.8
	c-0.2,0.9-0.3,1.7-0.4,2.2c-0.1,1.6,1.6,2.2,2.4,2.3l0.8,0.1h0l0.3,0L251.6,102z"/>
<path class="st80" d="M252,102c0.8-0.1,2.5-0.7,2.5-2.3c0-0.5,0.2-1.3,0-2.2c-0.4-2.1-1.3-4.3-0.4-4.8c0.9-0.5,0.7-2.1,0.7-2.1
	l-0.1-0.2l0.2-0.1c0.2-0.1-0.2-0.4-0.1-0.8c0-0.5,0.1-1.3-0.6-1.8c-2-1.4-1.8-3.5-1.8-4.3h0c0,0.7,0,2.9,2,4.3
	c0.7,0.5,1,1.3,0.9,1.8c0,0.4-0.1,0.7-0.3,0.8l-0.2,0.1l0.1,0.2c0,0,0.7,1.6-0.2,2.1c-0.9,0.5-0.5,2.7-0.1,4.8
	c0.2,0.9,0.3,1.7,0.3,2.2c0.1,1.6-1.6,2.2-2.4,2.3l-0.8,0.1h-0.1l-0.3,0L252,102z"/>
<path class="st81" d="M252.9,82.9c0,0.2-0.5,0.4-1.1,0.4c-0.6,0-1.1-0.2-1.1-0.4c0-0.2,0.5-0.4,1.1-0.4
	C252.4,82.5,252.9,82.7,252.9,82.9"/>
<path class="st81" d="M252.9,83.9c0,0.2-0.5,0.4-1.1,0.4c-0.6,0-1.1-0.2-1.1-0.4c0-0.2,0.5-0.4,1.1-0.4
	C252.4,83.5,252.9,83.7,252.9,83.9"/>
<rect x="250.7" y="82.9" class="st81" width="2.1" height="1"/>
<path class="st79" d="M157.8,87.6c-2.4-1.7-1.9-4.3-1.9-4.3h-0.6h-0.6H154c0,0,0.5,2.7-1.9,4.3c-1.2,0.9-1.3,2.6-0.6,3
	c0,0-0.8,1.8,0.3,2.4c1.1,0.6-0.3,5.1-0.4,6.8c-0.1,1.7,1.6,2.5,2.6,2.5c0.4,0,0.7,0,0.8,0v0c0,0,0,0,0.1,0l0.1,0v0
	c0.1,0,0.4,0,0.8,0c1-0.1,2.9-0.9,2.8-2.5c-0.1-1.7-1.8-6.2-0.6-6.8c1.1-0.6,0.3-2.4,0.3-2.4C159,90.2,159,88.4,157.8,87.6"/>
<path class="st80" d="M154.8,102c-0.8-0.1-2.4-0.7-2.4-2.3c0-0.5,0.2-1.3,0.3-2.2c0.4-2.1,0.9-4.3-0.1-4.8c-0.9-0.5-0.2-2.1-0.2-2.1
	l0.1-0.2l-0.2-0.1c-0.2-0.1-0.3-0.4-0.3-0.8c0-0.5,0.2-1.3,0.9-1.8c2-1.4,2.1-3.5,2-4.3h-0.6c0,0.7,0,2.9-2,4.3
	c-0.7,0.5-1,1.3-0.9,1.8c0,0.4,0.1,0.7,0.3,0.8l0.2,0.1l-0.1,0.2c0,0-0.7,1.6,0.2,2.1c0.9,0.5,0.5,2.7,0.1,4.8
	c-0.2,0.9-0.3,1.7-0.4,2.2c0,1.6,1.6,2.2,2.4,2.3l0.8,0.1h0l0.3,0L154.8,102z"/>
<path class="st80" d="M155.1,102c0.8-0.1,2.5-0.7,2.5-2.3c0-0.5,0.2-1.3,0-2.2c-0.4-2.1-1.3-4.3-0.4-4.8c0.9-0.5,0.7-2.1,0.7-2.1
	l-0.1-0.2l0.2-0.1c0.2-0.1-0.2-0.4-0.2-0.8c0-0.5,0.1-1.3-0.6-1.8c-2-1.4-1.8-3.5-1.8-4.3h0c0,0.7,0,2.9,2,4.3
	c0.7,0.5,1,1.3,0.9,1.8c0,0.4-0.1,0.7-0.3,0.8l-0.2,0.1l0.1,0.2c0,0,0.7,1.6-0.2,2.1c-0.9,0.5-0.5,2.7-0.1,4.8
	c0.2,0.9,0.3,1.7,0.4,2.2c0.1,1.6-1.6,2.2-2.4,2.3l-0.8,0.1h-0.1l-0.3,0L155.1,102z"/>
<path class="st81" d="M156,82.9c0,0.2-0.5,0.4-1.1,0.4c-0.6,0-1.1-0.2-1.1-0.4c0-0.2,0.5-0.4,1.1-0.4C155.5,82.5,156,82.7,156,82.9"
	/>
<path class="st81" d="M156,83.9c0,0.2-0.5,0.4-1.1,0.4c-0.6,0-1.1-0.2-1.1-0.4c0-0.2,0.5-0.4,1.1-0.4C155.5,83.5,156,83.7,156,83.9"
	/>
<rect x="153.9" y="82.9" class="st81" width="2.1" height="1"/>
<path class="st79" d="M270.5,87.6c-2.4-1.7-1.9-4.3-1.9-4.3H268h-0.6h-0.6c0,0,0.5,2.7-1.9,4.3c-1.2,0.9-1.3,2.6-0.6,3
	c0,0-0.8,1.8,0.3,2.4c1.1,0.6-0.3,5.1-0.4,6.8c-0.1,1.7,1.6,2.5,2.6,2.5c0.4,0,0.7,0,0.8,0v0c0,0,0,0,0.1,0c0.1,0,0.1,0,0.1,0v0
	c0.1,0,0.4,0,0.8,0c1-0.1,2.9-0.9,2.8-2.5c-0.1-1.7-1.8-6.2-0.6-6.8c1.1-0.6,0.3-2.4,0.3-2.4C271.8,90.2,271.8,88.4,270.5,87.6"/>
<path class="st80" d="M267.5,102c-0.8-0.1-2.4-0.7-2.4-2.3c0-0.5,0.2-1.3,0.3-2.2c0.4-2.1,0.9-4.3-0.1-4.8c-0.9-0.5-0.2-2.1-0.2-2.1
	l0.1-0.2l-0.2-0.1c-0.2-0.1-0.3-0.4-0.3-0.8c0-0.5,0.2-1.3,0.9-1.8c2-1.4,2.1-3.5,2-4.3h-0.6c0,0.7,0,2.9-2,4.3
	c-0.7,0.5-1,1.3-0.9,1.8c0,0.4,0.1,0.7,0.3,0.8l0.2,0.1l-0.1,0.2c0,0-0.7,1.6,0.2,2.1c0.9,0.5,0.5,2.7,0.1,4.8
	c-0.2,0.9-0.3,1.7-0.4,2.2c-0.1,1.6,1.6,2.2,2.4,2.3l0.8,0.1h0.1l0.3,0L267.5,102z"/>
<path class="st80" d="M267.9,102c0.8-0.1,2.5-0.7,2.5-2.3c0-0.5,0.2-1.3,0-2.2c-0.4-2.1-1.3-4.3-0.4-4.8c0.9-0.5,0.7-2.1,0.7-2.1
	l-0.1-0.2l0.2-0.1c0.2-0.1-0.2-0.4-0.1-0.8c0-0.5,0.1-1.3-0.6-1.8c-2-1.4-1.8-3.5-1.8-4.3h0c0,0.7,0,2.9,2,4.3c0.7,0.5,1,1.3,1,1.8
	c0,0.4-0.1,0.7-0.3,0.8l-0.2,0.1l0.1,0.2c0,0,0.7,1.6-0.2,2.1c-0.9,0.5-0.5,2.7-0.1,4.8c0.2,0.9,0.3,1.7,0.4,2.2
	c0.1,1.6-1.6,2.2-2.4,2.3l-0.8,0.1h-0.1l-0.3,0L267.9,102z"/>
<path class="st81" d="M268.8,82.9c0,0.2-0.5,0.4-1.1,0.4c-0.6,0-1.1-0.2-1.1-0.4c0-0.2,0.5-0.4,1.1-0.4
	C268.3,82.5,268.8,82.7,268.8,82.9"/>
<path class="st81" d="M268.8,83.9c0,0.2-0.5,0.4-1.1,0.4c-0.6,0-1.1-0.2-1.1-0.4c0-0.2,0.5-0.4,1.1-0.4
	C268.3,83.5,268.8,83.7,268.8,83.9"/>
<rect x="266.6" y="82.9" class="st81" width="2.1" height="1"/>
<path class="st79" d="M352.5,88.3c-2.4-1.7-1.9-4.3-1.9-4.3h-0.6h-0.6h-0.6c0,0,0.5,2.7-1.9,4.3c-1.2,0.9-1.3,2.6-0.6,3
	c0,0-0.8,1.8,0.3,2.4c1.1,0.6-0.3,5.1-0.4,6.8c-0.1,1.7,1.6,2.5,2.6,2.5c0.4,0,0.7,0,0.8,0.1v0c0,0,0,0,0.1,0c0.1,0,0.1,0,0.1,0v0
	c0.1,0,0.4,0,0.8-0.1c1-0.1,2.9-0.9,2.8-2.5c-0.1-1.7-1.8-6.2-0.6-6.8c1.1-0.6,0.3-2.4,0.3-2.4C353.8,90.8,353.7,89.1,352.5,88.3"/>
<path class="st80" d="M349.5,102.7c-0.8-0.1-2.4-0.7-2.4-2.3c0-0.5,0.2-1.3,0.4-2.2c0.4-2.1,0.9-4.3-0.1-4.8
	c-0.9-0.5-0.2-2.1-0.2-2.1l0.1-0.2L347,91c-0.2-0.1-0.3-0.4-0.3-0.8c0-0.5,0.2-1.3,0.9-1.8c2-1.4,2.1-3.5,2-4.3h-0.6
	c0,0.7,0,2.9-2,4.3c-0.7,0.5-1,1.3-0.9,1.8c0,0.4,0.1,0.7,0.3,0.8l0.2,0.1l-0.1,0.2c0,0-0.7,1.6,0.2,2.1c0.9,0.5,0.5,2.7,0.1,4.8
	c-0.2,0.9-0.3,1.7-0.4,2.2c-0.1,1.6,1.6,2.2,2.4,2.3l0.8,0.1l0.1,0l0.3,0L349.5,102.7z"/>
<path class="st80" d="M349.9,102.7c0.8-0.1,2.5-0.7,2.5-2.3c0-0.5,0.2-1.3,0-2.2c-0.4-2.1-1.3-4.3-0.4-4.8c0.9-0.5,0.7-2.1,0.7-2.1
	l-0.1-0.2l0.2-0.1c0.2-0.1-0.1-0.4-0.1-0.8c0-0.5,0.1-1.3-0.6-1.8c-2-1.4-1.8-3.5-1.8-4.3h0c0,0.7,0,2.9,2,4.3c0.7,0.5,1,1.3,1,1.8
	c0,0.4-0.1,0.7-0.3,0.8l-0.2,0.1l0.1,0.2c0,0,0.7,1.6-0.2,2.1c-0.9,0.5-0.5,2.7-0.1,4.8c0.2,0.9,0.3,1.7,0.4,2.2
	c0.1,1.6-1.6,2.2-2.4,2.3l-0.8,0.1l-0.1,0l-0.3,0L349.9,102.7z"/>
<path class="st81" d="M350.7,83.6c0,0.2-0.5,0.4-1.1,0.4c-0.6,0-1.1-0.2-1.1-0.4c0-0.2,0.5-0.4,1.1-0.4
	C350.2,83.1,350.7,83.3,350.7,83.6"/>
<path class="st81" d="M350.7,84.6c0,0.2-0.5,0.4-1.1,0.4c-0.6,0-1.1-0.2-1.1-0.4c0-0.2,0.5-0.4,1.1-0.4
	C350.2,84.2,350.7,84.4,350.7,84.6"/>
<rect x="348.6" y="83.6" class="st81" width="2.1" height="1"/>
<rect x="102.7" y="110.9" class="st82" width="9.8" height="77.6"/>
<rect x="104.3" y="110.9" class="st52" width="2.5" height="77.6"/>
<rect x="109.5" y="110.9" class="st52" width="2.1" height="77.6"/>
<rect x="392.5" y="110.9" class="st82" width="9.8" height="77.6"/>
<rect x="393.8" y="110.9" class="st52" width="2.5" height="77.6"/>
<rect x="399" y="110.9" class="st52" width="2.1" height="77.6"/>
<rect x="99.4" y="101.7" class="st83" width="305.8" height="11.7"/>
<rect x="99.4" y="101.7" class="st84" width="305.8" height="5.5"/>
<path class="st59" d="M504.6,47.8c0-1.8-4.7,0.4-7.2,1.3c-0.7-0.5-1.9-1-3.1-1.4c-1.5-0.6-4,1.8-5.4,4.4c-0.7,1.3-2.8,1.9-2.8,1.9
	l0.3,0.9l0,0l0.4,1.3l0.9,2.8c0,0,0,0,0,0l0.2,0.6c0,0,1.9-1,3.5-1.2c0.8,0.3,2.2,0.5,5.7-0.6c1.5-0.5,2.6-1.1,2.5-1.9
	c-0.1-0.5,0-0.9-0.6-0.9c1-0.4,1.2-0.8,1-1.6c-0.1-0.3-0.2-0.4-0.5-0.4c0.7-0.4,0.4-1.5-0.4-2.1C502.7,49.5,504.5,48.4,504.6,47.8
	 M494.4,50c0,0,0.1,0,0.2,0.1c-0.4,0.2-0.7,0.3-1,0.4C494,49.8,494.4,50,494.4,50"/>
<path class="st85" d="M453.5,51.7c-3.5-4-6-3.3-11.8-3.3l-8.1-0.1c-6.1,0-11.6,2.8-15.2,7.1c2.8,3.4,4.5,7.8,4.5,12.5l-0.2,32.5
	l29,0.2l-0.2-32.7C451.3,63.1,450.4,55.2,453.5,51.7"/>
<path class="st86" d="M422.6,90.5l0.1,6.5c0,5.4,5.4,9.8,12,9.7l5,0c6.6,0,11.9-4.5,11.8-9.9l-0.1-6.3H422.6z"/>
<path class="st58" d="M442.6,51.7c0,0-1.4,2.5-4.8,2.5c-3.4,0-5.2-2.5-5.2-2.5V31.9h10V51.7z"/>
<rect x="422.7" y="100.1" class="st86" width="12.5" height="71"/>
<rect x="438.7" y="100.2" class="st86" width="12.7" height="70.9"/>
<path class="st55" d="M424.1,172.9c0,1.9,0,3.4,1.5,3.4h6.8c1.5,0,1.6-1.5,1.6-3.4c0-1.9-1.2-3.4-2.8-3.4h-4.3
	C425.3,169.5,424.1,171,424.1,172.9"/>
<path class="st55" d="M440.1,172.9c0,1.9,0,3.4,1.5,3.4h6.8c1.5,0,1.6-1.5,1.6-3.4c0-1.9-1.2-3.4-2.8-3.4h-4.3
	C441.3,169.5,440.1,171,440.1,172.9"/>
<path class="st86" d="M430.4,48c0,0,4.8,27.5,2.8,52.8h-11.8l0.4-36.7l-3.9-8.4C418,55.8,420.7,49.6,430.4,48"/>
<path class="st86" d="M445,48c0,0-4.7,27.3-2.7,52.6L453,101l0.6-36.8l0.7-14.4C454.3,49.8,454.7,49.6,445,48"/>
<path class="st87" d="M425.6,49.3c0,0,3.4,15.2,3.1,17l1.9-0.1l-2.2,1.3l5.1,14.5c0,0-0.4-22.5-3-34.6
	C430.6,47.3,427.2,47.7,425.6,49.3"/>
<path class="st87" d="M449.9,49.3c0,0-3.4,15.2-3.1,17l-1.9-0.1l2.1,1.3l-5.1,14.5c0,0,0.5-22.5,3-34.6
	C444.8,47.3,448.2,47.7,449.9,49.3"/>
<rect x="433.6" y="90.6" class="st55" width="8.2" height="3.1"/>
<rect x="435.3" y="90.2" class="st88" width="4.8" height="3.7"/>
<path class="st87" d="M423.1,83.7l8,0.3c0,0,1.1,11.6-3.9,12.2C422.2,96.8,423.1,83.7,423.1,83.7"/>
<path class="st87" d="M452.6,83.7l-8,0.3c0,0-1.1,11.6,3.9,12.2C453.5,96.8,452.6,83.7,452.6,83.7"/>
<polygon class="st89" points="433.6,93.7 433.5,101.2 422.6,100.9 434,101.9 "/>
<polygon class="st89" points="441.7,93.7 441.8,101.2 452.7,100.9 441.3,101.9 "/>
<path class="st90" d="M437.1,50.4l-1.2,5.3c0,0-4.4-4.9-4.5-5.8c-0.1-0.9-0.2-1.6-0.2-1.6l0.6-2.1L437.1,50.4z"/>
<path class="st90" d="M438.4,50.4l1.2,5.3c0,0,4.4-4.9,4.5-5.8c0.1-0.9,0.2-1.6,0.2-1.6l-0.6-2.1L438.4,50.4z"/>
<path class="st91" d="M437.1,50.4l0,2.7l-0.6-0.1C436.4,53,436.7,51.3,437.1,50.4"/>
<path class="st91" d="M438.4,50.4l0,2.7l0.6,0C439.1,53.1,438.8,51.3,438.4,50.4"/>
<polygon class="st89" points="436.8,51.2 438.6,51.2 439.3,53.8 438.6,55.5 436.9,55.5 436.2,53.6 "/>
<polygon class="st89" points="437.6,82.5 434,77.8 436.9,55.5 438.6,55.5 441.3,77.9 "/>
<path class="st87" d="M418,55.8c0,0-13.6,21.8-7.6,24.8c6,2.9,10.5,3.3,10.5,3.3l4.3-6.1l-6.8-4.1l3.7-8.8
	C422.1,65,422,53.1,418,55.8"/>
<path class="st87" d="M454.4,49.3c0,0,3.3,0.7,4.5,1.4c1.3,0.8,4.4,1.8,4.4,1.8s6.9,2.8,8.7,3c1.8,0.2,4.5-0.3,7.6-1
	c3.1-0.7,5.8-2.2,6.9-2.7l3.7,8.8c0,0-13.7,6.2-19.5,6.1c-5.7-0.1-17.6-3.1-17.6-3.1S452.5,49.7,454.4,49.3"/>
<path class="st59" d="M424.7,78.3c0,0,0.9,0.6,1.7,0.3c0.8-0.3,1.7-1.7,3.5-1.3c1.8,0.4,2.3,0.6,2.3,1.2c0,0.5-1.8,0.5-1.8,0.5
	s3,0.3,2.8,1.5l-0.2,1.2c0,0-0.4,1.6-1,2.2c0,0,0,1.3-1.2,1.6c0,0,0,1.2-1.6,1.1c-1.6-0.1-3.6-0.5-4.3-2.2c-0.2-0.5-3.1-1.8-3.1-1.8
	L424.7,78.3z"/>
<path class="st59" d="M434.7,12.1c-4,0.2-13,2.5-12.8,5.5l0.1,12.5c0,8.1,6.4,14.7,14.1,14.6l5.8-0.1c7.8,0,14-6.7,13.9-14.9
	l-0.1-14.4C450.2,11.6,445.8,11.5,434.7,12.1"/>
<path class="st77" d="M97.9,35.7c0,0-3.2,3.1-3.9,7.6l-3.6,0.3c0,0-1.5-3.2-0.1-6.4C91.7,34,97.9,35.7,97.9,35.7"/>
<path class="st77" d="M83.9,16.9c0,0,11.9-2.3,13.6-2.3c1.6,0-2.7,1.2-2.4,1.2c0.3,0,4.7-0.5,6.1-0.5c1.4,0-0.3,0.6,0,0.7
	c0.3,0.1,5.3-0.3,5.6-0.2c0.3,0.1-1.8,0.9-1.5,1c0.3,0.1,3.1,0.5,3.7,0.6c0.6,0.1-0.5,0.4-0.2,0.6c0.3,0.2,2.7,0.9,4.4,1.9
	c1.7,1,0.1,0.8,0.4,1.1c0.3,0.3,2.8,2.5,3.5,3.4c0.7,0.9-2.9,0.8-2.9,0.8s-28-1.2-29.6-0.9C82.9,24.6,71.6,23.1,83.9,16.9"/>
<path class="st74" d="M429.2,9c0,0,9.5-5.1,18.5-2.3c9,2.8,15.5,7.9,6.8,10.1c-8.6,2.2-20,2.8-22.4,2.8c-2.4,0.1-1.9,2.8-2.5,3.2
	c-0.6,0.4-0.7,4.4-0.7,4.4l-0.1,4.1h-2.3c0,0,0.4-4.1-1.9-3.6c-2.3,0.6-2.1,6.5,0.4,7c2.2,0.4,1.7,6.3,1.7,6.3s-6.1-0.9-6.9-14.9
	c-0.8-14,2.4-14.5,5.7-14.2C425.5,12,426.4,10.1,429.2,9"/>
<path class="st69" d="M329.1,35.6l0.8,7.5c0,0,0.9,8.2-1,10.4c-6.3,7-12.6,10.1-12.6,10.1s3.6,16.9,4.1,16.7
	c0.5-0.2,15-10.1,19.3-27.4c1.1-4.4-1.4-11.8-2.5-17.6L329.1,35.6z"/>
<path class="st69" d="M292.2,63.9c0,0-4.4-1.3-6.5-1.9c-2-0.6-3.8-7.4-5.2-9.5c-1.5-2-1.9-9.2-1.9-9.2l2.3-15l-8.9-1
	c0,0-5.2,18-3.2,25.9c4.2,17.3,18.7,27.2,19.3,27.4C288.6,80.8,292.2,63.9,292.2,63.9"/>
<path class="st59" d="M330.6,35.7c0,0-1-1.7-1.7-2.4c-0.7-0.7-1.8-0.9-2.4-1.9c-0.6-0.9-0.9-3.1-0.4-3.3c0.8-0.3,1.1,0.3,1.4,1.7
	c0.3,1.3-1.8-3-0.5-3.6c1.4-0.6,1.3,0.4,1.3,0.4s-0.3-0.7,0.4-0.9c1.2-0.3,1.5,0.5,1.5,0.5s-0.4-0.6,0.6-0.8
	c1.2-0.3,1.6,0.9,1.6,0.9s-0.9-1.2,0.8-0.9c1.6,0.2,2.9,5.8,2.4,6.9c-0.5,1.2,0.1,3.3,0.1,3.3L330.6,35.7z"/>
<path class="st92" d="M580.5,22.8l-0.8,7.5c0,0-0.9,8.2,1,10.4c8,9.6,12.8,9.1,12.8,9.1s-3.7,17.9-4.3,17.8
	c-0.6-0.1-15-10-19.3-27.4c-1.1-4.3,1.4-11.8,2.5-17.6L580.5,22.8z"/>
<path class="st59" d="M579,22.9c0,0,1-1.7,1.7-2.4c0.7-0.7,1.8-0.9,2.4-1.9c0.6-0.9,0.9-3.1,0.4-3.3c-0.8-0.3-1,0.3-1.4,1.7
	c-0.4,1.3,1.8-3,0.5-3.6c-1.4-0.6-1.3,0.4-1.3,0.4s0.3-0.7-0.4-0.9c-1.2-0.3-1.5,0.5-1.5,0.5s0.4-0.5-0.6-0.8
	c-1.3-0.3-1.6,0.9-1.6,0.9s0.9-1.2-0.8-0.9c-1.6,0.3-2.9,5.8-2.4,6.9c0.5,1.2-0.1,3.3-0.1,3.3L579,22.9z"/>
<path class="st59" d="M278.9,28.1c0,0,0.6-1.6,1.3-2.3c0.7-0.7,1.9-1,2.5-2c0.6-1,1-3.2,0.4-3.4c-0.9-0.3-1.1,0.3-1.5,1.8
	c-0.4,1.4,1.8-3.2,0.5-3.7c-1.5-0.6-1.3,0.4-1.3,0.4s0.3-0.7-0.4-0.9c-1.3-0.3-1.5,0.5-1.5,0.5s0.5-0.6-0.6-0.8
	c-1.3-0.3-1.7,0.9-1.7,0.9s1-1.2-0.8-1c-1.6,0.3-3,6-2.5,7.2c0.5,1.2,0.2,2.8,0.2,2.8L278.9,28.1z"/>
<path class="st62" d="M197.4,63.9c0,0-4.4-1.3-6.5-1.9c-2-0.6-3.8-7.4-5.2-9.5c-1.5-2-1.9-9.2-1.9-9.2l2.3-15l-8.9-1
	c0,0-5.1,18-3.2,25.9c4.2,17.3,18.7,27.2,19.3,27.4C193.8,80.8,197.4,63.9,197.4,63.9"/>
<path class="st59" d="M184.1,28.1c0,0,0.7-1.8,1.4-2.5c0.7-0.8,2-1.1,2.7-2.1c0.7-1.1,1-3.5,0.4-3.7c-0.9-0.3-1.2,0.3-1.6,1.9
	c-0.4,1.5,2-3.4,0.6-4c-1.6-0.7-1.4,0.4-1.4,0.4s0.3-0.8-0.5-1c-1.4-0.3-1.6,0.6-1.6,0.6s0.5-0.6-0.6-0.9c-1.4-0.3-1.8,1-1.8,1
	s1.1-1.3-0.9-1c-1.8,0.3-3.3,6.4-2.7,7.7c0.6,1.3,0.2,3.1,0.2,3.1L184.1,28.1z"/>
<path class="st59" d="M116,39.2c0,0,1.2-2.2,1.3-3.2c0-1-0.6-2.1-0.3-3.3c0.3-1.2,1.8-3.1,2.3-2.8c0.8,0.4,0.5,1.1-0.3,2.4
	c-0.8,1.3,1.1-3.6,2.4-3.1c1.5,0.7,0.6,1.3,0.6,1.3s0.3-0.8,1-0.3c1.1,0.7,0.7,1.5,0.7,1.5s0.1-0.8,1-0.2c1.2,0.8,0.5,1.9,0.5,1.9
	s0.2-1.6,1.3-0.1c1,1.4-2.4,6.6-3.6,7c-1.3,0.5-1.7,1.5-1.7,1.5L116,39.2z"/>
<path class="st62" d="M223.5,63.9c0,0,4.4-1.3,6.5-1.9c2-0.6,3.8-7.4,5.2-9.5c1.5-2,1.9-9.2,1.9-9.2l-2.3-15l8.9-1
	c0,0,5.1,18,3.2,25.9c-4.2,17.3-18.7,27.2-19.3,27.4C227.1,80.8,223.5,63.9,223.5,63.9"/>
<path class="st59" d="M236.3,28.3c0,0-0.7-1.8-1.3-2.5c-0.7-0.7-1.9-1-2.6-2c-0.6-1-1-3.3-0.4-3.5c0.9-0.3,1.1,0.3,1.5,1.8
	c0.4,1.4-1.9-3.2-0.5-3.8c1.5-0.6,1.3,0.4,1.3,0.4s-0.3-0.7,0.5-0.9c1.3-0.3,1.5,0.5,1.5,0.5s-0.5-0.6,0.6-0.8
	c1.3-0.3,1.7,0.9,1.7,0.9s-1-1.3,0.8-1c1.7,0.3,3.1,6.1,2.5,7.3c-0.5,1.2-0.2,2.9-0.2,2.9L236.3,28.3z"/>
<path class="st55" d="M232,99.2c0,1.8-1.5,3.3-3.3,3.3h-40.6c-1.8,0-3.3-1.5-3.3-3.3v-24c0-1.8,1.5-3.3,3.3-3.3h40.6
	c1.8,0,3.3,1.5,3.3,3.3V99.2z"/>
<path class="st55" d="M328.2,99.2c0,1.8-1.5,3.3-3.3,3.3h-40.6c-1.8,0-3.3-1.5-3.3-3.3v-24c0-1.8,1.5-3.3,3.3-3.3h40.6
	c1.8,0,3.3,1.5,3.3,3.3V99.2z"/>
<path class="st69" d="M292.5,23.7c0,0,4.5-3.5,9.6-4c5.1-0.5,1.7,2,1.9,2.4c0.2,0.4,6.2-1.3,6.9-1.5c0.6-0.1-3.1,3-3.1,3l4.2-0.8
	c0,0-2.4,1.6-0.7,1.7c1.7,0.1,2.8-0.3,2.8-0.1c0,0.3-2.2,0.9,0.3,0.8c2.5-0.1,2.9-0.1,2.9-0.1l0.5,2.3c0,0,0.8,1.9,1,2.7
	c0.3,0.8-1,1.7-3.2,1.3c-2.2-0.3-0.7,1-0.7,1s-7.2,0.1-10.2-0.4c-3-0.5-1.7,1-1.7,1s-2.1-0.2-3-0.3c-0.9-0.1-0.1,1.3-1,1.3
	c-1,0-2.7-0.1-3.5-0.1c-0.8,0-2.9,2.1-3.3,2.6c-0.4,0.5,0,8,0,8l-2.2,0.4c0,0-0.9-4.6-2.7-2.5c-1.2,1.5,3,12.4,1.7,11
	c0,0-5.2-4.6-4.5-14.5c0.4-6,1-8.3,1.9-8.8c0.8-0.5,0.2-0.3,0.2-0.3s4.6-6,6.3-7.8C294.4,20.3,292.5,23.7,292.5,23.7"/>
<path class="st69" d="M202.1,22.8c0,0,5.3-5.6,10.9-5.5c5.6,0.1,5.1,3.2,6.7,3.5c1.6,0.3,4.6,2.7,4.5,3.1c-0.1,0.4,2.4,1.1,2.9,2.1
	c0.5,1,3.7,4.8,2.4,11.5c-0.5,2.3-3.3,7.3-3.3,7.3l-2.9,0.1c0,0,0.7-9.7-3.3-10.6c-4-0.9-9.9,0.6-14.3-0.9c-4.4-1.4-6.9-0.1-7.6,1.6
	c-1.3,3.3-0.2,6.8-0.3,9.2l-2.7-0.4c0,0-2.6-7.6-2.4-10.7C192.9,28.8,197.1,22.5,202.1,22.8"/>
<path class="st59" d="M227.7,42.9c0,0,2.4-1.5,1.3,3.5c-1.1,4.9-2.8,2.8-2.8,2.8S224,43.6,227.7,42.9"/>
<path class="st59" d="M193.9,42.3c0,0-2.7-0.8-1.6,4.1c1.1,4.9,2.8,2.8,2.8,2.8S197.7,42.9,193.9,42.3"/>
<path class="st59" d="M289.5,44.2c0,0-0.6-4-2.9-2.4c-2.3,1.6,0,8,1.8,7C290.2,47.8,289.5,44.2,289.5,44.2"/>
<path class="st59" d="M426.5,30.5c0,0-0.7-4.2-3.1-2.5c-2.4,1.7,0,8.4,1.9,7.3C427.2,34.2,426.5,30.5,426.5,30.5"/>
<path class="st93" d="M620.9,52.6c-3.5-4-6-3.3-11.8-3.3l-8.1-0.1c-6.1,0-11.6,2.8-15.2,7.1c2.8,3.4,4.5,7.8,4.5,12.5l-0.2,32.5
	l29,0.2l-0.2-32.7C618.7,64,617.9,56.1,620.9,52.6"/>
<path class="st94" d="M590,91.4l0.1,6.5c0,5.4,5.4,9.8,12,9.7l5,0c6.6,0,11.9-4.5,11.8-9.9l-0.1-6.3H590z"/>
<path class="st58" d="M610,52.6c0,0-1.4,2.5-4.8,2.5c-3.4,0-5.2-2.5-5.2-2.5V32.8h10V52.6z"/>
<rect x="590.1" y="101" class="st94" width="12.5" height="71"/>
<rect x="606.1" y="101.1" class="st94" width="12.7" height="70.9"/>
<path class="st55" d="M591.5,173.7c0,1.9,0,3.4,1.5,3.4h6.8c1.5,0,1.6-1.5,1.6-3.4c0-1.9-1.2-3.4-2.8-3.4h-4.3
	C592.7,170.4,591.5,171.9,591.5,173.7"/>
<path class="st92" d="M597.9,48.9c0,0,4.8,27.5,2.8,52.8h-11.8l0.4-36.7l-3.9-8.4C585.4,56.7,588.1,50.5,597.9,48.9"/>
<path class="st92" d="M593,50.2c0,0,3.4,15.2,3.1,17l1.9-0.1l-2.1,1.3l5.1,14.5c0,0-0.5-22.5-3-34.6C598.1,48.2,594.6,48.6,593,50.2
	"/>
<rect x="601" y="91.4" class="st55" width="8.2" height="3.1"/>
<rect x="602.7" y="91.1" class="st88" width="4.8" height="3.7"/>
<path class="st92" d="M590.5,84.6l8,0.3c0,0,1.1,11.6-3.9,12.2C589.6,97.6,590.5,84.6,590.5,84.6"/>
<polygon class="st95" points="601,94.5 600.9,102.1 590,101.7 601.4,102.8 "/>
<path class="st96" d="M604.5,51.2l-1.2,5.3c0,0-4.4-4.9-4.6-5.8c-0.1-0.9-0.2-1.6-0.2-1.6l0.7-2.1L604.5,51.2z"/>
<path class="st96" d="M605.8,51.2l1.2,5.3c0,0,4.4-4.9,4.5-5.8c0.1-0.9,0.2-1.6,0.2-1.6l-0.6-2.1L605.8,51.2z"/>
<path class="st91" d="M604.5,51.2l0,2.7l-0.6-0.1C603.8,53.9,604.1,52.2,604.5,51.2"/>
<path class="st91" d="M605.8,51.2l0,2.7l0.6,0C606.5,53.9,606.2,52.2,605.8,51.2"/>
<polygon class="st97" points="604.2,52.1 606.1,52.1 606.7,54.7 606.1,56.3 604.3,56.3 603.7,54.5 "/>
<polygon class="st89" points="605.1,83.3 601.4,78.7 604.3,56.3 606.1,56.3 608.7,78.7 "/>
<path class="st59" d="M609,14c4,0.2,13,2.5,12.9,5.5L621.7,32c0,8.1-6.4,14.7-14.1,14.6l-5.8-0.1c-7.7,0-14-6.7-13.9-14.9l0.1-14.4
	C593.5,13.5,597.9,13.4,609,14"/>
<path class="st94" d="M612.9,48.8c0,0-4.7,27.4-2.7,52.9l10.8,0.3l0.6-37l0.7-14.5C622.2,50.6,622.7,50.4,612.9,48.8"/>
<path class="st92" d="M617.8,50.1c0,0-3.4,15.3-3.2,17.1l-2-0.1l2.2,1.3l-5.2,14.5c0,0,0.5-22.6,3-34.8
	C612.7,48.1,616.1,48.5,617.8,50.1"/>
<path class="st92" d="M620.5,84.7l-8,0.3c0,0-1.1,11.7,3.9,12.3C621.4,97.8,620.5,84.7,620.5,84.7"/>
<path class="st92" d="M622.1,50.6c0,0,14.8,23.7,8.2,26.8c-6.5,3.2-11.4,3.6-11.4,3.6l-4.6-6.6l7.4-4.4l-4-9.5
	C617.6,60.5,617.7,47.6,622.1,50.6"/>
<path class="st98" d="M614.5,10.8c0,0-9.5-5.1-18.5-2.3c-9,2.8-15.5,7.9-6.8,10.1c8.6,2.2,20,2.8,22.4,2.8c3.3,0,3.2,7.6,3.2,7.6
	l0.1,4.2h2.4c0,0-0.4-4.2,1.9-3.6c2.3,0.6,2.1,6.5-0.4,7c-2.2,0.4-1.7,6.3-1.7,6.3s6.1-0.9,6.9-14.9c0.8-14-2.4-14.5-5.7-14.2
	C618.1,13.9,617.2,12,614.5,10.8"/>
<path class="st59" d="M615.1,75.6c0,0-1,0.6-1.9,0.3c-0.9-0.3-1.9-1.8-3.8-1.4c-1.9,0.4-2.5,0.7-2.5,1.3c0,0.6,1.9,0.6,1.9,0.6
	s-3.3,0.3-3.1,1.6l0.2,1.2c0,0,0.4,1.7,1.1,2.4c0,0,0,1.4,1.2,1.7c0,0,0,1.2,1.7,1.1c1.7-0.1,3.9-0.5,4.6-2.4
	c0.2-0.6,3.4-1.9,3.4-1.9L615.1,75.6z"/>
<path class="st98" d="M618.1,13.9c0,0-3.2-4.9-5.4-5.7c-2.3-0.8-1.3,0.6-1.3,0.6s-1.7-1.7-2.8-1.9c-1.2-0.2-0.7,0.9-0.7,0.9
	s-1.8-0.5-3.1-0.7c-1.4-0.1-1.2,0.6-1.2,0.6s-4.2-0.5-4.8-0.4c-0.6,0.1-0.2,1.5-0.2,1.5l-1.2,0.8c0,0,18.1,8.1,20.9,4.4"/>
<path class="st98" d="M610.4,21.3c0,0-5.8,1.5-8.9,0.9c-3.1-0.7-0.2-1.1-0.2-1.1s-4.4,1.2-5.8,0.1c-1.4-1.1,0-1.4,0-1.4
	s-4.5,0.8-5.4,0c-0.9-0.8-0.5-1.3-0.5-1.3s-1.8,0.9-2.4,0.5c-0.7-0.4,0.8-1.6,2.3-1.9C590.9,16.8,617.1,17.1,610.4,21.3"/>
<path class="st38" d="M525.7,31.4l-21.4,8c0,5.5,0.8,10.3,2,14.7c1.2,4.1,2.8,7.7,4.6,10.9c6.3,11,14.9,15.9,14.9,15.9
	s10.9-6.3,17.2-20.5c1.6-3.6,2.9-7.7,3.6-12.3c0.4-2.7,0.7-5.6,0.7-8.6L525.7,31.4z"/>
<polygon points="542.4,61.6 512.9,68.3 509,61.1 506.2,53.8 546.9,44.7 545.4,53.1 "/>
</svg>
