<svg id="Layer_1" xmlns="http://www.w3.org/2000/svg" viewBox="0 0 655.7 199.2"><style>.st0{fill:#00a7a1}.st1{fill:none;stroke:#babcbe;stroke-miterlimit:10}.st2{fill:#f1f1f1}.st3{opacity:.9;fill:#f4fafc}.st4,.st5{fill:#484359}.st5{stroke:#b6b5bd;stroke-linecap:round}.st6{fill:#333}.st7{fill:#f2f2f2}.st8{fill:none;stroke:#676767;stroke-miterlimit:10}.st9{fill:url(#SVGID_1_)}.st10{opacity:.6;fill:#fff;stroke:#bee0dd}.st11{fill:none;stroke:#000;stroke-miterlimit:10}.st12{fill:none;stroke:#221f1f}.st13,.st14{fill:none;stroke:#d0d1d2}.st14{stroke:#231f20}.st15{fill:#231f20}.st16{opacity:.9;fill:url(#SVGID_2_)}.st17{fill:#cbcaca}.st18{fill:#1a1a1a}.st19{opacity:.3;fill:#fff}.st20{fill:#fff;stroke:#ecdad3}.st21{fill:url(#SVGID_3_)}.st22{opacity:.2}.st23{fill:#fff}.st24{fill:#38334a}.st25,.st26{fill:none;stroke:#38334a}.st26{stroke:#b6b5bd}.st27{fill:#6d697a}.st28{opacity:.8}.st29{fill:none;stroke:#fff;stroke-width:5;stroke-linecap:round;stroke-linejoin:round}.st30{fill:#ebe6e5;stroke:#eceae5;stroke-miterlimit:10}.st31{opacity:.9}.st32{fill:none;stroke:#fff;stroke-width:2;stroke-linecap:round;stroke-linejoin:round}.st33,.st34{fill:#ebf7fd;stroke:#eceae5;stroke-miterlimit:10}.st34{fill:#d0d1d2;stroke:#fff}.st35{opacity:.2;fill:#e4e4e3}.st36{opacity:.6;fill:#69bbb6}.st37{fill:none;stroke:#ee5345;stroke-miterlimit:10}.st38{fill:#ee5345}.st39{fill:#babcbe}.st40{fill:#e0e0e0}.st41{fill:#ef6541}.st42{fill:#8e8d8d}.st43{fill:#59595c}.st44{fill:#f1f2ee}.st45{fill:#919395}.st46{fill:none;stroke:#fdeb98;stroke-miterlimit:10}.st47,.st48{fill-rule:evenodd;clip-rule:evenodd;fill:#211f1f}.st48{fill:#ee5345}.st49{opacity:.3}.st50,.st51{opacity:.7;fill:#69bbb6}.st51{fill:#5c8b88}.st52{fill:#d1d2d2}.st53{fill:#5a595c}.st54{fill:#e5e5e4}.st55{fill:#211f1f}.st56{fill:#bfbfbf}.st57{fill:#e6d6bf}.st58{fill:#cf9d76}.st59{fill:#ddb089}.st60{fill:none;stroke:#211f1f;stroke-width:.437;stroke-miterlimit:10}.st61{fill:#7e808f}.st62{fill:#8e929e}.st63{fill:none;stroke:#e7cfa5;stroke-width:.13;stroke-miterlimit:10}.st64{fill:#686c7a}.st65{fill:#c7c7c7}.st66{fill:#d2d2d2}.st67{fill:#3f5554}.st68{fill:#595c62}.st69{fill:#61636a}.st70{fill:#505157}.st71{fill:#f0e3d1}.st72{fill:#cab194}.st73{fill:#3c2418}.st74{fill:#6d6e71}.st75{fill:#dee8e6}.st76{fill:#ecf2f0}.st77{fill:#a77d51}.st78{fill:none;stroke:#211f1f;stroke-width:.48;stroke-miterlimit:10}.st79{fill:#b8dae6}.st80{fill:#d3e7ef}.st81{fill:#28a6de}.st82{fill:#bcbcbe}.st83{fill:#addff2}.st84{fill:#cbeaf6}.st85{fill:#92a2a5}.st86{fill:#56696f}.st87{fill:#5c7075}.st88{fill:none;stroke:#e7cfa5;stroke-width:.116;stroke-miterlimit:10}.st89{fill:#3e5156}.st90{fill:#a2b0b4}.st91{fill:#bcbbbe}.st92{fill:#776f5c}.st93{fill:#949fa7}.st94{fill:#6e6656}.st95{fill:#564d3d}.st96{fill:#a4aeb4}.st97{fill:#3d4c55}.st98{fill:#c1966b}.st99{stroke:#231f20}.st100,.st101,.st99{fill:none;stroke-miterlimit:10}.st100{stroke-width:2;stroke:#babcbe}.st101{stroke:#e6e6e6}.st102{fill:#f05b27}.st103{opacity:.7;fill:#fff;stroke:#d0d1d2;stroke-miterlimit:10}</style><path class="st50" d="M0 179.5c0-10.9 146.8-19.7 327.8-19.7 181.1 0 327.8 8.8 327.8 19.7M655.7 179.5c0 10.9-146.8 19.7-327.8 19.7C146.8 199.2 0 190.4 0 179.5"/><path class="st51" d="M362.8 179.5c0 2.6-15.6 4.7-34.9 4.7-19.3 0-34.9-2.1-34.9-4.7s15.6-4.7 34.9-4.7c19.2 0 34.9 2.1 34.9 4.7"/><path class="st52" d="M567.8 11.2c6 .6 1.1 30.9 3.6 41.3 1.5 6 7.4 6 7.4 6s-35.6 10.2-64.5 2.4c-28.8-7.9-16.8-30.7-16.8-30.7l70.3-19z"/><path class="st53" d="M535.9 34.1h-6.3l-45.1 141.8h6.3z"/><path class="st53" d="M520.4 34.1h6.3l45.1 141.8h-6.3z"/><path class="st53" d="M488.5 21h80.2v68.1h-80.2z"/><path class="st54" d="M492 24.4h73.1v62.1H492z"/><path class="st55" d="M487.8 87.2h81.8v2h-81.8z"/><path class="st2" d="M565.1 23.4s7-4.3 3-12.4l-75.7 4.3s-5.3 3.7-.4 8.1h73.1z"/><path class="st55" d="M187.6 63.3h45.3v61.4h-45.3z"/><path class="st56" d="M231.4 70.2c-4-4.5-9.8-7.4-16.2-7.4l-9.1-.1c-6.9-.1-13 3.1-17.1 8 3.2 3.8 5.1 8.7 5 14.1l-.3 36.4 32.5.2-.3-36.7c0-5.5 2.1-10.6 5.5-14.5"/><path class="st55" d="M279.5 63.3h45.3v61.4h-45.3z"/><path class="st57" d="M323.3 70.2c-4-4.5-9.8-7.4-16.2-7.4l-9.1-.1c-6.9-.1-13 3.1-17.1 8 3.2 3.8 5 8.7 5 14.1l-.3 36.4 32.5.2-.3-36.7c0-5.5 2.1-10.6 5.5-14.5"/><path class="st58" d="M307.6 64.2s-1.5 2.2-5 2.2-5.4-2.2-5.4-2.2V46.3h10.4v17.9z"/><path class="st59" d="M287.8 37.6c-.3.9-.8 1.6-1.3 2.1v5.4c.1 7.7 5.9 13.9 13 13.8h5.4c7.1 0 12.9-6.3 12.8-14l-.1-14c-7.5-5.2-26.6-1.7-29.8 6.7"/><path class="st58" d="M216.2 64s-1.5 2.2-5.2 2.2c-3.6 0-5.5-2.2-5.5-2.2V46.2h10.7V64z"/><path class="st59" d="M208.2 28.8c-2 0-13.6-.3-13.7 2.8v.4l.1 12.7c.1 8 6.1 14.4 13.4 14.3h5.5c7.4 0 13.3-6.6 13.2-14.5l-.1-9.7c-4.9-5.4-11.4-6.1-18.4-6"/><path class="st60" d="M226.9 126.5l2.7 40.2M193.6 126.5l-2.7 40.2"/><path class="st55" d="M187.6 124.3h45.3v9.5h-45.3z"/><path class="st61" d="M193.7 109.9l.1 7.3c0 6.1 6.1 10.9 13.5 10.9h5.6c7.4 0 13.3-5 13.3-11.1l-.1-7.1h-32.4z"/><path class="st61" d="M193.8 120.7h14v47.7h-14zM211.8 120.8h14.3v47.6h-14.3z"/><path class="st55" d="M195.4 170.4c0 2.1 0 3.8 1.7 3.8h7.6c1.7 0 1.8-1.7 1.8-3.8 0-2.1-1.4-3.8-3.1-3.8h-4.8c-1.8 0-3.2 1.7-3.2 3.8M213.3 170.4c0 2.1 0 3.8 1.7 3.8h7.6c1.7 0 1.8-1.7 1.8-3.8 0-2.1-1.4-3.8-3.1-3.8h-4.9c-1.7 0-3.1 1.7-3.1 3.8"/><path class="st61" d="M202.5 62.3s5.4 30.8 3.2 59.2h-13.2l.4-41.1-4.4-9.4s3.1-7 14-8.7M218.8 62.3s-5.3 30.6-3.1 59l12 .3.7-41.2 4.4-9.4s-3.1-7-14-8.7"/><path class="st62" d="M197.1 63.7s3.8 17.1 3.5 19l2.2-.1-2.4 1.4 5.8 16.2s-.5-25.2-3.3-38.8c-.1.1-4 .6-5.8 2.3M224.3 63.7s-3.8 17.1-3.5 19l-2.2-.1L221 84l-5.8 16.2s.5-25.2 3.3-38.8c.1.1 3.9.6 5.8 2.3"/><path class="st55" d="M206 110h9.2v3.5H206z"/><path class="st63" d="M208 109.6h5.4v4.2H208z"/><path class="st62" d="M194.2 102.3l9 .3s1.2 13-4.4 13.7c-5.5.6-4.6-14-4.6-14M227.4 102.3l-9 .3s-1.2 13 4.4 13.7c5.5.6 4.6-14 4.6-14"/><path class="st64" d="M206 113.5l-.1 8.5-12.1-.5 12.7 1.2zM215.2 113.5l.1 8.5 12.2-.5-12.8 1.2z"/><path class="st65" d="M209.9 64.9l-1.4 5.9s-4.9-5.5-5.1-6.5c-.1-1-.2-1.7-.2-1.7l.7-2.3 6 4.6zM211.5 64.9l1.4 5.9s4.9-5.5 5.1-6.5c.1-1 .2-1.7.2-1.7l-.7-2.3-6 4.6z"/><path class="st66" d="M209.9 64.9v3l-.7-.1s.4-1.8.7-2.9M211.5 64.9V68h.7c0-.1-.4-2-.7-3.1"/><path class="st67" d="M209.6 65.9h2.1l.8 2.9-.8 1.8h-1.9l-.8-2z"/><path class="st67" d="M210.6 100.9l-4.1-5.2 3.3-25.1h1.9l3 25.1z"/><path class="st60" d="M189.4 133.8l-2.7 40.2M231.3 133.8L234 174"/><path class="st62" d="M213.6 127c-.4.3 3-3.8 6.2-3.3s5.5 2.5 5.3 21.5c0 0-1.8-11.3-4.5-12.7-2.7-1.3-2.7-5.3-3.8-3.7-1.2 1.7-.8-1-.8-1s-.7-1.8-2.4-.8M205.6 127c.4.3-3-3.8-6.2-3.3s-5.5 2.5-5.3 21.5c0 0 1.8-11.3 4.5-12.7 2.7-1.3 2.7-5.3 3.8-3.7 1.2 1.7.8-1 .8-1s.7-1.8 2.4-.8"/><path class="st60" d="M318.8 126.5l2.7 40.2M285.5 126.5l-2.6 40.2"/><path class="st55" d="M279.5 124.3h45.3v9.5h-45.3z"/><path class="st68" d="M285.6 109.9l.1 7.3c.1 6.1 6.1 10.9 13.5 10.9h5.6c7.4 0 13.3-5 13.3-11.1l-.1-7.1h-32.4z"/><path class="st68" d="M285.7 120.7h14v47.7h-14zM303.7 120.8H318v47.6h-14.3z"/><path class="st55" d="M287.3 170.4c0 2.1 0 3.8 1.7 3.8h7.6c1.7 0 1.8-1.7 1.8-3.8 0-2.1-1.4-3.8-3.1-3.8h-4.8c-1.8 0-3.2 1.7-3.2 3.8M305.3 170.4c0 2.1 0 3.8 1.7 3.8h7.6c1.7 0 1.8-1.7 1.8-3.8 0-2.1-1.4-3.8-3.1-3.8h-4.8c-1.8 0-3.2 1.7-3.2 3.8"/><path class="st68" d="M294.5 62.3s5.4 30.8 3.2 59.2h-13.2l.4-41.1-4.4-9.4s3-7 14-8.7M310.7 62.3s-5.2 30.6-3.1 59l12 .3.6-41.2 4.4-9.4c.1 0-2.9-7-13.9-8.7"/><path class="st69" d="M289 63.7s3.8 17.1 3.5 19l2.2-.1-2.4 1.4 5.8 16.2s-.5-25.2-3.4-38.8c0 .1-3.8.6-5.7 2.3M316.2 63.7s-3.8 17.1-3.5 19l-2.2-.1L313 84l-5.8 16.2s.5-25.2 3.3-38.8c.1.1 3.9.6 5.7 2.3"/><path class="st55" d="M298 110h9.2v3.5H298z"/><path class="st63" d="M299.9 109.6h5.4v4.2h-5.4z"/><path class="st69" d="M286.2 102.3l9 .3s1.2 13-4.4 13.7c-5.6.6-4.6-14-4.6-14M319.3 102.3l-9 .3s-1.2 13 4.4 13.7c5.6.6 4.6-14 4.6-14"/><path class="st70" d="M298 113.5l-.1 8.5-12.2-.5 12.8 1.2zM307.1 113.5l.1 8.5 12.2-.5-12.8 1.2z"/><path class="st71" d="M301.9 64.9l-1.4 5.9s-4.9-5.5-5.1-6.5c-.1-1-.2-1.7-.2-1.7l.7-2.3 6 4.6zM303.4 64.9l1.4 5.9s4.9-5.5 5.1-6.5c.1-1 .2-1.7.2-1.7l-.7-2.3-6 4.6z"/><path class="st72" d="M301.9 64.9v3l-.7-.1s.3-1.8.7-2.9M303.4 64.9V68h.7c0-.1-.3-2-.7-3.1"/><path class="st67" d="M301.6 65.9h2.1l.7 2.9-.7 1.8h-2l-.7-2z"/><path class="st67" d="M302.5 100.9l-4-5.2 3.2-25.1h2l2.9 25.1z"/><path class="st60" d="M281.3 133.8l-2.7 40.2M323.3 133.8l2.6 40.2"/><path class="st69" d="M305.6 127c-.4.3 3-3.8 6.2-3.3s5.5 2.5 5.3 21.5c0 0-1.8-11.3-4.5-12.7-2.7-1.3-2.7-5.3-3.8-3.7-1.2 1.7-.8-1-.8-1s-.8-1.8-2.4-.8M297.6 127c.4.3-3-3.8-6.2-3.3s-5.5 2.5-5.3 21.5c0 0 1.8-11.3 4.5-12.7 2.7-1.3 2.7-5.3 3.8-3.7 1.2 1.7.8-1 .8-1s.7-1.8 2.4-.8"/><path class="st73" d="M128.8 161.9s-1.5 9 3.6 11.4c5.1 2.4 9.1 2 8.1 4.8 0 0 .1 3.5-10.7 2.2 0 0-7.5-.6-9.3-2.1-1.4-1.3.4-11.3 1.7-14.2-.1 0 4.5-2.7 6.6-2.1"/><path class="st74" d="M96.7 67.4s6.2 13.4 5.3 22.8l-1.7 1.7-2.3-2.4s1.5-8.4-2.8-21.5l1.5-.6z"/><path class="st74" d="M95.1 63.5s2 4.2 1.6 4.4c-.3.2-2 .3-2 .3l-1.2-3.9s1-2 1.6-.8"/><path class="st58" d="M93.2 66s-1.3 2.6-6.2 1.6c-4-.8-5.8-3.5-5.8-3.5l3.1-19.9 11.9 1.9-3 19.9z"/><path class="st59" d="M101.6 18.4c-4.5-.2-9-.2-13.2 1.6-5.4 2.3-9.3 5.8-13.8 9.1l-.4 9.3c-.5 10.3 6.5 18.9 15.5 19.3l6.8.3c9 .4 16.6-7.6 17.1-17.9l.6-14.8c.1-3.5-5.5-5.8-12.6-6.9"/><path class="st75" d="M84.4 60.3s-11.7-3.8-9.7 22c1 13.3-1 35.4-1 35.4l23.5.2c0-.1 12.3-58-12.8-57.6"/><path class="st74" d="M95.6 134.1l2.1-17.3-24.3-.9s-2.3 13.5 5.4 16.7c7.6 3.2 16.8 1.5 16.8 1.5"/><path class="st73" d="M73.6 112.9l-.9 4.4 25.3 1.3.1-3.7z"/><path transform="rotate(4.89 75.861 115.298) scale(1.00004)" class="st74" d="M75.2 112.8h1.3v4.9h-1.3z"/><path transform="matrix(.9966 .08199 -.08199 .9966 9.749 -6.233)" class="st74" d="M80.1 113.1h1.3v4.9h-1.3z"/><path class="st74" d="M94.8 119.1l-1.3-.1.4-4.9 1.3.1z"/><path class="st76" d="M79.3 60.6l2.2-2.8c5.2-.4 13.5 3.9 13.5 3.9l-.3 4.6s-3.2-5.9-15.4-5.7"/><path class="st77" d="M71.6 35.1c-1.2-16.3 11.1-18 11.1-18s6.1-1.2 15.2-.8c14.6.7 21.9 9.9 16.3 15.8-3.4 3.2-8.7 2.5-13.8 3.9-5.5 1.5-7.4 9-9.2 8.5-1-.3-1-2.6-1-2.6s-.5-2.4-2.4-1.7-3.6 5-.1 8.1c0 0 .4 8.1-2.6 8.6-3.2.5-12.2-3.9-13.5-21.8"/><path class="st74" d="M97.3 119.5s27.4 7.7 28.3 10.4c.8 2.7 5.3 41.1 5.3 41.1l-11.7 1.7s-5.8-30.5-5.5-34c-3.5-2-22-4.7-22.8-4.5-.7.2-8.5-13.2 6.4-14.7"/><path class="st78" d="M99.3 134.6l2.9 39.9M72.7 134.6l-2.9 39.9"/><path class="st55" d="M105.9 143H66.1v-10.5h33.5c9.8-.1 6.3 10.5 6.3 10.5"/><path class="st55" d="M66.1 132.7V71.1s8.1-1.5 8.5 13.2c.3 10.2.4 26.4 0 37.6-.4 11.4-8.5 10.8-8.5 10.8"/><path class="st78" d="M68.1 142.6l-3 39.9M104.2 142.6l2.9 39.9"/><path class="st55" d="M139.1 99.9c0 1-.8 1.8-1.8 1.8h-26.6c-1 0-1.8-.8-1.8-1.8s.8-1.8 1.8-1.8h26.6c1 0 1.8.8 1.8 1.8"/><path class="st55" d="M136.7 101.6c-1-.3-1.5-1.3-1.2-2.3l8.1-25.3c.3-1 1.3-1.5 2.3-1.2 1 .3 1.5 1.3 1.2 2.3l-8.1 25.3c-.3 1-1.3 1.5-2.3 1.2"/><path class="st76" d="M83.2 63.4s-3.7 5.7 1.8 8.7c5.5 2.9 27-5.4 29.6-9.2 2.9-4.2 7.1-16.2 7.5-20.1 0 0-6.8-3.9-7.2-3.5-.9 1.1-9.4 15.9-9.4 15.9s-19.6 5.2-22.3 8.2"/><path class="st76" d="M114.9 38.6l-1.4 2.5 8.1 4.8.7-3.4z"/><path class="st79" d="M254.6 87.6c-2.4-1.7-1.9-4.3-1.9-4.3H250.9s.5 2.7-1.9 4.3c-1.2.9-1.3 2.6-.6 3 0 0-.8 1.8.3 2.4 1.1.6-.3 5.1-.4 6.8-.1 1.7 1.6 2.5 2.6 2.5h1.8c1-.1 2.9-.9 2.8-2.5-.1-1.7-1.8-6.2-.6-6.8 1.1-.6.3-2.4.3-2.4.7-.4.7-2.2-.6-3"/><path class="st80" d="M251.6 102c-.8-.1-2.4-.7-2.4-2.3 0-.5.2-1.3.3-2.2.4-2.1.9-4.3-.1-4.8-.9-.5-.2-2.1-.2-2.1l.1-.2-.2-.1c-.2-.1-.3-.4-.3-.8 0-.5.2-1.3.9-1.8 2-1.4 2.1-3.5 2-4.3h-.6c0 .7 0 2.9-2 4.3-.7.5-1 1.3-.9 1.8 0 .4.1.7.3.8l.2.1-.1.2s-.7 1.6.2 2.1c.9.5.5 2.7.1 4.8-.2.9-.3 1.7-.4 2.2-.1 1.6 1.6 2.2 2.4 2.3l.8.1h.3l-.4-.1z"/><path class="st80" d="M252 102c.8-.1 2.5-.7 2.5-2.3 0-.5.2-1.3 0-2.2-.4-2.1-1.3-4.3-.4-4.8s.7-2.1.7-2.1l-.1-.2.2-.1c.2-.1-.2-.4-.1-.8 0-.5.1-1.3-.6-1.8-2-1.4-1.8-3.5-1.8-4.3 0 .7 0 2.9 2 4.3.7.5 1 1.3.9 1.8 0 .4-.1.7-.3.8l-.2.1.1.2s.7 1.6-.2 2.1c-.9.5-.5 2.7-.1 4.8.2.9.3 1.7.3 2.2.1 1.6-1.6 2.2-2.4 2.3l-.8.1h-.4l.7-.1z"/><path class="st81" d="M252.9 82.9c0 .2-.5.4-1.1.4-.6 0-1.1-.2-1.1-.4s.5-.4 1.1-.4c.6 0 1.1.2 1.1.4M252.9 83.9c0 .2-.5.4-1.1.4-.6 0-1.1-.2-1.1-.4s.5-.4 1.1-.4c.6 0 1.1.2 1.1.4"/><path class="st81" d="M250.7 82.9h2.1v1h-2.1z"/><path class="st79" d="M157.8 87.6c-2.4-1.7-1.9-4.3-1.9-4.3H154s.5 2.7-1.9 4.3c-1.2.9-1.3 2.6-.6 3 0 0-.8 1.8.3 2.4 1.1.6-.3 5.1-.4 6.8-.1 1.7 1.6 2.5 2.6 2.5h1.8c1-.1 2.9-.9 2.8-2.5-.1-1.7-1.8-6.2-.6-6.8 1.1-.6.3-2.4.3-2.4.7-.4.7-2.2-.5-3"/><path class="st80" d="M154.8 102c-.8-.1-2.4-.7-2.4-2.3 0-.5.2-1.3.3-2.2.4-2.1.9-4.3-.1-4.8-.9-.5-.2-2.1-.2-2.1l.1-.2-.2-.1c-.2-.1-.3-.4-.3-.8 0-.5.2-1.3.9-1.8 2-1.4 2.1-3.5 2-4.3h-.6c0 .7 0 2.9-2 4.3-.7.5-1 1.3-.9 1.8 0 .4.1.7.3.8l.2.1-.1.2s-.7 1.6.2 2.1c.9.5.5 2.7.1 4.8-.2.9-.3 1.7-.4 2.2 0 1.6 1.6 2.2 2.4 2.3l.8.1h.3l-.4-.1z"/><path class="st80" d="M155.1 102c.8-.1 2.5-.7 2.5-2.3 0-.5.2-1.3 0-2.2-.4-2.1-1.3-4.3-.4-4.8s.7-2.1.7-2.1l-.1-.2.2-.1c.2-.1-.2-.4-.2-.8 0-.5.1-1.3-.6-1.8-2-1.4-1.8-3.5-1.8-4.3 0 .7 0 2.9 2 4.3.7.5 1 1.3.9 1.8 0 .4-.1.7-.3.8l-.2.1.1.2s.7 1.6-.2 2.1c-.9.5-.5 2.7-.1 4.8.2.9.3 1.7.4 2.2.1 1.6-1.6 2.2-2.4 2.3l-.8.1h-.4l.7-.1z"/><path class="st81" d="M156 82.9c0 .2-.5.4-1.1.4-.6 0-1.1-.2-1.1-.4s.5-.4 1.1-.4c.6 0 1.1.2 1.1.4M156 83.9c0 .2-.5.4-1.1.4-.6 0-1.1-.2-1.1-.4s.5-.4 1.1-.4c.6 0 1.1.2 1.1.4"/><path class="st81" d="M153.9 82.9h2.1v1h-2.1z"/><path class="st79" d="M270.5 87.6c-2.4-1.7-1.9-4.3-1.9-4.3H266.8s.5 2.7-1.9 4.3c-1.2.9-1.3 2.6-.6 3 0 0-.8 1.8.3 2.4 1.1.6-.3 5.1-.4 6.8-.1 1.7 1.6 2.5 2.6 2.5h1.8c1-.1 2.9-.9 2.8-2.5-.1-1.7-1.8-6.2-.6-6.8 1.1-.6.3-2.4.3-2.4.7-.4.7-2.2-.6-3"/><path class="st80" d="M267.5 102c-.8-.1-2.4-.7-2.4-2.3 0-.5.2-1.3.3-2.2.4-2.1.9-4.3-.1-4.8-.9-.5-.2-2.1-.2-2.1l.1-.2-.2-.1c-.2-.1-.3-.4-.3-.8 0-.5.2-1.3.9-1.8 2-1.4 2.1-3.5 2-4.3h-.6c0 .7 0 2.9-2 4.3-.7.5-1 1.3-.9 1.8 0 .4.1.7.3.8l.2.1-.1.2s-.7 1.6.2 2.1c.9.5.5 2.7.1 4.8-.2.9-.3 1.7-.4 2.2-.1 1.6 1.6 2.2 2.4 2.3l.8.1h.4l-.5-.1z"/><path class="st80" d="M267.9 102c.8-.1 2.5-.7 2.5-2.3 0-.5.2-1.3 0-2.2-.4-2.1-1.3-4.3-.4-4.8s.7-2.1.7-2.1l-.1-.2.2-.1c.2-.1-.2-.4-.1-.8 0-.5.1-1.3-.6-1.8-2-1.4-1.8-3.5-1.8-4.3 0 .7 0 2.9 2 4.3.7.5 1 1.3 1 1.8 0 .4-.1.7-.3.8l-.2.1.1.2s.7 1.6-.2 2.1c-.9.5-.5 2.7-.1 4.8.2.9.3 1.7.4 2.2.1 1.6-1.6 2.2-2.4 2.3l-.8.1h-.4l.5-.1z"/><path class="st81" d="M268.8 82.9c0 .2-.5.4-1.1.4-.6 0-1.1-.2-1.1-.4s.5-.4 1.1-.4c.6 0 1.1.2 1.1.4M268.8 83.9c0 .2-.5.4-1.1.4-.6 0-1.1-.2-1.1-.4s.5-.4 1.1-.4c.6 0 1.1.2 1.1.4"/><path class="st81" d="M266.6 82.9h2.1v1h-2.1z"/><path class="st79" d="M352.5 88.3c-2.4-1.7-1.9-4.3-1.9-4.3H348.8s.5 2.7-1.9 4.3c-1.2.9-1.3 2.6-.6 3 0 0-.8 1.8.3 2.4 1.1.6-.3 5.1-.4 6.8-.1 1.7 1.6 2.5 2.6 2.5.4 0 .7 0 .8.1h.2c.1 0 .4 0 .8-.1 1-.1 2.9-.9 2.8-2.5-.1-1.7-1.8-6.2-.6-6.8 1.1-.6.3-2.4.3-2.4.7-.5.6-2.2-.6-3"/><path class="st80" d="M349.5 102.7c-.8-.1-2.4-.7-2.4-2.3 0-.5.2-1.3.4-2.2.4-2.1.9-4.3-.1-4.8-.9-.5-.2-2.1-.2-2.1l.1-.2-.3-.1c-.2-.1-.3-.4-.3-.8 0-.5.2-1.3.9-1.8 2-1.4 2.1-3.5 2-4.3h-.6c0 .7 0 2.9-2 4.3-.7.5-1 1.3-.9 1.8 0 .4.1.7.3.8l.2.1-.1.2s-.7 1.6.2 2.1c.9.5.5 2.7.1 4.8-.2.9-.3 1.7-.4 2.2-.1 1.6 1.6 2.2 2.4 2.3l.8.1h.4l-.5-.1z"/><path class="st80" d="M349.9 102.7c.8-.1 2.5-.7 2.5-2.3 0-.5.2-1.3 0-2.2-.4-2.1-1.3-4.3-.4-4.8s.7-2.1.7-2.1l-.1-.2.2-.1c.2-.1-.1-.4-.1-.8 0-.5.1-1.3-.6-1.8-2-1.4-1.8-3.5-1.8-4.3 0 .7 0 2.9 2 4.3.7.5 1 1.3 1 1.8 0 .4-.1.7-.3.8l-.2.1.1.2s.7 1.6-.2 2.1c-.9.5-.5 2.7-.1 4.8.2.9.3 1.7.4 2.2.1 1.6-1.6 2.2-2.4 2.3l-.8.1h-.4l.5-.1z"/><path class="st81" d="M350.7 83.6c0 .2-.5.4-1.1.4-.6 0-1.1-.2-1.1-.4s.5-.4 1.1-.4c.6-.1 1.1.1 1.1.4M350.7 84.6c0 .2-.5.4-1.1.4-.6 0-1.1-.2-1.1-.4s.5-.4 1.1-.4c.6 0 1.1.2 1.1.4"/><path class="st81" d="M348.6 83.6h2.1v1h-2.1z"/><path class="st82" d="M102.7 110.9h9.8v77.6h-9.8z"/><path class="st52" d="M104.3 110.9h2.5v77.6h-2.5zM109.5 110.9h2.1v77.6h-2.1z"/><path class="st82" d="M392.5 110.9h9.8v77.6h-9.8z"/><path class="st52" d="M393.8 110.9h2.5v77.6h-2.5zM399 110.9h2.1v77.6H399z"/><path class="st83" d="M99.4 101.7h305.8v11.7H99.4z"/><path class="st84" d="M99.4 101.7h305.8v5.5H99.4z"/><path class="st59" d="M504.6 47.8c0-1.8-4.7.4-7.2 1.3-.7-.5-1.9-1-3.1-1.4-1.5-.6-4 1.8-5.4 4.4-.7 1.3-2.8 1.9-2.8 1.9l.3.9.4 1.3.9 2.8.2.6s1.9-1 3.5-1.2c.8.3 2.2.5 5.7-.6 1.5-.5 2.6-1.1 2.5-1.9-.1-.5 0-.9-.6-.9 1-.4 1.2-.8 1-1.6-.1-.3-.2-.4-.5-.4.7-.4.4-1.5-.4-2.1 3.6-1.4 5.4-2.5 5.5-3.1M494.4 50s.1 0 .2.1c-.4.2-.7.3-1 .4.4-.7.8-.5.8-.5"/><path class="st85" d="M453.5 51.7c-3.5-4-6-3.3-11.8-3.3l-8.1-.1c-6.1 0-11.6 2.8-15.2 7.1 2.8 3.4 4.5 7.8 4.5 12.5l-.2 32.5 29 .2-.2-32.7c-.2-4.8-1.1-12.7 2-16.2"/><path class="st86" d="M422.6 90.5l.1 6.5c0 5.4 5.4 9.8 12 9.7h5c6.6 0 11.9-4.5 11.8-9.9l-.1-6.3h-28.8z"/><path class="st58" d="M442.6 51.7s-1.4 2.5-4.8 2.5-5.2-2.5-5.2-2.5V31.9h10v19.8z"/><path class="st86" d="M422.7 100.1h12.5v71h-12.5zM438.7 100.2h12.7v70.9h-12.7z"/><path class="st55" d="M424.1 172.9c0 1.9 0 3.4 1.5 3.4h6.8c1.5 0 1.6-1.5 1.6-3.4s-1.2-3.4-2.8-3.4h-4.3c-1.6 0-2.8 1.5-2.8 3.4M440.1 172.9c0 1.9 0 3.4 1.5 3.4h6.8c1.5 0 1.6-1.5 1.6-3.4s-1.2-3.4-2.8-3.4h-4.3c-1.6 0-2.8 1.5-2.8 3.4"/><path class="st86" d="M430.4 48s4.8 27.5 2.8 52.8h-11.8l.4-36.7-3.9-8.4c.1.1 2.8-6.1 12.5-7.7M445 48s-4.7 27.3-2.7 52.6l10.7.4.6-36.8.7-14.4s.4-.2-9.3-1.8"/><path class="st87" d="M425.6 49.3s3.4 15.2 3.1 17l1.9-.1-2.2 1.3 5.1 14.5s-.4-22.5-3-34.6c.1-.1-3.3.3-4.9 1.9M449.9 49.3s-3.4 15.2-3.1 17l-1.9-.1 2.1 1.3-5.1 14.5s.5-22.5 3-34.6c-.1-.1 3.3.3 5 1.9"/><path class="st55" d="M433.6 90.6h8.2v3.1h-8.2z"/><path class="st88" d="M435.3 90.2h4.8v3.7h-4.8z"/><path class="st87" d="M423.1 83.7l8 .3s1.1 11.6-3.9 12.2c-5 .6-4.1-12.5-4.1-12.5M452.6 83.7l-8 .3s-1.1 11.6 3.9 12.2c5 .6 4.1-12.5 4.1-12.5"/><path class="st89" d="M433.6 93.7l-.1 7.5-10.9-.3 11.4 1zM441.7 93.7l.1 7.5 10.9-.3-11.4 1z"/><path class="st90" d="M437.1 50.4l-1.2 5.3s-4.4-4.9-4.5-5.8c-.1-.9-.2-1.6-.2-1.6l.6-2.1 5.3 4.2zM438.4 50.4l1.2 5.3s4.4-4.9 4.5-5.8c.1-.9.2-1.6.2-1.6l-.6-2.1-5.3 4.2z"/><path class="st91" d="M437.1 50.4v2.7l-.6-.1c-.1 0 .2-1.7.6-2.6M438.4 50.4v2.7h.6c.1 0-.2-1.8-.6-2.7"/><path class="st89" d="M436.8 51.2h1.8l.7 2.6-.7 1.7h-1.7l-.7-1.9z"/><path class="st89" d="M437.6 82.5l-3.6-4.7 2.9-22.3h1.7l2.7 22.4z"/><path class="st87" d="M418 55.8s-13.6 21.8-7.6 24.8c6 2.9 10.5 3.3 10.5 3.3l4.3-6.1-6.8-4.1 3.7-8.8c0 .1-.1-11.8-4.1-9.1M454.4 49.3s3.3.7 4.5 1.4c1.3.8 4.4 1.8 4.4 1.8s6.9 2.8 8.7 3c1.8.2 4.5-.3 7.6-1 3.1-.7 5.8-2.2 6.9-2.7l3.7 8.8s-13.7 6.2-19.5 6.1c-5.7-.1-17.6-3.1-17.6-3.1s-.6-13.9 1.3-14.3"/><path class="st59" d="M424.7 78.3s.9.6 1.7.3c.8-.3 1.7-1.7 3.5-1.3 1.8.4 2.3.6 2.3 1.2 0 .5-1.8.5-1.8.5s3 .3 2.8 1.5l-.2 1.2s-.4 1.6-1 2.2c0 0 0 1.3-1.2 1.6 0 0 0 1.2-1.6 1.1-1.6-.1-3.6-.5-4.3-2.2-.2-.5-3.1-1.8-3.1-1.8l2.9-4.3zM434.7 12.1c-4 .2-13 2.5-12.8 5.5l.1 12.5c0 8.1 6.4 14.7 14.1 14.6l5.8-.1c7.8 0 14-6.7 13.9-14.9l-.1-14.4c-5.5-3.7-9.9-3.8-21-3.2"/><path class="st77" d="M97.9 35.7s-3.2 3.1-3.9 7.6l-3.6.3s-1.5-3.2-.1-6.4 7.6-1.5 7.6-1.5M83.9 16.9s11.9-2.3 13.6-2.3c1.6 0-2.7 1.2-2.4 1.2.3 0 4.7-.5 6.1-.5 1.4 0-.3.6 0 .7.3.1 5.3-.3 5.6-.2.3.1-1.8.9-1.5 1 .3.1 3.1.5 3.7.6.6.1-.5.4-.2.6.3.2 2.7.9 4.4 1.9 1.7 1 .1.8.4 1.1.3.3 2.8 2.5 3.5 3.4.7.9-2.9.8-2.9.8s-28-1.2-29.6-.9c-1.7.3-13-1.2-.7-7.4"/><path class="st74" d="M429.2 9s9.5-5.1 18.5-2.3 15.5 7.9 6.8 10.1c-8.6 2.2-20 2.8-22.4 2.8-2.4.1-1.9 2.8-2.5 3.2-.6.4-.7 4.4-.7 4.4l-.1 4.1h-2.3s.4-4.1-1.9-3.6c-2.3.6-2.1 6.5.4 7 2.2.4 1.7 6.3 1.7 6.3s-6.1-.9-6.9-14.9c-.8-14 2.4-14.5 5.7-14.2 0 .1.9-1.8 3.7-2.9"/><path class="st69" d="M329.1 35.6l.8 7.5s.9 8.2-1 10.4c-6.3 7-12.6 10.1-12.6 10.1s3.6 16.9 4.1 16.7c.5-.2 15-10.1 19.3-27.4 1.1-4.4-1.4-11.8-2.5-17.6l-8.1.3zM292.2 63.9s-4.4-1.3-6.5-1.9c-2-.6-3.8-7.4-5.2-9.5-1.5-2-1.9-9.2-1.9-9.2l2.3-15-8.9-1s-5.2 18-3.2 25.9c4.2 17.3 18.7 27.2 19.3 27.4.5.2 4.1-16.7 4.1-16.7"/><path class="st59" d="M330.6 35.7s-1-1.7-1.7-2.4-1.8-.9-2.4-1.9c-.6-.9-.9-3.1-.4-3.3.8-.3 1.1.3 1.4 1.7.3 1.3-1.8-3-.5-3.6 1.4-.6 1.3.4 1.3.4s-.3-.7.4-.9c1.2-.3 1.5.5 1.5.5s-.4-.6.6-.8c1.2-.3 1.6.9 1.6.9s-.9-1.2.8-.9c1.6.2 2.9 5.8 2.4 6.9-.5 1.2.1 3.3.1 3.3l-5.1.1z"/><path class="st92" d="M580.5 22.8l-.8 7.5s-.9 8.2 1 10.4c8 9.6 12.8 9.1 12.8 9.1s-3.7 17.9-4.3 17.8c-.6-.1-15-10-19.3-27.4-1.1-4.3 1.4-11.8 2.5-17.6l8.1.2z"/><path class="st59" d="M579 22.9s1-1.7 1.7-2.4 1.8-.9 2.4-1.9c.6-.9.9-3.1.4-3.3-.8-.3-1 .3-1.4 1.7-.4 1.3 1.8-3 .5-3.6-1.4-.6-1.3.4-1.3.4s.3-.7-.4-.9c-1.2-.3-1.5.5-1.5.5s.4-.5-.6-.8c-1.3-.3-1.6.9-1.6.9s.9-1.2-.8-.9c-1.6.3-2.9 5.8-2.4 6.9.5 1.2-.1 3.3-.1 3.3l5.1.1zM278.9 28.1s.6-1.6 1.3-2.3c.7-.7 1.9-1 2.5-2 .6-1 1-3.2.4-3.4-.9-.3-1.1.3-1.5 1.8-.4 1.4 1.8-3.2.5-3.7-1.5-.6-1.3.4-1.3.4s.3-.7-.4-.9c-1.3-.3-1.5.5-1.5.5s.5-.6-.6-.8c-1.3-.3-1.7.9-1.7.9s1-1.2-.8-1c-1.6.3-3 6-2.5 7.2.5 1.2.2 2.8.2 2.8l5.4.5z"/><path class="st62" d="M197.4 63.9s-4.4-1.3-6.5-1.9c-2-.6-3.8-7.4-5.2-9.5-1.5-2-1.9-9.2-1.9-9.2l2.3-15-8.9-1s-5.1 18-3.2 25.9c4.2 17.3 18.7 27.2 19.3 27.4.5.2 4.1-16.7 4.1-16.7"/><path class="st59" d="M184.1 28.1s.7-1.8 1.4-2.5c.7-.8 2-1.1 2.7-2.1.7-1.1 1-3.5.4-3.7-.9-.3-1.2.3-1.6 1.9-.4 1.5 2-3.4.6-4-1.6-.7-1.4.4-1.4.4s.3-.8-.5-1c-1.4-.3-1.6.6-1.6.6s.5-.6-.6-.9c-1.4-.3-1.8 1-1.8 1s1.1-1.3-.9-1c-1.8.3-3.3 6.4-2.7 7.7.6 1.3.2 3.1.2 3.1l5.8.5zM116 39.2s1.2-2.2 1.3-3.2c0-1-.6-2.1-.3-3.3.3-1.2 1.8-3.1 2.3-2.8.8.4.5 1.1-.3 2.4-.8 1.3 1.1-3.6 2.4-3.1 1.5.7.6 1.3.6 1.3s.3-.8 1-.3c1.1.7.7 1.5.7 1.5s.1-.8 1-.2c1.2.8.5 1.9.5 1.9s.2-1.6 1.3-.1c1 1.4-2.4 6.6-3.6 7-1.3.5-1.7 1.5-1.7 1.5l-5.2-2.6z"/><path class="st62" d="M223.5 63.9s4.4-1.3 6.5-1.9c2-.6 3.8-7.4 5.2-9.5 1.5-2 1.9-9.2 1.9-9.2l-2.3-15 8.9-1s5.1 18 3.2 25.9c-4.2 17.3-18.7 27.2-19.3 27.4-.5.2-4.1-16.7-4.1-16.7"/><path class="st59" d="M236.3 28.3s-.7-1.8-1.3-2.5c-.7-.7-1.9-1-2.6-2-.6-1-1-3.3-.4-3.5.9-.3 1.1.3 1.5 1.8.4 1.4-1.9-3.2-.5-3.8 1.5-.6 1.3.4 1.3.4s-.3-.7.5-.9c1.3-.3 1.5.5 1.5.5s-.5-.6.6-.8c1.3-.3 1.7.9 1.7.9s-1-1.3.8-1c1.7.3 3.1 6.1 2.5 7.3-.5 1.2-.2 2.9-.2 2.9l-5.4.7z"/><path class="st55" d="M232 99.2c0 1.8-1.5 3.3-3.3 3.3h-40.6c-1.8 0-3.3-1.5-3.3-3.3v-24c0-1.8 1.5-3.3 3.3-3.3h40.6c1.8 0 3.3 1.5 3.3 3.3v24zM328.2 99.2c0 1.8-1.5 3.3-3.3 3.3h-40.6c-1.8 0-3.3-1.5-3.3-3.3v-24c0-1.8 1.5-3.3 3.3-3.3h40.6c1.8 0 3.3 1.5 3.3 3.3v24z"/><path class="st69" d="M292.5 23.7s4.5-3.5 9.6-4 1.7 2 1.9 2.4c.2.4 6.2-1.3 6.9-1.5.6-.1-3.1 3-3.1 3l4.2-.8s-2.4 1.6-.7 1.7c1.7.1 2.8-.3 2.8-.1 0 .3-2.2.9.3.8 2.5-.1 2.9-.1 2.9-.1l.5 2.3s.8 1.9 1 2.7c.3.8-1 1.7-3.2 1.3-2.2-.3-.7 1-.7 1s-7.2.1-10.2-.4c-3-.5-1.7 1-1.7 1s-2.1-.2-3-.3c-.9-.1-.1 1.3-1 1.3-1 0-2.7-.1-3.5-.1-.8 0-2.9 2.1-3.3 2.6-.4.5 0 8 0 8l-2.2.4s-.9-4.6-2.7-2.5c-1.2 1.5 3 12.4 1.7 11 0 0-5.2-4.6-4.5-14.5.4-6 1-8.3 1.9-8.8.8-.5.2-.3.2-.3s4.6-6 6.3-7.8c1.5-1.7-.4 1.7-.4 1.7M202.1 22.8s5.3-5.6 10.9-5.5c5.6.1 5.1 3.2 6.7 3.5 1.6.3 4.6 2.7 4.5 3.1-.1.4 2.4 1.1 2.9 2.1s3.7 4.8 2.4 11.5c-.5 2.3-3.3 7.3-3.3 7.3l-2.9.1s.7-9.7-3.3-10.6c-4-.9-9.9.6-14.3-.9-4.4-1.4-6.9-.1-7.6 1.6-1.3 3.3-.2 6.8-.3 9.2l-2.7-.4s-2.6-7.6-2.4-10.7c.2-4.3 4.4-10.6 9.4-10.3"/><path class="st59" d="M227.7 42.9s2.4-1.5 1.3 3.5c-1.1 4.9-2.8 2.8-2.8 2.8s-2.2-5.6 1.5-6.3M193.9 42.3s-2.7-.8-1.6 4.1c1.1 4.9 2.8 2.8 2.8 2.8s2.6-6.3-1.2-6.9M289.5 44.2s-.6-4-2.9-2.4 0 8 1.8 7 1.1-4.6 1.1-4.6M426.5 30.5s-.7-4.2-3.1-2.5c-2.4 1.7 0 8.4 1.9 7.3 1.9-1.1 1.2-4.8 1.2-4.8"/><path class="st93" d="M620.9 52.6c-3.5-4-6-3.3-11.8-3.3l-8.1-.1c-6.1 0-11.6 2.8-15.2 7.1 2.8 3.4 4.5 7.8 4.5 12.5l-.2 32.5 29 .2-.2-32.7c-.2-4.8-1-12.7 2-16.2"/><path class="st94" d="M590 91.4l.1 6.5c0 5.4 5.4 9.8 12 9.7h5c6.6 0 11.9-4.5 11.8-9.9l-.1-6.3H590z"/><path class="st58" d="M610 52.6s-1.4 2.5-4.8 2.5-5.2-2.5-5.2-2.5V32.8h10v19.8z"/><path class="st94" d="M590.1 101h12.5v71h-12.5zM606.1 101.1h12.7V172h-12.7z"/><path class="st55" d="M591.5 173.7c0 1.9 0 3.4 1.5 3.4h6.8c1.5 0 1.6-1.5 1.6-3.4s-1.2-3.4-2.8-3.4h-4.3c-1.6.1-2.8 1.6-2.8 3.4"/><path class="st92" d="M597.9 48.9s4.8 27.5 2.8 52.8h-11.8l.4-36.7-3.9-8.4c0 .1 2.7-6.1 12.5-7.7"/><path class="st92" d="M593 50.2s3.4 15.2 3.1 17l1.9-.1-2.1 1.3 5.1 14.5s-.5-22.5-3-34.6c.1-.1-3.4.3-5 1.9"/><path class="st55" d="M601 91.4h8.2v3.1H601z"/><path class="st88" d="M602.7 91.1h4.8v3.7h-4.8z"/><path class="st92" d="M590.5 84.6l8 .3s1.1 11.6-3.9 12.2c-5 .5-4.1-12.5-4.1-12.5"/><path class="st95" d="M601 94.5l-.1 7.6-10.9-.4 11.4 1.1z"/><path class="st96" d="M604.5 51.2l-1.2 5.3s-4.4-4.9-4.6-5.8c-.1-.9-.2-1.6-.2-1.6l.7-2.1 5.3 4.2zM605.8 51.2l1.2 5.3s4.4-4.9 4.5-5.8c.1-.9.2-1.6.2-1.6l-.6-2.1-5.3 4.2z"/><path class="st91" d="M604.5 51.2v2.7l-.6-.1c-.1.1.2-1.6.6-2.6M605.8 51.2v2.7h.6c.1 0-.2-1.7-.6-2.7"/><path class="st97" d="M604.2 52.1h1.9l.6 2.6-.6 1.6h-1.8l-.6-1.8z"/><path class="st89" d="M605.1 83.3l-3.7-4.6 2.9-22.4h1.8l2.6 22.4z"/><path class="st59" d="M609 14c4 .2 13 2.5 12.9 5.5l-.2 12.5c0 8.1-6.4 14.7-14.1 14.6l-5.8-.1c-7.7 0-14-6.7-13.9-14.9l.1-14.4c5.5-3.7 9.9-3.8 21-3.2"/><path class="st94" d="M612.9 48.8s-4.7 27.4-2.7 52.9l10.8.3.6-37 .7-14.5c-.1.1.4-.1-9.4-1.7"/><path class="st92" d="M617.8 50.1s-3.4 15.3-3.2 17.1l-2-.1 2.2 1.3-5.2 14.5s.5-22.6 3-34.8c.1 0 3.5.4 5.2 2M620.5 84.7l-8 .3s-1.1 11.7 3.9 12.3c5 .5 4.1-12.6 4.1-12.6M622.1 50.6s14.8 23.7 8.2 26.8c-6.5 3.2-11.4 3.6-11.4 3.6l-4.6-6.6 7.4-4.4-4-9.5c-.1 0 0-12.9 4.4-9.9"/><path class="st98" d="M614.5 10.8S605 5.7 596 8.5s-15.5 7.9-6.8 10.1c8.6 2.2 20 2.8 22.4 2.8 3.3 0 3.2 7.6 3.2 7.6l.1 4.2h2.4s-.4-4.2 1.9-3.6c2.3.6 2.1 6.5-.4 7-2.2.4-1.7 6.3-1.7 6.3s6.1-.9 6.9-14.9c.8-14-2.4-14.5-5.7-14.2-.2.1-1.1-1.8-3.8-3"/><path class="st59" d="M615.1 75.6s-1 .6-1.9.3c-.9-.3-1.9-1.8-3.8-1.4-1.9.4-2.5.7-2.5 1.3 0 .6 1.9.6 1.9.6s-3.3.3-3.1 1.6l.2 1.2s.4 1.7 1.1 2.4c0 0 0 1.4 1.2 1.7 0 0 0 1.2 1.7 1.1 1.7-.1 3.9-.5 4.6-2.4.2-.6 3.4-1.9 3.4-1.9l-2.8-4.5z"/><path class="st98" d="M618.1 13.9s-3.2-4.9-5.4-5.7c-2.3-.8-1.3.6-1.3.6s-1.7-1.7-2.8-1.9c-1.2-.2-.7.9-.7.9s-1.8-.5-3.1-.7c-1.4-.1-1.2.6-1.2.6s-4.2-.5-4.8-.4c-.6.1-.2 1.5-.2 1.5l-1.2.8s18.1 8.1 20.9 4.4M610.4 21.3s-5.8 1.5-8.9.9c-3.1-.7-.2-1.1-.2-1.1s-4.4 1.2-5.8.1c-1.4-1.1 0-1.4 0-1.4s-4.5.8-5.4 0c-.9-.8-.5-1.3-.5-1.3s-1.8.9-2.4.5c-.7-.4.8-1.6 2.3-1.9 1.4-.3 27.6 0 20.9 4.2"/><path class="st38" d="M525.7 31.4l-21.4 8c0 5.5.8 10.3 2 14.7 1.2 4.1 2.8 7.7 4.6 10.9 6.3 11 14.9 15.9 14.9 15.9s10.9-6.3 17.2-20.5c1.6-3.6 2.9-7.7 3.6-12.3.4-2.7.7-5.6.7-8.6l-21.6-8.1z"/><path d="M542.4 61.6l-29.5 6.7-3.9-7.2-2.8-7.3 40.7-9.1-1.5 8.4z"/></svg>