<?xml version="1.0" encoding="utf-8"?>
<!-- Generator: Adobe Illustrator 19.1.0, SVG Export Plug-In . SVG Version: 6.00 Build 0)  -->
<svg version="1.1" id="Layer_1" xmlns="http://www.w3.org/2000/svg" xmlns:xlink="http://www.w3.org/1999/xlink" x="0px" y="0px"
	 viewBox="0 0 36 36" style="enable-background:new 0 0 36 36;" xml:space="preserve">
<style type="text/css">
	.st0{fill:none;stroke:#999999;stroke-miterlimit:10;}
	.st1{fill:#FFFFFF;}
	.st2{fill-rule:evenodd;clip-rule:evenodd;fill:#211F1F;}
	.st3{fill-rule:evenodd;clip-rule:evenodd;fill:#EE5345;}
	.st4{fill:#231F20;}
	.st5{fill:none;stroke:#000000;stroke-width:0.5;stroke-miterlimit:10;}
	.st6{opacity:0.6;fill:#F1F1F2;stroke:#FFFFFF;}
	.st7{fill:none;stroke:#000000;stroke-width:0.6;stroke-miterlimit:10;}
	.st8{fill:#EE5345;}
	.st9{fill:none;stroke:#000000;stroke-miterlimit:10;}
	.st10{fill:#FFFFFF;stroke:#000000;stroke-miterlimit:10;}
	.st11{fill:none;stroke:#808184;stroke-miterlimit:10;}
	.st12{fill:#B3B3B3;}
	.st13{fill:#464B4C;}
	.st14{fill:#FFDCB8;}
	.st15{fill:#CB8F5E;}
	.st16{fill:#281D12;}
	.st17{fill:#382B19;}
	.st18{fill:#232728;}
	.st19{fill:#E5E5E5;}
	.st20{fill:#141414;}
	.st21{fill:#676B6B;}
	.st22{fill:#725C2B;}
	.st23{fill:#493918;}
	.st24{fill:#190F08;}
	.st25{fill:#753427;}
	.st26{fill:#FAFAFA;}
	.st27{fill:#49BEDF;}
	.st28{fill:#999999;}
	.st29{fill:none;stroke:#C7B299;stroke-miterlimit:10;}
	.st30{stroke:#FFFFFF;stroke-miterlimit:10;}
	.st31{opacity:0.8;}
	.st32{fill:none;stroke:#000000;stroke-width:2;stroke-miterlimit:10;}
	.st33{fill:none;stroke:#CCCCCC;stroke-miterlimit:10;}
</style>
<g>
	<g>
		<path class="st12" d="M18,1C8.4,1,0.7,8.8,0.7,18.3c0,9.5,7.7,17.3,17.3,17.3c9.5,0,17.3-7.7,17.3-17.3C35.2,8.8,27.5,1,18,1z
			 M25.7,14.3c0,0.2,0,0.3,0,0.5c0,5.2-4,11.3-11.3,11.3c-2.2,0-4.3-0.7-6.1-1.8c0.3,0,0.6,0.1,0.9,0.1c1.9,0,3.6-0.6,4.9-1.7
			c-1.7,0-3.2-1.2-3.7-2.8c0.2,0,0.5,0.1,0.7,0.1c0.4,0,0.7,0,1-0.1c-1.8-0.4-3.2-2-3.2-3.9c0,0,0,0,0-0.1c0.5,0.3,1.1,0.5,1.8,0.5
			c-1.1-0.7-1.8-1.9-1.8-3.3c0-0.7,0.2-1.4,0.5-2c2,2.4,4.9,4,8.2,4.2c-0.1-0.3-0.1-0.6-0.1-0.9c0-2.2,1.8-4,4-4
			c1.1,0,2.2,0.5,2.9,1.3c0.9-0.2,1.8-0.5,2.5-1c-0.3,0.9-0.9,1.7-1.7,2.2c0.8-0.1,1.6-0.3,2.3-0.6C27.1,13.1,26.4,13.8,25.7,14.3z"
			/>
	</g>
</g>
</svg>
