<?xml version="1.0" encoding="utf-8"?>
<!-- Generator: Adobe Illustrator 19.1.0, SVG Export Plug-In . SVG Version: 6.00 Build 0)  -->
<svg version="1.1" id="Layer_2" xmlns="http://www.w3.org/2000/svg" xmlns:xlink="http://www.w3.org/1999/xlink" x="0px" y="0px"
	 viewBox="0 0 308 312" style="enable-background:new 0 0 308 312;" xml:space="preserve">
<style type="text/css">
	.st0{fill:#C0C0C0;}
</style>
<path class="st0" d="M121.4,189.9V95.2h60.1v73.3h5.8V90.3c0-4.5-3.7-8.2-8.2-8.2h-55.2c-4.5,0-8.2,3.7-8.2,8.2v106.6
	c0,4.5,3.7,8.2,8.2,8.2h14.8l-8.2-15.6L121.4,189.9z M142.8,87.8h17.7c0.4,0,0.8,0.4,0.8,0.8c0,0.4-0.4,0.8-0.8,0.8h-17.7
	c-0.4,0-0.8-0.4-0.8-0.8C141.5,88.2,142,87.8,142.8,87.8L142.8,87.8z M191.4,179.6v-1.2c0-2.5-2.1-4.1-4.1-4.1h-0.4
	c-2.5,0-4.1,2.1-4.1,4.1v4.9h-1.6v-4.9c0-2.5-2.1-4.1-4.1-4.1h-0.8c-2.5,0-4.1,2.1-4.1,4.1v4.5h-1.6v-4.5c0-2.5-2.1-4.1-4.1-4.1
	h-0.4c-2.5,0-4.1,2.1-4.1,4.1v4.9h-1.2v-11.1c8.7-2.1,14.8-9.9,14.8-19.3c0-11.1-9.1-20.2-20.2-20.2c-11.1,0-20.2,9.1-20.2,20.2
	c0,9.9,7,17.7,16,19.8v25.5c-4.5-4.9-7-9.9-9.9-10.7c-3.7-0.8-7,2.1-4.1,7c2.5,4.9,14.8,26.3,14.8,26.3c1.6,4.1,7,9.9,19.4,9.9
	C191,230.7,191,213,191,213v-33.4H191.4z M156.4,151.6H156c-2.5,0-4.1,2.1-4.1,4.1v4.5c-2.9-1.2-4.9-4.1-4.9-7.8
	c0-4.9,3.7-8.6,8.7-8.6c4.9,0,8.6,3.7,8.6,8.6c0,2.9-1.6,5.4-3.7,7v-4.1C160.5,153.7,158.4,151.6,156.4,151.6L156.4,151.6z
	 M137.4,152.8c0-9.9,8.2-18.1,18.1-18.1c9.9,0,18.1,8.2,18.1,18.1c0,8.2-5.3,14.8-12.8,17.3v-5.3c4.5-2.1,7.8-6.6,7.8-11.5
	c0-7-5.8-12.8-12.8-12.8c-7,0-12.8,5.8-12.8,12.8c0,5.8,3.7,10.3,9.1,11.9v5.3C143.6,168.5,137.4,161.5,137.4,152.8L137.4,152.8z
	 M137.4,152.8"/>
<path class="st0" d="M153.1,6C70.2,6,3,73.2,3,156.1c0,82.9,67.2,150.1,150.1,150.1c82.9,0,150.1-67.2,150.1-150.1
	C303.1,73.2,235.9,6,153.1,6L153.1,6z M252.2,232.6l-13.6-11.2c-0.6-0.5-1.4-0.4-1.8,0.2c-0.5,0.5-0.4,1.3,0.1,1.8l13.7,11.2
	c-5.4,6.8-11.6,13-18.3,18.5l-11-14.1c-0.4-0.6-1.3-0.7-1.8-0.2c-0.6,0.4-0.7,1.3-0.2,1.8l11,14.2c-6.4,4.9-13.2,9.3-20.5,13
	l-8.3-15.6c-0.3-0.6-1.1-0.9-1.7-0.6c-0.6,0.3-0.9,1.2-0.5,1.8l8.3,15.6c-8,3.9-16.3,6.9-25.1,9l-3.4-18.8c-0.1-0.7-0.8-1.2-1.5-1.1
	c-0.7,0.2-1.2,0.8-1.1,1.5l3.4,18.8c-6.7,1.5-13.4,2.5-20.4,2.8v-22.4c0-3.5-2.8-6.4-6.3-6.4c-3.5,0-6.4,2.9-6.4,6.4v22.4
	c-5.8-0.3-11.5-1.1-17.1-2.1l2.8-15.8c0.1-0.7-0.3-1.4-1.1-1.5c-0.7-0.1-1.4,0.3-1.5,1.1l-2.8,15.7c-8.6-1.8-16.8-4.4-24.6-7.8
	l7.3-13.8c0.3-0.6,0.1-1.4-0.6-1.7c-0.6-0.3-1.4,0-1.7,0.6l-7.3,13.8c-7.3-3.4-14.2-7.5-20.7-12.3l10.2-13.1
	c0.4-0.6,0.3-1.4-0.2-1.9c-0.6-0.4-1.4-0.3-1.8,0.3l-10.3,13.2c-6.9-5.2-13.2-11.2-18.9-17.7l13.5-11.1c0.5-0.4,0.6-1.3,0.2-1.8
	c-0.5-0.5-1.3-0.6-1.9-0.2l-13.6,11.2c-5.5-6.6-10.2-13.8-14.3-21.5l15.9-8.4c0.6-0.3,0.9-1.1,0.5-1.8c-0.3-0.6-1.1-0.9-1.7-0.5
	l-15.8,8.3c-4.2-8.4-7.6-17.2-9.9-26.5l18.4-3.4c0.7-0.1,1.1-0.8,1-1.5c-0.1-0.7-0.8-1.2-1.5-1l-18.4,3.4
	c-1.5-6.8-2.6-13.7-2.9-20.9h21.4c3.5,0,6.4-2.9,6.4-6.4c0-3.6-2.9-6.4-6.4-6.4H27.9c0.3-6.8,1.3-13.6,2.8-20.1c0,0,0.1,0.1,0.2,0.1
	l20.5,3.9c0.1,0,0.2,0,0.2,0c0.6,0,1.2-0.4,1.3-1.1c0.1-0.7-0.4-1.4-1.1-1.5l-20.5-3.8c-0.1,0-0.1,0-0.2,0c2.3-9.6,5.7-18.7,10-27.3
	l18.1,9.5c0.2,0.2,0.4,0.2,0.6,0.2c0.5,0,0.9-0.2,1.2-0.7c0.3-0.7,0.1-1.5-0.6-1.7l-18-9.5c4.1-7.8,8.9-15.2,14.6-21.9l15.4,12.7
	c0.3,0.2,0.5,0.3,0.8,0.3c0.4,0,0.8-0.2,1-0.5c0.4-0.5,0.4-1.4-0.2-1.8L58.7,73.7c5.8-6.6,12.3-12.6,19.4-17.9l11.7,15
	c0.2,0.3,0.6,0.5,1,0.5c0.3,0,0.5-0.1,0.8-0.3c0.6-0.4,0.7-1.3,0.2-1.8l-11.7-15c6.6-4.8,13.6-8.9,21.1-12.3l8.3,15.7
	c0.2,0.4,0.7,0.7,1.2,0.7c0.2,0,0.4-0.1,0.6-0.2c0.6-0.3,0.9-1.1,0.5-1.8l-8.2-15.5c8-3.4,16.5-6,25.3-7.7l3.1,17.4
	c0.2,0.6,0.7,1.1,1.3,1.1c0.1,0,0.2,0,0.2,0c0.7-0.2,1.2-0.8,1.1-1.5l-3.1-17.4c5-0.9,10.1-1.6,15.3-1.8c0,0.1,0,0.2,0,0.3v23.4
	c0,3.5,2.9,6.4,6.4,6.4c3.6,0,6.4-2.9,6.4-6.4V31.2c0-0.1,0-0.2,0-0.2c7,0.3,13.9,1.4,20.6,2.8l-3.5,19.8c-0.1,0.7,0.3,1.4,1.1,1.6
	c0.1,0,0.1,0,0.2,0c0.6,0,1.2-0.4,1.3-1.1l3.5-19.8c8.9,2.1,17.3,5.3,25.4,9.2l-8.7,16.5c-0.3,0.6-0.1,1.5,0.6,1.8
	c0.2,0.1,0.4,0.1,0.6,0.1c0.5,0,0.9-0.2,1.2-0.7l8.7-16.5c7.3,3.8,14.2,8.2,20.6,13.3l-11.6,14.8c-0.5,0.6-0.3,1.4,0.2,1.8
	c0.3,0.1,0.5,0.2,0.8,0.2c0.4,0,0.8-0.2,1-0.5l11.6-14.8c6.8,5.5,12.8,11.9,18.3,18.8L237,89.9c-0.5,0.4-0.6,1.3-0.1,1.8
	c0.2,0.3,0.6,0.5,1,0.5c0.3,0,0.6-0.1,0.8-0.3l14.1-11.6c5.2,6.9,9.8,14.3,13.5,22.1l-15.6,8.2c-0.6,0.3-0.9,1.1-0.5,1.7
	c0.2,0.4,0.7,0.7,1.2,0.7c0.2,0,0.4,0,0.6-0.1l15.5-8.2c3.8,8.4,6.6,17.4,8.5,26.7l-16.6,3.1c-0.7,0.1-1.2,0.8-1.1,1.5
	c0.1,0.6,0.7,1.1,1.3,1.1c0.1,0,0.1,0,0.2,0l16.6-3.1c0.9,5.2,1.7,10.4,1.9,15.8h-21.6c-3.5,0-6.4,2.9-6.4,6.4
	c0,3.5,2.9,6.4,6.4,6.4h21.6c-0.3,5.8-1.1,11.4-2.1,16.8l-16.4-3.1c-0.7-0.1-1.4,0.3-1.6,1c-0.1,0.7,0.3,1.4,1.1,1.5l16.4,3.1
	c-1.9,9.2-4.8,18.1-8.6,26.5l-15.2-8c-0.6-0.4-1.4-0.1-1.7,0.5c-0.3,0.7-0.1,1.5,0.5,1.7l15.2,8C262,218.4,257.5,225.8,252.2,232.6
	L252.2,232.6z M252.2,232.6"/>
</svg>
