<?xml version="1.0" encoding="utf-8"?>
<!-- Generator: Adobe Illustrator 19.1.0, SVG Export Plug-In . SVG Version: 6.00 Build 0)  -->
<svg version="1.1" id="Layer_2" xmlns="http://www.w3.org/2000/svg" xmlns:xlink="http://www.w3.org/1999/xlink" x="0px" y="0px"
	 viewBox="0 0 317.6 203" style="enable-background:new 0 0 317.6 203;" xml:space="preserve">
<style type="text/css">
	.st0{fill:#C1C1C1;}
</style>
<g id="Layer_2">
	<g>
		<path d="M288.3,102.9c1.1-5.4,1.7-10.9,1.7-16.6c0-46-37.3-83.3-83.3-83.3c-34.1,0-63.5,20.5-76.4,49.9
			c-9.9-6.5-21.7-10.2-34.4-10.2c-33.4,0-60.6,25.9-62.9,58.7c-18,8.3-30.5,26.4-30.5,47.4c0,28.8,23.4,52.2,52.2,52.2h75.4
			c3.7,0,3.9-4.1,3.9-4.1v-33.5c0-2.9-2.3-5.2-5.2-5.2h-14.3c-2.9,0-3.8-1.9-2.1-4.2l43.5-58.7c1.7-2.3,4.5-2.3,6.2,0l43.5,58.7
			c1.7,2.3,0.8,4.2-2.1,4.2h-14.3c-2.9,0-5.2,2.3-5.2,5.2v33.6c0,0,0.2,4,4,4h75.3c28.8,0,52.2-23.4,52.2-52.2
			C315.6,129,304.6,111.7,288.3,102.9L288.3,102.9z M288.3,102.9"/>
	</g>
	<g>
		<path class="st0" d="M288.3,102.9c1.1-5.4,1.7-10.9,1.7-16.6c0-46-37.3-83.3-83.3-83.3c-34.1,0-63.5,20.5-76.4,49.9
			c-9.9-6.5-21.7-10.2-34.4-10.2c-33.4,0-60.6,25.9-62.9,58.7c-18,8.3-30.5,26.4-30.5,47.4c0,28.8,23.4,52.2,52.2,52.2h75.4
			c3.7,0,3.9-4.1,3.9-4.1v-33.5c0-2.9-2.3-5.2-5.2-5.2h-14.3c-2.9,0-3.8-1.9-2.1-4.2l43.5-58.7c1.7-2.3,4.5-2.3,6.2,0l43.5,58.7
			c1.7,2.3,0.8,4.2-2.1,4.2h-14.3c-2.9,0-5.2,2.3-5.2,5.2v33.6c0,0,0.2,4,4,4h75.3c28.8,0,52.2-23.4,52.2-52.2
			C315.6,129,304.6,111.7,288.3,102.9L288.3,102.9z M288.3,102.9"/>
	</g>
</g>
</svg>
