<?xml version="1.0" encoding="utf-8"?>
<!-- Generator: Adobe Illustrator 19.1.0, SVG Export Plug-In . SVG Version: 6.00 Build 0)  -->
<svg version="1.1" id="Layer_1" xmlns="http://www.w3.org/2000/svg" xmlns:xlink="http://www.w3.org/1999/xlink" x="0px" y="0px"
	 viewBox="0 0 459.3 282.7" style="enable-background:new 0 0 459.3 282.7;" xml:space="preserve">
<style type="text/css">
	.st0{fill:#00A7A1;}
	.st1{fill:none;stroke:#BABCBE;stroke-miterlimit:10;}
	.st2{fill:#F1F1F1;}
	.st3{opacity:0.9;fill:#F4FAFC;}
	.st4{fill:#484359;}
	.st5{fill:#484359;stroke:#B6B5BD;stroke-linecap:round;}
	.st6{fill:#333333;}
	.st7{fill:#F2F2F2;}
	.st8{fill:none;stroke:#676767;stroke-miterlimit:10;}
	.st9{fill:url(#SVGID_1_);}
	.st10{opacity:0.6;fill:#FFFFFF;stroke:#BEE0DD;}
	.st11{fill:none;stroke:#000000;stroke-miterlimit:10;}
	.st12{fill:none;stroke:#221F1F;}
	.st13{fill:none;stroke:#D0D1D2;}
	.st14{fill:none;stroke:#231F20;}
	.st15{fill:#231F20;}
	.st16{opacity:0.9;fill:url(#SVGID_2_);}
	.st17{fill:#CBCACA;}
	.st18{fill:#1A1A1A;}
	.st19{opacity:0.3;fill:#FFFFFF;}
	.st20{fill:#FFFFFF;stroke:#ECDAD3;}
	.st21{fill:url(#SVGID_3_);}
	.st22{opacity:0.2;}
	.st23{fill:#FFFFFF;}
	.st24{fill:#38334A;}
	.st25{fill:none;stroke:#38334A;}
	.st26{fill:none;stroke:#B6B5BD;}
	.st27{fill:#6D697A;}
	.st28{opacity:0.8;}
	.st29{fill:none;stroke:#FFFFFF;stroke-width:5;stroke-linecap:round;stroke-linejoin:round;}
	.st30{fill:#EBE6E5;stroke:#ECEAE5;stroke-miterlimit:10;}
	.st31{opacity:0.9;}
	.st32{fill:none;stroke:#FFFFFF;stroke-width:2;stroke-linecap:round;stroke-linejoin:round;}
	.st33{fill:#EBF7FD;stroke:#ECEAE5;stroke-miterlimit:10;}
	.st34{fill:#D0D1D2;stroke:#FFFFFF;stroke-miterlimit:10;}
	.st35{opacity:0.2;fill:#E4E4E3;}
	.st36{opacity:0.6;fill:#69BBB6;}
	.st37{fill:none;stroke:#EE5345;stroke-miterlimit:10;}
	.st38{fill:#EE5345;}
	.st39{fill:#BABCBE;}
	.st40{fill:#E0E0E0;}
	.st41{fill:#EF6541;}
	.st42{fill:#8E8D8D;}
	.st43{fill:#59595C;}
	.st44{fill:#F1F2EE;}
	.st45{fill:#919395;}
	.st46{fill:none;stroke:#FDEB98;stroke-miterlimit:10;}
	.st47{fill-rule:evenodd;clip-rule:evenodd;fill:#211F1F;}
	.st48{fill-rule:evenodd;clip-rule:evenodd;fill:#EE5345;}
	.st49{opacity:0.3;}
	.st50{opacity:0.7;fill:#69BBB6;}
	.st51{opacity:0.7;fill:#5C8B88;}
	.st52{fill:#D1D2D2;}
	.st53{fill:#5A595C;}
	.st54{fill:#E5E5E4;}
	.st55{fill:#211F1F;}
	.st56{fill:#BFBFBF;}
	.st57{fill:#E6D6BF;}
	.st58{fill:#CF9D76;}
	.st59{fill:#DDB089;}
	.st60{fill:none;stroke:#211F1F;stroke-width:0.437;stroke-miterlimit:10;}
	.st61{fill:#7E808F;}
	.st62{fill:#8E929E;}
	.st63{fill:none;stroke:#E7CFA5;stroke-width:0.13;stroke-miterlimit:10;}
	.st64{fill:#686C7A;}
	.st65{fill:#C7C7C7;}
	.st66{fill:#D2D2D2;}
	.st67{fill:#3F5554;}
	.st68{fill:#595C62;}
	.st69{fill:#61636A;}
	.st70{fill:#505157;}
	.st71{fill:#F0E3D1;}
	.st72{fill:#CAB194;}
	.st73{fill:#3C2418;}
	.st74{fill:#6D6E71;}
	.st75{fill:#DEE8E6;}
	.st76{fill:#ECF2F0;}
	.st77{fill:#A77D51;}
	.st78{fill:none;stroke:#211F1F;stroke-width:0.48;stroke-miterlimit:10;}
	.st79{fill:#B8DAE6;}
	.st80{fill:#D3E7EF;}
	.st81{fill:#28A6DE;}
	.st82{fill:#BCBCBE;}
	.st83{fill:#ADDFF2;}
	.st84{fill:#CBEAF6;}
	.st85{fill:#92A2A5;}
	.st86{fill:#56696F;}
	.st87{fill:#5C7075;}
	.st88{fill:none;stroke:#E7CFA5;stroke-width:0.116;stroke-miterlimit:10;}
	.st89{fill:#3E5156;}
	.st90{fill:#A2B0B4;}
	.st91{fill:#BCBBBE;}
	.st92{fill:#776F5C;}
	.st93{fill:#949FA7;}
	.st94{fill:#6E6656;}
	.st95{fill:#564D3D;}
	.st96{fill:#A4AEB4;}
	.st97{fill:#3D4C55;}
	.st98{fill:#C1966B;}
	.st99{fill:none;stroke:#231F20;stroke-miterlimit:10;}
	.st100{fill:none;stroke:#BABCBE;stroke-width:2;stroke-miterlimit:10;}
	.st101{fill:none;stroke:#E6E6E6;stroke-miterlimit:10;}
	.st102{fill:#F05B27;}
	.st103{opacity:0.7;fill:#FFFFFF;stroke:#D0D1D2;stroke-miterlimit:10;}
</style>
<g class="st49">
	<path class="st0" d="M180.8,40.6c1.2,0,0.7-1.7,2.3-1.2c2.2,0.8,3.4,2.6,6.4,2.5c2-1.5-2.8-2.8-1.2-3.7c0.9,0.3,1.5,0.9,2.3,1.2
		c0.5-2.1-0.7-2.6-1.2-3.7c4.8-0.3,3.2-6.5,2.4-10c1.4-0.5,3.1-0.8,5.2-0.6c-0.2-2.7-3.1-2.5-4.6-3.7c1.8,0.3,1.3-1.9,3.5-1.3
		c0.4-1.9-1-1.8-0.6-3.7c2.1,0.3,1.4-2.2,3.5-1.9c1.5-0.5,5,1.2,4.7-1.2c0.5-2.3-2.5-0.6-2.9-1.9c-1.4-0.2-1.1-2.1-2.9-1.9
		c-2.5-0.4-5.2,2.2-6.4,1.3c0.4-3.1,5.1-1.6,5.8-4.4c-1.2-1.8-3.8-2.2-7-1.9c-1.9-0.7-4.2-1.6-5.2,0c-0.5-0.9-1.9-0.9-2.9-1.3
		c-2.4,1.7-8.1-0.3-10.5,1.3c-2.7,0.1-5.9-0.5-7,1.3c-0.1,1.4,1.6,4,0.6,4.3c-4.2-0.7-6.6,0.4-10.5-0.6c-5.8,0.9-8.6,4.9-14.6,5.6
		c-0.6,2.2,2.6,0.5,2.3,2.5c-1.7,1.5-4.8,1.5-6.4,3.1c-1.4-0.8-3.3-0.7-4.1,1.9c1.9-0.5,1.8,1,2.9,1.2c0-1.7,2.9-1.7,2.9,0
		c1.4-0.4,4-2.8,4.1,0.6c-2.5,0.2-6-0.6-7.6,0.6c0.5,2.3,2.7,2.9,4.7,3.7c1.8,0.5,1.1-1.7,2.9-1.2c1.8,1.2,3.6,2.4,7,1.9
		c-0.5,2.8,0.4,4.1,1.2,5.6c-0.2,1.5-0.9,2.3-0.6,4.4c2.3,1.2,2.7-2.9,4.1-0.6c0.3,2.2-1.8,1.9-3.5,1.9c0.5,2.8,4.4,1.9,5.2,4.4
		c-1.3,1.1-2.9,1.8-4.1,3.1c1.6,0.8-1.8,1.3-1.2,3.1c4.2,3,0.9,10.1,4.1,14.3c1.4,0,2.7,0,4.1,0c1.7,0.1,1,2.6,2.9,2.5
		c0.6-1.3,1-2.7,2.3-3.1c-0.7-4.7,2.9-4.8,2.3-9.3c1.5-0.1,0.8-2.4,2.3-2.5c2.2,1.3,2.2-1.5,4.7,0c0.9-0.9,1.8-1.8,2.9-2.5
		c2.8-0.8,4.1-3.2,7-3.7c0.2-2.2,5.1-2.8,3.5-5C184.9,43.3,182.4,40.8,180.8,40.6z M186.6,38.1c-1.6-1.1,0-4.1,1.7-3.7
		C188.1,36,186.8,36.5,186.6,38.1z M190.7,8.3c0,1.8-1.3,2.3-2.3,3.1c-1.8-1.2-4.4-1.5-7.6-1.2C182.8,7.6,188.2,8.6,190.7,8.3z"/>
	<path class="st0" d="M108.5,17.6c0,1.2,0,2.5,0,3.7c1.8-0.4,2.1,0.6,3.5,0.6c0.3-2.8,3.8-5.5,5.8-4.3c0.9,2.6-3,0.1-2.9,1.9
		c1.8,0.9-2,1.1-1.8,2.5c1.5-0.4,2.1,0.3,1.8,1.9c-1.4,0-1.7-1.1-3.5-0.6c0.1,1.8-2,1.2-1.2,3.7c3.5-0.5,6-0.9,7.6,1.9
		c-4.6,1.1-7.6-2.5-10.5-1.2c-0.5,3,3.5,1.2,3.5,3.8c4.4-0.7,10.3,2.8,11.6-1.9c1.5,0.2,2.5-0.2,2.3-1.9c0.4-1.7-2.7,0.5-2.3-1.2
		c1.4,0,2.7,0,4.1,0c0-3.3,3.6-2.9,2.9-6.8c3-0.1,3.3-3.1,7-2.5c0.7-1.5,1.9-2.5,4-2.5c0.7-1.5-1.3-3,0-3.1c2.4-1.2,6,0.6,7-3.1
		c0-1-1.6-0.3-1.7-1.2c-9.6,1.4-22.6-1.8-32.7,2.5c-0.8,3.8,2.5,3.1,2.9,5.6c-3.8,0.3-2.6-4.7-7-3.8c-0.2,0.9-0.9,1.2-0.6,2.5
		c-0.9,0-2-0.1-1.8,1.2C106.2,17.1,108.3,16.4,108.5,17.6z M120.7,28.8c0.3,0.3-0.4,0.8-0.6,0.6C119.8,29.1,120.6,28.6,120.7,28.8z"
		/>
	<path class="st0" d="M251.9,16.3c0.3-1.7,3.1-0.9,2.3-3.7c-5.3-0.9-10.4-1.1-15.2-1.3c0,1.1,0.1,2,0.6,2.5
		C243.4,15.1,246.4,17.1,251.9,16.3z"/>
	<path class="st0" d="M229.2,19.5c-0.1,1.5-1.1,1.9,0,3.1c2.4-0.1,2.5-2.8,5.2-2.5c-0.1,2.8-2.9,2.8-2.9,5.6c1,0.8,2,1.6,4.1,1.3
		c-0.3,1.9,1.2,2,2.9,1.9c0.5-2.3,1-4.7,1.7-6.8c1.5,1.7,2.4,4.1,6.4,3.1c0.5-4.7-3.1-5-4.7-7.5c-0.2,1.4-1.6-0.7-2.4-0.7
		c-1.4,0.1-2.4-0.3-2.9-1.2c1.4-1.7-0.5-3.7-2.9-3.1c-1.7,1,0.9,3.2-0.6,3.7c-1.2-3-6.8-5.9-7,0C226.5,18.2,228.8,17.8,229.2,19.5z"
		/>
	<path class="st0" d="M288.1,15.1c0-3.9-5.4-2.6-5.2,0.6C284.8,17.7,285.9,14.9,288.1,15.1z"/>
	<path class="st0" d="M320.8,18.8c4.6-0.8,9.4,2.2,10.5-1.9c-1.4-2.4-6.7-3.4-9.9-1.8C320,15.2,321.1,17.7,320.8,18.8z"/>
	<path class="st0" d="M438.5,56.2c1.4-0.2,1.1-2.2,2.9-1.9c3.1,0.1,2.6,3.8,6.4,3.1c0.8-1.1-0.5-3.1,0.6-5c-1.6-0.8-3.8-4.1-5.2-1.3
		c0.2-1.4-0.1-2.4-0.6-3.1c-3.2-1.2-4.9-4-9.9-3.1c-0.7-1.2-2.3-1.3-2.9-2.5c-3.8,0.5-4.6-2.1-8.8-1.3c-0.8,1.8,1.6,3.2,0,3.7
		c-1.7-0.3-1.4-2.7-2.9-3.1c-1.7,1.9-4.9,0.2-8.2,1.2c-2.1-1.5-1.9-5.4-6.4-4.4c-0.8,0.1-0.2,1.9-1.2,1.9c-2.4-1.1-4.8-2.3-7-3.7
		c-0.3,0.5-0.5,1.1-1.2,1.2c0.7-2.4-1.4-1.9-2.9-1.9c1.4-1.5-0.6-1.4-1.1-2.5c-2.8,1.1-2.6-0.4-5.3-0.6c-0.2,0.8-1.5,0.5-2.3,0.6
		c-0.6,1.2,1.7,2.1,0,2.5c-5-0.8-11.4,1.1-15.8,0c-1.5-0.4-2-2.3-3.5-1.9c-2.7,0.7-4.5-0.6-6.4-1.2c-0.7-0.3-1.6,0.1-2.3,0
		c-1.5-0.3-2.6-2-5.8-1.3c0.2-1.6,1.7-1.9,1.7-3.7c-0.8-1.8-2.7-2.5-3.5-4.4c-1.8,0.8-4.5,0.7-7,0.6c-1.5-0.5-1.2-2.8-3.5-2.5
		c-1.4,0.6-1.9,2.1-1.7,4.4c-2.9-1-1.9,2.2-4.1,1.9c-1.1-0.3-0.5-2.4-2.3-1.9c-1.5,1.7-3.6,2.8-7,2.5c-1,0.8-1.5,2.1-3.5,1.9
		c-0.8,0.8-0.3,3-1.8,3.1c-1.2,0.4-4-1-3.5,1.2c0,2.3,3.4,0.9,2.9,3.7c-2.1-0.7-2.7-2.9-5.8-2.5c0,1.6,0.3,3.7-1.2,3.7
		c-0.7-0.7-0.7-2.2-0.6-3.7c-2.3-0.5-0.9,2.7-3.5,1.9c-0.9-1.1-0.8-3.3-3.5-2.5c-1.6,2.6-3.9,4.6-5.9,6.9c-3.8,0.3-3.5-1.2-7.6-1.3
		c-0.9,3.1,3,0.9,2.3,3.7c-2.4-0.6-5,0.3-8.7,0c-2.6,1.1-4.1,3.6-7,4.4c0-1.2,0-2.5,0-3.7c-1.4,0.1-2.8,0.1-3.5-0.6
		c0.1,3.5,0,6.7-3.5,6.2c0.2,2.3-2.1,1.9-3.5,2.5c-1.4,0.8,1,1.9-0.6,2.5c-3.4,0.7-3.6-4.5-3.5-5.6c2.7,0,5.7-0.3,7.6,0.6
		c1.6-3.9-3.3-5.9-7-6.2c-0.9-1.5-2.5-2.3-4.6-2.5c-0.8-1.5-1.6-2.8-2.9-3.7c-1.7,0-3.5,0-5.3,0c-1.6,1.2-3.1,2.5-4.6,3.7
		c-0.3-0.9-0.8,0.3-1.8,0c-2.1,2.4-4.7,4.1-7,6.2c-0.7,2.8-1.8,5.1-3.5,6.8c-0.1-0.7-1.1-0.5-1.7-0.6c0,0.8,0,1.7,0,2.5
		c-3.7,0.2-4.1,3.9-5.3,6.9c1.2,1.5,1.3,4,1.2,6.8c0.6,1.7,3.7,0.7,4.7,1.9c-1.3,1.8-2.3,2.5-2.3,4.4c1.2-0.3,1.1,0.9,1.2,1.9
		c-2.1,0-3.4,1-5.2,1.2c-0.5,1.1-1.6,1.6-1.2,3.8c-3.3-1.1-1.3,3.6-4.1,3.1c0.1,0.7-0.1,1.1-0.6,1.2c-2.6-0.3-3.1,1.7-4.7,2.5
		c-1.4,0.3-3,0.5-2.9,2.5c0.8,0.8,2.5,0.6,4.1,0.6c-0.3,2.8,2.7,2.1,2.4,5c-0.6,0.8-0.6,2.3-1.8,2.5c-2.7-1.5-5.1,0.6-8.7,0
		c-0.6,2.1,1.3,6.8-1.2,6.9c0.4,1.8,1.8,2.7,1.2,5.6c2.7-0.6,3.5,0.8,5.3,1.2c2.2-1.2,2.5-1.2,4.6,0c1.3-2.5,3.3-4.3,2.9-8.7
		c2.6-0.8,2.1-4.8,5.2-5c2.5,1.6,3.5-0.4,5.9-0.6c-1.6,2.4-0.8,6.3,0,9.3c3.7-0.4,1.4-3.5,1.7-6.9c-0.6,0-0.7-1.1,0-1.2
		c0,0.4,0,0.8,0,1.2c1.2,0.2,1.2,1.7,1.8,2.5c2.8,0.1,4.6,1.3,5.2,3.7c-0.1,1.3-1.5,1.3-2.9,1.2c-0.1,2.2,2.1,2,2.9,3.1
		c-0.3-2.8,1.6-3.3,2.9-4.4c0.3-1.4-1.1-0.9-1.2-1.9c1.1-1.9,2,2.1,2.9,0c-1.6-3.3-8.8-3.8-7-8.7c1.7,2.8,5,4.2,7,6.8
		c0.3,0.5,0.8,1.9,1.1,2.5c0.5,0.8,1.4,1.5,1.2,2.5c0,1.3,0,2.5,0,3.7c0.8,0.8,2.5,0.6,4.1,0.6c1-2.1-1.1-5.2,0.6-7.5
		c0.6,0,1.2,0,1.8,0c-0.7,2.5-0.1,2.3-0.6,5c1.3-0.2,0.8,1.8,1.7,2.5c2.1,1.6,6,1.1,7.6,0c1.8,0.9-1.5,3.2,1.2,3.1
		c2.4,0.5,0.1-4,2.9-3.1c0,1.3,0,2.5,0,3.7c-1.7,1.1-0.5,5.3-2.9,5.6c-4.2-1.7-9.5-2.2-15.2-2.5c-1.7,0.5-1.4,3.1-2.9,3.7
		c-2.7-3-8-3.1-10.5-6.2c0.4-2.2-0.7-2.6-1.2-3.7c1.4-0.2,1.3-1.7,0.6-2.5c-3.5,0-6.3,0.7-8.7,1.9c-4.7-0.3-8.8,0.1-11.1,2.5
		c-0.5-1.3-1.7-1.9-3.5-1.9c-0.5,2.2-2.6,2.6-4.1,3.7c-1.6,2.9-1,6.7-2.3,9.3c-0.9,1.6-4,3.3-5.3,5c-0.1,3.6-1.4,5.9-2.9,8.1
		c0,5.4,0,10.8,0,16.2c2,2.4,3.8,5.1,4.7,8.7c2.7,1.7,4.5,4.4,8.2,5c2.4-0.6,5.1-0.8,8.2-0.6c1.2-1,1.1-3.4,3.5-3.1
		c1,0.1,0.3,2.1,1.2,2.5c2.7-0.4,3.7,1,5.8,1.3c1-0.5,1.5-1.7,3.5-1.3c0.6,4.8-1.2,7-1.2,11.2c1.7,3.2,4.5,5.6,3.5,10
		c1.5,2.1,1.6,5.7,2.3,8.7c-1.4,2.8-1.1,7.5-2.3,10.6c2.5,2.5,4.3,5.8,5.3,10c0,1.9,0,3.7,0,5.6c2.6,3.2,2.5,9.3,5.2,12.5
		c5.6-0.4,8.4-3.8,13.4-5c0.9-3.4,2.7-5.9,5.2-7.5c-0.3-2.4,1-3,0.6-5.6c1-0.6,1.5-1.7,3.5-1.3c0.1-7.2,2.4-11.9,7-14.3
		c0.9-5.1,0.9-12.4,0-17.4c1.2-2.4,2.2-5.1,2.9-8.1c1.4-1,2.6-2.2,4.1-3.1c2.8-4.3,5.3-8.9,8.2-13.1c0.4-2.3,1.2-5.5-0.6-6.9
		c-2.5-0.4-2.3,2-4.6,1.9c-1.8,0-3.5,0-5.3,0c-0.3-4.3-3.2-5.7-5.3-8.1c0.5-4.1-3.5-3.4-2.3-8.1c-1-1.4-2.8-2-3.5-3.7
		c0.5-1.9-0.8-4.8,0-5c1.4,1.1,3,4.3,2.3,5.6c2.4,2.6,4.1,6,6.4,8.7c1.4,2.6,1.2,6.5,4.1,8.7c4.1-1.4,6.9-4.2,11.6-5
		c0.8-0.4,0.1-2.4,1.2-2.5c2.5-0.4,3.6-2.4,5.8-3.1c-0.4-2.7,1.7-2.8,1.8-5c-1-2.2-4-2.4-3.5-6.2c-2.2-0.3-3.7,0.2-4.7,1.2
		c-0.5-2.4-2.6-3-2.3-6.2c-1.9,0.2-1.7-1.9-2.9-2.5c0.9-0.3,1.5-0.9,2.3-1.3c3.2,2.2,2.3,8.8,8.2,8.1c0.2,1.2,1.7,1.1,1.2,3.1
		c2.8,0.3,3.2-1.9,5.8-1.9c0.6,0.4,0.6,1.4,1.7,1.3c4.1-0.7,5.1,2,7.5,3.1c-1-0.2-1.1,0.5-1.1,1.3c0.6,1.2,2.7,0.8,3.5,1.9
		c-0.3,2,1,2.2,0.5,4.4c1.8,2.1,2.5,5.2,3.5,8.1c1.2,1.2,2.4,2.4,2.9,4.3c0,1.3,0,2.5,0,3.8c0.7,0.9,2.5,0.6,4.1,0.6
		c0.8-4,2.9-6.5,2.3-11.8c0.8,0,1.6,0,2.3,0c0-0.8,0-1.7,0-2.5c2.2,0.9,1.1-1.7,2.9-1.2c-0.2-2.9,2.1-3.1,2.9-5
		c1.4-1.2,3.1-2.1,5.2-2.5c1.3,1.7,1.3,4.8,3.5,5.6c0.2,1.5-1.1,1.3-0.6,3.1c0.7,2,4.6,0.5,5.9,1.9c-0.8,1.3,0.3,1.9-0.6,3.8
		c1.5,0.7,2.6,1.8,2.9,3.7c-0.2,1.2-1.7,1.1-1.2,3.1c0.2,1.9,1.8,2.2,1.2,5c2.8,2.6,5.5,5.4,8.7,7.5c0.2-4.1-2.7-4.9-2.9-8.7
		c-1.6-1.2-3.2-2.4-4.1-4.4c0.3-2-0.8-5.4,1.2-5.6c1.3,1.8,2.2,3.9,4.7,4.4c0.4,0.6,0.6,1.4,0.5,2.5c5.7-0.8,7-6.2,6.4-13.7
		c-0.7-0.6-2.1-0.6-2.9-1.2c0.7-2.7-2.8-2.6-1.2-4.4c1.7-1.7,1.5,2.1,4.1,1.3c0.4-2.7,3.4-2.6,6.4-2.5c1.8-3,4.3-5.3,5.2-9.3
		c0.9,0.2,1-0.6,1.7-0.6c1-2.5-0.1-7.2,1.8-8.7c-1.2-0.6-1.8-1.8-1.8-3.8c-1-0.8-2.3-1.3-2.3-3.1c-0.3-1.5,1.1-1.4,0.6-3.1
		c1.2,0.2,1.8-0.1,1.7-1.3c1.7-0.8-2.6-3.7,1.2-3.7c0.7,2,2.7,2.5,3.5,4.4c-0.6,3.3,1.1,4.2,2.9,5c3.5-2.7-0.1-9.6,1.7-14.3
		c1.2-1.2,3-1.8,4.7-2.5c1.3-2.9,2.5-6,4.6-8.1c0.8-5-1.3-10.2,0-13.7c-0.8,3.6,1.3,4,1.8,6.2c0.1,3.9,0.3,7.6,2.9,8.7
		c1.1-1.1-0.5-1.6,0-3.7c1.6-0.1,1.2,1,2.3,0c0.1-2-1.5-2.1-1.2-4.4c-2.1-0.4-2.7-2.5-3.5-4.3c-0.2-2.2,0.2-5.2-1.7-5.6
		c-1.2,0.2-0.1,2.8-1.7,2.5c-1-4.6-4.9,2.9-6.4-1.9c0.4-1.5,1.5-2.1,2.3-3.1c0.7-2,0.4-4.9,2.3-5.6c1.3,1.5,1.1-0.9,2.9-0.6
		c2.8,0.4,5.3,1.6,8.8,1.3c-0.2,1.1,0.4,1.2,1.1,1.2c0.8-0.9,2.6-0.6,4.1-0.6c0.3-2-1-2.2-0.6-4.3c1.2-0.2,1.1-1.7,2.3-1.9
		c1.2,0.2,1.2,1.7,2.3,1.9c-0.3-1.4,1.7-3.4,2.3-1.9c-1.9,4-4.6,7.1-5.2,12.4c0.4,1.7,1.7,2.4,2.3,3.7c0.3,2.4,0.7,4.7,2.3,5.6
		c1.5-1.6,2.3-3.8,4.1-5c-0.5-3.1,1.9-2.6,0.6-5c0.1-1.3,1.5-1.2,1.7-2.5c-0.9-0.7-2.6-0.6-2.3-2.5c0.6-5.5,4.4-4.3,8.8-3.7
		c0.8-1,0.8-2.9,1.8-3.7c3.4-0.3,6-2,8.1-1.9C441.4,58.5,438.5,58.9,438.5,56.2z M242.6,63.1c1.1,1.3,2.6,2.1,4.6,2.5
		c0,2.1,0,4.2,0,6.2c-1.3-0.3,0.3-3.7-2.3-2.5c-1.3,2.2-0.5,6.5-2.3,8.1c-1.9,0.2-3.4-0.3-4.7,0c-1.6,0.3-2,1.8-3.5,1.9
		c0.2-0.8-1.7-2.2-1.7-0.6c-1.4-0.2-1.4-1.7,0-1.9c-1.3-1.5-2.2-3.4-2.3-6.2c2.9,0.3,1.8,8.8,7,6.2c1.3-2.5,2.2-5.5,3.5-8.1
		c-0.2-1.4-0.7-2.6-1.2-3.7c0.3-5.9,4.5-7.6,6.4-11.8c0.7-0.1,1.1,0.1,1.2,0.6C246.8,58,242.1,57.7,242.6,63.1z M249,67.4
		c0-1.9,2.1-1.5,3.5-1.9C252.6,67.5,250.8,67.4,249,67.4z M253.7,43.1c-0.3-0.3,0.4-0.8,0.6-0.6C254.6,42.8,253.9,43.3,253.7,43.1z
		 M264.2,132.8c-0.3-0.3,0.4-0.8,0.6-0.6C265.1,132.5,264.3,133,264.2,132.8z M264.8,55.6c-0.3-0.3,0.4-0.8,0.6-0.6
		C265.6,55.3,264.9,55.7,264.8,55.6z M307.9,45.6c-1.1-0.3-2.5-0.2-2.3-1.9c-1.7-0.1,0.5-2.6,0,0C306,44.7,308.4,43.6,307.9,45.6z
		 M344,34.4c-0.3-0.3,0.4-0.8,0.6-0.6C345,34.1,344.2,34.6,344,34.4z M345.8,33.8c-0.3-0.3,0.4-0.8,0.6-0.6
		C346.7,33.5,346,34,345.8,33.8z M347.6,32.5c-0.3-0.3,0.4-0.8,0.6-0.6C348.4,32.2,347.7,32.7,347.6,32.5z M373.8,111
		c0.8-1.2,1.3-2.8,3.5-2.5c0,1-0.3,2.4,0.6,2.5C377,112.9,375.3,110.5,373.8,111z"/>
	<path class="st0" d="M166.8,184.5c-1-1.2-1.7,0.3-2.9,0.6c-0.9-2.1-3.2-2.8-5.2-3.7c-1.4,0-2.8,0-4.1,0c-1-1.8-5-0.5-5.3-3.1
		c-1.6,0-3.4,0.3-3.5-1.2c1.7-2.9-1.7-10.9-7-8.1c-1.8-1.2-3.2-2.8-3.5-5.6c-3-0.9-5.2-2.7-8.2-3.7c-0.8,0.2-0.9,1.1-1.7,1.2
		c-0.8-2.2-3.6-2.3-4.1-5c-1.9-0.6-1.2,1.6-2.3,1.9c-1.4-0.4-1.5-2.1-2.9-2.5c-0.5,1.1-1.1,2.2-2.9,1.9c-0.9,2.6-3.2,3.6-4.7,5.6
		c0.1-2.1-0.7-3-2.4-3.1c-1.5,0.7-2.2,2.2-4.1,2.5c-1.4-3,0.6-5.9,0-10c-1.1-2.2-4.9-1.3-7-2.5c0.6-2.7,2.3-4.2,1.8-8.1
		c-2.8,0.4-3,0.4-5.8,0c-1.1,1.3-0.6,4.4-2.3,5c-7.8,0.4-2.9-10.7-4.7-15.6c2.1-0.5,3.3-1.9,5.3-2.5c3.2-0.3,3.9,2,7,1.8
		c0-0.9-0.1-1.7,0.6-1.8c2.8,0.1,6.6-0.8,7,1.8c-0.3,3.6,1.3,5.3,4.1,5.6c-0.7-3.2-0.4-4.2,0-6.2c-0.7-0.9-1.7-1.5-1.7-3.1
		c1-4.1,3.6-6.6,7.6-7.5c0.5-1.8,0.5-1.9,0-3.7c1.4,0.2,2.2-0.1,3-0.6c-1.5-3.4,1.9-2.7,1.1-6.8c1.9-0.8,3.8-1.7,5.8-2.5
		c0.3-2-1.8-1.4-1.2-3.7c2.1-1.9,5.4-2.6,8.2-3.7c0.4,1.7-1.2,1.3-1.2,2.5c2.3-1,4.8-1.9,6.4-3.7c-1.4-1-4.3-0.4-4.1-3.1
		c0.3-1.7,2.2-1.7,3.5-2.5c0.2-1.5-1.1-1.3-0.6-3.1c2.8,2.1,6.1-3,8.2-1.9c-1.3,3.3-4.1,5.1-5.2,8.7c2.2,0.4,2.5-1.1,4.6-0.6
		c0.1,1-0.3,2.4,0.6,2.5c0.6-1.5,2.2,0.9,4.1,0c-0.3-1.4-1.1-3.2,0-4.4c-2.1-0.2-2.7-2.1-3.5-3.7c0.2-3.9,0.2-4.2,0-8.1
		c-1.1-1.2-1.5,0-2.9,0c0.1-2.9-2.7-2.9-2.9-5.6c0.4-0.5,0.6-1.4,0.6-2.5c-2.2-1.4-1.4-6-4.7-6.2c-0.3,0.9,0.7,3.2-0.6,3.1
		c-1.2-0.4-3.8,0.8-4.1-0.6c0-2.1,0-4.1,0-6.2c-3.1,1.5-2.6-1.4-5.3-1.9c-1.5,1.7-1.3-0.7-2.9-0.6c-1.4-0.3-1.3,1.1-2.9,0.6
		c0.9,6.2-1.6,9.7-0.6,14.3c-1,0.2-2.9-1.8-3.5,0c0.6,1.8,2,0.4,2.3,1.2c-2,1.4-2.1,4.8-2.9,7.5c-1.3-1.9-1.6-5-2.3-7.5
		c-1.2-1.2-1.2,0.3-2.3,0.6c-0.5-1.8-0.9-0.7-2.4-0.6c-1.7-1.9-3.7-3.5-6.4-4.4c0.9-3.1-2.1-2-1.8-4.4c1.3,0.3,1.1-0.9,1.2-1.9
		c1.9-1.1,2.8-3.3,4.7-4.4c1.3-2.2,2.2-4.7,5.3-5c0-1.1-0.7-1.3-0.6-2.5c3.9-0.8,6.1-1.3,8.7-2.5c-0.1-2.4,0-4.6,0.6-6.2
		c-0.7-0.9-2.2-1-2.9-1.9c2.3-0.2,4.3,0,5.2,1.2c1.1-1.9,2.8,0.7,4.7,0c-0.8,3.2,2.7,1.7,2.3,4.4c-0.6,4.6-6.9,3-7.6,7.5
		c1,1.5,3.4,1.4,5.8,1.2c3.6,1.8,5.1,5.8,9.9,6.2c-1.3-3.2,1-3.1,0.6-6.8c-0.3-1.6-1.8-1.9-1.8-3.7c2.2,0.1,2.8,2,4.7,2.5
		c-0.2-1.6-0.2-3.1,1.7-2.5c-0.4-1.9,0.6-2.3,0.6-3.7c-1.6,0.4-1.1-1.3-1.7-1.9c-2-0.3-3.5-1.2-5.2-1.9c0.2-1.3,1.6-1.2,1.8-2.5
		c-0.8-1.5-2.6-1.8-2.4-4.4c-1.7,0-3.5,0-5.2,0c0.3-2-1.6-1.6-1.7-3.1c-2.5-0.4-3.9,0.5-5.8,0.6c0.3-3.9-4.6-2.6-5.3-0.6
		c0.2-2.3-0.5-3.6-2.3-3.7c-3,2-6.5,8.4-2.9,11.8c0.9,0.4,3-0.7,2.9,0.6c-0.6,1.8-1.8,3-2.9,4.4c-1.5-1.5,1.2-1.3,0.6-3.8
		c-2-1.4-3.9-2.9-4.7-5.6c-2.2,0.3-1.8-2.1-4.6-1.2c0.2,1.5-1.1,1.3-0.6,3.1c2,0.8,1.3,5.8,0,6.9c-0.9-0.5-1.2-1.6-1.1-3.1
		c-2.9-0.4-2.9,2.3-5.3,2.5c-2.2-1-4.5-1.8-5.8-3.7c2.6-0.5,3.5,0.8,5.8,0.6c1.3-1.3-0.3-1.8,0-3.7c3.2-0.7,4.5-3.5,7.6-4.3
		c-1.1-2-0.8-3.4-1.1-5c-2.9,0-5.8,0-8.7,0c-1.3,1.7-4.2,1.7-4.7,4.3c-0.3-0.9-0.9-1.5-1.2-2.5c-1.5,0-3.6,0.6-2.9-1.9
		c4.3,1,9.5-2.3,13.4-3.8c0,2.9,5,2.2,5.8,0.6c-0.4-1.4-0.5-3.2-1.1-4.4c-3.4,0.5-5.1,2.9-8.8,3.1c0-1.3,0-2.5,0-3.7
		c-3.2-1.2-3.8,2.9-1.7,3.7c-3.3,0.4-5.2-0.7-8.1-0.6c0.9,3.2-2.7,1.7-2.9,3.7c1.5,0.8,1.8-0.3,2.3,0.6c-0.4,0.8-1.3,1.2-2.3,1.2
		c-0.9-3.6-5.6-3.2-9.9-3.1c-0.3,3-1.8,4.7-3.5,6.2c-0.1,2,1.5,2.1,1.2,4.4c2.9,0.2,4.3-1.2,6.4-1.9c-1.2,3.4,3.2,0.7,3.5,2.5
		c0.4,1.7-2.7-0.4-2.3,1.2c0,3.4,6.4-0.1,5.3,4.4c2.2-1.4,2.9-1,5.2,0c0.2,0,0.4,0,0.6,0c-0.2-0.7,1.7-2.1,1.8-0.6
		c-0.1,0.7-0.9,0.7-1.8,0.6c0.2,1.6,2.5,3.5,0,4.4c-0.7-0.1-0.5-1.2-0.6-1.9c-5.2-0.5-7.8-3.7-14-3.1c-1.8-0.6-1.8-3-4.1-3.1
		c-0.3,1.8-1.8,2.2-3.5,2.5c0.2-1.4-0.1-2.4-0.6-3.1c-2.3,0.1-2.3,2.6-4.7,2.5c-2.2,0.5-2.8-0.8-4.7-0.6c-0.6,0.2-0.4,1.2-1.2,1.2
		c-0.6,0-0.5-0.8-0.6-1.2c-1.4,0.2-2.2,1-4.1,0.6c-4.6-3.1-13.6-1.6-18.6-4.4c-4.4,2-10,2.6-12.8,3.1c-1.3,2.4,1.1,2.5,1.7,4.4
		c2.2-0.3,3.7,0.2,4.1,1.9c-2.4-0.9-2.1,1.1-2.9,1.9c-1.1-0.5-1.6-1.6-2.9-1.9c-2.2,2.4-7.5,1.5-9.3,4.3c3.2-0.1,4.4,2,4.7,5
		c3.1-1.2,5.4,0.2,8.2-0.7c-2.9,5.5-15,1.1-14,10.6c1.9,1.5,2.4,1.7,1.8,5c1.1,0.1,1.2-0.8,2.3-0.6c0,1-0.3,2.4,0.6,2.5
		c0.8-2,0.3,2.5,1.8,1.9c0.7-2.4,3.3-3,5.2-1.2c-2.5,2.1-3.4,5.9-6.4,7.5c-2.7,0.9-3.6,3.6-7,3.7c0.5,2-0.9,1.9-1.2,3.1
		c2.7,0.4,3.6-1.1,6.4-0.6c0.7-1.8,2.5-2.3,4.7-2.5c2.2-4.3,6-6.9,9.3-10c0.4,0,0.8,0,1.2,0c0.6-0.6,0.2-2.3,1.7-1.9
		c0-0.4,0.1-0.7,0.6-0.6c0,0.4-0.1,0.7-0.6,0.6c0.2,2.8-1.6,3.3-2.3,5c4.8,0.6,6-2.7,9.9-3.1c0.3-2.8-0.3-4.7-0.6-6.9
		c2.7,0.6,2.8-1.6,5.2-1.3c1.6,1.2,3,2.7,4.1,4.4c3.7,1.3,6.9,3.1,6.4,8.7c2.8-0.4,0.1-3.4,2.4-3.7c0.1,5.3-0.2,11,1.7,14.3
		c-1.8,1.6-0.6,2.3,0,4.4c0,1.2-1.6,0.8-1.1,2.5c-0.3,6.8-0.7,11.4,0,18c1.5,1,2.6,2.6,4.1,3.7c1.6,2.4,1.5,6.7,3.5,8.7
		c-0.7,0.1-0.5,1.1-0.6,1.9c2.4,0.9,3,3.8,4.1,6.2c1.8-0.5,1.7,1.1,3.5,0.6c0.1-2.7-1.1-2.1-1.1-5.6c-0.3,0-0.7-0.5,0-0.6
		c0,0.2,0,0.4,0,0.6c1.2-0.3,1.1,0.9,1.1,1.9c1.8,1.4,3.4,3.1,4.7,5c-0.4,4.4,1.1,6.7,2.3,9.3c4.8,1.3,7.7,4.5,13.4,3.1
		c0.7,1.6,1.4,3,2.3,4.4c2.2-0.5,2.8,0.8,4.6,0.6c0.6,1.5,1.7,2.3,2.9,3.1c0,0.6,0,1.3,0,1.9c3.4,0.4,4.1,3.6,7,4.4
		c0.6-0.8,0.6-2.3,1.7-2.5c0.2,2.2,1.2,3.7,1.7,5.6c0,1.2-1.6,0.8-1.2,2.5c0.3,3.2-1.9,3.8-2.3,6.2c-1.1,4.3,2.3,6.7,0,8.7
		c1,1.2,2.9,1.5,4.1,2.5c-0.5,0.9-1.9,0.9-2.9,1.2c-0.4,5,2.1,6.9,5.3,8.1c0.2,1.5-1.1,1.3-0.6,3.1c2.2,1.8,3,5.1,6.4,5.6
		c1.1,2.8,2.9,4.8,2.9,8.7c-0.6,0.8-0.5,2.3-1.1,3.1c0.8,0.4,1.1,1.3,1.1,2.5c-1.6,2.8,0.7,6.1,0,10c-3.1,2-1.7,9-2.9,13.1
		c0.9,1.7,2.4-1.1,2.9,0.6c0.5,3-2,2.9-2.9,4.3c-0.7,2,1.9,0.5,1.1,2.5c-1.1,1.5,0.6,3-0.6,5c0.6,4.2,2.5,6.4,1.2,10
		c1.7,1.5,1.5,5,3.5,6.2c-0.1,1.1,0.7,1.3,0.6,2.5c1.5,0.3,2.4,1.2,3.5,1.9c2.2-0.4,6,1,6.4-1.2c-1.6-0.4-2.7-1.2-3.5-2.5
		c0.4-2.1-2.4-0.8-1.7-3.1c-0.2-2.7,1.7-3.2,1.7-5.6c1.5-0.1,2.3-0.9,2.3-2.5c0.3-2.2-2.1-1.5-1.8-3.7c1.6-1.9,4-8.1,0-8.7
		c3.9,1.1,3.8-2.2,4.7-4.3c3.1,0.2,4.2-1.8,6.4-2.5c0.4-2.9-0.9-4-1.2-6.2c1.6,0,3.1,0,4.7,0c0-0.6,0.7-0.5,1.2-0.6
		c0.3-1.5,0.5-3.2,2.3-3.1c-0.2-3.5,2.2-4.3,3.5-6.2c0-1.4,0-2.9,0-4.3c1.1-1.1,1.8-2.6,2.9-3.8c2.8-0.9,2.8-0.9,5.3-1.9
		c0.3-4,3.1-7.5,1.2-11.8c0.9-0.5,1.3-1.6,1.2-3.1c0.9,0.2,1-0.6,1.8-0.6c0.2-2.1,1.7-2.7,2.3-4.3c1.6-1.6-0.1-3,1.7-3.7
		c-0.4-1.9,0.6-2.3,0.6-3.8C168,187.8,167.4,186.1,166.8,184.5z M140,81.1c0.3,0.3-0.4,0.8-0.6,0.6C139.1,81.4,139.8,80.9,140,81.1z
		 M95.1,32.5c1.8,0.6-0.6,1.7-0.6,2.5C92.7,34.4,94.8,32.9,95.1,32.5z M92.8,35.6c1.8-0.3,2.1,1.2,4.1,0.6c0,2.5-2.3,2.5-4.1,3.1
		C92.8,38.1,92.8,36.9,92.8,35.6z M74.7,36.9c-0.3-0.3,0.4-0.8,0.6-0.6C75.6,36.6,74.8,37.1,74.7,36.9z M62.4,126.6
		c0.1-0.7,0.6-0.3,0.6,0C62.9,127.3,62.4,126.9,62.4,126.6z M63,127.8c1.4,0.2,1.3,1.9,2.3,2.5C64.6,131.9,62.5,129.6,63,127.8z"/>
	<path class="st0" d="M285.8,41.9c-0.8-2.9-3.6-3.7-2.9-8.1c4.1-0.4,5.7-3.5,8.7-5c3.7,0.4,5.5-1.1,5.9-4.3c-1,0-2,0-2.9,0
		c-0.1,0.5,0,1.2-0.6,1.2c-4.4,0.5-7.6,2.2-11.1,3.7c0.3,3.2-2.8,2.8-2.3,6.2c-0.7,1.3-2.2,1.8-2.3,3.7c1.8,1.3,3.7,2.7,5.8,3.7
		C284.2,42.3,284.8,41.8,285.8,41.9z"/>
	<path class="st0" d="M383.1,30.7c1.4-1,2.1-2.8,3.5-3.7c-2.2-0.3-2.7-2.9-4.7-2.5c-0.3,0-0.5,1.5-1.2,1.2c-1.1,0-2.3,0-3.5,0
		C376.5,30.2,381.5,28.7,383.1,30.7z"/>
	<path class="st0" d="M197.1,58.7c0.1-1.6,2.2-1,2.9-1.9c0.6-3.2-1.3-3.6-1.2-6.2c-2.5,0.8-3.4-0.4-5.8,0.6
		c-1.6-0.4-1.5-2.6-3.5-2.5c0.7,3-2.3,2.1-2.3,4.3c1.6,0.5,1.5-0.9,2.9-0.6c-0.3,1.5-2.2,1.3-1.7,3.7c2.9-0.8,2.3,2.1,4.1,2.5
		C193,57.4,196.5,58,197.1,58.7z"/>
	<path class="st0" d="M117.2,58.7c-2.3-0.7-0.8-1.6-2.3-3.1c-1.8,0.5-1.7-1.1-3.5-0.6c-0.8,1.2-0.3,3.8-2.9,3.1
		c0,2.2,1.9,2.5,4.1,2.5C112.4,55.7,116.5,62.6,117.2,58.7z"/>
	<path class="st0" d="M219.9,81.1c-0.8-0.6-1.8-1-2.4-1.9c0.7-3.7-3.9-4.3-1.7-7.5c-0.8-0.6-1.8-1-2.4-1.9c0.8-0.5,1.8-0.9,1.8-2.5
		c-2.1-0.2-3.3,0.7-4.6,1.2c0.4,3.4-0.9,4.8-0.6,8.1c1.4,0.9,2.1,1,2.9,1.2c0.2,2.2-2,3.4-2.9,2.5c-0.5,2.8,0.4,4.2,1.2,5.6
		c-1,0.6-3.1,0-2.9,1.9c2.9-0.5,5.8-0.9,9.3-0.6C218,84.7,217.7,82.9,219.9,81.1z"/>
	<path class="st0" d="M204.1,83.6c1.3-0.7,3.5-0.4,4.7-1.3c-0.6-2.6-0.1-2.8,0-5.6c-1,0-1.9,0-2.9,0c0,2.8-1.3,0.8-2.3,1.9
		C203.6,80.4,203.2,82.7,204.1,83.6z"/>
	<path class="st0" d="M404.1,101.7c1.1,0.1,0.4,2,1.8,1.9c1.3-1.5,1.1-4.6,3.5-5c-3.1-0.5-5-2.2-8.2-2.5c0.4,3-0.7,4.3-0.6,6.9
		C402.2,104.6,402.1,101.3,404.1,101.7z"/>
	<path class="st0" d="M390.7,121c-0.1,2.2,1.4,2.7,2.3,3.7c0.4-2.3,1.8-3.4,3.5-4.4c0.8,0,1.3,0.3,1.7,0.6c1.8-2.4,5.7-2.6,7.6-5
		c-0.1-4.4-1.3-7.8-1.2-12.5c-0.8,0-1.6,0-2.4,0c0.7,2.9-0.3,4.3,0.6,7.5c-0.5,0.2-0.7,0.5-0.6,1.3c-2.1,1-3.1,1.7-5.2,3.7
		c-2.1,1.1-5.8,0.5-5.8,3.7c-0.3,1.7,3.2-0.5,2.9,1.2C393,121,391.9,121,390.7,121z"/>
	<path class="st0" d="M248.4,116c0.2,1.7,1.9,0.5,3.5,1.9c0.4-2.3-0.9-2.8-2.9-2.5C249.1,115.9,248.8,115.9,248.4,116z"/>
	<path class="st0" d="M378.4,137.2c0.9,0.9,1.5,2.1,1.7,3.7c2.4-0.1,2.2-3,2.4-5.6C381.1,133.9,379.1,135.7,378.4,137.2z"/>
	<path class="st0" d="M108.5,135.3c0,0.8,0,1.6,0,2.5c0.8,0,1.5,0,2.3,0C110.8,136.2,110,135.4,108.5,135.3z"/>
	<path class="st0" d="M114.9,138.4c0.2-1.4-0.1-2.4-0.6-3.1c-0.6,0-1.2,0-1.8,0C112.3,137.4,112.7,138.8,114.9,138.4z"/>
	<path class="st0" d="M115.5,137.8c0,1,0,2.1,0,3.1c1.2,0.3,1.6-0.4,2.3-0.6C117.8,138.7,117,137.8,115.5,137.8z"/>
	<path class="st0" d="M114.3,147.7c2.1-0.4,2.8,0.7,4.1,1.3c0-1.8,2.4-1.1,4-1.3c-0.8-4.1-4-3.6-7.6-3.7c0.4-1.7-1.2-1.3-1.2-2.5
		c-1.3-0.7-3.2-0.7-3.5-2.5c-2.9,0-5.8,0-8.7,0c-0.3,1.2-1.3,1.6-1.2,3.1c2.4,0.2,2.4-2.1,5.3-1.3c2.5,0.5,2.7,3.3,5.3,3.7
		c1.4,0.4,4.2-0.8,4.6,0.6C113.4,145.3,114,146.2,114.3,147.7z"/>
	<path class="st0" d="M120.1,140.9c-0.2-0.8-1.5-0.5-2.3-0.6C116.6,142.6,120.8,143.1,120.1,140.9z"/>
	<path class="st0" d="M380.8,147.7c0.9,1.5,2.1,2.8,3.5,3.7c0.7-1.9,2.7-2.5,2.3-5.6C385,143.6,380.7,144.6,380.8,147.7z"/>
	<path class="st0" d="M366.8,149.6c1.6-0.4,1.6-2.4,2.3-3.7c-0.5-0.5-1.3-0.7-2.3-0.6C365.7,147.7,366,145.8,366.8,149.6z"/>
	<path class="st0" d="M107.9,146.5c0,0.8,0,1.7,0,2.5c2-0.7,2,0.2,4.1-0.6C112.4,145.9,109.8,146.6,107.9,146.5z"/>
	<path class="st0" d="M123.6,149c2.1,0.2,4,0.1,3.5-2.5c-1.2,0-2.3,0-3.5,0C123.6,147.3,123.6,148.2,123.6,149z"/>
	<path class="st0" d="M184.9,149c0,1.2-1.6,0.8-1.1,2.5c0.8,0,1.5,0,2.3,0C186.2,150.1,185.9,149.1,184.9,149z"/>
	<path class="st0" d="M385.5,159c1.2,1.3,1.6-0.3,3.5,0c-0.2,1.4-1.3,2.7,0.6,3.1c0.8-1.8,2.5-2.8,5.2-2.5c0.5-2.9-1.9-2.6-2.9-3.7
		c0.2-2-0.7-3-2.3-3.1c-0.8,0.8-0.6,2.7-0.6,4.4C387,156,386.4,157.5,385.5,159z"/>
	<path class="st0" d="M327.7,160.8c0.8,3.7-2.2,4.4,0,6.2c1.8,0.3,1.6-1.7,2.9-1.9C330.2,163.2,329,162,327.7,160.8z"/>
	<path class="st0" d="M366.2,177.6c0.6,2.5,3.1,2.9,2.9,6.2c3.8-0.9,3.2,2.8,7,1.9c-0.2-1.4,1.7-0.7,1.8-1.9c-0.4-0.1-1.1,0-1.2-0.6
		c1.9-0.9,1-4.7,2.9-5.6c-1.3-2,0.5-4.1-0.6-5.6c1-0.6,2-1.1,1.7-3.1c-1.4-1.2-2.5-2.7-5.2-2.5C375,172.9,367.3,171.7,366.2,177.6z"
		/>
	<path class="st0" d="M355.1,173.3c-0.9-1.5-2.7-2.4-2.3-4.3c-1.6,0.4-1.2-1.3-2.3-1.3c0.1,2.7-1.4-0.1-2.9,0.6
		c0,7.3,8.2,5.8,7,14.3c2.9,0.3,3.7,4.4,6.4,3.1c1.3-2.4-1.2-5.1-1.1-8.1C358,176.4,355.9,174.6,355.1,173.3z"/>
	<path class="st0" d="M387.8,178.3c-0.1-2.8-3.7-1.9-4.7-3.7c-3,2.6-5.1,9.5-0.6,11.8c-0.1-1.8,0.1-3.2,1.2-3.7
		c1.3,1.2,1.4,3.2,3.5,1.9c-0.3-2.6-2.3-3.4-2.3-6.2C385.6,179.1,387,179.1,387.8,178.3z"/>
	<path class="st0" d="M400.6,175.8c-1.9-1.3-6.6-1-6.4,1.9C396.2,179,400.5,178.4,400.6,175.8z"/>
	<path class="st0" d="M407,178.3c-1.4,0-2.7,0-4.1,0c-0.5,0.9-0.9,2-2.3,1.9c-1.8,0.5-1.1-1.7-2.9-1.3c0.2,1.6-2.3,0.5-1.8,2.5
		c0.1,1.4,1.5-0.8,2.9,0c2.6,2.2,6,3.6,8.2,6.2c0,1.2,0,2.5,0,3.7c3.1-2,4.1,1.3,6.4,1.9c2-0.1,1.4-3.1,4.1-2.5
		c1.4,0.9,2.9,4.7,5.2,2.5c-1.2-0.5-1.8-1.8-1.7-3.7c-1.5-1.5-3.7-2.3-4.7-4.4c0-0.6,0-1.2,0-1.9C411.9,183.1,410.6,179.4,407,178.3
		z"/>
	<path class="st0" d="M376.1,192.6c0.3-2.2-2-1.5-1.7-3.7c-4.8,0.1-8.1-1.3-11.7-2.5c-0.5,1.1-1.6,1.6-1.1,3.7
		C367.1,190.1,369.8,193.4,376.1,192.6z"/>
	<path class="st0" d="M419.3,216.9c0.2-2.9-1-4.3-0.6-7.5c-1.1-0.4-1.3-1.9-2.3-2.5c-0.2-4.8-4.2-5.5-3.5-11.2
		c-1.1,0.1-1.3-0.7-2.3-0.6c-1.5,2.6,0.6,9-1.8,10.6c-2.3,0.8-1.2-2.1-3.5-1.3c-0.1-1.7-2.8-0.8-2.3-3.1c-0.3-2,2.9-0.2,2.3-2.5
		c-2-2.4-8-0.6-11.1-1.9c-1,0.4,0,2.9-1.2,3.1c-2.2,0.4-4.1,1-5.8,1.9c-0.7,1.9-0.2,5.2-2.3,5.6c-1.4-1.5-2.9,0.1-4.7,0
		c-1.1,0.4,0.1,3.5-1.1,3.7c-1.2-0.3-1.1-1.9-2.3-0.6c-1.5,1.6-0.8,5.4-2.9,6.2c-1.3,0.9-3.9,0.4-4.7,1.9c0.6,2.8,2,6.2,0.6,9.3
		c1.1,0.4,1.5,1.7,1.7,3.1c0.3,2.8-1,3.9-0.6,6.8c1.7-0.2,1.8,1.4,3.5,1.3c2.4-1.1,3.9-3.3,8.2-2.5c2.1-2.8,6.1-3.4,11.1-3.1
		c1.7,1.3,2.7,3.3,3.5,5.6c2.3-1.2,1.6,1.4,4.1,0c0,1.6,0.2,3.5-0.6,4.4c3.7,2.3,5.9,2.4,11.7,2.5c1.5-1.1,2.6-2.7,4.7-3.2
		c-0.3-3.2,2.8-2.8,2.3-6.2c2-0.1,1.5-3,3.5-3.1c-0.7-2.2,1-3.5,1.2-5.6c0.3-3.8-1.1-7.7-1.7-11.2
		C420.7,216,419.8,218.7,419.3,216.9z"/>
	<path class="st0" d="M283.4,196.9c-1,1.8-1.9,3.8-2.3,6.2c-2.5,0.6-3.8,2.5-5.2,4.4c-0.5,2.2,0.8,2.4,0.6,4.4
		c-0.5,1.3-0.9,2.8-1.8,3.7c1.3,2.8-0.4,5.3,1.8,7.5c1.9,0.1,2.5-1.1,4.7-0.6c1.3-2.8,0.8-4,2.3-6.8c0-1.1,0-2.1,0-3.1
		c0.1-0.7,0.6-1,1.2-1.3c-1.1-2.7,1.1-5.3,1.2-10C283.6,201.3,285.8,196.7,283.4,196.9z"/>
	<path class="st0" d="M451.3,239.3c0.1-1.8,0.1-3.4-1.7-3.1c0,1.7,0,3.3,0,5c-0.5,1.8-2.8,1.6-2.3,4.4c3.9-0.6,1.3,1.9,1.2,3.7
		c3.7-0.2,3.8-4.3,5.3-6.8c0.9-0.9,2.4-1.1,2.9-2.5C455.2,238,454.1,239.5,451.3,239.3z"/>
	<path class="st0" d="M444.9,246.8c-0.5,1.3-1.8,1.8-1.7,3.7c-1,0-1.8,0.1-2.4,0.6c-1,1.2-1.4,3.1-2.9,3.7c-2.4,1-3.1,3.7-4.1,6.2
		c1.9-1,3.2-0.3,5.2,0c0.6-1.5,2.4-1.7,1.8-4.4c0.8,0,1.6,0,2.4,0c0.2-3.5,4.6-2.5,4.6-6.2C447.6,248.4,446.1,247.8,444.9,246.8z"/>
	<path class="st0" d="M405.3,248.6c-0.7,1,1.9,3.8,2.3,5.6c2.8-0.3,4.7-1.7,4.1-5.6C409.2,249.1,406.3,247.8,405.3,248.6z"/>
	<path class="st0" d="M141.1,267.9c0.8,0,1.6,0,2.3,0C143.9,265.5,141,265.9,141.1,267.9z"/>
</g>
</svg>
