<svg id="Layer_1" xmlns="http://www.w3.org/2000/svg" viewBox="0 0 459.3 282.7"><style>.st0{fill:#00a7a1}.st1{fill:none;stroke:#babcbe;stroke-miterlimit:10}.st2{fill:#f1f1f1}.st3{opacity:.9;fill:#f4fafc}.st4,.st5{fill:#484359}.st5{stroke:#b6b5bd;stroke-linecap:round}.st6{fill:#333}.st7{fill:#f2f2f2}.st8{fill:none;stroke:#676767;stroke-miterlimit:10}.st9{fill:url(#SVGID_1_)}.st10{opacity:.6;fill:#fff;stroke:#bee0dd}.st11{fill:none;stroke:#000;stroke-miterlimit:10}.st12{fill:none;stroke:#221f1f}.st13,.st14{fill:none;stroke:#d0d1d2}.st14{stroke:#231f20}.st15{fill:#231f20}.st16{opacity:.9;fill:url(#SVGID_2_)}.st17{fill:#cbcaca}.st18{fill:#1a1a1a}.st19{opacity:.3;fill:#fff}.st20{fill:#fff;stroke:#ecdad3}.st21{fill:url(#SVGID_3_)}.st22{opacity:.2}.st23{fill:#fff}.st24{fill:#38334a}.st25,.st26{fill:none;stroke:#38334a}.st26{stroke:#b6b5bd}.st27{fill:#6d697a}.st28{opacity:.8}.st29{fill:none;stroke:#fff;stroke-width:5;stroke-linecap:round;stroke-linejoin:round}.st30{fill:#ebe6e5;stroke:#eceae5;stroke-miterlimit:10}.st31{opacity:.9}.st32{fill:none;stroke:#fff;stroke-width:2;stroke-linecap:round;stroke-linejoin:round}.st33,.st34{fill:#ebf7fd;stroke:#eceae5;stroke-miterlimit:10}.st34{fill:#d0d1d2;stroke:#fff}.st35{opacity:.2;fill:#e4e4e3}.st36{opacity:.6;fill:#69bbb6}.st37{fill:none;stroke:#ee5345;stroke-miterlimit:10}.st38{fill:#ee5345}.st39{fill:#babcbe}.st40{fill:#e0e0e0}.st41{fill:#ef6541}.st42{fill:#8e8d8d}.st43{fill:#59595c}.st44{fill:#f1f2ee}.st45{fill:#919395}.st46{fill:none;stroke:#fdeb98;stroke-miterlimit:10}.st47,.st48{fill-rule:evenodd;clip-rule:evenodd;fill:#211f1f}.st48{fill:#ee5345}.st49{opacity:.3}.st50,.st51{opacity:.7;fill:#69bbb6}.st51{fill:#5c8b88}.st52{fill:#d1d2d2}.st53{fill:#5a595c}.st54{fill:#e5e5e4}.st55{fill:#211f1f}.st56{fill:#bfbfbf}.st57{fill:#e6d6bf}.st58{fill:#cf9d76}.st59{fill:#ddb089}.st60{fill:none;stroke:#211f1f;stroke-width:.437;stroke-miterlimit:10}.st61{fill:#7e808f}.st62{fill:#8e929e}.st63{fill:none;stroke:#e7cfa5;stroke-width:.13;stroke-miterlimit:10}.st64{fill:#686c7a}.st65{fill:#c7c7c7}.st66{fill:#d2d2d2}.st67{fill:#3f5554}.st68{fill:#595c62}.st69{fill:#61636a}.st70{fill:#505157}.st71{fill:#f0e3d1}.st72{fill:#cab194}.st73{fill:#3c2418}.st74{fill:#6d6e71}.st75{fill:#dee8e6}.st76{fill:#ecf2f0}.st77{fill:#a77d51}.st78{fill:none;stroke:#211f1f;stroke-width:.48;stroke-miterlimit:10}.st79{fill:#b8dae6}.st80{fill:#d3e7ef}.st81{fill:#28a6de}.st82{fill:#bcbcbe}.st83{fill:#addff2}.st84{fill:#cbeaf6}.st85{fill:#92a2a5}.st86{fill:#56696f}.st87{fill:#5c7075}.st88{fill:none;stroke:#e7cfa5;stroke-width:.116;stroke-miterlimit:10}.st89{fill:#3e5156}.st90{fill:#a2b0b4}.st91{fill:#bcbbbe}.st92{fill:#776f5c}.st93{fill:#949fa7}.st94{fill:#6e6656}.st95{fill:#564d3d}.st96{fill:#a4aeb4}.st97{fill:#3d4c55}.st98{fill:#c1966b}.st99{stroke:#231f20}.st100,.st101,.st99{fill:none;stroke-miterlimit:10}.st100{stroke-width:2;stroke:#babcbe}.st101{stroke:#e6e6e6}.st102{fill:#f05b27}.st103{opacity:.7;fill:#fff;stroke:#d0d1d2;stroke-miterlimit:10}</style><g class="st49"><path class="st0" d="M180.8 40.6c1.2 0 .7-1.7 2.3-1.2 2.2.8 3.4 2.6 6.4 2.5 2-1.5-2.8-2.8-1.2-3.7.9.3 1.5.9 2.3 1.2.5-2.1-.7-2.6-1.2-3.7 4.8-.3 3.2-6.5 2.4-10 1.4-.5 3.1-.8 5.2-.6-.2-2.7-3.1-2.5-4.6-3.7 1.8.3 1.3-1.9 3.5-1.3.4-1.9-1-1.8-.6-3.7 2.1.3 1.4-2.2 3.5-1.9 1.5-.5 5 1.2 4.7-1.2.5-2.3-2.5-.6-2.9-1.9-1.4-.2-1.1-2.1-2.9-1.9-2.5-.4-5.2 2.2-6.4 1.3.4-3.1 5.1-1.6 5.8-4.4-1.2-1.8-3.8-2.2-7-1.9-1.9-.7-4.2-1.6-5.2 0-.5-.9-1.9-.9-2.9-1.3-2.4 1.7-8.1-.3-10.5 1.3-2.7.1-5.9-.5-7 1.3-.1 1.4 1.6 4 .6 4.3-4.2-.7-6.6.4-10.5-.6-5.8.9-8.6 4.9-14.6 5.6-.6 2.2 2.6.5 2.3 2.5-1.7 1.5-4.8 1.5-6.4 3.1-1.4-.8-3.3-.7-4.1 1.9 1.9-.5 1.8 1 2.9 1.2 0-1.7 2.9-1.7 2.9 0 1.4-.4 4-2.8 4.1.6-2.5.2-6-.6-7.6.6.5 2.3 2.7 2.9 4.7 3.7 1.8.5 1.1-1.7 2.9-1.2 1.8 1.2 3.6 2.4 7 1.9-.5 2.8.4 4.1 1.2 5.6-.2 1.5-.9 2.3-.6 4.4 2.3 1.2 2.7-2.9 4.1-.6.3 2.2-1.8 1.9-3.5 1.9.5 2.8 4.4 1.9 5.2 4.4-1.3 1.1-2.9 1.8-4.1 3.1 1.6.8-1.8 1.3-1.2 3.1 4.2 3 .9 10.1 4.1 14.3h4.1c1.7.1 1 2.6 2.9 2.5.6-1.3 1-2.7 2.3-3.1-.7-4.7 2.9-4.8 2.3-9.3 1.5-.1.8-2.4 2.3-2.5 2.2 1.3 2.2-1.5 4.7 0 .9-.9 1.8-1.8 2.9-2.5 2.8-.8 4.1-3.2 7-3.7.2-2.2 5.1-2.8 3.5-5-1 1.3-3.5-1.2-5.1-1.4zm5.8-2.5c-1.6-1.1 0-4.1 1.7-3.7-.2 1.6-1.5 2.1-1.7 3.7zm4.1-29.8c0 1.8-1.3 2.3-2.3 3.1-1.8-1.2-4.4-1.5-7.6-1.2 2-2.6 7.4-1.6 9.9-1.9z"/><path class="st0" d="M108.5 17.6v3.7c1.8-.4 2.1.6 3.5.6.3-2.8 3.8-5.5 5.8-4.3.9 2.6-3 .1-2.9 1.9 1.8.9-2 1.1-1.8 2.5 1.5-.4 2.1.3 1.8 1.9-1.4 0-1.7-1.1-3.5-.6.1 1.8-2 1.2-1.2 3.7 3.5-.5 6-.9 7.6 1.9-4.6 1.1-7.6-2.5-10.5-1.2-.5 3 3.5 1.2 3.5 3.8 4.4-.7 10.3 2.8 11.6-1.9 1.5.2 2.5-.2 2.3-1.9.4-1.7-2.7.5-2.3-1.2h4.1c0-3.3 3.6-2.9 2.9-6.8 3-.1 3.3-3.1 7-2.5.7-1.5 1.9-2.5 4-2.5.7-1.5-1.3-3 0-3.1 2.4-1.2 6 .6 7-3.1 0-1-1.6-.3-1.7-1.2-9.6 1.4-22.6-1.8-32.7 2.5-.8 3.8 2.5 3.1 2.9 5.6-3.8.3-2.6-4.7-7-3.8-.2.9-.9 1.2-.6 2.5-.9 0-2-.1-1.8 1.2-.3 1.8 1.8 1.1 2 2.3zm12.2 11.2c.3.3-.4.8-.6.6-.3-.3.5-.8.6-.6zM251.9 16.3c.3-1.7 3.1-.9 2.3-3.7-5.3-.9-10.4-1.1-15.2-1.3 0 1.1.1 2 .6 2.5 3.8 1.3 6.8 3.3 12.3 2.5zM229.2 19.5c-.1 1.5-1.1 1.9 0 3.1 2.4-.1 2.5-2.8 5.2-2.5-.1 2.8-2.9 2.8-2.9 5.6 1 .8 2 1.6 4.1 1.3-.3 1.9 1.2 2 2.9 1.9.5-2.3 1-4.7 1.7-6.8 1.5 1.7 2.4 4.1 6.4 3.1.5-4.7-3.1-5-4.7-7.5-.2 1.4-1.6-.7-2.4-.7-1.4.1-2.4-.3-2.9-1.2 1.4-1.7-.5-3.7-2.9-3.1-1.7 1 .9 3.2-.6 3.7-1.2-3-6.8-5.9-7 0 .4 1.8 2.7 1.4 3.1 3.1zM288.1 15.1c0-3.9-5.4-2.6-5.2.6 1.9 2 3-.8 5.2-.6zM320.8 18.8c4.6-.8 9.4 2.2 10.5-1.9-1.4-2.4-6.7-3.4-9.9-1.8-1.4.1-.3 2.6-.6 3.7zM438.5 56.2c1.4-.2 1.1-2.2 2.9-1.9 3.1.1 2.6 3.8 6.4 3.1.8-1.1-.5-3.1.6-5-1.6-.8-3.8-4.1-5.2-1.3.2-1.4-.1-2.4-.6-3.1-3.2-1.2-4.9-4-9.9-3.1-.7-1.2-2.3-1.3-2.9-2.5-3.8.5-4.6-2.1-8.8-1.3-.8 1.8 1.6 3.2 0 3.7-1.7-.3-1.4-2.7-2.9-3.1-1.7 1.9-4.9.2-8.2 1.2-2.1-1.5-1.9-5.4-6.4-4.4-.8.1-.2 1.9-1.2 1.9-2.4-1.1-4.8-2.3-7-3.7-.3.5-.5 1.1-1.2 1.2.7-2.4-1.4-1.9-2.9-1.9 1.4-1.5-.6-1.4-1.1-2.5-2.8 1.1-2.6-.4-5.3-.6-.2.8-1.5.5-2.3.6-.6 1.2 1.7 2.1 0 2.5-5-.8-11.4 1.1-15.8 0-1.5-.4-2-2.3-3.5-1.9-2.7.7-4.5-.6-6.4-1.2-.7-.3-1.6.1-2.3 0-1.5-.3-2.6-2-5.8-1.3.2-1.6 1.7-1.9 1.7-3.7-.8-1.8-2.7-2.5-3.5-4.4-1.8.8-4.5.7-7 .6-1.5-.5-1.2-2.8-3.5-2.5-1.4.6-1.9 2.1-1.7 4.4-2.9-1-1.9 2.2-4.1 1.9-1.1-.3-.5-2.4-2.3-1.9-1.5 1.7-3.6 2.8-7 2.5-1 .8-1.5 2.1-3.5 1.9-.8.8-.3 3-1.8 3.1-1.2.4-4-1-3.5 1.2 0 2.3 3.4.9 2.9 3.7-2.1-.7-2.7-2.9-5.8-2.5 0 1.6.3 3.7-1.2 3.7-.7-.7-.7-2.2-.6-3.7-2.3-.5-.9 2.7-3.5 1.9-.9-1.1-.8-3.3-3.5-2.5-1.6 2.6-3.9 4.6-5.9 6.9-3.8.3-3.5-1.2-7.6-1.3-.9 3.1 3 .9 2.3 3.7-2.4-.6-5 .3-8.7 0-2.6 1.1-4.1 3.6-7 4.4v-3.7c-1.4.1-2.8.1-3.5-.6.1 3.5 0 6.7-3.5 6.2.2 2.3-2.1 1.9-3.5 2.5-1.4.8 1 1.9-.6 2.5-3.4.7-3.6-4.5-3.5-5.6 2.7 0 5.7-.3 7.6.6 1.6-3.9-3.3-5.9-7-6.2-.9-1.5-2.5-2.3-4.6-2.5-.8-1.5-1.6-2.8-2.9-3.7h-5.3c-1.6 1.2-3.1 2.5-4.6 3.7-.3-.9-.8.3-1.8 0-2.1 2.4-4.7 4.1-7 6.2-.7 2.8-1.8 5.1-3.5 6.8-.1-.7-1.1-.5-1.7-.6v2.5c-3.7.2-4.1 3.9-5.3 6.9 1.2 1.5 1.3 4 1.2 6.8.6 1.7 3.7.7 4.7 1.9-1.3 1.8-2.3 2.5-2.3 4.4 1.2-.3 1.1.9 1.2 1.9-2.1 0-3.4 1-5.2 1.2-.5 1.1-1.6 1.6-1.2 3.8-3.3-1.1-1.3 3.6-4.1 3.1.1.7-.1 1.1-.6 1.2-2.6-.3-3.1 1.7-4.7 2.5-1.4.3-3 .5-2.9 2.5.8.8 2.5.6 4.1.6-.3 2.8 2.7 2.1 2.4 5-.6.8-.6 2.3-1.8 2.5-2.7-1.5-5.1.6-8.7 0-.6 2.1 1.3 6.8-1.2 6.9.4 1.8 1.8 2.7 1.2 5.6 2.7-.6 3.5.8 5.3 1.2 2.2-1.2 2.5-1.2 4.6 0 1.3-2.5 3.3-4.3 2.9-8.7 2.6-.8 2.1-4.8 5.2-5 2.5 1.6 3.5-.4 5.9-.6-1.6 2.4-.8 6.3 0 9.3 3.7-.4 1.4-3.5 1.7-6.9-.6 0-.7-1.1 0-1.2v1.2c1.2.2 1.2 1.7 1.8 2.5 2.8.1 4.6 1.3 5.2 3.7-.1 1.3-1.5 1.3-2.9 1.2-.1 2.2 2.1 2 2.9 3.1-.3-2.8 1.6-3.3 2.9-4.4.3-1.4-1.1-.9-1.2-1.9 1.1-1.9 2 2.1 2.9 0-1.6-3.3-8.8-3.8-7-8.7 1.7 2.8 5 4.2 7 6.8.3.5.8 1.9 1.1 2.5.5.8 1.4 1.5 1.2 2.5v3.7c.8.8 2.5.6 4.1.6 1-2.1-1.1-5.2.6-7.5h1.8c-.7 2.5-.1 2.3-.6 5 1.3-.2.8 1.8 1.7 2.5 2.1 1.6 6 1.1 7.6 0 1.8.9-1.5 3.2 1.2 3.1 2.4.5.1-4 2.9-3.1v3.7c-1.7 1.1-.5 5.3-2.9 5.6-4.2-1.7-9.5-2.2-15.2-2.5-1.7.5-1.4 3.1-2.9 3.7-2.7-3-8-3.1-10.5-6.2.4-2.2-.7-2.6-1.2-3.7 1.4-.2 1.3-1.7.6-2.5-3.5 0-6.3.7-8.7 1.9-4.7-.3-8.8.1-11.1 2.5-.5-1.3-1.7-1.9-3.5-1.9-.5 2.2-2.6 2.6-4.1 3.7-1.6 2.9-1 6.7-2.3 9.3-.9 1.6-4 3.3-5.3 5-.1 3.6-1.4 5.9-2.9 8.1v16.2c2 2.4 3.8 5.1 4.7 8.7 2.7 1.7 4.5 4.4 8.2 5 2.4-.6 5.1-.8 8.2-.6 1.2-1 1.1-3.4 3.5-3.1 1 .1.3 2.1 1.2 2.5 2.7-.4 3.7 1 5.8 1.3 1-.5 1.5-1.7 3.5-1.3.6 4.8-1.2 7-1.2 11.2 1.7 3.2 4.5 5.6 3.5 10 1.5 2.1 1.6 5.7 2.3 8.7-1.4 2.8-1.1 7.5-2.3 10.6 2.5 2.5 4.3 5.8 5.3 10v5.6c2.6 3.2 2.5 9.3 5.2 12.5 5.6-.4 8.4-3.8 13.4-5 .9-3.4 2.7-5.9 5.2-7.5-.3-2.4 1-3 .6-5.6 1-.6 1.5-1.7 3.5-1.3.1-7.2 2.4-11.9 7-14.3.9-5.1.9-12.4 0-17.4 1.2-2.4 2.2-5.1 2.9-8.1 1.4-1 2.6-2.2 4.1-3.1 2.8-4.3 5.3-8.9 8.2-13.1.4-2.3 1.2-5.5-.6-6.9-2.5-.4-2.3 2-4.6 1.9h-5.3c-.3-4.3-3.2-5.7-5.3-8.1.5-4.1-3.5-3.4-2.3-8.1-1-1.4-2.8-2-3.5-3.7.5-1.9-.8-4.8 0-5 1.4 1.1 3 4.3 2.3 5.6 2.4 2.6 4.1 6 6.4 8.7 1.4 2.6 1.2 6.5 4.1 8.7 4.1-1.4 6.9-4.2 11.6-5 .8-.4.1-2.4 1.2-2.5 2.5-.4 3.6-2.4 5.8-3.1-.4-2.7 1.7-2.8 1.8-5-1-2.2-4-2.4-3.5-6.2-2.2-.3-3.7.2-4.7 1.2-.5-2.4-2.6-3-2.3-6.2-1.9.2-1.7-1.9-2.9-2.5.9-.3 1.5-.9 2.3-1.3 3.2 2.2 2.3 8.8 8.2 8.1.2 1.2 1.7 1.1 1.2 3.1 2.8.3 3.2-1.9 5.8-1.9.6.4.6 1.4 1.7 1.3 4.1-.7 5.1 2 7.5 3.1-1-.2-1.1.5-1.1 1.3.6 1.2 2.7.8 3.5 1.9-.3 2 1 2.2.5 4.4 1.8 2.1 2.5 5.2 3.5 8.1 1.2 1.2 2.4 2.4 2.9 4.3v3.8c.7.9 2.5.6 4.1.6.8-4 2.9-6.5 2.3-11.8h2.3v-2.5c2.2.9 1.1-1.7 2.9-1.2-.2-2.9 2.1-3.1 2.9-5 1.4-1.2 3.1-2.1 5.2-2.5 1.3 1.7 1.3 4.8 3.5 5.6.2 1.5-1.1 1.3-.6 3.1.7 2 4.6.5 5.9 1.9-.8 1.3.3 1.9-.6 3.8 1.5.7 2.6 1.8 2.9 3.7-.2 1.2-1.7 1.1-1.2 3.1.2 1.9 1.8 2.2 1.2 5 2.8 2.6 5.5 5.4 8.7 7.5.2-4.1-2.7-4.9-2.9-8.7-1.6-1.2-3.2-2.4-4.1-4.4.3-2-.8-5.4 1.2-5.6 1.3 1.8 2.2 3.9 4.7 4.4.4.6.6 1.4.5 2.5 5.7-.8 7-6.2 6.4-13.7-.7-.6-2.1-.6-2.9-1.2.7-2.7-2.8-2.6-1.2-4.4 1.7-1.7 1.5 2.1 4.1 1.3.4-2.7 3.4-2.6 6.4-2.5 1.8-3 4.3-5.3 5.2-9.3.9.2 1-.6 1.7-.6 1-2.5-.1-7.2 1.8-8.7-1.2-.6-1.8-1.8-1.8-3.8-1-.8-2.3-1.3-2.3-3.1-.3-1.5 1.1-1.4.6-3.1 1.2.2 1.8-.1 1.7-1.3 1.7-.8-2.6-3.7 1.2-3.7.7 2 2.7 2.5 3.5 4.4-.6 3.3 1.1 4.2 2.9 5 3.5-2.7-.1-9.6 1.7-14.3 1.2-1.2 3-1.8 4.7-2.5 1.3-2.9 2.5-6 4.6-8.1.8-5-1.3-10.2 0-13.7-.8 3.6 1.3 4 1.8 6.2.1 3.9.3 7.6 2.9 8.7 1.1-1.1-.5-1.6 0-3.7 1.6-.1 1.2 1 2.3 0 .1-2-1.5-2.1-1.2-4.4-2.1-.4-2.7-2.5-3.5-4.3-.2-2.2.2-5.2-1.7-5.6-1.2.2-.1 2.8-1.7 2.5-1-4.6-4.9 2.9-6.4-1.9.4-1.5 1.5-2.1 2.3-3.1.7-2 .4-4.9 2.3-5.6 1.3 1.5 1.1-.9 2.9-.6 2.8.4 5.3 1.6 8.8 1.3-.2 1.1.4 1.2 1.1 1.2.8-.9 2.6-.6 4.1-.6.3-2-1-2.2-.6-4.3 1.2-.2 1.1-1.7 2.3-1.9 1.2.2 1.2 1.7 2.3 1.9-.3-1.4 1.7-3.4 2.3-1.9-1.9 4-4.6 7.1-5.2 12.4.4 1.7 1.7 2.4 2.3 3.7.3 2.4.7 4.7 2.3 5.6 1.5-1.6 2.3-3.8 4.1-5-.5-3.1 1.9-2.6.6-5 .1-1.3 1.5-1.2 1.7-2.5-.9-.7-2.6-.6-2.3-2.5.6-5.5 4.4-4.3 8.8-3.7.8-1 .8-2.9 1.8-3.7 3.4-.3 6-2 8.1-1.9.6-2.4-2.3-2-2.3-4.7zm-195.9 6.9c1.1 1.3 2.6 2.1 4.6 2.5v6.2c-1.3-.3.3-3.7-2.3-2.5-1.3 2.2-.5 6.5-2.3 8.1-1.9.2-3.4-.3-4.7 0-1.6.3-2 1.8-3.5 1.9.2-.8-1.7-2.2-1.7-.6-1.4-.2-1.4-1.7 0-1.9-1.3-1.5-2.2-3.4-2.3-6.2 2.9.3 1.8 8.8 7 6.2 1.3-2.5 2.2-5.5 3.5-8.1-.2-1.4-.7-2.6-1.2-3.7.3-5.9 4.5-7.6 6.4-11.8.7-.1 1.1.1 1.2.6-.5 4.2-5.2 3.9-4.7 9.3zm6.4 4.3c0-1.9 2.1-1.5 3.5-1.9.1 2-1.7 1.9-3.5 1.9zm4.7-24.3c-.3-.3.4-.8.6-.6.3.3-.4.8-.6.6zm10.5 89.7c-.3-.3.4-.8.6-.6.3.3-.5.8-.6.6zm.6-77.2c-.3-.3.4-.8.6-.6.2.3-.5.7-.6.6zm43.1-10c-1.1-.3-2.5-.2-2.3-1.9-1.7-.1.5-2.6 0 0 .4 1 2.8-.1 2.3 1.9zM344 34.4c-.3-.3.4-.8.6-.6.4.3-.4.8-.6.6zm1.8-.6c-.3-.3.4-.8.6-.6.3.3-.4.8-.6.6zm1.8-1.3c-.3-.3.4-.8.6-.6.2.3-.5.8-.6.6zm26.2 78.5c.8-1.2 1.3-2.8 3.5-2.5 0 1-.3 2.4.6 2.5-.9 1.9-2.6-.5-4.1 0z"/><path class="st0" d="M166.8 184.5c-1-1.2-1.7.3-2.9.6-.9-2.1-3.2-2.8-5.2-3.7h-4.1c-1-1.8-5-.5-5.3-3.1-1.6 0-3.4.3-3.5-1.2 1.7-2.9-1.7-10.9-7-8.1-1.8-1.2-3.2-2.8-3.5-5.6-3-.9-5.2-2.7-8.2-3.7-.8.2-.9 1.1-1.7 1.2-.8-2.2-3.6-2.3-4.1-5-1.9-.6-1.2 1.6-2.3 1.9-1.4-.4-1.5-2.1-2.9-2.5-.5 1.1-1.1 2.2-2.9 1.9-.9 2.6-3.2 3.6-4.7 5.6.1-2.1-.7-3-2.4-3.1-1.5.7-2.2 2.2-4.1 2.5-1.4-3 .6-5.9 0-10-1.1-2.2-4.9-1.3-7-2.5.6-2.7 2.3-4.2 1.8-8.1-2.8.4-3 .4-5.8 0-1.1 1.3-.6 4.4-2.3 5-7.8.4-2.9-10.7-4.7-15.6 2.1-.5 3.3-1.9 5.3-2.5 3.2-.3 3.9 2 7 1.8 0-.9-.1-1.7.6-1.8 2.8.1 6.6-.8 7 1.8-.3 3.6 1.3 5.3 4.1 5.6-.7-3.2-.4-4.2 0-6.2-.7-.9-1.7-1.5-1.7-3.1 1-4.1 3.6-6.6 7.6-7.5.5-1.8.5-1.9 0-3.7 1.4.2 2.2-.1 3-.6-1.5-3.4 1.9-2.7 1.1-6.8 1.9-.8 3.8-1.7 5.8-2.5.3-2-1.8-1.4-1.2-3.7 2.1-1.9 5.4-2.6 8.2-3.7.4 1.7-1.2 1.3-1.2 2.5 2.3-1 4.8-1.9 6.4-3.7-1.4-1-4.3-.4-4.1-3.1.3-1.7 2.2-1.7 3.5-2.5.2-1.5-1.1-1.3-.6-3.1 2.8 2.1 6.1-3 8.2-1.9-1.3 3.3-4.1 5.1-5.2 8.7 2.2.4 2.5-1.1 4.6-.6.1 1-.3 2.4.6 2.5.6-1.5 2.2.9 4.1 0-.3-1.4-1.1-3.2 0-4.4-2.1-.2-2.7-2.1-3.5-3.7.2-3.9.2-4.2 0-8.1-1.1-1.2-1.5 0-2.9 0 .1-2.9-2.7-2.9-2.9-5.6.4-.5.6-1.4.6-2.5-2.2-1.4-1.4-6-4.7-6.2-.3.9.7 3.2-.6 3.1-1.2-.4-3.8.8-4.1-.6v-6.2c-3.1 1.5-2.6-1.4-5.3-1.9-1.5 1.7-1.3-.7-2.9-.6-1.4-.3-1.3 1.1-2.9.6.9 6.2-1.6 9.7-.6 14.3-1 .2-2.9-1.8-3.5 0 .6 1.8 2 .4 2.3 1.2-2 1.4-2.1 4.8-2.9 7.5-1.3-1.9-1.6-5-2.3-7.5-1.2-1.2-1.2.3-2.3.6-.5-1.8-.9-.7-2.4-.6-1.7-1.9-3.7-3.5-6.4-4.4.9-3.1-2.1-2-1.8-4.4 1.3.3 1.1-.9 1.2-1.9 1.9-1.1 2.8-3.3 4.7-4.4 1.3-2.2 2.2-4.7 5.3-5 0-1.1-.7-1.3-.6-2.5 3.9-.8 6.1-1.3 8.7-2.5-.1-2.4 0-4.6.6-6.2-.7-.9-2.2-1-2.9-1.9 2.3-.2 4.3 0 5.2 1.2 1.1-1.9 2.8.7 4.7 0-.8 3.2 2.7 1.7 2.3 4.4-.6 4.6-6.9 3-7.6 7.5 1 1.5 3.4 1.4 5.8 1.2 3.6 1.8 5.1 5.8 9.9 6.2-1.3-3.2 1-3.1.6-6.8-.3-1.6-1.8-1.9-1.8-3.7 2.2.1 2.8 2 4.7 2.5-.2-1.6-.2-3.1 1.7-2.5-.4-1.9.6-2.3.6-3.7-1.6.4-1.1-1.3-1.7-1.9-2-.3-3.5-1.2-5.2-1.9.2-1.3 1.6-1.2 1.8-2.5-.8-1.5-2.6-1.8-2.4-4.4h-5.2c.3-2-1.6-1.6-1.7-3.1-2.5-.4-3.9.5-5.8.6.3-3.9-4.6-2.6-5.3-.6.2-2.3-.5-3.6-2.3-3.7-3 2-6.5 8.4-2.9 11.8.9.4 3-.7 2.9.6-.6 1.8-1.8 3-2.9 4.4-1.5-1.5 1.2-1.3.6-3.8-2-1.4-3.9-2.9-4.7-5.6-2.2.3-1.8-2.1-4.6-1.2.2 1.5-1.1 1.3-.6 3.1 2 .8 1.3 5.8 0 6.9-.9-.5-1.2-1.6-1.1-3.1-2.9-.4-2.9 2.3-5.3 2.5-2.2-1-4.5-1.8-5.8-3.7 2.6-.5 3.5.8 5.8.6 1.3-1.3-.3-1.8 0-3.7 3.2-.7 4.5-3.5 7.6-4.3-1.1-2-.8-3.4-1.1-5h-8.7c-1.3 1.7-4.2 1.7-4.7 4.3-.3-.9-.9-1.5-1.2-2.5-1.5 0-3.6.6-2.9-1.9 4.3 1 9.5-2.3 13.4-3.8 0 2.9 5 2.2 5.8.6-.4-1.4-.5-3.2-1.1-4.4-3.4.5-5.1 2.9-8.8 3.1v-3.7c-3.2-1.2-3.8 2.9-1.7 3.7-3.3.4-5.2-.7-8.1-.6.9 3.2-2.7 1.7-2.9 3.7 1.5.8 1.8-.3 2.3.6-.4.8-1.3 1.2-2.3 1.2-.9-3.6-5.6-3.2-9.9-3.1-.3 3-1.8 4.7-3.5 6.2-.1 2 1.5 2.1 1.2 4.4 2.9.2 4.3-1.2 6.4-1.9-1.2 3.4 3.2.7 3.5 2.5.4 1.7-2.7-.4-2.3 1.2 0 3.4 6.4-.1 5.3 4.4 2.2-1.4 2.9-1 5.2 0h.6c-.2-.7 1.7-2.1 1.8-.6-.1.7-.9.7-1.8.6.2 1.6 2.5 3.5 0 4.4-.7-.1-.5-1.2-.6-1.9-5.2-.5-7.8-3.7-14-3.1-1.8-.6-1.8-3-4.1-3.1-.3 1.8-1.8 2.2-3.5 2.5.2-1.4-.1-2.4-.6-3.1-2.3.1-2.3 2.6-4.7 2.5-2.2.5-2.8-.8-4.7-.6-.6.2-.4 1.2-1.2 1.2-.6 0-.5-.8-.6-1.2-1.4.2-2.2 1-4.1.6-4.6-3.1-13.6-1.6-18.6-4.4-4.4 2-10 2.6-12.8 3.1-1.3 2.4 1.1 2.5 1.7 4.4 2.2-.3 3.7.2 4.1 1.9-2.4-.9-2.1 1.1-2.9 1.9-1.1-.5-1.6-1.6-2.9-1.9-2.2 2.4-7.5 1.5-9.3 4.3 3.2-.1 4.4 2 4.7 5 3.1-1.2 5.4.2 8.2-.7-2.9 5.5-15 1.1-14 10.6 1.9 1.5 2.4 1.7 1.8 5 1.1.1 1.2-.8 2.3-.6 0 1-.3 2.4.6 2.5.8-2 .3 2.5 1.8 1.9.7-2.4 3.3-3 5.2-1.2-2.5 2.1-3.4 5.9-6.4 7.5-2.7.9-3.6 3.6-7 3.7.5 2-.9 1.9-1.2 3.1 2.7.4 3.6-1.1 6.4-.6.7-1.8 2.5-2.3 4.7-2.5 2.2-4.3 6-6.9 9.3-10h1.2c.6-.6.2-2.3 1.7-1.9 0-.4.1-.7.6-.6 0 .4-.1.7-.6.6.2 2.8-1.6 3.3-2.3 5 4.8.6 6-2.7 9.9-3.1.3-2.8-.3-4.7-.6-6.9 2.7.6 2.8-1.6 5.2-1.3 1.6 1.2 3 2.7 4.1 4.4 3.7 1.3 6.9 3.1 6.4 8.7 2.8-.4.1-3.4 2.4-3.7.1 5.3-.2 11 1.7 14.3-1.8 1.6-.6 2.3 0 4.4 0 1.2-1.6.8-1.1 2.5-.3 6.8-.7 11.4 0 18 1.5 1 2.6 2.6 4.1 3.7 1.6 2.4 1.5 6.7 3.5 8.7-.7.1-.5 1.1-.6 1.9 2.4.9 3 3.8 4.1 6.2 1.8-.5 1.7 1.1 3.5.6.1-2.7-1.1-2.1-1.1-5.6-.3 0-.7-.5 0-.6v.6c1.2-.3 1.1.9 1.1 1.9 1.8 1.4 3.4 3.1 4.7 5-.4 4.4 1.1 6.7 2.3 9.3 4.8 1.3 7.7 4.5 13.4 3.1.7 1.6 1.4 3 2.3 4.4 2.2-.5 2.8.8 4.6.6.6 1.5 1.7 2.3 2.9 3.1v1.9c3.4.4 4.1 3.6 7 4.4.6-.8.6-2.3 1.7-2.5.2 2.2 1.2 3.7 1.7 5.6 0 1.2-1.6.8-1.2 2.5.3 3.2-1.9 3.8-2.3 6.2-1.1 4.3 2.3 6.7 0 8.7 1 1.2 2.9 1.5 4.1 2.5-.5.9-1.9.9-2.9 1.2-.4 5 2.1 6.9 5.3 8.1.2 1.5-1.1 1.3-.6 3.1 2.2 1.8 3 5.1 6.4 5.6 1.1 2.8 2.9 4.8 2.9 8.7-.6.8-.5 2.3-1.1 3.1.8.4 1.1 1.3 1.1 2.5-1.6 2.8.7 6.1 0 10-3.1 2-1.7 9-2.9 13.1.9 1.7 2.4-1.1 2.9.6.5 3-2 2.9-2.9 4.3-.7 2 1.9.5 1.1 2.5-1.1 1.5.6 3-.6 5 .6 4.2 2.5 6.4 1.2 10 1.7 1.5 1.5 5 3.5 6.2-.1 1.1.7 1.3.6 2.5 1.5.3 2.4 1.2 3.5 1.9 2.2-.4 6 1 6.4-1.2-1.6-.4-2.7-1.2-3.5-2.5.4-2.1-2.4-.8-1.7-3.1-.2-2.7 1.7-3.2 1.7-5.6 1.5-.1 2.3-.9 2.3-2.5.3-2.2-2.1-1.5-1.8-3.7 1.6-1.9 4-8.1 0-8.7 3.9 1.1 3.8-2.2 4.7-4.3 3.1.2 4.2-1.8 6.4-2.5.4-2.9-.9-4-1.2-6.2h4.7c0-.6.7-.5 1.2-.6.3-1.5.5-3.2 2.3-3.1-.2-3.5 2.2-4.3 3.5-6.2v-4.3c1.1-1.1 1.8-2.6 2.9-3.8 2.8-.9 2.8-.9 5.3-1.9.3-4 3.1-7.5 1.2-11.8.9-.5 1.3-1.6 1.2-3.1.9.2 1-.6 1.8-.6.2-2.1 1.7-2.7 2.3-4.3 1.6-1.6-.1-3 1.7-3.7-.4-1.9.6-2.3.6-3.8-.3-2.3-.9-4-1.5-5.6zM140 81.1c.3.3-.4.8-.6.6-.3-.3.4-.8.6-.6zM95.1 32.5c1.8.6-.6 1.7-.6 2.5-1.8-.6.3-2.1.6-2.5zm-2.3 3.1c1.8-.3 2.1 1.2 4.1.6 0 2.5-2.3 2.5-4.1 3.1v-3.7zm-18.1 1.3c-.3-.3.4-.8.6-.6.3.3-.5.8-.6.6zm-12.3 89.7c.1-.7.6-.3.6 0-.1.7-.6.3-.6 0zm.6 1.2c1.4.2 1.3 1.9 2.3 2.5-.7 1.6-2.8-.7-2.3-2.5zM285.8 41.9c-.8-2.9-3.6-3.7-2.9-8.1 4.1-.4 5.7-3.5 8.7-5 3.7.4 5.5-1.1 5.9-4.3h-2.9c-.1.5 0 1.2-.6 1.2-4.4.5-7.6 2.2-11.1 3.7.3 3.2-2.8 2.8-2.3 6.2-.7 1.3-2.2 1.8-2.3 3.7 1.8 1.3 3.7 2.7 5.8 3.7.1-.7.7-1.2 1.7-1.1zM383.1 30.7c1.4-1 2.1-2.8 3.5-3.7-2.2-.3-2.7-2.9-4.7-2.5-.3 0-.5 1.5-1.2 1.2h-3.5c-.7 4.5 4.3 3 5.9 5zM197.1 58.7c.1-1.6 2.2-1 2.9-1.9.6-3.2-1.3-3.6-1.2-6.2-2.5.8-3.4-.4-5.8.6-1.6-.4-1.5-2.6-3.5-2.5.7 3-2.3 2.1-2.3 4.3 1.6.5 1.5-.9 2.9-.6-.3 1.5-2.2 1.3-1.7 3.7 2.9-.8 2.3 2.1 4.1 2.5.5-1.2 4-.6 4.6.1z"/><path class="st0" d="M117.2 58.7c-2.3-.7-.8-1.6-2.3-3.1-1.8.5-1.7-1.1-3.5-.6-.8 1.2-.3 3.8-2.9 3.1 0 2.2 1.9 2.5 4.1 2.5-.2-4.9 3.9 2 4.6-1.9zM219.9 81.1c-.8-.6-1.8-1-2.4-1.9.7-3.7-3.9-4.3-1.7-7.5-.8-.6-1.8-1-2.4-1.9.8-.5 1.8-.9 1.8-2.5-2.1-.2-3.3.7-4.6 1.2.4 3.4-.9 4.8-.6 8.1 1.4.9 2.1 1 2.9 1.2.2 2.2-2 3.4-2.9 2.5-.5 2.8.4 4.2 1.2 5.6-1 .6-3.1 0-2.9 1.9 2.9-.5 5.8-.9 9.3-.6.4-2.5.1-4.3 2.3-6.1z"/><path class="st0" d="M204.1 83.6c1.3-.7 3.5-.4 4.7-1.3-.6-2.6-.1-2.8 0-5.6h-2.9c0 2.8-1.3.8-2.3 1.9 0 1.8-.4 4.1.5 5zM404.1 101.7c1.1.1.4 2 1.8 1.9 1.3-1.5 1.1-4.6 3.5-5-3.1-.5-5-2.2-8.2-2.5.4 3-.7 4.3-.6 6.9 1.6 1.6 1.5-1.7 3.5-1.3z"/><path class="st0" d="M390.7 121c-.1 2.2 1.4 2.7 2.3 3.7.4-2.3 1.8-3.4 3.5-4.4.8 0 1.3.3 1.7.6 1.8-2.4 5.7-2.6 7.6-5-.1-4.4-1.3-7.8-1.2-12.5h-2.4c.7 2.9-.3 4.3.6 7.5-.5.2-.7.5-.6 1.3-2.1 1-3.1 1.7-5.2 3.7-2.1 1.1-5.8.5-5.8 3.7-.3 1.7 3.2-.5 2.9 1.2-1.1.2-2.2.2-3.4.2zM248.4 116c.2 1.7 1.9.5 3.5 1.9.4-2.3-.9-2.8-2.9-2.5.1.5-.2.5-.6.6zM378.4 137.2c.9.9 1.5 2.1 1.7 3.7 2.4-.1 2.2-3 2.4-5.6-1.4-1.4-3.4.4-4.1 1.9zM108.5 135.3v2.5h2.3c0-1.6-.8-2.4-2.3-2.5zM114.9 138.4c.2-1.4-.1-2.4-.6-3.1h-1.8c-.2 2.1.2 3.5 2.4 3.1zM115.5 137.8v3.1c1.2.3 1.6-.4 2.3-.6 0-1.6-.8-2.5-2.3-2.5zM114.3 147.7c2.1-.4 2.8.7 4.1 1.3 0-1.8 2.4-1.1 4-1.3-.8-4.1-4-3.6-7.6-3.7.4-1.7-1.2-1.3-1.2-2.5-1.3-.7-3.2-.7-3.5-2.5h-8.7c-.3 1.2-1.3 1.6-1.2 3.1 2.4.2 2.4-2.1 5.3-1.3 2.5.5 2.7 3.3 5.3 3.7 1.4.4 4.2-.8 4.6.6-2 .2-1.4 1.1-1.1 2.6zM120.1 140.9c-.2-.8-1.5-.5-2.3-.6-1.2 2.3 3 2.8 2.3.6zM380.8 147.7c.9 1.5 2.1 2.8 3.5 3.7.7-1.9 2.7-2.5 2.3-5.6-1.6-2.2-5.9-1.2-5.8 1.9zM366.8 149.6c1.6-.4 1.6-2.4 2.3-3.7-.5-.5-1.3-.7-2.3-.6-1.1 2.4-.8.5 0 4.3z"/><path class="st0" d="M107.9 146.5v2.5c2-.7 2 .2 4.1-.6.4-2.5-2.2-1.8-4.1-1.9zM123.6 149c2.1.2 4 .1 3.5-2.5h-3.5v2.5zM184.9 149c0 1.2-1.6.8-1.1 2.5h2.3c.1-1.4-.2-2.4-1.2-2.5zM385.5 159c1.2 1.3 1.6-.3 3.5 0-.2 1.4-1.3 2.7.6 3.1.8-1.8 2.5-2.8 5.2-2.5.5-2.9-1.9-2.6-2.9-3.7.2-2-.7-3-2.3-3.1-.8.8-.6 2.7-.6 4.4-2-1.2-2.6.3-3.5 1.8zM327.7 160.8c.8 3.7-2.2 4.4 0 6.2 1.8.3 1.6-1.7 2.9-1.9-.4-1.9-1.6-3.1-2.9-4.3zM366.2 177.6c.6 2.5 3.1 2.9 2.9 6.2 3.8-.9 3.2 2.8 7 1.9-.2-1.4 1.7-.7 1.8-1.9-.4-.1-1.1 0-1.2-.6 1.9-.9 1-4.7 2.9-5.6-1.3-2 .5-4.1-.6-5.6 1-.6 2-1.1 1.7-3.1-1.4-1.2-2.5-2.7-5.2-2.5-.5 6.5-8.2 5.3-9.3 11.2zM355.1 173.3c-.9-1.5-2.7-2.4-2.3-4.3-1.6.4-1.2-1.3-2.3-1.3.1 2.7-1.4-.1-2.9.6 0 7.3 8.2 5.8 7 14.3 2.9.3 3.7 4.4 6.4 3.1 1.3-2.4-1.2-5.1-1.1-8.1-1.9-1.2-4-3-4.8-4.3zM387.8 178.3c-.1-2.8-3.7-1.9-4.7-3.7-3 2.6-5.1 9.5-.6 11.8-.1-1.8.1-3.2 1.2-3.7 1.3 1.2 1.4 3.2 3.5 1.9-.3-2.6-2.3-3.4-2.3-6.2.7.7 2.1.7 2.9-.1zM400.6 175.8c-1.9-1.3-6.6-1-6.4 1.9 2 1.3 6.3.7 6.4-1.9zM407 178.3h-4.1c-.5.9-.9 2-2.3 1.9-1.8.5-1.1-1.7-2.9-1.3.2 1.6-2.3.5-1.8 2.5.1 1.4 1.5-.8 2.9 0 2.6 2.2 6 3.6 8.2 6.2v3.7c3.1-2 4.1 1.3 6.4 1.9 2-.1 1.4-3.1 4.1-2.5 1.4.9 2.9 4.7 5.2 2.5-1.2-.5-1.8-1.8-1.7-3.7-1.5-1.5-3.7-2.3-4.7-4.4v-1.9c-4.4-.1-5.7-3.8-9.3-4.9zM376.1 192.6c.3-2.2-2-1.5-1.7-3.7-4.8.1-8.1-1.3-11.7-2.5-.5 1.1-1.6 1.6-1.1 3.7 5.5 0 8.2 3.3 14.5 2.5zM419.3 216.9c.2-2.9-1-4.3-.6-7.5-1.1-.4-1.3-1.9-2.3-2.5-.2-4.8-4.2-5.5-3.5-11.2-1.1.1-1.3-.7-2.3-.6-1.5 2.6.6 9-1.8 10.6-2.3.8-1.2-2.1-3.5-1.3-.1-1.7-2.8-.8-2.3-3.1-.3-2 2.9-.2 2.3-2.5-2-2.4-8-.6-11.1-1.9-1 .4 0 2.9-1.2 3.1-2.2.4-4.1 1-5.8 1.9-.7 1.9-.2 5.2-2.3 5.6-1.4-1.5-2.9.1-4.7 0-1.1.4.1 3.5-1.1 3.7-1.2-.3-1.1-1.9-2.3-.6-1.5 1.6-.8 5.4-2.9 6.2-1.3.9-3.9.4-4.7 1.9.6 2.8 2 6.2.6 9.3 1.1.4 1.5 1.7 1.7 3.1.3 2.8-1 3.9-.6 6.8 1.7-.2 1.8 1.4 3.5 1.3 2.4-1.1 3.9-3.3 8.2-2.5 2.1-2.8 6.1-3.4 11.1-3.1 1.7 1.3 2.7 3.3 3.5 5.6 2.3-1.2 1.6 1.4 4.1 0 0 1.6.2 3.5-.6 4.4 3.7 2.3 5.9 2.4 11.7 2.5 1.5-1.1 2.6-2.7 4.7-3.2-.3-3.2 2.8-2.8 2.3-6.2 2-.1 1.5-3 3.5-3.1-.7-2.2 1-3.5 1.2-5.6.3-3.8-1.1-7.7-1.7-11.2-1.7-.8-2.6 1.9-3.1.1zM283.4 196.9c-1 1.8-1.9 3.8-2.3 6.2-2.5.6-3.8 2.5-5.2 4.4-.5 2.2.8 2.4.6 4.4-.5 1.3-.9 2.8-1.8 3.7 1.3 2.8-.4 5.3 1.8 7.5 1.9.1 2.5-1.1 4.7-.6 1.3-2.8.8-4 2.3-6.8v-3.1c.1-.7.6-1 1.2-1.3-1.1-2.7 1.1-5.3 1.2-10-2.3 0-.1-4.6-2.5-4.4zM451.3 239.3c.1-1.8.1-3.4-1.7-3.1v5c-.5 1.8-2.8 1.6-2.3 4.4 3.9-.6 1.3 1.9 1.2 3.7 3.7-.2 3.8-4.3 5.3-6.8.9-.9 2.4-1.1 2.9-2.5-1.5-2-2.6-.5-5.4-.7zM444.9 246.8c-.5 1.3-1.8 1.8-1.7 3.7-1 0-1.8.1-2.4.6-1 1.2-1.4 3.1-2.9 3.7-2.4 1-3.1 3.7-4.1 6.2 1.9-1 3.2-.3 5.2 0 .6-1.5 2.4-1.7 1.8-4.4h2.4c.2-3.5 4.6-2.5 4.6-6.2-.2-2-1.7-2.6-2.9-3.6zM405.3 248.6c-.7 1 1.9 3.8 2.3 5.6 2.8-.3 4.7-1.7 4.1-5.6-2.5.5-5.4-.8-6.4 0zM141.1 267.9h2.3c.5-2.4-2.4-2-2.3 0z"/></g></svg>